%TF.GenerationSoftware,KiCad,Pcbnew,5.1.9-73d0e3b20d~88~ubuntu20.10.1*%
%TF.CreationDate,2021-01-20T16:53:29+01:00*%
%TF.ProjectId,makita_protector,6d616b69-7461-45f7-9072-6f746563746f,rev?*%
%TF.SameCoordinates,Original*%
%TF.FileFunction,Copper,L1,Top*%
%TF.FilePolarity,Positive*%
%FSLAX46Y46*%
G04 Gerber Fmt 4.6, Leading zero omitted, Abs format (unit mm)*
G04 Created by KiCad (PCBNEW 5.1.9-73d0e3b20d~88~ubuntu20.10.1) date 2021-01-20 16:53:29*
%MOMM*%
%LPD*%
G01*
G04 APERTURE LIST*
%TA.AperFunction,SMDPad,CuDef*%
%ADD10C,1.000000*%
%TD*%
%TA.AperFunction,SMDPad,CuDef*%
%ADD11R,3.500000X10.200000*%
%TD*%
%TA.AperFunction,ComponentPad*%
%ADD12C,3.000000*%
%TD*%
%TA.AperFunction,ComponentPad*%
%ADD13O,5.500000X34.000000*%
%TD*%
%TA.AperFunction,SMDPad,CuDef*%
%ADD14R,0.650000X1.060000*%
%TD*%
%TA.AperFunction,SMDPad,CuDef*%
%ADD15R,0.800000X0.900000*%
%TD*%
%TA.AperFunction,SMDPad,CuDef*%
%ADD16C,0.100000*%
%TD*%
%TA.AperFunction,SMDPad,CuDef*%
%ADD17R,0.990000X0.405000*%
%TD*%
%TA.AperFunction,SMDPad,CuDef*%
%ADD18R,0.900000X0.800000*%
%TD*%
%TA.AperFunction,ViaPad*%
%ADD19C,0.600000*%
%TD*%
%TA.AperFunction,Conductor*%
%ADD20C,0.500000*%
%TD*%
%TA.AperFunction,Conductor*%
%ADD21C,0.250000*%
%TD*%
%TA.AperFunction,Conductor*%
%ADD22C,1.000000*%
%TD*%
%TA.AperFunction,Conductor*%
%ADD23C,2.500000*%
%TD*%
%TA.AperFunction,Conductor*%
%ADD24C,0.254000*%
%TD*%
%TA.AperFunction,Conductor*%
%ADD25C,0.100000*%
%TD*%
%TA.AperFunction,Conductor*%
%ADD26C,0.200000*%
%TD*%
G04 APERTURE END LIST*
D10*
%TO.P,FID3,*%
%TO.N,*%
X164084000Y-99314000D03*
%TD*%
%TO.P,FID2,*%
%TO.N,*%
X169926000Y-58928000D03*
%TD*%
%TO.P,FID1,*%
%TO.N,*%
X129794000Y-58420000D03*
%TD*%
D11*
%TO.P,L1,2*%
%TO.N,+12V*%
X138749500Y-96012000D03*
%TO.P,L1,1*%
%TO.N,Net-(C4-Pad1)*%
X145349500Y-96012000D03*
%TD*%
D12*
%TO.P,J6,1*%
%TO.N,GND*%
X136652000Y-72136000D03*
%TD*%
%TO.P,J5,1*%
%TO.N,Net-(J5-Pad1)*%
X136652000Y-58674000D03*
%TD*%
%TO.P,J4,1*%
%TO.N,GND*%
X139954000Y-70104000D03*
%TD*%
%TO.P,J3,1*%
%TO.N,Net-(C3-Pad2)*%
X136652000Y-65278000D03*
%TD*%
%TO.P,J2,1*%
%TO.N,GND*%
X139954000Y-73914000D03*
%TD*%
%TO.P,J1,1*%
%TO.N,+12V*%
X148844000Y-106172000D03*
%TD*%
D13*
%TO.P,BT1,2*%
%TO.N,GND*%
X130575000Y-85000000D03*
%TO.P,BT1,1*%
%TO.N,Net-(BT1-Pad1)*%
X169425000Y-85000000D03*
%TD*%
%TO.P,R23,2*%
%TO.N,+12V*%
%TA.AperFunction,SMDPad,CuDef*%
G36*
G01*
X153151502Y-102935000D02*
X152251498Y-102935000D01*
G75*
G02*
X152001500Y-102685002I0J249998D01*
G01*
X152001500Y-102159998D01*
G75*
G02*
X152251498Y-101910000I249998J0D01*
G01*
X153151502Y-101910000D01*
G75*
G02*
X153401500Y-102159998I0J-249998D01*
G01*
X153401500Y-102685002D01*
G75*
G02*
X153151502Y-102935000I-249998J0D01*
G01*
G37*
%TD.AperFunction*%
%TO.P,R23,1*%
%TA.AperFunction,SMDPad,CuDef*%
G36*
G01*
X153151502Y-104760000D02*
X152251498Y-104760000D01*
G75*
G02*
X152001500Y-104510002I0J249998D01*
G01*
X152001500Y-103984998D01*
G75*
G02*
X152251498Y-103735000I249998J0D01*
G01*
X153151502Y-103735000D01*
G75*
G02*
X153401500Y-103984998I0J-249998D01*
G01*
X153401500Y-104510002D01*
G75*
G02*
X153151502Y-104760000I-249998J0D01*
G01*
G37*
%TD.AperFunction*%
%TD*%
%TO.P,R22,2*%
%TO.N,+12V*%
%TA.AperFunction,SMDPad,CuDef*%
G36*
G01*
X139388002Y-102827500D02*
X138487998Y-102827500D01*
G75*
G02*
X138238000Y-102577502I0J249998D01*
G01*
X138238000Y-102052498D01*
G75*
G02*
X138487998Y-101802500I249998J0D01*
G01*
X139388002Y-101802500D01*
G75*
G02*
X139638000Y-102052498I0J-249998D01*
G01*
X139638000Y-102577502D01*
G75*
G02*
X139388002Y-102827500I-249998J0D01*
G01*
G37*
%TD.AperFunction*%
%TO.P,R22,1*%
%TA.AperFunction,SMDPad,CuDef*%
G36*
G01*
X139388002Y-104652500D02*
X138487998Y-104652500D01*
G75*
G02*
X138238000Y-104402502I0J249998D01*
G01*
X138238000Y-103877498D01*
G75*
G02*
X138487998Y-103627500I249998J0D01*
G01*
X139388002Y-103627500D01*
G75*
G02*
X139638000Y-103877498I0J-249998D01*
G01*
X139638000Y-104402502D01*
G75*
G02*
X139388002Y-104652500I-249998J0D01*
G01*
G37*
%TD.AperFunction*%
%TD*%
D11*
%TO.P,L2,2*%
%TO.N,+12V*%
X152513000Y-96119500D03*
%TO.P,L2,1*%
%TO.N,Net-(C14-Pad1)*%
X159113000Y-96119500D03*
%TD*%
D14*
%TO.P,U3,5*%
%TO.N,Net-(R11-Pad2)*%
X157718000Y-81430500D03*
%TO.P,U3,6*%
%TO.N,Net-(C14-Pad2)*%
X156768000Y-81430500D03*
%TO.P,U3,4*%
%TO.N,Net-(C16-Pad2)*%
X158668000Y-81430500D03*
%TO.P,U3,3*%
%TO.N,VBUS*%
X158668000Y-83630500D03*
%TO.P,U3,2*%
%TO.N,Net-(C14-Pad1)*%
X157718000Y-83630500D03*
%TO.P,U3,1*%
%TO.N,GND*%
X156768000Y-83630500D03*
%TD*%
%TO.P,R19,2*%
%TO.N,GND*%
%TA.AperFunction,SMDPad,CuDef*%
G36*
G01*
X155032000Y-79032498D02*
X155032000Y-79932502D01*
G75*
G02*
X154782002Y-80182500I-249998J0D01*
G01*
X154256998Y-80182500D01*
G75*
G02*
X154007000Y-79932502I0J249998D01*
G01*
X154007000Y-79032498D01*
G75*
G02*
X154256998Y-78782500I249998J0D01*
G01*
X154782002Y-78782500D01*
G75*
G02*
X155032000Y-79032498I0J-249998D01*
G01*
G37*
%TD.AperFunction*%
%TO.P,R19,1*%
%TO.N,Net-(C16-Pad2)*%
%TA.AperFunction,SMDPad,CuDef*%
G36*
G01*
X156857000Y-79032498D02*
X156857000Y-79932502D01*
G75*
G02*
X156607002Y-80182500I-249998J0D01*
G01*
X156081998Y-80182500D01*
G75*
G02*
X155832000Y-79932502I0J249998D01*
G01*
X155832000Y-79032498D01*
G75*
G02*
X156081998Y-78782500I249998J0D01*
G01*
X156607002Y-78782500D01*
G75*
G02*
X156857000Y-79032498I0J-249998D01*
G01*
G37*
%TD.AperFunction*%
%TD*%
%TO.P,R18,2*%
%TO.N,Net-(C16-Pad2)*%
%TA.AperFunction,SMDPad,CuDef*%
G36*
G01*
X159807998Y-78866500D02*
X160708002Y-78866500D01*
G75*
G02*
X160958000Y-79116498I0J-249998D01*
G01*
X160958000Y-79641502D01*
G75*
G02*
X160708002Y-79891500I-249998J0D01*
G01*
X159807998Y-79891500D01*
G75*
G02*
X159558000Y-79641502I0J249998D01*
G01*
X159558000Y-79116498D01*
G75*
G02*
X159807998Y-78866500I249998J0D01*
G01*
G37*
%TD.AperFunction*%
%TO.P,R18,1*%
%TO.N,Net-(C16-Pad1)*%
%TA.AperFunction,SMDPad,CuDef*%
G36*
G01*
X159807998Y-77041500D02*
X160708002Y-77041500D01*
G75*
G02*
X160958000Y-77291498I0J-249998D01*
G01*
X160958000Y-77816502D01*
G75*
G02*
X160708002Y-78066500I-249998J0D01*
G01*
X159807998Y-78066500D01*
G75*
G02*
X159558000Y-77816502I0J249998D01*
G01*
X159558000Y-77291498D01*
G75*
G02*
X159807998Y-77041500I249998J0D01*
G01*
G37*
%TD.AperFunction*%
%TD*%
%TO.P,R17,2*%
%TO.N,Net-(C16-Pad1)*%
%TA.AperFunction,SMDPad,CuDef*%
G36*
G01*
X155832000Y-77900502D02*
X155832000Y-77000498D01*
G75*
G02*
X156081998Y-76750500I249998J0D01*
G01*
X156607002Y-76750500D01*
G75*
G02*
X156857000Y-77000498I0J-249998D01*
G01*
X156857000Y-77900502D01*
G75*
G02*
X156607002Y-78150500I-249998J0D01*
G01*
X156081998Y-78150500D01*
G75*
G02*
X155832000Y-77900502I0J249998D01*
G01*
G37*
%TD.AperFunction*%
%TO.P,R17,1*%
%TO.N,+12V*%
%TA.AperFunction,SMDPad,CuDef*%
G36*
G01*
X154007000Y-77900502D02*
X154007000Y-77000498D01*
G75*
G02*
X154256998Y-76750500I249998J0D01*
G01*
X154782002Y-76750500D01*
G75*
G02*
X155032000Y-77000498I0J-249998D01*
G01*
X155032000Y-77900502D01*
G75*
G02*
X154782002Y-78150500I-249998J0D01*
G01*
X154256998Y-78150500D01*
G75*
G02*
X154007000Y-77900502I0J249998D01*
G01*
G37*
%TD.AperFunction*%
%TD*%
%TO.P,R12,2*%
%TO.N,GND*%
%TA.AperFunction,SMDPad,CuDef*%
G36*
G01*
X162813502Y-78707500D02*
X161913498Y-78707500D01*
G75*
G02*
X161663500Y-78457502I0J249998D01*
G01*
X161663500Y-77932498D01*
G75*
G02*
X161913498Y-77682500I249998J0D01*
G01*
X162813502Y-77682500D01*
G75*
G02*
X163063500Y-77932498I0J-249998D01*
G01*
X163063500Y-78457502D01*
G75*
G02*
X162813502Y-78707500I-249998J0D01*
G01*
G37*
%TD.AperFunction*%
%TO.P,R12,1*%
%TO.N,Net-(R11-Pad2)*%
%TA.AperFunction,SMDPad,CuDef*%
G36*
G01*
X162813502Y-80532500D02*
X161913498Y-80532500D01*
G75*
G02*
X161663500Y-80282502I0J249998D01*
G01*
X161663500Y-79757498D01*
G75*
G02*
X161913498Y-79507500I249998J0D01*
G01*
X162813502Y-79507500D01*
G75*
G02*
X163063500Y-79757498I0J-249998D01*
G01*
X163063500Y-80282502D01*
G75*
G02*
X162813502Y-80532500I-249998J0D01*
G01*
G37*
%TD.AperFunction*%
%TD*%
%TO.P,R11,2*%
%TO.N,Net-(R11-Pad2)*%
%TA.AperFunction,SMDPad,CuDef*%
G36*
G01*
X161213502Y-82307500D02*
X160313498Y-82307500D01*
G75*
G02*
X160063500Y-82057502I0J249998D01*
G01*
X160063500Y-81532498D01*
G75*
G02*
X160313498Y-81282500I249998J0D01*
G01*
X161213502Y-81282500D01*
G75*
G02*
X161463500Y-81532498I0J-249998D01*
G01*
X161463500Y-82057502D01*
G75*
G02*
X161213502Y-82307500I-249998J0D01*
G01*
G37*
%TD.AperFunction*%
%TO.P,R11,1*%
%TO.N,VBUS*%
%TA.AperFunction,SMDPad,CuDef*%
G36*
G01*
X161213502Y-84132500D02*
X160313498Y-84132500D01*
G75*
G02*
X160063500Y-83882502I0J249998D01*
G01*
X160063500Y-83357498D01*
G75*
G02*
X160313498Y-83107500I249998J0D01*
G01*
X161213502Y-83107500D01*
G75*
G02*
X161463500Y-83357498I0J-249998D01*
G01*
X161463500Y-83882502D01*
G75*
G02*
X161213502Y-84132500I-249998J0D01*
G01*
G37*
%TD.AperFunction*%
%TD*%
%TO.P,C18,2*%
%TO.N,GND*%
%TA.AperFunction,SMDPad,CuDef*%
G36*
G01*
X154812001Y-87218500D02*
X153511999Y-87218500D01*
G75*
G02*
X153262000Y-86968501I0J249999D01*
G01*
X153262000Y-86318499D01*
G75*
G02*
X153511999Y-86068500I249999J0D01*
G01*
X154812001Y-86068500D01*
G75*
G02*
X155062000Y-86318499I0J-249999D01*
G01*
X155062000Y-86968501D01*
G75*
G02*
X154812001Y-87218500I-249999J0D01*
G01*
G37*
%TD.AperFunction*%
%TO.P,C18,1*%
%TO.N,+12V*%
%TA.AperFunction,SMDPad,CuDef*%
G36*
G01*
X154812001Y-90168500D02*
X153511999Y-90168500D01*
G75*
G02*
X153262000Y-89918501I0J249999D01*
G01*
X153262000Y-89268499D01*
G75*
G02*
X153511999Y-89018500I249999J0D01*
G01*
X154812001Y-89018500D01*
G75*
G02*
X155062000Y-89268499I0J-249999D01*
G01*
X155062000Y-89918501D01*
G75*
G02*
X154812001Y-90168500I-249999J0D01*
G01*
G37*
%TD.AperFunction*%
%TD*%
%TO.P,C17,2*%
%TO.N,GND*%
%TA.AperFunction,SMDPad,CuDef*%
G36*
G01*
X152272001Y-87218500D02*
X150971999Y-87218500D01*
G75*
G02*
X150722000Y-86968501I0J249999D01*
G01*
X150722000Y-86318499D01*
G75*
G02*
X150971999Y-86068500I249999J0D01*
G01*
X152272001Y-86068500D01*
G75*
G02*
X152522000Y-86318499I0J-249999D01*
G01*
X152522000Y-86968501D01*
G75*
G02*
X152272001Y-87218500I-249999J0D01*
G01*
G37*
%TD.AperFunction*%
%TO.P,C17,1*%
%TO.N,+12V*%
%TA.AperFunction,SMDPad,CuDef*%
G36*
G01*
X152272001Y-90168500D02*
X150971999Y-90168500D01*
G75*
G02*
X150722000Y-89918501I0J249999D01*
G01*
X150722000Y-89268499D01*
G75*
G02*
X150971999Y-89018500I249999J0D01*
G01*
X152272001Y-89018500D01*
G75*
G02*
X152522000Y-89268499I0J-249999D01*
G01*
X152522000Y-89918501D01*
G75*
G02*
X152272001Y-90168500I-249999J0D01*
G01*
G37*
%TD.AperFunction*%
%TD*%
%TO.P,C16,2*%
%TO.N,Net-(C16-Pad2)*%
%TA.AperFunction,SMDPad,CuDef*%
G36*
G01*
X157751000Y-78916500D02*
X158701000Y-78916500D01*
G75*
G02*
X158951000Y-79166500I0J-250000D01*
G01*
X158951000Y-79666500D01*
G75*
G02*
X158701000Y-79916500I-250000J0D01*
G01*
X157751000Y-79916500D01*
G75*
G02*
X157501000Y-79666500I0J250000D01*
G01*
X157501000Y-79166500D01*
G75*
G02*
X157751000Y-78916500I250000J0D01*
G01*
G37*
%TD.AperFunction*%
%TO.P,C16,1*%
%TO.N,Net-(C16-Pad1)*%
%TA.AperFunction,SMDPad,CuDef*%
G36*
G01*
X157751000Y-77016500D02*
X158701000Y-77016500D01*
G75*
G02*
X158951000Y-77266500I0J-250000D01*
G01*
X158951000Y-77766500D01*
G75*
G02*
X158701000Y-78016500I-250000J0D01*
G01*
X157751000Y-78016500D01*
G75*
G02*
X157501000Y-77766500I0J250000D01*
G01*
X157501000Y-77266500D01*
G75*
G02*
X157751000Y-77016500I250000J0D01*
G01*
G37*
%TD.AperFunction*%
%TD*%
%TO.P,C14,2*%
%TO.N,Net-(C14-Pad2)*%
%TA.AperFunction,SMDPad,CuDef*%
G36*
G01*
X155145000Y-82334500D02*
X154195000Y-82334500D01*
G75*
G02*
X153945000Y-82084500I0J250000D01*
G01*
X153945000Y-81584500D01*
G75*
G02*
X154195000Y-81334500I250000J0D01*
G01*
X155145000Y-81334500D01*
G75*
G02*
X155395000Y-81584500I0J-250000D01*
G01*
X155395000Y-82084500D01*
G75*
G02*
X155145000Y-82334500I-250000J0D01*
G01*
G37*
%TD.AperFunction*%
%TO.P,C14,1*%
%TO.N,Net-(C14-Pad1)*%
%TA.AperFunction,SMDPad,CuDef*%
G36*
G01*
X155145000Y-84234500D02*
X154195000Y-84234500D01*
G75*
G02*
X153945000Y-83984500I0J250000D01*
G01*
X153945000Y-83484500D01*
G75*
G02*
X154195000Y-83234500I250000J0D01*
G01*
X155145000Y-83234500D01*
G75*
G02*
X155395000Y-83484500I0J-250000D01*
G01*
X155395000Y-83984500D01*
G75*
G02*
X155145000Y-84234500I-250000J0D01*
G01*
G37*
%TD.AperFunction*%
%TD*%
%TO.P,C12,2*%
%TO.N,GND*%
%TA.AperFunction,SMDPad,CuDef*%
G36*
G01*
X157072000Y-88738499D02*
X157072000Y-90038501D01*
G75*
G02*
X156822001Y-90288500I-249999J0D01*
G01*
X156171999Y-90288500D01*
G75*
G02*
X155922000Y-90038501I0J249999D01*
G01*
X155922000Y-88738499D01*
G75*
G02*
X156171999Y-88488500I249999J0D01*
G01*
X156822001Y-88488500D01*
G75*
G02*
X157072000Y-88738499I0J-249999D01*
G01*
G37*
%TD.AperFunction*%
%TO.P,C12,1*%
%TO.N,VBUS*%
%TA.AperFunction,SMDPad,CuDef*%
G36*
G01*
X160022000Y-88738499D02*
X160022000Y-90038501D01*
G75*
G02*
X159772001Y-90288500I-249999J0D01*
G01*
X159121999Y-90288500D01*
G75*
G02*
X158872000Y-90038501I0J249999D01*
G01*
X158872000Y-88738499D01*
G75*
G02*
X159121999Y-88488500I249999J0D01*
G01*
X159772001Y-88488500D01*
G75*
G02*
X160022000Y-88738499I0J-249999D01*
G01*
G37*
%TD.AperFunction*%
%TD*%
%TO.P,C11,2*%
%TO.N,GND*%
%TA.AperFunction,SMDPad,CuDef*%
G36*
G01*
X157268000Y-86627500D02*
X157268000Y-87577500D01*
G75*
G02*
X157018000Y-87827500I-250000J0D01*
G01*
X156518000Y-87827500D01*
G75*
G02*
X156268000Y-87577500I0J250000D01*
G01*
X156268000Y-86627500D01*
G75*
G02*
X156518000Y-86377500I250000J0D01*
G01*
X157018000Y-86377500D01*
G75*
G02*
X157268000Y-86627500I0J-250000D01*
G01*
G37*
%TD.AperFunction*%
%TO.P,C11,1*%
%TO.N,VBUS*%
%TA.AperFunction,SMDPad,CuDef*%
G36*
G01*
X159168000Y-86627500D02*
X159168000Y-87577500D01*
G75*
G02*
X158918000Y-87827500I-250000J0D01*
G01*
X158418000Y-87827500D01*
G75*
G02*
X158168000Y-87577500I0J250000D01*
G01*
X158168000Y-86627500D01*
G75*
G02*
X158418000Y-86377500I250000J0D01*
G01*
X158918000Y-86377500D01*
G75*
G02*
X159168000Y-86627500I0J-250000D01*
G01*
G37*
%TD.AperFunction*%
%TD*%
%TO.P,F2,2*%
%TO.N,Net-(BT1-Pad1)*%
%TA.AperFunction,SMDPad,CuDef*%
G36*
G01*
X161894000Y-63502250D02*
X161894000Y-62989750D01*
G75*
G02*
X162112750Y-62771000I218750J0D01*
G01*
X162550250Y-62771000D01*
G75*
G02*
X162769000Y-62989750I0J-218750D01*
G01*
X162769000Y-63502250D01*
G75*
G02*
X162550250Y-63721000I-218750J0D01*
G01*
X162112750Y-63721000D01*
G75*
G02*
X161894000Y-63502250I0J218750D01*
G01*
G37*
%TD.AperFunction*%
%TO.P,F2,1*%
%TO.N,+BATT*%
%TA.AperFunction,SMDPad,CuDef*%
G36*
G01*
X160319000Y-63502250D02*
X160319000Y-62989750D01*
G75*
G02*
X160537750Y-62771000I218750J0D01*
G01*
X160975250Y-62771000D01*
G75*
G02*
X161194000Y-62989750I0J-218750D01*
G01*
X161194000Y-63502250D01*
G75*
G02*
X160975250Y-63721000I-218750J0D01*
G01*
X160537750Y-63721000D01*
G75*
G02*
X160319000Y-63502250I0J218750D01*
G01*
G37*
%TD.AperFunction*%
%TD*%
%TO.P,C4,2*%
%TO.N,Net-(C4-Pad2)*%
%TA.AperFunction,SMDPad,CuDef*%
G36*
G01*
X141381500Y-82227000D02*
X140431500Y-82227000D01*
G75*
G02*
X140181500Y-81977000I0J250000D01*
G01*
X140181500Y-81477000D01*
G75*
G02*
X140431500Y-81227000I250000J0D01*
G01*
X141381500Y-81227000D01*
G75*
G02*
X141631500Y-81477000I0J-250000D01*
G01*
X141631500Y-81977000D01*
G75*
G02*
X141381500Y-82227000I-250000J0D01*
G01*
G37*
%TD.AperFunction*%
%TO.P,C4,1*%
%TO.N,Net-(C4-Pad1)*%
%TA.AperFunction,SMDPad,CuDef*%
G36*
G01*
X141381500Y-84127000D02*
X140431500Y-84127000D01*
G75*
G02*
X140181500Y-83877000I0J250000D01*
G01*
X140181500Y-83377000D01*
G75*
G02*
X140431500Y-83127000I250000J0D01*
G01*
X141381500Y-83127000D01*
G75*
G02*
X141631500Y-83377000I0J-250000D01*
G01*
X141631500Y-83877000D01*
G75*
G02*
X141381500Y-84127000I-250000J0D01*
G01*
G37*
%TD.AperFunction*%
%TD*%
%TO.P,U2,8*%
%TO.N,VBUS*%
%TA.AperFunction,SMDPad,CuDef*%
G36*
G01*
X154779000Y-58491500D02*
X154779000Y-58191500D01*
G75*
G02*
X154929000Y-58041500I150000J0D01*
G01*
X156579000Y-58041500D01*
G75*
G02*
X156729000Y-58191500I0J-150000D01*
G01*
X156729000Y-58491500D01*
G75*
G02*
X156579000Y-58641500I-150000J0D01*
G01*
X154929000Y-58641500D01*
G75*
G02*
X154779000Y-58491500I0J150000D01*
G01*
G37*
%TD.AperFunction*%
%TO.P,U2,7*%
%TO.N,Net-(U2-Pad7)*%
%TA.AperFunction,SMDPad,CuDef*%
G36*
G01*
X154779000Y-59761500D02*
X154779000Y-59461500D01*
G75*
G02*
X154929000Y-59311500I150000J0D01*
G01*
X156579000Y-59311500D01*
G75*
G02*
X156729000Y-59461500I0J-150000D01*
G01*
X156729000Y-59761500D01*
G75*
G02*
X156579000Y-59911500I-150000J0D01*
G01*
X154929000Y-59911500D01*
G75*
G02*
X154779000Y-59761500I0J150000D01*
G01*
G37*
%TD.AperFunction*%
%TO.P,U2,6*%
%TO.N,Net-(R14-Pad2)*%
%TA.AperFunction,SMDPad,CuDef*%
G36*
G01*
X154779000Y-61031500D02*
X154779000Y-60731500D01*
G75*
G02*
X154929000Y-60581500I150000J0D01*
G01*
X156579000Y-60581500D01*
G75*
G02*
X156729000Y-60731500I0J-150000D01*
G01*
X156729000Y-61031500D01*
G75*
G02*
X156579000Y-61181500I-150000J0D01*
G01*
X154929000Y-61181500D01*
G75*
G02*
X154779000Y-61031500I0J150000D01*
G01*
G37*
%TD.AperFunction*%
%TO.P,U2,5*%
%TO.N,Net-(R13-Pad1)*%
%TA.AperFunction,SMDPad,CuDef*%
G36*
G01*
X154779000Y-62301500D02*
X154779000Y-62001500D01*
G75*
G02*
X154929000Y-61851500I150000J0D01*
G01*
X156579000Y-61851500D01*
G75*
G02*
X156729000Y-62001500I0J-150000D01*
G01*
X156729000Y-62301500D01*
G75*
G02*
X156579000Y-62451500I-150000J0D01*
G01*
X154929000Y-62451500D01*
G75*
G02*
X154779000Y-62301500I0J150000D01*
G01*
G37*
%TD.AperFunction*%
%TO.P,U2,4*%
%TO.N,GND*%
%TA.AperFunction,SMDPad,CuDef*%
G36*
G01*
X149829000Y-62301500D02*
X149829000Y-62001500D01*
G75*
G02*
X149979000Y-61851500I150000J0D01*
G01*
X151629000Y-61851500D01*
G75*
G02*
X151779000Y-62001500I0J-150000D01*
G01*
X151779000Y-62301500D01*
G75*
G02*
X151629000Y-62451500I-150000J0D01*
G01*
X149979000Y-62451500D01*
G75*
G02*
X149829000Y-62301500I0J150000D01*
G01*
G37*
%TD.AperFunction*%
%TO.P,U2,3*%
%TO.N,Net-(R10-Pad1)*%
%TA.AperFunction,SMDPad,CuDef*%
G36*
G01*
X149829000Y-61031500D02*
X149829000Y-60731500D01*
G75*
G02*
X149979000Y-60581500I150000J0D01*
G01*
X151629000Y-60581500D01*
G75*
G02*
X151779000Y-60731500I0J-150000D01*
G01*
X151779000Y-61031500D01*
G75*
G02*
X151629000Y-61181500I-150000J0D01*
G01*
X149979000Y-61181500D01*
G75*
G02*
X149829000Y-61031500I0J150000D01*
G01*
G37*
%TD.AperFunction*%
%TO.P,U2,2*%
%TO.N,Net-(C13-Pad1)*%
%TA.AperFunction,SMDPad,CuDef*%
G36*
G01*
X149829000Y-59761500D02*
X149829000Y-59461500D01*
G75*
G02*
X149979000Y-59311500I150000J0D01*
G01*
X151629000Y-59311500D01*
G75*
G02*
X151779000Y-59461500I0J-150000D01*
G01*
X151779000Y-59761500D01*
G75*
G02*
X151629000Y-59911500I-150000J0D01*
G01*
X149979000Y-59911500D01*
G75*
G02*
X149829000Y-59761500I0J150000D01*
G01*
G37*
%TD.AperFunction*%
%TO.P,U2,1*%
%TO.N,Net-(R10-Pad2)*%
%TA.AperFunction,SMDPad,CuDef*%
G36*
G01*
X149829000Y-58491500D02*
X149829000Y-58191500D01*
G75*
G02*
X149979000Y-58041500I150000J0D01*
G01*
X151629000Y-58041500D01*
G75*
G02*
X151779000Y-58191500I0J-150000D01*
G01*
X151779000Y-58491500D01*
G75*
G02*
X151629000Y-58641500I-150000J0D01*
G01*
X149979000Y-58641500D01*
G75*
G02*
X149829000Y-58491500I0J150000D01*
G01*
G37*
%TD.AperFunction*%
%TD*%
%TO.P,U1,5*%
%TO.N,Net-(R1-Pad2)*%
X143954500Y-81323000D03*
%TO.P,U1,6*%
%TO.N,Net-(C4-Pad2)*%
X143004500Y-81323000D03*
%TO.P,U1,4*%
%TO.N,Net-(C6-Pad2)*%
X144904500Y-81323000D03*
%TO.P,U1,3*%
%TO.N,VBUS*%
X144904500Y-83523000D03*
%TO.P,U1,2*%
%TO.N,Net-(C4-Pad1)*%
X143954500Y-83523000D03*
%TO.P,U1,1*%
%TO.N,GND*%
X143004500Y-83523000D03*
%TD*%
%TO.P,R21,2*%
%TO.N,GND*%
%TA.AperFunction,SMDPad,CuDef*%
G36*
G01*
X146539000Y-62097498D02*
X146539000Y-62997502D01*
G75*
G02*
X146289002Y-63247500I-249998J0D01*
G01*
X145763998Y-63247500D01*
G75*
G02*
X145514000Y-62997502I0J249998D01*
G01*
X145514000Y-62097498D01*
G75*
G02*
X145763998Y-61847500I249998J0D01*
G01*
X146289002Y-61847500D01*
G75*
G02*
X146539000Y-62097498I0J-249998D01*
G01*
G37*
%TD.AperFunction*%
%TO.P,R21,1*%
%TO.N,Net-(R10-Pad1)*%
%TA.AperFunction,SMDPad,CuDef*%
G36*
G01*
X148364000Y-62097498D02*
X148364000Y-62997502D01*
G75*
G02*
X148114002Y-63247500I-249998J0D01*
G01*
X147588998Y-63247500D01*
G75*
G02*
X147339000Y-62997502I0J249998D01*
G01*
X147339000Y-62097498D01*
G75*
G02*
X147588998Y-61847500I249998J0D01*
G01*
X148114002Y-61847500D01*
G75*
G02*
X148364000Y-62097498I0J-249998D01*
G01*
G37*
%TD.AperFunction*%
%TD*%
%TO.P,R20,2*%
%TO.N,Net-(R10-Pad1)*%
%TA.AperFunction,SMDPad,CuDef*%
G36*
G01*
X147339000Y-58933502D02*
X147339000Y-58033498D01*
G75*
G02*
X147588998Y-57783500I249998J0D01*
G01*
X148114002Y-57783500D01*
G75*
G02*
X148364000Y-58033498I0J-249998D01*
G01*
X148364000Y-58933502D01*
G75*
G02*
X148114002Y-59183500I-249998J0D01*
G01*
X147588998Y-59183500D01*
G75*
G02*
X147339000Y-58933502I0J249998D01*
G01*
G37*
%TD.AperFunction*%
%TO.P,R20,1*%
%TO.N,VBUS*%
%TA.AperFunction,SMDPad,CuDef*%
G36*
G01*
X145514000Y-58933502D02*
X145514000Y-58033498D01*
G75*
G02*
X145763998Y-57783500I249998J0D01*
G01*
X146289002Y-57783500D01*
G75*
G02*
X146539000Y-58033498I0J-249998D01*
G01*
X146539000Y-58933502D01*
G75*
G02*
X146289002Y-59183500I-249998J0D01*
G01*
X145763998Y-59183500D01*
G75*
G02*
X145514000Y-58933502I0J249998D01*
G01*
G37*
%TD.AperFunction*%
%TD*%
%TO.P,R16,2*%
%TO.N,Net-(J5-Pad1)*%
%TA.AperFunction,SMDPad,CuDef*%
G36*
G01*
X155467000Y-64585002D02*
X155467000Y-63684998D01*
G75*
G02*
X155716998Y-63435000I249998J0D01*
G01*
X156242002Y-63435000D01*
G75*
G02*
X156492000Y-63684998I0J-249998D01*
G01*
X156492000Y-64585002D01*
G75*
G02*
X156242002Y-64835000I-249998J0D01*
G01*
X155716998Y-64835000D01*
G75*
G02*
X155467000Y-64585002I0J249998D01*
G01*
G37*
%TD.AperFunction*%
%TO.P,R16,1*%
%TO.N,Net-(R10-Pad1)*%
%TA.AperFunction,SMDPad,CuDef*%
G36*
G01*
X153642000Y-64585002D02*
X153642000Y-63684998D01*
G75*
G02*
X153891998Y-63435000I249998J0D01*
G01*
X154417002Y-63435000D01*
G75*
G02*
X154667000Y-63684998I0J-249998D01*
G01*
X154667000Y-64585002D01*
G75*
G02*
X154417002Y-64835000I-249998J0D01*
G01*
X153891998Y-64835000D01*
G75*
G02*
X153642000Y-64585002I0J249998D01*
G01*
G37*
%TD.AperFunction*%
%TD*%
%TO.P,R15,2*%
%TO.N,Net-(C13-Pad1)*%
%TA.AperFunction,SMDPad,CuDef*%
G36*
G01*
X143059998Y-59074000D02*
X143960002Y-59074000D01*
G75*
G02*
X144210000Y-59323998I0J-249998D01*
G01*
X144210000Y-59849002D01*
G75*
G02*
X143960002Y-60099000I-249998J0D01*
G01*
X143059998Y-60099000D01*
G75*
G02*
X142810000Y-59849002I0J249998D01*
G01*
X142810000Y-59323998D01*
G75*
G02*
X143059998Y-59074000I249998J0D01*
G01*
G37*
%TD.AperFunction*%
%TO.P,R15,1*%
%TO.N,VBUS*%
%TA.AperFunction,SMDPad,CuDef*%
G36*
G01*
X143059998Y-57249000D02*
X143960002Y-57249000D01*
G75*
G02*
X144210000Y-57498998I0J-249998D01*
G01*
X144210000Y-58024002D01*
G75*
G02*
X143960002Y-58274000I-249998J0D01*
G01*
X143059998Y-58274000D01*
G75*
G02*
X142810000Y-58024002I0J249998D01*
G01*
X142810000Y-57498998D01*
G75*
G02*
X143059998Y-57249000I249998J0D01*
G01*
G37*
%TD.AperFunction*%
%TD*%
%TO.P,R14,2*%
%TO.N,Net-(R14-Pad2)*%
%TA.AperFunction,SMDPad,CuDef*%
G36*
G01*
X160077998Y-59074000D02*
X160978002Y-59074000D01*
G75*
G02*
X161228000Y-59323998I0J-249998D01*
G01*
X161228000Y-59849002D01*
G75*
G02*
X160978002Y-60099000I-249998J0D01*
G01*
X160077998Y-60099000D01*
G75*
G02*
X159828000Y-59849002I0J249998D01*
G01*
X159828000Y-59323998D01*
G75*
G02*
X160077998Y-59074000I249998J0D01*
G01*
G37*
%TD.AperFunction*%
%TO.P,R14,1*%
%TO.N,VBUS*%
%TA.AperFunction,SMDPad,CuDef*%
G36*
G01*
X160077998Y-57249000D02*
X160978002Y-57249000D01*
G75*
G02*
X161228000Y-57498998I0J-249998D01*
G01*
X161228000Y-58024002D01*
G75*
G02*
X160978002Y-58274000I-249998J0D01*
G01*
X160077998Y-58274000D01*
G75*
G02*
X159828000Y-58024002I0J249998D01*
G01*
X159828000Y-57498998D01*
G75*
G02*
X160077998Y-57249000I249998J0D01*
G01*
G37*
%TD.AperFunction*%
%TD*%
%TO.P,R13,2*%
%TO.N,GND*%
%TA.AperFunction,SMDPad,CuDef*%
G36*
G01*
X158045998Y-62820500D02*
X158946002Y-62820500D01*
G75*
G02*
X159196000Y-63070498I0J-249998D01*
G01*
X159196000Y-63595502D01*
G75*
G02*
X158946002Y-63845500I-249998J0D01*
G01*
X158045998Y-63845500D01*
G75*
G02*
X157796000Y-63595502I0J249998D01*
G01*
X157796000Y-63070498D01*
G75*
G02*
X158045998Y-62820500I249998J0D01*
G01*
G37*
%TD.AperFunction*%
%TO.P,R13,1*%
%TO.N,Net-(R13-Pad1)*%
%TA.AperFunction,SMDPad,CuDef*%
G36*
G01*
X158045998Y-60995500D02*
X158946002Y-60995500D01*
G75*
G02*
X159196000Y-61245498I0J-249998D01*
G01*
X159196000Y-61770502D01*
G75*
G02*
X158946002Y-62020500I-249998J0D01*
G01*
X158045998Y-62020500D01*
G75*
G02*
X157796000Y-61770502I0J249998D01*
G01*
X157796000Y-61245498D01*
G75*
G02*
X158045998Y-60995500I249998J0D01*
G01*
G37*
%TD.AperFunction*%
%TD*%
%TO.P,R10,2*%
%TO.N,Net-(R10-Pad2)*%
%TA.AperFunction,SMDPad,CuDef*%
G36*
G01*
X146539000Y-60065498D02*
X146539000Y-60965502D01*
G75*
G02*
X146289002Y-61215500I-249998J0D01*
G01*
X145763998Y-61215500D01*
G75*
G02*
X145514000Y-60965502I0J249998D01*
G01*
X145514000Y-60065498D01*
G75*
G02*
X145763998Y-59815500I249998J0D01*
G01*
X146289002Y-59815500D01*
G75*
G02*
X146539000Y-60065498I0J-249998D01*
G01*
G37*
%TD.AperFunction*%
%TO.P,R10,1*%
%TO.N,Net-(R10-Pad1)*%
%TA.AperFunction,SMDPad,CuDef*%
G36*
G01*
X148364000Y-60065498D02*
X148364000Y-60965502D01*
G75*
G02*
X148114002Y-61215500I-249998J0D01*
G01*
X147588998Y-61215500D01*
G75*
G02*
X147339000Y-60965502I0J249998D01*
G01*
X147339000Y-60065498D01*
G75*
G02*
X147588998Y-59815500I249998J0D01*
G01*
X148114002Y-59815500D01*
G75*
G02*
X148364000Y-60065498I0J-249998D01*
G01*
G37*
%TD.AperFunction*%
%TD*%
%TO.P,R9,2*%
%TO.N,Net-(C8-Pad1)*%
%TA.AperFunction,SMDPad,CuDef*%
G36*
G01*
X144418000Y-73856002D02*
X144418000Y-72955998D01*
G75*
G02*
X144667998Y-72706000I249998J0D01*
G01*
X145193002Y-72706000D01*
G75*
G02*
X145443000Y-72955998I0J-249998D01*
G01*
X145443000Y-73856002D01*
G75*
G02*
X145193002Y-74106000I-249998J0D01*
G01*
X144667998Y-74106000D01*
G75*
G02*
X144418000Y-73856002I0J249998D01*
G01*
G37*
%TD.AperFunction*%
%TO.P,R9,1*%
%TO.N,Net-(R10-Pad2)*%
%TA.AperFunction,SMDPad,CuDef*%
G36*
G01*
X142593000Y-73856002D02*
X142593000Y-72955998D01*
G75*
G02*
X142842998Y-72706000I249998J0D01*
G01*
X143368002Y-72706000D01*
G75*
G02*
X143618000Y-72955998I0J-249998D01*
G01*
X143618000Y-73856002D01*
G75*
G02*
X143368002Y-74106000I-249998J0D01*
G01*
X142842998Y-74106000D01*
G75*
G02*
X142593000Y-73856002I0J249998D01*
G01*
G37*
%TD.AperFunction*%
%TD*%
%TO.P,R8,2*%
%TO.N,Net-(Q2-Pad3)*%
%TA.AperFunction,SMDPad,CuDef*%
G36*
G01*
X152850002Y-70212000D02*
X151949998Y-70212000D01*
G75*
G02*
X151700000Y-69962002I0J249998D01*
G01*
X151700000Y-69436998D01*
G75*
G02*
X151949998Y-69187000I249998J0D01*
G01*
X152850002Y-69187000D01*
G75*
G02*
X153100000Y-69436998I0J-249998D01*
G01*
X153100000Y-69962002D01*
G75*
G02*
X152850002Y-70212000I-249998J0D01*
G01*
G37*
%TD.AperFunction*%
%TO.P,R8,1*%
%TO.N,Net-(C5-Pad1)*%
%TA.AperFunction,SMDPad,CuDef*%
G36*
G01*
X152850002Y-72037000D02*
X151949998Y-72037000D01*
G75*
G02*
X151700000Y-71787002I0J249998D01*
G01*
X151700000Y-71261998D01*
G75*
G02*
X151949998Y-71012000I249998J0D01*
G01*
X152850002Y-71012000D01*
G75*
G02*
X153100000Y-71261998I0J-249998D01*
G01*
X153100000Y-71787002D01*
G75*
G02*
X152850002Y-72037000I-249998J0D01*
G01*
G37*
%TD.AperFunction*%
%TD*%
%TO.P,R7,2*%
%TO.N,GND*%
%TA.AperFunction,SMDPad,CuDef*%
G36*
G01*
X141268500Y-78924998D02*
X141268500Y-79825002D01*
G75*
G02*
X141018502Y-80075000I-249998J0D01*
G01*
X140493498Y-80075000D01*
G75*
G02*
X140243500Y-79825002I0J249998D01*
G01*
X140243500Y-78924998D01*
G75*
G02*
X140493498Y-78675000I249998J0D01*
G01*
X141018502Y-78675000D01*
G75*
G02*
X141268500Y-78924998I0J-249998D01*
G01*
G37*
%TD.AperFunction*%
%TO.P,R7,1*%
%TO.N,Net-(C6-Pad2)*%
%TA.AperFunction,SMDPad,CuDef*%
G36*
G01*
X143093500Y-78924998D02*
X143093500Y-79825002D01*
G75*
G02*
X142843502Y-80075000I-249998J0D01*
G01*
X142318498Y-80075000D01*
G75*
G02*
X142068500Y-79825002I0J249998D01*
G01*
X142068500Y-78924998D01*
G75*
G02*
X142318498Y-78675000I249998J0D01*
G01*
X142843502Y-78675000D01*
G75*
G02*
X143093500Y-78924998I0J-249998D01*
G01*
G37*
%TD.AperFunction*%
%TD*%
%TO.P,R6,2*%
%TO.N,Net-(C6-Pad2)*%
%TA.AperFunction,SMDPad,CuDef*%
G36*
G01*
X146044498Y-78759000D02*
X146944502Y-78759000D01*
G75*
G02*
X147194500Y-79008998I0J-249998D01*
G01*
X147194500Y-79534002D01*
G75*
G02*
X146944502Y-79784000I-249998J0D01*
G01*
X146044498Y-79784000D01*
G75*
G02*
X145794500Y-79534002I0J249998D01*
G01*
X145794500Y-79008998D01*
G75*
G02*
X146044498Y-78759000I249998J0D01*
G01*
G37*
%TD.AperFunction*%
%TO.P,R6,1*%
%TO.N,Net-(C6-Pad1)*%
%TA.AperFunction,SMDPad,CuDef*%
G36*
G01*
X146044498Y-76934000D02*
X146944502Y-76934000D01*
G75*
G02*
X147194500Y-77183998I0J-249998D01*
G01*
X147194500Y-77709002D01*
G75*
G02*
X146944502Y-77959000I-249998J0D01*
G01*
X146044498Y-77959000D01*
G75*
G02*
X145794500Y-77709002I0J249998D01*
G01*
X145794500Y-77183998D01*
G75*
G02*
X146044498Y-76934000I249998J0D01*
G01*
G37*
%TD.AperFunction*%
%TD*%
%TO.P,R5,2*%
%TO.N,Net-(C6-Pad1)*%
%TA.AperFunction,SMDPad,CuDef*%
G36*
G01*
X142068500Y-77793002D02*
X142068500Y-76892998D01*
G75*
G02*
X142318498Y-76643000I249998J0D01*
G01*
X142843502Y-76643000D01*
G75*
G02*
X143093500Y-76892998I0J-249998D01*
G01*
X143093500Y-77793002D01*
G75*
G02*
X142843502Y-78043000I-249998J0D01*
G01*
X142318498Y-78043000D01*
G75*
G02*
X142068500Y-77793002I0J249998D01*
G01*
G37*
%TD.AperFunction*%
%TO.P,R5,1*%
%TO.N,+12V*%
%TA.AperFunction,SMDPad,CuDef*%
G36*
G01*
X140243500Y-77793002D02*
X140243500Y-76892998D01*
G75*
G02*
X140493498Y-76643000I249998J0D01*
G01*
X141018502Y-76643000D01*
G75*
G02*
X141268500Y-76892998I0J-249998D01*
G01*
X141268500Y-77793002D01*
G75*
G02*
X141018502Y-78043000I-249998J0D01*
G01*
X140493498Y-78043000D01*
G75*
G02*
X140243500Y-77793002I0J249998D01*
G01*
G37*
%TD.AperFunction*%
%TD*%
%TO.P,R4,2*%
%TO.N,Net-(C3-Pad1)*%
%TA.AperFunction,SMDPad,CuDef*%
G36*
G01*
X151238000Y-65843998D02*
X151238000Y-66744002D01*
G75*
G02*
X150988002Y-66994000I-249998J0D01*
G01*
X150462998Y-66994000D01*
G75*
G02*
X150213000Y-66744002I0J249998D01*
G01*
X150213000Y-65843998D01*
G75*
G02*
X150462998Y-65594000I249998J0D01*
G01*
X150988002Y-65594000D01*
G75*
G02*
X151238000Y-65843998I0J-249998D01*
G01*
G37*
%TD.AperFunction*%
%TO.P,R4,1*%
%TO.N,Net-(C5-Pad1)*%
%TA.AperFunction,SMDPad,CuDef*%
G36*
G01*
X153063000Y-65843998D02*
X153063000Y-66744002D01*
G75*
G02*
X152813002Y-66994000I-249998J0D01*
G01*
X152287998Y-66994000D01*
G75*
G02*
X152038000Y-66744002I0J249998D01*
G01*
X152038000Y-65843998D01*
G75*
G02*
X152287998Y-65594000I249998J0D01*
G01*
X152813002Y-65594000D01*
G75*
G02*
X153063000Y-65843998I0J-249998D01*
G01*
G37*
%TD.AperFunction*%
%TD*%
%TO.P,R3,2*%
%TO.N,Net-(C5-Pad1)*%
%TA.AperFunction,SMDPad,CuDef*%
G36*
G01*
X157791998Y-69107000D02*
X158692002Y-69107000D01*
G75*
G02*
X158942000Y-69356998I0J-249998D01*
G01*
X158942000Y-69882002D01*
G75*
G02*
X158692002Y-70132000I-249998J0D01*
G01*
X157791998Y-70132000D01*
G75*
G02*
X157542000Y-69882002I0J249998D01*
G01*
X157542000Y-69356998D01*
G75*
G02*
X157791998Y-69107000I249998J0D01*
G01*
G37*
%TD.AperFunction*%
%TO.P,R3,1*%
%TO.N,+BATT*%
%TA.AperFunction,SMDPad,CuDef*%
G36*
G01*
X157791998Y-67282000D02*
X158692002Y-67282000D01*
G75*
G02*
X158942000Y-67531998I0J-249998D01*
G01*
X158942000Y-68057002D01*
G75*
G02*
X158692002Y-68307000I-249998J0D01*
G01*
X157791998Y-68307000D01*
G75*
G02*
X157542000Y-68057002I0J249998D01*
G01*
X157542000Y-67531998D01*
G75*
G02*
X157791998Y-67282000I249998J0D01*
G01*
G37*
%TD.AperFunction*%
%TD*%
%TO.P,R2,2*%
%TO.N,GND*%
%TA.AperFunction,SMDPad,CuDef*%
G36*
G01*
X149050002Y-78600000D02*
X148149998Y-78600000D01*
G75*
G02*
X147900000Y-78350002I0J249998D01*
G01*
X147900000Y-77824998D01*
G75*
G02*
X148149998Y-77575000I249998J0D01*
G01*
X149050002Y-77575000D01*
G75*
G02*
X149300000Y-77824998I0J-249998D01*
G01*
X149300000Y-78350002D01*
G75*
G02*
X149050002Y-78600000I-249998J0D01*
G01*
G37*
%TD.AperFunction*%
%TO.P,R2,1*%
%TO.N,Net-(R1-Pad2)*%
%TA.AperFunction,SMDPad,CuDef*%
G36*
G01*
X149050002Y-80425000D02*
X148149998Y-80425000D01*
G75*
G02*
X147900000Y-80175002I0J249998D01*
G01*
X147900000Y-79649998D01*
G75*
G02*
X148149998Y-79400000I249998J0D01*
G01*
X149050002Y-79400000D01*
G75*
G02*
X149300000Y-79649998I0J-249998D01*
G01*
X149300000Y-80175002D01*
G75*
G02*
X149050002Y-80425000I-249998J0D01*
G01*
G37*
%TD.AperFunction*%
%TD*%
%TO.P,R1,2*%
%TO.N,Net-(R1-Pad2)*%
%TA.AperFunction,SMDPad,CuDef*%
G36*
G01*
X147450002Y-82200000D02*
X146549998Y-82200000D01*
G75*
G02*
X146300000Y-81950002I0J249998D01*
G01*
X146300000Y-81424998D01*
G75*
G02*
X146549998Y-81175000I249998J0D01*
G01*
X147450002Y-81175000D01*
G75*
G02*
X147700000Y-81424998I0J-249998D01*
G01*
X147700000Y-81950002D01*
G75*
G02*
X147450002Y-82200000I-249998J0D01*
G01*
G37*
%TD.AperFunction*%
%TO.P,R1,1*%
%TO.N,VBUS*%
%TA.AperFunction,SMDPad,CuDef*%
G36*
G01*
X147450002Y-84025000D02*
X146549998Y-84025000D01*
G75*
G02*
X146300000Y-83775002I0J249998D01*
G01*
X146300000Y-83249998D01*
G75*
G02*
X146549998Y-83000000I249998J0D01*
G01*
X147450002Y-83000000D01*
G75*
G02*
X147700000Y-83249998I0J-249998D01*
G01*
X147700000Y-83775002D01*
G75*
G02*
X147450002Y-84025000I-249998J0D01*
G01*
G37*
%TD.AperFunction*%
%TD*%
D15*
%TO.P,Q2,3*%
%TO.N,Net-(Q2-Pad3)*%
X147574000Y-69612000D03*
%TO.P,Q2,2*%
%TO.N,GND*%
X148524000Y-71612000D03*
%TO.P,Q2,1*%
%TO.N,Net-(C8-Pad1)*%
X146624000Y-71612000D03*
%TD*%
%TA.AperFunction,SMDPad,CuDef*%
D16*
%TO.P,Q1,5*%
%TO.N,VBUS*%
G36*
X163512000Y-67970500D02*
G01*
X163002000Y-67970500D01*
X163002000Y-68225500D01*
X163512000Y-68225500D01*
X163512000Y-68630500D01*
X163002000Y-68630500D01*
X163002000Y-68885500D01*
X163512000Y-68885500D01*
X163512000Y-69290500D01*
X163002000Y-69290500D01*
X163002000Y-69545500D01*
X163512000Y-69545500D01*
X163512000Y-69953000D01*
X162752000Y-69953000D01*
X162752000Y-69875500D01*
X161277000Y-69875500D01*
X161277000Y-67640500D01*
X162752000Y-67640500D01*
X162752000Y-67563000D01*
X163512000Y-67563000D01*
X163512000Y-67970500D01*
G37*
%TD.AperFunction*%
D17*
%TO.P,Q1,4*%
%TO.N,Net-(C5-Pad1)*%
X160147000Y-69748000D03*
%TO.P,Q1,3*%
%TO.N,+BATT*%
X160147000Y-69088000D03*
%TO.P,Q1,2*%
X160147000Y-68428000D03*
%TO.P,Q1,1*%
X160147000Y-67768000D03*
%TD*%
%TO.P,F1,2*%
%TO.N,Net-(BT1-Pad1)*%
%TA.AperFunction,SMDPad,CuDef*%
G36*
G01*
X162319000Y-66157000D02*
X162319000Y-64907000D01*
G75*
G02*
X162569000Y-64657000I250000J0D01*
G01*
X163319000Y-64657000D01*
G75*
G02*
X163569000Y-64907000I0J-250000D01*
G01*
X163569000Y-66157000D01*
G75*
G02*
X163319000Y-66407000I-250000J0D01*
G01*
X162569000Y-66407000D01*
G75*
G02*
X162319000Y-66157000I0J250000D01*
G01*
G37*
%TD.AperFunction*%
%TO.P,F1,1*%
%TO.N,+BATT*%
%TA.AperFunction,SMDPad,CuDef*%
G36*
G01*
X159519000Y-66157000D02*
X159519000Y-64907000D01*
G75*
G02*
X159769000Y-64657000I250000J0D01*
G01*
X160519000Y-64657000D01*
G75*
G02*
X160769000Y-64907000I0J-250000D01*
G01*
X160769000Y-66157000D01*
G75*
G02*
X160519000Y-66407000I-250000J0D01*
G01*
X159769000Y-66407000D01*
G75*
G02*
X159519000Y-66157000I0J250000D01*
G01*
G37*
%TD.AperFunction*%
%TD*%
D18*
%TO.P,D4,1*%
%TO.N,Net-(C13-Pad1)*%
X139589000Y-62230000D03*
%TO.P,D4,*%
%TO.N,*%
X141589000Y-61280000D03*
%TO.P,D4,2*%
%TO.N,GND*%
X141589000Y-63180000D03*
%TD*%
D15*
%TO.P,D3,1*%
%TO.N,Net-(C8-Pad1)*%
X144018000Y-69612000D03*
%TO.P,D3,*%
%TO.N,*%
X144968000Y-71612000D03*
%TO.P,D3,2*%
%TO.N,GND*%
X143068000Y-71612000D03*
%TD*%
%TO.P,D2,1*%
%TO.N,Net-(D1-Pad1)*%
X155194000Y-69612000D03*
%TO.P,D2,*%
%TO.N,*%
X156144000Y-71612000D03*
%TO.P,D2,2*%
%TO.N,Net-(C5-Pad1)*%
X154244000Y-71612000D03*
%TD*%
%TO.P,D1,1*%
%TO.N,Net-(D1-Pad1)*%
X155194000Y-68056000D03*
%TO.P,D1,*%
%TO.N,*%
X154244000Y-66056000D03*
%TO.P,D1,2*%
%TO.N,+BATT*%
X156144000Y-66056000D03*
%TD*%
%TO.P,C13,2*%
%TO.N,GND*%
%TA.AperFunction,SMDPad,CuDef*%
G36*
G01*
X143035000Y-62680000D02*
X143985000Y-62680000D01*
G75*
G02*
X144235000Y-62930000I0J-250000D01*
G01*
X144235000Y-63430000D01*
G75*
G02*
X143985000Y-63680000I-250000J0D01*
G01*
X143035000Y-63680000D01*
G75*
G02*
X142785000Y-63430000I0J250000D01*
G01*
X142785000Y-62930000D01*
G75*
G02*
X143035000Y-62680000I250000J0D01*
G01*
G37*
%TD.AperFunction*%
%TO.P,C13,1*%
%TO.N,Net-(C13-Pad1)*%
%TA.AperFunction,SMDPad,CuDef*%
G36*
G01*
X143035000Y-60780000D02*
X143985000Y-60780000D01*
G75*
G02*
X144235000Y-61030000I0J-250000D01*
G01*
X144235000Y-61530000D01*
G75*
G02*
X143985000Y-61780000I-250000J0D01*
G01*
X143035000Y-61780000D01*
G75*
G02*
X142785000Y-61530000I0J250000D01*
G01*
X142785000Y-61030000D01*
G75*
G02*
X143035000Y-60780000I250000J0D01*
G01*
G37*
%TD.AperFunction*%
%TD*%
%TO.P,C10,2*%
%TO.N,GND*%
%TA.AperFunction,SMDPad,CuDef*%
G36*
G01*
X158717000Y-58224000D02*
X157767000Y-58224000D01*
G75*
G02*
X157517000Y-57974000I0J250000D01*
G01*
X157517000Y-57474000D01*
G75*
G02*
X157767000Y-57224000I250000J0D01*
G01*
X158717000Y-57224000D01*
G75*
G02*
X158967000Y-57474000I0J-250000D01*
G01*
X158967000Y-57974000D01*
G75*
G02*
X158717000Y-58224000I-250000J0D01*
G01*
G37*
%TD.AperFunction*%
%TO.P,C10,1*%
%TO.N,VBUS*%
%TA.AperFunction,SMDPad,CuDef*%
G36*
G01*
X158717000Y-60124000D02*
X157767000Y-60124000D01*
G75*
G02*
X157517000Y-59874000I0J250000D01*
G01*
X157517000Y-59374000D01*
G75*
G02*
X157767000Y-59124000I250000J0D01*
G01*
X158717000Y-59124000D01*
G75*
G02*
X158967000Y-59374000I0J-250000D01*
G01*
X158967000Y-59874000D01*
G75*
G02*
X158717000Y-60124000I-250000J0D01*
G01*
G37*
%TD.AperFunction*%
%TD*%
%TO.P,C9,2*%
%TO.N,GND*%
%TA.AperFunction,SMDPad,CuDef*%
G36*
G01*
X141048501Y-87111000D02*
X139748499Y-87111000D01*
G75*
G02*
X139498500Y-86861001I0J249999D01*
G01*
X139498500Y-86210999D01*
G75*
G02*
X139748499Y-85961000I249999J0D01*
G01*
X141048501Y-85961000D01*
G75*
G02*
X141298500Y-86210999I0J-249999D01*
G01*
X141298500Y-86861001D01*
G75*
G02*
X141048501Y-87111000I-249999J0D01*
G01*
G37*
%TD.AperFunction*%
%TO.P,C9,1*%
%TO.N,+12V*%
%TA.AperFunction,SMDPad,CuDef*%
G36*
G01*
X141048501Y-90061000D02*
X139748499Y-90061000D01*
G75*
G02*
X139498500Y-89811001I0J249999D01*
G01*
X139498500Y-89160999D01*
G75*
G02*
X139748499Y-88911000I249999J0D01*
G01*
X141048501Y-88911000D01*
G75*
G02*
X141298500Y-89160999I0J-249999D01*
G01*
X141298500Y-89811001D01*
G75*
G02*
X141048501Y-90061000I-249999J0D01*
G01*
G37*
%TD.AperFunction*%
%TD*%
%TO.P,C8,2*%
%TO.N,GND*%
%TA.AperFunction,SMDPad,CuDef*%
G36*
G01*
X148024000Y-73881000D02*
X148024000Y-72931000D01*
G75*
G02*
X148274000Y-72681000I250000J0D01*
G01*
X148774000Y-72681000D01*
G75*
G02*
X149024000Y-72931000I0J-250000D01*
G01*
X149024000Y-73881000D01*
G75*
G02*
X148774000Y-74131000I-250000J0D01*
G01*
X148274000Y-74131000D01*
G75*
G02*
X148024000Y-73881000I0J250000D01*
G01*
G37*
%TD.AperFunction*%
%TO.P,C8,1*%
%TO.N,Net-(C8-Pad1)*%
%TA.AperFunction,SMDPad,CuDef*%
G36*
G01*
X146124000Y-73881000D02*
X146124000Y-72931000D01*
G75*
G02*
X146374000Y-72681000I250000J0D01*
G01*
X146874000Y-72681000D01*
G75*
G02*
X147124000Y-72931000I0J-250000D01*
G01*
X147124000Y-73881000D01*
G75*
G02*
X146874000Y-74131000I-250000J0D01*
G01*
X146374000Y-74131000D01*
G75*
G02*
X146124000Y-73881000I0J250000D01*
G01*
G37*
%TD.AperFunction*%
%TD*%
%TO.P,C7,2*%
%TO.N,GND*%
%TA.AperFunction,SMDPad,CuDef*%
G36*
G01*
X138508501Y-87111000D02*
X137208499Y-87111000D01*
G75*
G02*
X136958500Y-86861001I0J249999D01*
G01*
X136958500Y-86210999D01*
G75*
G02*
X137208499Y-85961000I249999J0D01*
G01*
X138508501Y-85961000D01*
G75*
G02*
X138758500Y-86210999I0J-249999D01*
G01*
X138758500Y-86861001D01*
G75*
G02*
X138508501Y-87111000I-249999J0D01*
G01*
G37*
%TD.AperFunction*%
%TO.P,C7,1*%
%TO.N,+12V*%
%TA.AperFunction,SMDPad,CuDef*%
G36*
G01*
X138508501Y-90061000D02*
X137208499Y-90061000D01*
G75*
G02*
X136958500Y-89811001I0J249999D01*
G01*
X136958500Y-89160999D01*
G75*
G02*
X137208499Y-88911000I249999J0D01*
G01*
X138508501Y-88911000D01*
G75*
G02*
X138758500Y-89160999I0J-249999D01*
G01*
X138758500Y-89811001D01*
G75*
G02*
X138508501Y-90061000I-249999J0D01*
G01*
G37*
%TD.AperFunction*%
%TD*%
%TO.P,C6,2*%
%TO.N,Net-(C6-Pad2)*%
%TA.AperFunction,SMDPad,CuDef*%
G36*
G01*
X143987500Y-78809000D02*
X144937500Y-78809000D01*
G75*
G02*
X145187500Y-79059000I0J-250000D01*
G01*
X145187500Y-79559000D01*
G75*
G02*
X144937500Y-79809000I-250000J0D01*
G01*
X143987500Y-79809000D01*
G75*
G02*
X143737500Y-79559000I0J250000D01*
G01*
X143737500Y-79059000D01*
G75*
G02*
X143987500Y-78809000I250000J0D01*
G01*
G37*
%TD.AperFunction*%
%TO.P,C6,1*%
%TO.N,Net-(C6-Pad1)*%
%TA.AperFunction,SMDPad,CuDef*%
G36*
G01*
X143987500Y-76909000D02*
X144937500Y-76909000D01*
G75*
G02*
X145187500Y-77159000I0J-250000D01*
G01*
X145187500Y-77659000D01*
G75*
G02*
X144937500Y-77909000I-250000J0D01*
G01*
X143987500Y-77909000D01*
G75*
G02*
X143737500Y-77659000I0J250000D01*
G01*
X143737500Y-77159000D01*
G75*
G02*
X143987500Y-76909000I250000J0D01*
G01*
G37*
%TD.AperFunction*%
%TD*%
%TO.P,C5,2*%
%TO.N,GND*%
%TA.AperFunction,SMDPad,CuDef*%
G36*
G01*
X149893000Y-71062000D02*
X150843000Y-71062000D01*
G75*
G02*
X151093000Y-71312000I0J-250000D01*
G01*
X151093000Y-71812000D01*
G75*
G02*
X150843000Y-72062000I-250000J0D01*
G01*
X149893000Y-72062000D01*
G75*
G02*
X149643000Y-71812000I0J250000D01*
G01*
X149643000Y-71312000D01*
G75*
G02*
X149893000Y-71062000I250000J0D01*
G01*
G37*
%TD.AperFunction*%
%TO.P,C5,1*%
%TO.N,Net-(C5-Pad1)*%
%TA.AperFunction,SMDPad,CuDef*%
G36*
G01*
X149893000Y-69162000D02*
X150843000Y-69162000D01*
G75*
G02*
X151093000Y-69412000I0J-250000D01*
G01*
X151093000Y-69912000D01*
G75*
G02*
X150843000Y-70162000I-250000J0D01*
G01*
X149893000Y-70162000D01*
G75*
G02*
X149643000Y-69912000I0J250000D01*
G01*
X149643000Y-69412000D01*
G75*
G02*
X149893000Y-69162000I250000J0D01*
G01*
G37*
%TD.AperFunction*%
%TD*%
%TO.P,C3,2*%
%TO.N,Net-(C3-Pad2)*%
%TA.AperFunction,SMDPad,CuDef*%
G36*
G01*
X147632000Y-65819000D02*
X147632000Y-66769000D01*
G75*
G02*
X147382000Y-67019000I-250000J0D01*
G01*
X146882000Y-67019000D01*
G75*
G02*
X146632000Y-66769000I0J250000D01*
G01*
X146632000Y-65819000D01*
G75*
G02*
X146882000Y-65569000I250000J0D01*
G01*
X147382000Y-65569000D01*
G75*
G02*
X147632000Y-65819000I0J-250000D01*
G01*
G37*
%TD.AperFunction*%
%TO.P,C3,1*%
%TO.N,Net-(C3-Pad1)*%
%TA.AperFunction,SMDPad,CuDef*%
G36*
G01*
X149532000Y-65819000D02*
X149532000Y-66769000D01*
G75*
G02*
X149282000Y-67019000I-250000J0D01*
G01*
X148782000Y-67019000D01*
G75*
G02*
X148532000Y-66769000I0J250000D01*
G01*
X148532000Y-65819000D01*
G75*
G02*
X148782000Y-65569000I250000J0D01*
G01*
X149282000Y-65569000D01*
G75*
G02*
X149532000Y-65819000I0J-250000D01*
G01*
G37*
%TD.AperFunction*%
%TD*%
%TO.P,C2,2*%
%TO.N,GND*%
%TA.AperFunction,SMDPad,CuDef*%
G36*
G01*
X143308500Y-88630999D02*
X143308500Y-89931001D01*
G75*
G02*
X143058501Y-90181000I-249999J0D01*
G01*
X142408499Y-90181000D01*
G75*
G02*
X142158500Y-89931001I0J249999D01*
G01*
X142158500Y-88630999D01*
G75*
G02*
X142408499Y-88381000I249999J0D01*
G01*
X143058501Y-88381000D01*
G75*
G02*
X143308500Y-88630999I0J-249999D01*
G01*
G37*
%TD.AperFunction*%
%TO.P,C2,1*%
%TO.N,VBUS*%
%TA.AperFunction,SMDPad,CuDef*%
G36*
G01*
X146258500Y-88630999D02*
X146258500Y-89931001D01*
G75*
G02*
X146008501Y-90181000I-249999J0D01*
G01*
X145358499Y-90181000D01*
G75*
G02*
X145108500Y-89931001I0J249999D01*
G01*
X145108500Y-88630999D01*
G75*
G02*
X145358499Y-88381000I249999J0D01*
G01*
X146008501Y-88381000D01*
G75*
G02*
X146258500Y-88630999I0J-249999D01*
G01*
G37*
%TD.AperFunction*%
%TD*%
%TO.P,C1,2*%
%TO.N,GND*%
%TA.AperFunction,SMDPad,CuDef*%
G36*
G01*
X143504500Y-86520000D02*
X143504500Y-87470000D01*
G75*
G02*
X143254500Y-87720000I-250000J0D01*
G01*
X142754500Y-87720000D01*
G75*
G02*
X142504500Y-87470000I0J250000D01*
G01*
X142504500Y-86520000D01*
G75*
G02*
X142754500Y-86270000I250000J0D01*
G01*
X143254500Y-86270000D01*
G75*
G02*
X143504500Y-86520000I0J-250000D01*
G01*
G37*
%TD.AperFunction*%
%TO.P,C1,1*%
%TO.N,VBUS*%
%TA.AperFunction,SMDPad,CuDef*%
G36*
G01*
X145404500Y-86520000D02*
X145404500Y-87470000D01*
G75*
G02*
X145154500Y-87720000I-250000J0D01*
G01*
X144654500Y-87720000D01*
G75*
G02*
X144404500Y-87470000I0J250000D01*
G01*
X144404500Y-86520000D01*
G75*
G02*
X144654500Y-86270000I250000J0D01*
G01*
X145154500Y-86270000D01*
G75*
G02*
X145404500Y-86520000I0J-250000D01*
G01*
G37*
%TD.AperFunction*%
%TD*%
D19*
%TO.N,*%
X141750000Y-87750000D03*
%TO.N,GND*%
X143500000Y-64250000D03*
X140208000Y-63754000D03*
X136906000Y-61214000D03*
X146000000Y-64250000D03*
X150750000Y-63500000D03*
X151250000Y-57250000D03*
X158500000Y-64750000D03*
X150500000Y-73000000D03*
X150000000Y-73750000D03*
X159500000Y-71000000D03*
X157750000Y-72250000D03*
X162500000Y-76750000D03*
X148500000Y-76750000D03*
X154500000Y-80750000D03*
X156269171Y-84730829D03*
X156269171Y-85480829D03*
X154750000Y-84750000D03*
X154750000Y-85500000D03*
X151750000Y-85250000D03*
X149750000Y-86750000D03*
X137750000Y-85250000D03*
X140500000Y-85000000D03*
X142505671Y-84494329D03*
X142505671Y-85494329D03*
X142214000Y-86536000D03*
X161544000Y-104648000D03*
X162052000Y-102616000D03*
X162560000Y-91186000D03*
X163068000Y-86360000D03*
X165608000Y-83820000D03*
X165862000Y-100838000D03*
X169418000Y-103124000D03*
X172466000Y-101600000D03*
X172466000Y-108458000D03*
X165354000Y-108458000D03*
X133350000Y-108458000D03*
X127508000Y-108458000D03*
X127508000Y-103124000D03*
X136906000Y-102616000D03*
X134366000Y-100584000D03*
X134620000Y-86868000D03*
X135636000Y-86868000D03*
X127762000Y-67564000D03*
X133350000Y-67310000D03*
X127762000Y-56642000D03*
X133604000Y-56642000D03*
X142240000Y-56388000D03*
X145034000Y-56388000D03*
X152654000Y-64008000D03*
X153670000Y-61214000D03*
X153416000Y-58166000D03*
X141732000Y-67564000D03*
X140970000Y-75184000D03*
X172212000Y-56896000D03*
X157988000Y-56388000D03*
X172466000Y-67056000D03*
X168402000Y-66548000D03*
X163830000Y-63754000D03*
X162814000Y-61214000D03*
X162306000Y-57658000D03*
X139192000Y-60706000D03*
X138684000Y-66548000D03*
X142240000Y-66548000D03*
X136906000Y-62738000D03*
%TO.N,VBUS*%
X161500000Y-62300000D03*
X162139500Y-68758000D03*
X155448000Y-56896000D03*
X146304000Y-57150000D03*
%TO.N,Net-(C4-Pad1)*%
X142600000Y-96000000D03*
X142600000Y-96800000D03*
X142600000Y-97600000D03*
X142600000Y-98400000D03*
X142600000Y-99200000D03*
X142600000Y-100000000D03*
X142600000Y-100800000D03*
X142600000Y-95200000D03*
X142600000Y-94400000D03*
X142600000Y-93600000D03*
X142600000Y-92800000D03*
X142600000Y-92000000D03*
X142600000Y-91200000D03*
X143700000Y-84750000D03*
X144300000Y-84750000D03*
X144300000Y-85400000D03*
X143700000Y-85400000D03*
%TO.N,+12V*%
X140350000Y-88350000D03*
X139600000Y-77900000D03*
X154113500Y-88457500D03*
X153363500Y-78007500D03*
%TO.N,Net-(C13-Pad1)*%
X149161500Y-59563000D03*
X144970500Y-59563000D03*
%TO.N,Net-(C14-Pad1)*%
X156363500Y-96107500D03*
X156363500Y-96907500D03*
X156363500Y-97707500D03*
X156363500Y-98507500D03*
X156363500Y-99307500D03*
X156363500Y-100107500D03*
X156363500Y-100907500D03*
X156363500Y-95307500D03*
X156363500Y-94507500D03*
X156363500Y-93707500D03*
X156363500Y-92907500D03*
X156363500Y-92107500D03*
X156363500Y-91307500D03*
X157463500Y-84857500D03*
X158063500Y-84857500D03*
X158063500Y-85507500D03*
X157463500Y-85507500D03*
%TO.N,Net-(R10-Pad2)*%
X144284395Y-66235030D03*
X144843500Y-62928500D03*
%TD*%
D20*
%TO.N,GND*%
X142505671Y-84021829D02*
X143004500Y-83523000D01*
X142505671Y-86496171D02*
X142505671Y-85494329D01*
X143004500Y-86995000D02*
X142505671Y-86496171D01*
X142545500Y-86536000D02*
X143004500Y-86995000D01*
X140398500Y-86536000D02*
X142214000Y-86536000D01*
X142733500Y-87266000D02*
X143004500Y-86995000D01*
X142733500Y-89281000D02*
X142733500Y-87266000D01*
X156269171Y-84129329D02*
X156768000Y-83630500D01*
X156269171Y-86603671D02*
X156269171Y-85480829D01*
X156768000Y-87102500D02*
X156269171Y-86603671D01*
X156309000Y-86643500D02*
X156768000Y-87102500D01*
X154162000Y-86643500D02*
X156309000Y-86643500D01*
X156497000Y-87373500D02*
X156768000Y-87102500D01*
X156497000Y-89388500D02*
X156497000Y-87373500D01*
X156269171Y-84730829D02*
X156269171Y-84129329D01*
X156269171Y-85480829D02*
X156269171Y-84730829D01*
X142505671Y-84494329D02*
X142505671Y-84021829D01*
X142505671Y-85494329D02*
X142505671Y-84494329D01*
X142214000Y-86536000D02*
X142545500Y-86536000D01*
D21*
%TO.N,VBUS*%
X145304500Y-57761500D02*
X146026500Y-58483500D01*
X143510000Y-57761500D02*
X145304500Y-57761500D01*
D22*
X162139500Y-68758000D02*
X162139500Y-69860500D01*
X147000000Y-83512500D02*
X149987500Y-83512500D01*
X161250000Y-71250000D02*
X162139500Y-70360500D01*
X162139500Y-70360500D02*
X162139500Y-68758000D01*
X162640000Y-83620000D02*
X160763500Y-83620000D01*
X162139500Y-70360500D02*
X162139500Y-70389500D01*
D23*
X164513510Y-81746490D02*
X162640000Y-83620000D01*
X164513510Y-72763510D02*
X164513510Y-81746490D01*
X163500000Y-71750000D02*
X164513510Y-72763510D01*
D22*
X162139500Y-70389500D02*
X163500000Y-71750000D01*
D23*
X162640000Y-83620000D02*
X162010000Y-84250000D01*
X161250000Y-73500000D02*
X160250000Y-74500000D01*
X161250000Y-72250000D02*
X161250000Y-73500000D01*
D22*
X161250000Y-72250000D02*
X161250000Y-71250000D01*
D23*
X152500000Y-74500000D02*
X151000000Y-76000000D01*
X160250000Y-74500000D02*
X152500000Y-74500000D01*
X151000000Y-82500000D02*
X149987500Y-83512500D01*
X151000000Y-76000000D02*
X151000000Y-82500000D01*
X149987500Y-83512500D02*
X148750000Y-84750000D01*
X161750000Y-71750000D02*
X161250000Y-72250000D01*
X163500000Y-71750000D02*
X161750000Y-71750000D01*
D21*
X156959500Y-58341500D02*
X155754000Y-58341500D01*
X158242000Y-59624000D02*
X156959500Y-58341500D01*
X160104500Y-57761500D02*
X158242000Y-59624000D01*
X160528000Y-57761500D02*
X160104500Y-57761500D01*
X161799999Y-59033499D02*
X160528000Y-57761500D01*
X161799999Y-62000001D02*
X161799999Y-59033499D01*
X161500000Y-62300000D02*
X161799999Y-62000001D01*
X155754000Y-57202000D02*
X155448000Y-56896000D01*
X155754000Y-58341500D02*
X155754000Y-57202000D01*
X146304000Y-58206000D02*
X146026500Y-58483500D01*
X146304000Y-57150000D02*
X146304000Y-58206000D01*
%TO.N,Net-(C3-Pad2)*%
X138938000Y-65278000D02*
X136652000Y-65278000D01*
X139270020Y-65610020D02*
X138938000Y-65278000D01*
X146448020Y-65610020D02*
X139270020Y-65610020D01*
X147132000Y-66294000D02*
X146448020Y-65610020D01*
%TO.N,Net-(C3-Pad1)*%
X150725500Y-66294000D02*
X149032000Y-66294000D01*
%TO.N,Net-(C4-Pad2)*%
X142600500Y-81727000D02*
X143004500Y-81323000D01*
X140906500Y-81727000D02*
X142600500Y-81727000D01*
%TO.N,Net-(C4-Pad1)*%
X140906500Y-83627000D02*
X141883500Y-82650000D01*
X143954500Y-82743000D02*
X143954500Y-83523000D01*
X143861500Y-82650000D02*
X143954500Y-82743000D01*
X141883500Y-82650000D02*
X143861500Y-82650000D01*
%TO.N,Net-(C5-Pad1)*%
X158370500Y-69748000D02*
X158242000Y-69619500D01*
X160147000Y-69748000D02*
X158370500Y-69748000D01*
X155468999Y-70387001D02*
X154244000Y-71612000D01*
X157474499Y-70387001D02*
X155468999Y-70387001D01*
X158242000Y-69619500D02*
X157474499Y-70387001D01*
X152550500Y-67479500D02*
X150368000Y-69662000D01*
X152550500Y-66294000D02*
X152550500Y-67479500D01*
X154156500Y-71524500D02*
X154244000Y-71612000D01*
X152400000Y-71524500D02*
X154156500Y-71524500D01*
X154244000Y-69173000D02*
X152550500Y-67479500D01*
X154244000Y-71612000D02*
X154244000Y-69173000D01*
%TO.N,Net-(C6-Pad2)*%
X144904500Y-79751000D02*
X144904500Y-81323000D01*
X144462500Y-79309000D02*
X144904500Y-79751000D01*
X144500000Y-79271500D02*
X144462500Y-79309000D01*
X146494500Y-79271500D02*
X144500000Y-79271500D01*
X144396500Y-79375000D02*
X144462500Y-79309000D01*
X142581000Y-79375000D02*
X144396500Y-79375000D01*
%TO.N,Net-(C6-Pad1)*%
X144500000Y-77446500D02*
X144462500Y-77409000D01*
X146494500Y-77446500D02*
X144500000Y-77446500D01*
X142647000Y-77409000D02*
X142581000Y-77343000D01*
X144462500Y-77409000D02*
X142647000Y-77409000D01*
%TO.N,+12V*%
X138938000Y-102315000D02*
X146765000Y-102315000D01*
X146765000Y-102315000D02*
X147066000Y-102616000D01*
X147066000Y-102616000D02*
X147066000Y-103886000D01*
X146812000Y-104140000D02*
X138938000Y-104140000D01*
X147066000Y-103886000D02*
X146812000Y-104140000D01*
D22*
X138938000Y-96200500D02*
X138749500Y-96012000D01*
X138938000Y-102315000D02*
X138938000Y-96200500D01*
D21*
X140398500Y-88398500D02*
X140350000Y-88350000D01*
X140398500Y-89486000D02*
X140398500Y-88398500D01*
X140199000Y-77900000D02*
X140756000Y-77343000D01*
X139600000Y-77900000D02*
X140199000Y-77900000D01*
X152701500Y-102422500D02*
X160528500Y-102422500D01*
X160528500Y-102422500D02*
X160829500Y-102723500D01*
X160829500Y-102723500D02*
X160829500Y-103993500D01*
X160575500Y-104247500D02*
X152701500Y-104247500D01*
X160829500Y-103993500D02*
X160575500Y-104247500D01*
D22*
X152701500Y-104247500D02*
X152701500Y-106025500D01*
X152701500Y-96308000D02*
X152513000Y-96119500D01*
X152701500Y-102422500D02*
X152701500Y-96308000D01*
D21*
X154162000Y-88506000D02*
X154113500Y-88457500D01*
X154162000Y-89593500D02*
X154162000Y-88506000D01*
X153962500Y-78007500D02*
X154519500Y-77450500D01*
X153363500Y-78007500D02*
X153962500Y-78007500D01*
D22*
X138938000Y-104140000D02*
X138938000Y-105918000D01*
X148990500Y-106025500D02*
X148844000Y-106172000D01*
X152701500Y-106025500D02*
X148990500Y-106025500D01*
X139192000Y-106172000D02*
X138938000Y-105918000D01*
X141732000Y-106172000D02*
X139192000Y-106172000D01*
X148844000Y-106172000D02*
X141732000Y-106172000D01*
D21*
%TO.N,Net-(C8-Pad1)*%
X146624000Y-73406000D02*
X146624000Y-71612000D01*
X144624000Y-69612000D02*
X144018000Y-69612000D01*
X146624000Y-71612000D02*
X144624000Y-69612000D01*
X144930500Y-73406000D02*
X146624000Y-73406000D01*
%TO.N,Net-(C13-Pad1)*%
X143510000Y-59586500D02*
X143510000Y-61280000D01*
X149210000Y-59611500D02*
X149161500Y-59563000D01*
X150804000Y-59611500D02*
X149210000Y-59611500D01*
X143533500Y-59563000D02*
X143510000Y-59586500D01*
X144970500Y-59563000D02*
X143533500Y-59563000D01*
X143024002Y-61280000D02*
X143510000Y-61280000D01*
X142074002Y-62230000D02*
X143024002Y-61280000D01*
X139589000Y-62230000D02*
X142074002Y-62230000D01*
%TO.N,Net-(C14-Pad2)*%
X156364000Y-81834500D02*
X156768000Y-81430500D01*
X154670000Y-81834500D02*
X156364000Y-81834500D01*
%TO.N,Net-(C14-Pad1)*%
X154670000Y-83734500D02*
X155647000Y-82757500D01*
X157718000Y-82850500D02*
X157718000Y-83630500D01*
X157625000Y-82757500D02*
X157718000Y-82850500D01*
X155647000Y-82757500D02*
X157625000Y-82757500D01*
%TO.N,Net-(C16-Pad2)*%
X158668000Y-79858500D02*
X158668000Y-81430500D01*
X158226000Y-79416500D02*
X158668000Y-79858500D01*
X158263500Y-79379000D02*
X158226000Y-79416500D01*
X160258000Y-79379000D02*
X158263500Y-79379000D01*
X158160000Y-79482500D02*
X158226000Y-79416500D01*
X156344500Y-79482500D02*
X158160000Y-79482500D01*
%TO.N,Net-(C16-Pad1)*%
X158263500Y-77554000D02*
X158226000Y-77516500D01*
X160258000Y-77554000D02*
X158263500Y-77554000D01*
X156410500Y-77516500D02*
X156344500Y-77450500D01*
X158226000Y-77516500D02*
X156410500Y-77516500D01*
%TO.N,Net-(D1-Pad1)*%
X155194000Y-69612000D02*
X155194000Y-68056000D01*
D22*
%TO.N,+BATT*%
X160756500Y-64665500D02*
X160144000Y-65278000D01*
X160756500Y-63246000D02*
X160756500Y-64665500D01*
X160144000Y-67765000D02*
X160147000Y-67768000D01*
X160144000Y-65278000D02*
X160144000Y-67765000D01*
X156144000Y-66056000D02*
X158004000Y-66056000D01*
X158242000Y-66294000D02*
X158242000Y-67794500D01*
X158004000Y-66056000D02*
X158242000Y-66294000D01*
X160147000Y-68428000D02*
X160147000Y-67768000D01*
X160120500Y-67794500D02*
X160147000Y-67768000D01*
X158242000Y-67794500D02*
X160120500Y-67794500D01*
D21*
X160147000Y-69088000D02*
X160147000Y-68428000D01*
D22*
%TO.N,Net-(BT1-Pad1)*%
X162331500Y-64665500D02*
X162944000Y-65278000D01*
X162331500Y-63246000D02*
X162331500Y-64665500D01*
D23*
X169425000Y-85000000D02*
X169425000Y-71425000D01*
X169425000Y-71425000D02*
X166000000Y-68000000D01*
D22*
X165412000Y-68000000D02*
X162944000Y-65532000D01*
X166000000Y-68000000D02*
X165412000Y-68000000D01*
D21*
%TO.N,Net-(Q2-Pad3)*%
X148449010Y-70487010D02*
X147574000Y-69612000D01*
X151612490Y-70487010D02*
X148449010Y-70487010D01*
X152400000Y-69699500D02*
X151612490Y-70487010D01*
%TO.N,Net-(R1-Pad2)*%
X143954500Y-81813002D02*
X143954500Y-81323000D01*
X144319499Y-82178001D02*
X143954500Y-81813002D01*
X146509499Y-82178001D02*
X144319499Y-82178001D01*
X147000000Y-81687500D02*
X146509499Y-82178001D01*
X147000000Y-81512500D02*
X148600000Y-79912500D01*
X147000000Y-81687500D02*
X147000000Y-81512500D01*
%TO.N,Net-(R10-Pad2)*%
X146864010Y-59677990D02*
X146026500Y-60515500D01*
X146864010Y-57945300D02*
X146864010Y-59677990D01*
X147350820Y-57458490D02*
X146864010Y-57945300D01*
X149920990Y-57458490D02*
X147350820Y-57458490D01*
X150804000Y-58341500D02*
X149920990Y-57458490D01*
X143793001Y-72718499D02*
X143793001Y-70901999D01*
X143105500Y-70214498D02*
X143105500Y-67413925D01*
X143793001Y-70901999D02*
X143105500Y-70214498D01*
X143105500Y-73406000D02*
X143793001Y-72718499D01*
X143105500Y-67413925D02*
X144284395Y-66235030D01*
X145514000Y-60515500D02*
X144843500Y-61186000D01*
X146026500Y-60515500D02*
X145514000Y-60515500D01*
X144843500Y-61186000D02*
X144843500Y-62928500D01*
%TO.N,Net-(R10-Pad1)*%
X147851500Y-58483500D02*
X147851500Y-62547500D01*
X148217500Y-60881500D02*
X147851500Y-60515500D01*
X150804000Y-60881500D02*
X148217500Y-60881500D01*
X151601000Y-60881500D02*
X150804000Y-60881500D01*
X154154500Y-63435000D02*
X151601000Y-60881500D01*
X154154500Y-64135000D02*
X154154500Y-63435000D01*
%TO.N,Net-(R11-Pad2)*%
X157718000Y-81920502D02*
X157718000Y-81430500D01*
X158082999Y-82285501D02*
X157718000Y-81920502D01*
X160272999Y-82285501D02*
X158082999Y-82285501D01*
X160763500Y-81795000D02*
X160272999Y-82285501D01*
X160763500Y-81620000D02*
X162363500Y-80020000D01*
X160763500Y-81795000D02*
X160763500Y-81620000D01*
%TO.N,Net-(R13-Pad1)*%
X158496000Y-61508000D02*
X157821000Y-61508000D01*
X157177500Y-62151500D02*
X155754000Y-62151500D01*
X157821000Y-61508000D02*
X157177500Y-62151500D01*
%TO.N,Net-(R14-Pad2)*%
X156054000Y-60581500D02*
X155754000Y-60881500D01*
X160045500Y-60581500D02*
X156054000Y-60581500D01*
X160528000Y-60099000D02*
X160045500Y-60581500D01*
X160528000Y-59586500D02*
X160528000Y-60099000D01*
%TO.N,Net-(J5-Pad1)*%
X136652000Y-58928000D02*
X136652000Y-58674000D01*
X138058999Y-60334999D02*
X136652000Y-58928000D01*
X140648401Y-65081991D02*
X138058999Y-62492588D01*
X153575801Y-65081991D02*
X140648401Y-65081991D01*
X138058999Y-62492588D02*
X138058999Y-60334999D01*
X153653820Y-65160010D02*
X153575801Y-65081991D01*
X154655180Y-65160010D02*
X153653820Y-65160010D01*
X154733199Y-65081991D02*
X154655180Y-65160010D01*
X155732509Y-65081991D02*
X154733199Y-65081991D01*
X155979500Y-64835000D02*
X155732509Y-65081991D01*
X155979500Y-64135000D02*
X155979500Y-64835000D01*
%TD*%
D24*
%TO.N,GND*%
X154851972Y-56169738D02*
X154721738Y-56299972D01*
X154619414Y-56453111D01*
X154548932Y-56623271D01*
X154513000Y-56803911D01*
X154513000Y-56988089D01*
X154548932Y-57168729D01*
X154619414Y-57338889D01*
X154689946Y-57444449D01*
X154627418Y-57463416D01*
X154491171Y-57536242D01*
X154371749Y-57634249D01*
X154273742Y-57753671D01*
X154200916Y-57889918D01*
X154156071Y-58037755D01*
X154140928Y-58191500D01*
X154140928Y-58491500D01*
X154156071Y-58645245D01*
X154200916Y-58793082D01*
X154273742Y-58929329D01*
X154312454Y-58976500D01*
X154273742Y-59023671D01*
X154200916Y-59159918D01*
X154156071Y-59307755D01*
X154140928Y-59461500D01*
X154140928Y-59761500D01*
X154156071Y-59915245D01*
X154200916Y-60063082D01*
X154273742Y-60199329D01*
X154312454Y-60246500D01*
X154273742Y-60293671D01*
X154200916Y-60429918D01*
X154156071Y-60577755D01*
X154140928Y-60731500D01*
X154140928Y-61031500D01*
X154156071Y-61185245D01*
X154200916Y-61333082D01*
X154273742Y-61469329D01*
X154312454Y-61516500D01*
X154273742Y-61563671D01*
X154200916Y-61699918D01*
X154156071Y-61847755D01*
X154140928Y-62001500D01*
X154140928Y-62301500D01*
X154145858Y-62351556D01*
X152405193Y-60610892D01*
X152401929Y-60577755D01*
X152357084Y-60429918D01*
X152284258Y-60293671D01*
X152245546Y-60246500D01*
X152284258Y-60199329D01*
X152357084Y-60063082D01*
X152401929Y-59915245D01*
X152417072Y-59761500D01*
X152417072Y-59461500D01*
X152401929Y-59307755D01*
X152357084Y-59159918D01*
X152284258Y-59023671D01*
X152245546Y-58976500D01*
X152284258Y-58929329D01*
X152357084Y-58793082D01*
X152401929Y-58645245D01*
X152417072Y-58491500D01*
X152417072Y-58191500D01*
X152401929Y-58037755D01*
X152357084Y-57889918D01*
X152284258Y-57753671D01*
X152186251Y-57634249D01*
X152066829Y-57536242D01*
X151930582Y-57463416D01*
X151782745Y-57418571D01*
X151629000Y-57403428D01*
X150940730Y-57403428D01*
X150484793Y-56947492D01*
X150460991Y-56918489D01*
X150345266Y-56823516D01*
X150213237Y-56752944D01*
X150069976Y-56709487D01*
X149958323Y-56698490D01*
X149958312Y-56698490D01*
X149920990Y-56694814D01*
X149883668Y-56698490D01*
X147388142Y-56698490D01*
X147350819Y-56694814D01*
X147313496Y-56698490D01*
X147313487Y-56698490D01*
X147201834Y-56709487D01*
X147141190Y-56727883D01*
X147132586Y-56707111D01*
X147030262Y-56553972D01*
X146900028Y-56423738D01*
X146746889Y-56321414D01*
X146576729Y-56250932D01*
X146396089Y-56215000D01*
X146211911Y-56215000D01*
X146031271Y-56250932D01*
X145861111Y-56321414D01*
X145707972Y-56423738D01*
X145577738Y-56553972D01*
X145475414Y-56707111D01*
X145404932Y-56877271D01*
X145379483Y-57005208D01*
X145341833Y-57001500D01*
X145341822Y-57001500D01*
X145304500Y-56997824D01*
X145267178Y-57001500D01*
X144695030Y-57001500D01*
X144587962Y-56871038D01*
X144453387Y-56760595D01*
X144299852Y-56678528D01*
X144133256Y-56627992D01*
X143960002Y-56610928D01*
X143059998Y-56610928D01*
X142886744Y-56627992D01*
X142720148Y-56678528D01*
X142566613Y-56760595D01*
X142432038Y-56871038D01*
X142321595Y-57005613D01*
X142239528Y-57159148D01*
X142188992Y-57325744D01*
X142171928Y-57498998D01*
X142171928Y-58024002D01*
X142188992Y-58197256D01*
X142239528Y-58363852D01*
X142321595Y-58517387D01*
X142432038Y-58651962D01*
X142458891Y-58674000D01*
X142432038Y-58696038D01*
X142321595Y-58830613D01*
X142239528Y-58984148D01*
X142188992Y-59150744D01*
X142171928Y-59323998D01*
X142171928Y-59849002D01*
X142188992Y-60022256D01*
X142239528Y-60188852D01*
X142298131Y-60298490D01*
X142283180Y-60290498D01*
X142163482Y-60254188D01*
X142039000Y-60241928D01*
X141139000Y-60241928D01*
X141014518Y-60254188D01*
X140894820Y-60290498D01*
X140784506Y-60349463D01*
X140687815Y-60428815D01*
X140608463Y-60525506D01*
X140549498Y-60635820D01*
X140513188Y-60755518D01*
X140500928Y-60880000D01*
X140500928Y-61391905D01*
X140490185Y-61378815D01*
X140393494Y-61299463D01*
X140283180Y-61240498D01*
X140163482Y-61204188D01*
X140039000Y-61191928D01*
X139139000Y-61191928D01*
X139014518Y-61204188D01*
X138894820Y-61240498D01*
X138818999Y-61281026D01*
X138818999Y-60372321D01*
X138822675Y-60334998D01*
X138818999Y-60297675D01*
X138818999Y-60297666D01*
X138808002Y-60186013D01*
X138764545Y-60042752D01*
X138760392Y-60034983D01*
X138693973Y-59910722D01*
X138622798Y-59823996D01*
X138599000Y-59794998D01*
X138570002Y-59771200D01*
X138520016Y-59721214D01*
X138544012Y-59685302D01*
X138704953Y-59296756D01*
X138787000Y-58884279D01*
X138787000Y-58463721D01*
X138704953Y-58051244D01*
X138544012Y-57662698D01*
X138310363Y-57313017D01*
X138012983Y-57015637D01*
X137663302Y-56781988D01*
X137274756Y-56621047D01*
X136862279Y-56539000D01*
X136441721Y-56539000D01*
X136029244Y-56621047D01*
X135640698Y-56781988D01*
X135291017Y-57015637D01*
X134993637Y-57313017D01*
X134759988Y-57662698D01*
X134599047Y-58051244D01*
X134517000Y-58463721D01*
X134517000Y-58884279D01*
X134599047Y-59296756D01*
X134759988Y-59685302D01*
X134993637Y-60034983D01*
X135291017Y-60332363D01*
X135640698Y-60566012D01*
X136029244Y-60726953D01*
X136441721Y-60809000D01*
X136862279Y-60809000D01*
X137274756Y-60726953D01*
X137299000Y-60716911D01*
X137298999Y-62455265D01*
X137295323Y-62492588D01*
X137298999Y-62529910D01*
X137298999Y-62529920D01*
X137309996Y-62641573D01*
X137353453Y-62784834D01*
X137424025Y-62916863D01*
X137518998Y-63032589D01*
X137548002Y-63056392D01*
X139013354Y-64521745D01*
X138975333Y-64518000D01*
X138975322Y-64518000D01*
X138938000Y-64514324D01*
X138900678Y-64518000D01*
X138648105Y-64518000D01*
X138544012Y-64266698D01*
X138310363Y-63917017D01*
X138012983Y-63619637D01*
X137663302Y-63385988D01*
X137274756Y-63225047D01*
X136862279Y-63143000D01*
X136441721Y-63143000D01*
X136029244Y-63225047D01*
X135640698Y-63385988D01*
X135291017Y-63619637D01*
X134993637Y-63917017D01*
X134759988Y-64266698D01*
X134599047Y-64655244D01*
X134517000Y-65067721D01*
X134517000Y-65488279D01*
X134599047Y-65900756D01*
X134759988Y-66289302D01*
X134993637Y-66638983D01*
X135291017Y-66936363D01*
X135640698Y-67170012D01*
X136029244Y-67330953D01*
X136441721Y-67413000D01*
X136862279Y-67413000D01*
X137274756Y-67330953D01*
X137663302Y-67170012D01*
X138012983Y-66936363D01*
X138310363Y-66638983D01*
X138544012Y-66289302D01*
X138640810Y-66055611D01*
X138706216Y-66121017D01*
X138730019Y-66150021D01*
X138845744Y-66244994D01*
X138977773Y-66315566D01*
X139121034Y-66359023D01*
X139232687Y-66370020D01*
X139232696Y-66370020D01*
X139270019Y-66373696D01*
X139307342Y-66370020D01*
X143074604Y-66370020D01*
X142594498Y-66850126D01*
X142565500Y-66873924D01*
X142541702Y-66902922D01*
X142541701Y-66902923D01*
X142470526Y-66989649D01*
X142399954Y-67121679D01*
X142378153Y-67193551D01*
X142357273Y-67262386D01*
X142356498Y-67264940D01*
X142341824Y-67413925D01*
X142345501Y-67451257D01*
X142345500Y-70177175D01*
X142341824Y-70214498D01*
X142345500Y-70251820D01*
X142345500Y-70251830D01*
X142356497Y-70363483D01*
X142393968Y-70487009D01*
X142399954Y-70506744D01*
X142433527Y-70569554D01*
X142423820Y-70572498D01*
X142313506Y-70631463D01*
X142216815Y-70710815D01*
X142137463Y-70807506D01*
X142078498Y-70917820D01*
X142042188Y-71037518D01*
X142029928Y-71162000D01*
X142033000Y-71326250D01*
X142191750Y-71485000D01*
X142941000Y-71485000D01*
X142941000Y-71465000D01*
X143033002Y-71465000D01*
X143033001Y-71759000D01*
X142941000Y-71759000D01*
X142941000Y-71739000D01*
X142191750Y-71739000D01*
X142033000Y-71897750D01*
X142029928Y-72062000D01*
X142042188Y-72186482D01*
X142078498Y-72306180D01*
X142137463Y-72416494D01*
X142139953Y-72419529D01*
X142104595Y-72462613D01*
X142022528Y-72616148D01*
X141971992Y-72782744D01*
X141954928Y-72955998D01*
X141954928Y-73163322D01*
X141919243Y-73053617D01*
X141761214Y-72757962D01*
X141445653Y-72601952D01*
X140133605Y-73914000D01*
X141445653Y-75226048D01*
X141761214Y-75070038D01*
X141952020Y-74695255D01*
X142066044Y-74290449D01*
X142066945Y-74278950D01*
X142104595Y-74349387D01*
X142215038Y-74483962D01*
X142349613Y-74594405D01*
X142503148Y-74676472D01*
X142669744Y-74727008D01*
X142842998Y-74744072D01*
X143368002Y-74744072D01*
X143541256Y-74727008D01*
X143707852Y-74676472D01*
X143861387Y-74594405D01*
X143995962Y-74483962D01*
X144018000Y-74457109D01*
X144040038Y-74483962D01*
X144174613Y-74594405D01*
X144328148Y-74676472D01*
X144494744Y-74727008D01*
X144667998Y-74744072D01*
X145193002Y-74744072D01*
X145366256Y-74727008D01*
X145532852Y-74676472D01*
X145686387Y-74594405D01*
X145768269Y-74527206D01*
X145880614Y-74619405D01*
X146034150Y-74701472D01*
X146200746Y-74752008D01*
X146374000Y-74769072D01*
X146874000Y-74769072D01*
X147047254Y-74752008D01*
X147213850Y-74701472D01*
X147367386Y-74619405D01*
X147501962Y-74508962D01*
X147507342Y-74502406D01*
X147572815Y-74582185D01*
X147669506Y-74661537D01*
X147779820Y-74720502D01*
X147899518Y-74756812D01*
X148024000Y-74769072D01*
X148238250Y-74766000D01*
X148397000Y-74607250D01*
X148397000Y-73533000D01*
X148651000Y-73533000D01*
X148651000Y-74607250D01*
X148809750Y-74766000D01*
X149024000Y-74769072D01*
X149148482Y-74756812D01*
X149268180Y-74720502D01*
X149378494Y-74661537D01*
X149475185Y-74582185D01*
X149554537Y-74485494D01*
X149613502Y-74375180D01*
X149649812Y-74255482D01*
X149662072Y-74131000D01*
X149659000Y-73691750D01*
X149500250Y-73533000D01*
X148651000Y-73533000D01*
X148397000Y-73533000D01*
X148377000Y-73533000D01*
X148377000Y-73279000D01*
X148397000Y-73279000D01*
X148397000Y-71739000D01*
X148651000Y-71739000D01*
X148651000Y-73279000D01*
X149500250Y-73279000D01*
X149659000Y-73120250D01*
X149661940Y-72699940D01*
X150082250Y-72697000D01*
X150241000Y-72538250D01*
X150241000Y-71689000D01*
X149166750Y-71689000D01*
X149116750Y-71739000D01*
X148651000Y-71739000D01*
X148397000Y-71739000D01*
X148377000Y-71739000D01*
X148377000Y-71485000D01*
X148397000Y-71485000D01*
X148397000Y-71465000D01*
X148651000Y-71465000D01*
X148651000Y-71485000D01*
X149400250Y-71485000D01*
X149450250Y-71435000D01*
X150241000Y-71435000D01*
X150241000Y-71415000D01*
X150495000Y-71415000D01*
X150495000Y-71435000D01*
X150515000Y-71435000D01*
X150515000Y-71689000D01*
X150495000Y-71689000D01*
X150495000Y-72538250D01*
X150653750Y-72697000D01*
X151093000Y-72700072D01*
X151217482Y-72687812D01*
X151337180Y-72651502D01*
X151447494Y-72592537D01*
X151500628Y-72548932D01*
X151610148Y-72607472D01*
X151776744Y-72658008D01*
X151949998Y-72675072D01*
X152022358Y-72675072D01*
X151775152Y-72750061D01*
X151447683Y-72925097D01*
X151447681Y-72925098D01*
X151447682Y-72925098D01*
X151232579Y-73101628D01*
X151232577Y-73101630D01*
X151160655Y-73160655D01*
X151101630Y-73232577D01*
X149732582Y-74601626D01*
X149660655Y-74660655D01*
X149425097Y-74947683D01*
X149250061Y-75275153D01*
X149142275Y-75630477D01*
X149115000Y-75907404D01*
X149115000Y-75907411D01*
X149105881Y-76000000D01*
X149115000Y-76092589D01*
X149115000Y-76938300D01*
X148885750Y-76940000D01*
X148727000Y-77098750D01*
X148727000Y-77960500D01*
X148747000Y-77960500D01*
X148747000Y-78214500D01*
X148727000Y-78214500D01*
X148727000Y-78234500D01*
X148473000Y-78234500D01*
X148473000Y-78214500D01*
X148453000Y-78214500D01*
X148453000Y-77960500D01*
X148473000Y-77960500D01*
X148473000Y-77098750D01*
X148314250Y-76940000D01*
X147900000Y-76936928D01*
X147796217Y-76947149D01*
X147764972Y-76844148D01*
X147682905Y-76690613D01*
X147572462Y-76556038D01*
X147437887Y-76445595D01*
X147284352Y-76363528D01*
X147117756Y-76312992D01*
X146944502Y-76295928D01*
X146044498Y-76295928D01*
X145871244Y-76312992D01*
X145704648Y-76363528D01*
X145551113Y-76445595D01*
X145506231Y-76482429D01*
X145430886Y-76420595D01*
X145277350Y-76338528D01*
X145110754Y-76287992D01*
X144937500Y-76270928D01*
X143987500Y-76270928D01*
X143814246Y-76287992D01*
X143647650Y-76338528D01*
X143567106Y-76381580D01*
X143471462Y-76265038D01*
X143336887Y-76154595D01*
X143183352Y-76072528D01*
X143016756Y-76021992D01*
X142843502Y-76004928D01*
X142318498Y-76004928D01*
X142145244Y-76021992D01*
X141978648Y-76072528D01*
X141825113Y-76154595D01*
X141690538Y-76265038D01*
X141668500Y-76291891D01*
X141646462Y-76265038D01*
X141511887Y-76154595D01*
X141358352Y-76072528D01*
X141191756Y-76021992D01*
X141018502Y-76004928D01*
X140493498Y-76004928D01*
X140320244Y-76021992D01*
X140153648Y-76072528D01*
X140000113Y-76154595D01*
X139865538Y-76265038D01*
X139755095Y-76399613D01*
X139673028Y-76553148D01*
X139622492Y-76719744D01*
X139605428Y-76892998D01*
X139605428Y-76965000D01*
X139507911Y-76965000D01*
X139327271Y-77000932D01*
X139157111Y-77071414D01*
X139003972Y-77173738D01*
X138873738Y-77303972D01*
X138771414Y-77457111D01*
X138700932Y-77627271D01*
X138665000Y-77807911D01*
X138665000Y-77992089D01*
X138700932Y-78172729D01*
X138771414Y-78342889D01*
X138873738Y-78496028D01*
X139003972Y-78626262D01*
X139157111Y-78728586D01*
X139327271Y-78799068D01*
X139507911Y-78835000D01*
X139606615Y-78835000D01*
X139608500Y-79089250D01*
X139767250Y-79248000D01*
X140629000Y-79248000D01*
X140629000Y-79228000D01*
X140883000Y-79228000D01*
X140883000Y-79248000D01*
X140903000Y-79248000D01*
X140903000Y-79502000D01*
X140883000Y-79502000D01*
X140883000Y-79522000D01*
X140629000Y-79522000D01*
X140629000Y-79502000D01*
X139767250Y-79502000D01*
X139608500Y-79660750D01*
X139605428Y-80075000D01*
X139617688Y-80199482D01*
X139653998Y-80319180D01*
X139712963Y-80429494D01*
X139792315Y-80526185D01*
X139889006Y-80605537D01*
X139999320Y-80664502D01*
X140048705Y-80679483D01*
X139938114Y-80738595D01*
X139803538Y-80849038D01*
X139693095Y-80983614D01*
X139611028Y-81137150D01*
X139560492Y-81303746D01*
X139543428Y-81477000D01*
X139543428Y-81977000D01*
X139560492Y-82150254D01*
X139611028Y-82316850D01*
X139693095Y-82470386D01*
X139803538Y-82604962D01*
X139891317Y-82677000D01*
X139803538Y-82749038D01*
X139693095Y-82883614D01*
X139611028Y-83037150D01*
X139560492Y-83203746D01*
X139543428Y-83377000D01*
X139543428Y-83877000D01*
X139560492Y-84050254D01*
X139611028Y-84216850D01*
X139693095Y-84370386D01*
X139803538Y-84504962D01*
X139938114Y-84615405D01*
X140091650Y-84697472D01*
X140258246Y-84748008D01*
X140431500Y-84765072D01*
X141381500Y-84765072D01*
X141554754Y-84748008D01*
X141721350Y-84697472D01*
X141874886Y-84615405D01*
X142009462Y-84504962D01*
X142119905Y-84370386D01*
X142124516Y-84361759D01*
X142148963Y-84407494D01*
X142228315Y-84504185D01*
X142325006Y-84583537D01*
X142435320Y-84642502D01*
X142555018Y-84678812D01*
X142679500Y-84691072D01*
X142715000Y-84688294D01*
X142715000Y-85634946D01*
X142504500Y-85631928D01*
X142380018Y-85644188D01*
X142260320Y-85680498D01*
X142150006Y-85739463D01*
X142053315Y-85818815D01*
X141973963Y-85915506D01*
X141936307Y-85985954D01*
X141936572Y-85961000D01*
X141924312Y-85836518D01*
X141888002Y-85716820D01*
X141829037Y-85606506D01*
X141749685Y-85509815D01*
X141652994Y-85430463D01*
X141542680Y-85371498D01*
X141422982Y-85335188D01*
X141298500Y-85322928D01*
X140684250Y-85326000D01*
X140525500Y-85484750D01*
X140525500Y-86409000D01*
X140545500Y-86409000D01*
X140545500Y-86663000D01*
X140525500Y-86663000D01*
X140525500Y-86683000D01*
X140271500Y-86683000D01*
X140271500Y-86663000D01*
X137985500Y-86663000D01*
X137985500Y-86683000D01*
X137731500Y-86683000D01*
X137731500Y-86663000D01*
X136482250Y-86663000D01*
X136323500Y-86821750D01*
X136320428Y-87111000D01*
X136332688Y-87235482D01*
X136368998Y-87355180D01*
X136427963Y-87465494D01*
X136458743Y-87503000D01*
X135636000Y-87503000D01*
X135512118Y-87515201D01*
X135392996Y-87551336D01*
X135283213Y-87610017D01*
X135186987Y-87688987D01*
X135108017Y-87785213D01*
X135049336Y-87894996D01*
X135013201Y-88014118D01*
X135001000Y-88138000D01*
X135001000Y-101600000D01*
X135013201Y-101723882D01*
X135049336Y-101843004D01*
X135108017Y-101952787D01*
X135186987Y-102049013D01*
X135283213Y-102127983D01*
X135392996Y-102186664D01*
X135512118Y-102222799D01*
X135636000Y-102235000D01*
X137599928Y-102235000D01*
X137599928Y-102577502D01*
X137616992Y-102750756D01*
X137667528Y-102917352D01*
X137749595Y-103070887D01*
X137860038Y-103205462D01*
X137886891Y-103227500D01*
X137860038Y-103249538D01*
X137749595Y-103384113D01*
X137667528Y-103537648D01*
X137616992Y-103704244D01*
X137599928Y-103877498D01*
X137599928Y-104402502D01*
X137616992Y-104575756D01*
X137667528Y-104742352D01*
X137749595Y-104895887D01*
X137803000Y-104960961D01*
X137803000Y-105862249D01*
X137797509Y-105918000D01*
X137819423Y-106140498D01*
X137884324Y-106354446D01*
X137905733Y-106394499D01*
X137989717Y-106551623D01*
X138131552Y-106724449D01*
X138174860Y-106759991D01*
X138350004Y-106935135D01*
X138385551Y-106978449D01*
X138558377Y-107120284D01*
X138755553Y-107225676D01*
X138969501Y-107290577D01*
X139136248Y-107307000D01*
X139136257Y-107307000D01*
X139191999Y-107312490D01*
X139247741Y-107307000D01*
X147034640Y-107307000D01*
X147185637Y-107532983D01*
X147483017Y-107830363D01*
X147832698Y-108064012D01*
X148221244Y-108224953D01*
X148633721Y-108307000D01*
X149054279Y-108307000D01*
X149466756Y-108224953D01*
X149855302Y-108064012D01*
X150204983Y-107830363D01*
X150502363Y-107532983D01*
X150736012Y-107183302D01*
X150745457Y-107160500D01*
X152645749Y-107160500D01*
X152701500Y-107165991D01*
X152923999Y-107144077D01*
X153137947Y-107079176D01*
X153335123Y-106973784D01*
X153507949Y-106831949D01*
X153649784Y-106659123D01*
X153755176Y-106461947D01*
X153820077Y-106247999D01*
X153836500Y-106081252D01*
X153841991Y-106025500D01*
X153836500Y-105969748D01*
X153836500Y-105779872D01*
X167765000Y-105779872D01*
X167765000Y-106220128D01*
X167850890Y-106651925D01*
X168019369Y-107058669D01*
X168263962Y-107424729D01*
X168575271Y-107736038D01*
X168941331Y-107980631D01*
X169348075Y-108149110D01*
X169779872Y-108235000D01*
X170220128Y-108235000D01*
X170651925Y-108149110D01*
X171058669Y-107980631D01*
X171424729Y-107736038D01*
X171736038Y-107424729D01*
X171980631Y-107058669D01*
X172149110Y-106651925D01*
X172235000Y-106220128D01*
X172235000Y-105779872D01*
X172149110Y-105348075D01*
X171980631Y-104941331D01*
X171736038Y-104575271D01*
X171424729Y-104263962D01*
X171058669Y-104019369D01*
X170651925Y-103850890D01*
X170220128Y-103765000D01*
X169779872Y-103765000D01*
X169348075Y-103850890D01*
X168941331Y-104019369D01*
X168575271Y-104263962D01*
X168263962Y-104575271D01*
X168019369Y-104941331D01*
X167850890Y-105348075D01*
X167765000Y-105779872D01*
X153836500Y-105779872D01*
X153836500Y-105068461D01*
X153886530Y-105007500D01*
X160538178Y-105007500D01*
X160575500Y-105011176D01*
X160612822Y-105007500D01*
X160612833Y-105007500D01*
X160724486Y-104996503D01*
X160867747Y-104953046D01*
X160999776Y-104882474D01*
X161115501Y-104787501D01*
X161139304Y-104758497D01*
X161340497Y-104557304D01*
X161369501Y-104533501D01*
X161464474Y-104417776D01*
X161535046Y-104285747D01*
X161578503Y-104142486D01*
X161589500Y-104030833D01*
X161589500Y-104030824D01*
X161593176Y-103993501D01*
X161589500Y-103956178D01*
X161589500Y-102760822D01*
X161593176Y-102723499D01*
X161589500Y-102686176D01*
X161589500Y-102686167D01*
X161578503Y-102574514D01*
X161535046Y-102431253D01*
X161481399Y-102330888D01*
X161487382Y-102330299D01*
X161606504Y-102294164D01*
X161716287Y-102235483D01*
X161812513Y-102156513D01*
X161891483Y-102060287D01*
X161950164Y-101950504D01*
X161986299Y-101831382D01*
X161998500Y-101707500D01*
X161998500Y-99202212D01*
X162949000Y-99202212D01*
X162949000Y-99425788D01*
X162992617Y-99645067D01*
X163078176Y-99851624D01*
X163202388Y-100037520D01*
X163360480Y-100195612D01*
X163546376Y-100319824D01*
X163752933Y-100405383D01*
X163972212Y-100449000D01*
X164195788Y-100449000D01*
X164415067Y-100405383D01*
X164621624Y-100319824D01*
X164807520Y-100195612D01*
X164965612Y-100037520D01*
X165089824Y-99851624D01*
X165175383Y-99645067D01*
X165219000Y-99425788D01*
X165219000Y-99202212D01*
X165175383Y-98982933D01*
X165089824Y-98776376D01*
X164965612Y-98590480D01*
X164807520Y-98432388D01*
X164621624Y-98308176D01*
X164415067Y-98222617D01*
X164195788Y-98179000D01*
X163972212Y-98179000D01*
X163752933Y-98222617D01*
X163546376Y-98308176D01*
X163360480Y-98432388D01*
X163202388Y-98590480D01*
X163078176Y-98776376D01*
X162992617Y-98982933D01*
X162949000Y-99202212D01*
X161998500Y-99202212D01*
X161998500Y-90930268D01*
X162072745Y-90923024D01*
X162191932Y-90887106D01*
X162301822Y-90828627D01*
X162398192Y-90749832D01*
X162477338Y-90653751D01*
X162536219Y-90544075D01*
X162572571Y-90425019D01*
X162584999Y-90301160D01*
X162592775Y-86043036D01*
X162734848Y-85999938D01*
X163062317Y-85824902D01*
X163277420Y-85648372D01*
X163907415Y-85018376D01*
X163907420Y-85018372D01*
X165780933Y-83144860D01*
X165852855Y-83085835D01*
X165934479Y-82986377D01*
X166040000Y-82857798D01*
X166040001Y-99416287D01*
X166088980Y-99913576D01*
X166282537Y-100551651D01*
X166596859Y-101139704D01*
X167019864Y-101655137D01*
X167535297Y-102078142D01*
X168123350Y-102392464D01*
X168761425Y-102586021D01*
X169425000Y-102651378D01*
X170088576Y-102586021D01*
X170726651Y-102392464D01*
X171314704Y-102078142D01*
X171830137Y-101655137D01*
X172253142Y-101139704D01*
X172567464Y-100551651D01*
X172761021Y-99913576D01*
X172810000Y-99416287D01*
X172810000Y-70583713D01*
X172761021Y-70086424D01*
X172567464Y-69448349D01*
X172253142Y-68860296D01*
X171830137Y-68344863D01*
X171314703Y-67921858D01*
X170726650Y-67607536D01*
X170088575Y-67413979D01*
X169425000Y-67348622D01*
X168761424Y-67413979D01*
X168238421Y-67572629D01*
X167267420Y-66601628D01*
X167052317Y-66425098D01*
X166724848Y-66250062D01*
X166369524Y-66142275D01*
X166000000Y-66105881D01*
X165630476Y-66142275D01*
X165275152Y-66250062D01*
X165269966Y-66252834D01*
X164207072Y-65189941D01*
X164207072Y-64907000D01*
X164190008Y-64733746D01*
X164139472Y-64567150D01*
X164057405Y-64413614D01*
X163946962Y-64279038D01*
X163812386Y-64168595D01*
X163658850Y-64086528D01*
X163492254Y-64035992D01*
X163466500Y-64033455D01*
X163466500Y-63779872D01*
X167765000Y-63779872D01*
X167765000Y-64220128D01*
X167850890Y-64651925D01*
X168019369Y-65058669D01*
X168263962Y-65424729D01*
X168575271Y-65736038D01*
X168941331Y-65980631D01*
X169348075Y-66149110D01*
X169779872Y-66235000D01*
X170220128Y-66235000D01*
X170651925Y-66149110D01*
X171058669Y-65980631D01*
X171424729Y-65736038D01*
X171736038Y-65424729D01*
X171980631Y-65058669D01*
X172149110Y-64651925D01*
X172235000Y-64220128D01*
X172235000Y-63779872D01*
X172149110Y-63348075D01*
X171980631Y-62941331D01*
X171736038Y-62575271D01*
X171424729Y-62263962D01*
X171058669Y-62019369D01*
X170651925Y-61850890D01*
X170220128Y-61765000D01*
X169779872Y-61765000D01*
X169348075Y-61850890D01*
X168941331Y-62019369D01*
X168575271Y-62263962D01*
X168263962Y-62575271D01*
X168019369Y-62941331D01*
X167850890Y-63348075D01*
X167765000Y-63779872D01*
X163466500Y-63779872D01*
X163466500Y-63190248D01*
X163450077Y-63023501D01*
X163391318Y-62829800D01*
X163390608Y-62822592D01*
X163341850Y-62661858D01*
X163262671Y-62513725D01*
X163156115Y-62383885D01*
X163026275Y-62277329D01*
X162878142Y-62198150D01*
X162717408Y-62149392D01*
X162582673Y-62136121D01*
X162553998Y-62127423D01*
X162551153Y-62127143D01*
X162559999Y-62037334D01*
X162559999Y-62037326D01*
X162563675Y-62000001D01*
X162559999Y-61962676D01*
X162559999Y-59070821D01*
X162563675Y-59033498D01*
X162559999Y-58996175D01*
X162559999Y-58996166D01*
X162549002Y-58884513D01*
X162528284Y-58816212D01*
X168791000Y-58816212D01*
X168791000Y-59039788D01*
X168834617Y-59259067D01*
X168920176Y-59465624D01*
X169044388Y-59651520D01*
X169202480Y-59809612D01*
X169388376Y-59933824D01*
X169594933Y-60019383D01*
X169814212Y-60063000D01*
X170037788Y-60063000D01*
X170257067Y-60019383D01*
X170463624Y-59933824D01*
X170649520Y-59809612D01*
X170807612Y-59651520D01*
X170931824Y-59465624D01*
X171017383Y-59259067D01*
X171061000Y-59039788D01*
X171061000Y-58816212D01*
X171017383Y-58596933D01*
X170931824Y-58390376D01*
X170807612Y-58204480D01*
X170649520Y-58046388D01*
X170463624Y-57922176D01*
X170257067Y-57836617D01*
X170037788Y-57793000D01*
X169814212Y-57793000D01*
X169594933Y-57836617D01*
X169388376Y-57922176D01*
X169202480Y-58046388D01*
X169044388Y-58204480D01*
X168920176Y-58390376D01*
X168834617Y-58596933D01*
X168791000Y-58816212D01*
X162528284Y-58816212D01*
X162505545Y-58741252D01*
X162434973Y-58609223D01*
X162340000Y-58493498D01*
X162311002Y-58469700D01*
X161866003Y-58024701D01*
X161866072Y-58024002D01*
X161866072Y-57498998D01*
X161849008Y-57325744D01*
X161798472Y-57159148D01*
X161716405Y-57005613D01*
X161605962Y-56871038D01*
X161471387Y-56760595D01*
X161317852Y-56678528D01*
X161151256Y-56627992D01*
X160978002Y-56610928D01*
X160077998Y-56610928D01*
X159904744Y-56627992D01*
X159738148Y-56678528D01*
X159584613Y-56760595D01*
X159479172Y-56847128D01*
X159418185Y-56772815D01*
X159321494Y-56693463D01*
X159211180Y-56634498D01*
X159091482Y-56598188D01*
X158967000Y-56585928D01*
X158527750Y-56589000D01*
X158369000Y-56747750D01*
X158369000Y-57597000D01*
X158389000Y-57597000D01*
X158389000Y-57851000D01*
X158369000Y-57851000D01*
X158369000Y-57871000D01*
X158115000Y-57871000D01*
X158115000Y-57851000D01*
X158095000Y-57851000D01*
X158095000Y-57597000D01*
X158115000Y-57597000D01*
X158115000Y-56747750D01*
X157956250Y-56589000D01*
X157517000Y-56585928D01*
X157392518Y-56598188D01*
X157272820Y-56634498D01*
X157162506Y-56693463D01*
X157065815Y-56772815D01*
X156986463Y-56869506D01*
X156927498Y-56979820D01*
X156891188Y-57099518D01*
X156878928Y-57224000D01*
X156882000Y-57438250D01*
X156937692Y-57493942D01*
X156880582Y-57463416D01*
X156732745Y-57418571D01*
X156579000Y-57403428D01*
X156514000Y-57403428D01*
X156514000Y-57239322D01*
X156517676Y-57201999D01*
X156514000Y-57164676D01*
X156514000Y-57164667D01*
X156503003Y-57053014D01*
X156459546Y-56909753D01*
X156388974Y-56777724D01*
X156374213Y-56759738D01*
X156347068Y-56623271D01*
X156276586Y-56453111D01*
X156174262Y-56299972D01*
X156044028Y-56169738D01*
X155980066Y-56127000D01*
X172873000Y-56127000D01*
X172873000Y-108873000D01*
X127127000Y-108873000D01*
X127127000Y-105779872D01*
X127765000Y-105779872D01*
X127765000Y-106220128D01*
X127850890Y-106651925D01*
X128019369Y-107058669D01*
X128263962Y-107424729D01*
X128575271Y-107736038D01*
X128941331Y-107980631D01*
X129348075Y-108149110D01*
X129779872Y-108235000D01*
X130220128Y-108235000D01*
X130651925Y-108149110D01*
X131058669Y-107980631D01*
X131424729Y-107736038D01*
X131736038Y-107424729D01*
X131980631Y-107058669D01*
X132149110Y-106651925D01*
X132235000Y-106220128D01*
X132235000Y-105779872D01*
X132149110Y-105348075D01*
X131980631Y-104941331D01*
X131736038Y-104575271D01*
X131424729Y-104263962D01*
X131058669Y-104019369D01*
X130651925Y-103850890D01*
X130220128Y-103765000D01*
X129779872Y-103765000D01*
X129348075Y-103850890D01*
X128941331Y-104019369D01*
X128575271Y-104263962D01*
X128263962Y-104575271D01*
X128019369Y-104941331D01*
X127850890Y-105348075D01*
X127765000Y-105779872D01*
X127127000Y-105779872D01*
X127127000Y-85127000D01*
X127190000Y-85127000D01*
X127190000Y-99377000D01*
X127279818Y-100034940D01*
X127496268Y-100662716D01*
X127831032Y-101236202D01*
X128271245Y-101733359D01*
X128799990Y-102135082D01*
X129396948Y-102425933D01*
X129920406Y-102571104D01*
X130448000Y-102473749D01*
X130448000Y-85127000D01*
X130702000Y-85127000D01*
X130702000Y-102473749D01*
X131229594Y-102571104D01*
X131753052Y-102425933D01*
X132350010Y-102135082D01*
X132878755Y-101733359D01*
X133318968Y-101236202D01*
X133653732Y-100662716D01*
X133870182Y-100034940D01*
X133960000Y-99377000D01*
X133960000Y-85961000D01*
X136320428Y-85961000D01*
X136323500Y-86250250D01*
X136482250Y-86409000D01*
X137731500Y-86409000D01*
X137731500Y-85484750D01*
X137985500Y-85484750D01*
X137985500Y-86409000D01*
X140271500Y-86409000D01*
X140271500Y-85484750D01*
X140112750Y-85326000D01*
X139498500Y-85322928D01*
X139374018Y-85335188D01*
X139254320Y-85371498D01*
X139144006Y-85430463D01*
X139128500Y-85443188D01*
X139112994Y-85430463D01*
X139002680Y-85371498D01*
X138882982Y-85335188D01*
X138758500Y-85322928D01*
X138144250Y-85326000D01*
X137985500Y-85484750D01*
X137731500Y-85484750D01*
X137572750Y-85326000D01*
X136958500Y-85322928D01*
X136834018Y-85335188D01*
X136714320Y-85371498D01*
X136604006Y-85430463D01*
X136507315Y-85509815D01*
X136427963Y-85606506D01*
X136368998Y-85716820D01*
X136332688Y-85836518D01*
X136320428Y-85961000D01*
X133960000Y-85961000D01*
X133960000Y-85127000D01*
X130702000Y-85127000D01*
X130448000Y-85127000D01*
X127190000Y-85127000D01*
X127127000Y-85127000D01*
X127127000Y-70623000D01*
X127190000Y-70623000D01*
X127190000Y-84873000D01*
X130448000Y-84873000D01*
X130448000Y-67526251D01*
X130702000Y-67526251D01*
X130702000Y-84873000D01*
X133960000Y-84873000D01*
X133960000Y-75405653D01*
X138641952Y-75405653D01*
X138797962Y-75721214D01*
X139172745Y-75912020D01*
X139577551Y-76026044D01*
X139996824Y-76058902D01*
X140414451Y-76009334D01*
X140814383Y-75879243D01*
X141110038Y-75721214D01*
X141266048Y-75405653D01*
X139954000Y-74093605D01*
X138641952Y-75405653D01*
X133960000Y-75405653D01*
X133960000Y-72178824D01*
X134507098Y-72178824D01*
X134556666Y-72596451D01*
X134686757Y-72996383D01*
X134844786Y-73292038D01*
X135160347Y-73448048D01*
X136472395Y-72136000D01*
X135160347Y-70823952D01*
X134844786Y-70979962D01*
X134653980Y-71354745D01*
X134539956Y-71759551D01*
X134507098Y-72178824D01*
X133960000Y-72178824D01*
X133960000Y-70644347D01*
X135339952Y-70644347D01*
X136652000Y-71956395D01*
X136666143Y-71942253D01*
X136845748Y-72121858D01*
X136831605Y-72136000D01*
X136845748Y-72150143D01*
X136666143Y-72329748D01*
X136652000Y-72315605D01*
X135339952Y-73627653D01*
X135495962Y-73943214D01*
X135870745Y-74134020D01*
X136275551Y-74248044D01*
X136694824Y-74280902D01*
X137112451Y-74231334D01*
X137512383Y-74101243D01*
X137808038Y-73943214D01*
X137810565Y-73938102D01*
X137809098Y-73956824D01*
X137858666Y-74374451D01*
X137988757Y-74774383D01*
X138146786Y-75070038D01*
X138462347Y-75226048D01*
X139774395Y-73914000D01*
X139760253Y-73899858D01*
X139939858Y-73720253D01*
X139954000Y-73734395D01*
X141266048Y-72422347D01*
X141110038Y-72106786D01*
X140922639Y-72011379D01*
X141110038Y-71911214D01*
X141266048Y-71595653D01*
X139954000Y-70283605D01*
X139939858Y-70297748D01*
X139760253Y-70118143D01*
X139774395Y-70104000D01*
X140133605Y-70104000D01*
X141445653Y-71416048D01*
X141761214Y-71260038D01*
X141952020Y-70885255D01*
X142066044Y-70480449D01*
X142098902Y-70061176D01*
X142049334Y-69643549D01*
X141919243Y-69243617D01*
X141761214Y-68947962D01*
X141445653Y-68791952D01*
X140133605Y-70104000D01*
X139774395Y-70104000D01*
X138462347Y-68791952D01*
X138146786Y-68947962D01*
X137955980Y-69322745D01*
X137841956Y-69727551D01*
X137809098Y-70146824D01*
X137837853Y-70389092D01*
X137808038Y-70328786D01*
X137433255Y-70137980D01*
X137028449Y-70023956D01*
X136609176Y-69991098D01*
X136191549Y-70040666D01*
X135791617Y-70170757D01*
X135495962Y-70328786D01*
X135339952Y-70644347D01*
X133960000Y-70644347D01*
X133960000Y-70623000D01*
X133870182Y-69965060D01*
X133653732Y-69337284D01*
X133318968Y-68763798D01*
X133184865Y-68612347D01*
X138641952Y-68612347D01*
X139954000Y-69924395D01*
X141266048Y-68612347D01*
X141110038Y-68296786D01*
X140735255Y-68105980D01*
X140330449Y-67991956D01*
X139911176Y-67959098D01*
X139493549Y-68008666D01*
X139093617Y-68138757D01*
X138797962Y-68296786D01*
X138641952Y-68612347D01*
X133184865Y-68612347D01*
X132878755Y-68266641D01*
X132350010Y-67864918D01*
X131753052Y-67574067D01*
X131229594Y-67428896D01*
X130702000Y-67526251D01*
X130448000Y-67526251D01*
X129920406Y-67428896D01*
X129396948Y-67574067D01*
X128799990Y-67864918D01*
X128271245Y-68266641D01*
X127831032Y-68763798D01*
X127496268Y-69337284D01*
X127279818Y-69965060D01*
X127190000Y-70623000D01*
X127127000Y-70623000D01*
X127127000Y-63779872D01*
X127765000Y-63779872D01*
X127765000Y-64220128D01*
X127850890Y-64651925D01*
X128019369Y-65058669D01*
X128263962Y-65424729D01*
X128575271Y-65736038D01*
X128941331Y-65980631D01*
X129348075Y-66149110D01*
X129779872Y-66235000D01*
X130220128Y-66235000D01*
X130651925Y-66149110D01*
X131058669Y-65980631D01*
X131424729Y-65736038D01*
X131736038Y-65424729D01*
X131980631Y-65058669D01*
X132149110Y-64651925D01*
X132235000Y-64220128D01*
X132235000Y-63779872D01*
X132149110Y-63348075D01*
X131980631Y-62941331D01*
X131736038Y-62575271D01*
X131424729Y-62263962D01*
X131058669Y-62019369D01*
X130651925Y-61850890D01*
X130220128Y-61765000D01*
X129779872Y-61765000D01*
X129348075Y-61850890D01*
X128941331Y-62019369D01*
X128575271Y-62263962D01*
X128263962Y-62575271D01*
X128019369Y-62941331D01*
X127850890Y-63348075D01*
X127765000Y-63779872D01*
X127127000Y-63779872D01*
X127127000Y-58308212D01*
X128659000Y-58308212D01*
X128659000Y-58531788D01*
X128702617Y-58751067D01*
X128788176Y-58957624D01*
X128912388Y-59143520D01*
X129070480Y-59301612D01*
X129256376Y-59425824D01*
X129462933Y-59511383D01*
X129682212Y-59555000D01*
X129905788Y-59555000D01*
X130125067Y-59511383D01*
X130331624Y-59425824D01*
X130517520Y-59301612D01*
X130675612Y-59143520D01*
X130799824Y-58957624D01*
X130885383Y-58751067D01*
X130929000Y-58531788D01*
X130929000Y-58308212D01*
X130885383Y-58088933D01*
X130799824Y-57882376D01*
X130675612Y-57696480D01*
X130517520Y-57538388D01*
X130331624Y-57414176D01*
X130125067Y-57328617D01*
X129905788Y-57285000D01*
X129682212Y-57285000D01*
X129462933Y-57328617D01*
X129256376Y-57414176D01*
X129070480Y-57538388D01*
X128912388Y-57696480D01*
X128788176Y-57882376D01*
X128702617Y-58088933D01*
X128659000Y-58308212D01*
X127127000Y-58308212D01*
X127127000Y-56127000D01*
X154915934Y-56127000D01*
X154851972Y-56169738D01*
%TA.AperFunction,Conductor*%
D25*
G36*
X154851972Y-56169738D02*
G01*
X154721738Y-56299972D01*
X154619414Y-56453111D01*
X154548932Y-56623271D01*
X154513000Y-56803911D01*
X154513000Y-56988089D01*
X154548932Y-57168729D01*
X154619414Y-57338889D01*
X154689946Y-57444449D01*
X154627418Y-57463416D01*
X154491171Y-57536242D01*
X154371749Y-57634249D01*
X154273742Y-57753671D01*
X154200916Y-57889918D01*
X154156071Y-58037755D01*
X154140928Y-58191500D01*
X154140928Y-58491500D01*
X154156071Y-58645245D01*
X154200916Y-58793082D01*
X154273742Y-58929329D01*
X154312454Y-58976500D01*
X154273742Y-59023671D01*
X154200916Y-59159918D01*
X154156071Y-59307755D01*
X154140928Y-59461500D01*
X154140928Y-59761500D01*
X154156071Y-59915245D01*
X154200916Y-60063082D01*
X154273742Y-60199329D01*
X154312454Y-60246500D01*
X154273742Y-60293671D01*
X154200916Y-60429918D01*
X154156071Y-60577755D01*
X154140928Y-60731500D01*
X154140928Y-61031500D01*
X154156071Y-61185245D01*
X154200916Y-61333082D01*
X154273742Y-61469329D01*
X154312454Y-61516500D01*
X154273742Y-61563671D01*
X154200916Y-61699918D01*
X154156071Y-61847755D01*
X154140928Y-62001500D01*
X154140928Y-62301500D01*
X154145858Y-62351556D01*
X152405193Y-60610892D01*
X152401929Y-60577755D01*
X152357084Y-60429918D01*
X152284258Y-60293671D01*
X152245546Y-60246500D01*
X152284258Y-60199329D01*
X152357084Y-60063082D01*
X152401929Y-59915245D01*
X152417072Y-59761500D01*
X152417072Y-59461500D01*
X152401929Y-59307755D01*
X152357084Y-59159918D01*
X152284258Y-59023671D01*
X152245546Y-58976500D01*
X152284258Y-58929329D01*
X152357084Y-58793082D01*
X152401929Y-58645245D01*
X152417072Y-58491500D01*
X152417072Y-58191500D01*
X152401929Y-58037755D01*
X152357084Y-57889918D01*
X152284258Y-57753671D01*
X152186251Y-57634249D01*
X152066829Y-57536242D01*
X151930582Y-57463416D01*
X151782745Y-57418571D01*
X151629000Y-57403428D01*
X150940730Y-57403428D01*
X150484793Y-56947492D01*
X150460991Y-56918489D01*
X150345266Y-56823516D01*
X150213237Y-56752944D01*
X150069976Y-56709487D01*
X149958323Y-56698490D01*
X149958312Y-56698490D01*
X149920990Y-56694814D01*
X149883668Y-56698490D01*
X147388142Y-56698490D01*
X147350819Y-56694814D01*
X147313496Y-56698490D01*
X147313487Y-56698490D01*
X147201834Y-56709487D01*
X147141190Y-56727883D01*
X147132586Y-56707111D01*
X147030262Y-56553972D01*
X146900028Y-56423738D01*
X146746889Y-56321414D01*
X146576729Y-56250932D01*
X146396089Y-56215000D01*
X146211911Y-56215000D01*
X146031271Y-56250932D01*
X145861111Y-56321414D01*
X145707972Y-56423738D01*
X145577738Y-56553972D01*
X145475414Y-56707111D01*
X145404932Y-56877271D01*
X145379483Y-57005208D01*
X145341833Y-57001500D01*
X145341822Y-57001500D01*
X145304500Y-56997824D01*
X145267178Y-57001500D01*
X144695030Y-57001500D01*
X144587962Y-56871038D01*
X144453387Y-56760595D01*
X144299852Y-56678528D01*
X144133256Y-56627992D01*
X143960002Y-56610928D01*
X143059998Y-56610928D01*
X142886744Y-56627992D01*
X142720148Y-56678528D01*
X142566613Y-56760595D01*
X142432038Y-56871038D01*
X142321595Y-57005613D01*
X142239528Y-57159148D01*
X142188992Y-57325744D01*
X142171928Y-57498998D01*
X142171928Y-58024002D01*
X142188992Y-58197256D01*
X142239528Y-58363852D01*
X142321595Y-58517387D01*
X142432038Y-58651962D01*
X142458891Y-58674000D01*
X142432038Y-58696038D01*
X142321595Y-58830613D01*
X142239528Y-58984148D01*
X142188992Y-59150744D01*
X142171928Y-59323998D01*
X142171928Y-59849002D01*
X142188992Y-60022256D01*
X142239528Y-60188852D01*
X142298131Y-60298490D01*
X142283180Y-60290498D01*
X142163482Y-60254188D01*
X142039000Y-60241928D01*
X141139000Y-60241928D01*
X141014518Y-60254188D01*
X140894820Y-60290498D01*
X140784506Y-60349463D01*
X140687815Y-60428815D01*
X140608463Y-60525506D01*
X140549498Y-60635820D01*
X140513188Y-60755518D01*
X140500928Y-60880000D01*
X140500928Y-61391905D01*
X140490185Y-61378815D01*
X140393494Y-61299463D01*
X140283180Y-61240498D01*
X140163482Y-61204188D01*
X140039000Y-61191928D01*
X139139000Y-61191928D01*
X139014518Y-61204188D01*
X138894820Y-61240498D01*
X138818999Y-61281026D01*
X138818999Y-60372321D01*
X138822675Y-60334998D01*
X138818999Y-60297675D01*
X138818999Y-60297666D01*
X138808002Y-60186013D01*
X138764545Y-60042752D01*
X138760392Y-60034983D01*
X138693973Y-59910722D01*
X138622798Y-59823996D01*
X138599000Y-59794998D01*
X138570002Y-59771200D01*
X138520016Y-59721214D01*
X138544012Y-59685302D01*
X138704953Y-59296756D01*
X138787000Y-58884279D01*
X138787000Y-58463721D01*
X138704953Y-58051244D01*
X138544012Y-57662698D01*
X138310363Y-57313017D01*
X138012983Y-57015637D01*
X137663302Y-56781988D01*
X137274756Y-56621047D01*
X136862279Y-56539000D01*
X136441721Y-56539000D01*
X136029244Y-56621047D01*
X135640698Y-56781988D01*
X135291017Y-57015637D01*
X134993637Y-57313017D01*
X134759988Y-57662698D01*
X134599047Y-58051244D01*
X134517000Y-58463721D01*
X134517000Y-58884279D01*
X134599047Y-59296756D01*
X134759988Y-59685302D01*
X134993637Y-60034983D01*
X135291017Y-60332363D01*
X135640698Y-60566012D01*
X136029244Y-60726953D01*
X136441721Y-60809000D01*
X136862279Y-60809000D01*
X137274756Y-60726953D01*
X137299000Y-60716911D01*
X137298999Y-62455265D01*
X137295323Y-62492588D01*
X137298999Y-62529910D01*
X137298999Y-62529920D01*
X137309996Y-62641573D01*
X137353453Y-62784834D01*
X137424025Y-62916863D01*
X137518998Y-63032589D01*
X137548002Y-63056392D01*
X139013354Y-64521745D01*
X138975333Y-64518000D01*
X138975322Y-64518000D01*
X138938000Y-64514324D01*
X138900678Y-64518000D01*
X138648105Y-64518000D01*
X138544012Y-64266698D01*
X138310363Y-63917017D01*
X138012983Y-63619637D01*
X137663302Y-63385988D01*
X137274756Y-63225047D01*
X136862279Y-63143000D01*
X136441721Y-63143000D01*
X136029244Y-63225047D01*
X135640698Y-63385988D01*
X135291017Y-63619637D01*
X134993637Y-63917017D01*
X134759988Y-64266698D01*
X134599047Y-64655244D01*
X134517000Y-65067721D01*
X134517000Y-65488279D01*
X134599047Y-65900756D01*
X134759988Y-66289302D01*
X134993637Y-66638983D01*
X135291017Y-66936363D01*
X135640698Y-67170012D01*
X136029244Y-67330953D01*
X136441721Y-67413000D01*
X136862279Y-67413000D01*
X137274756Y-67330953D01*
X137663302Y-67170012D01*
X138012983Y-66936363D01*
X138310363Y-66638983D01*
X138544012Y-66289302D01*
X138640810Y-66055611D01*
X138706216Y-66121017D01*
X138730019Y-66150021D01*
X138845744Y-66244994D01*
X138977773Y-66315566D01*
X139121034Y-66359023D01*
X139232687Y-66370020D01*
X139232696Y-66370020D01*
X139270019Y-66373696D01*
X139307342Y-66370020D01*
X143074604Y-66370020D01*
X142594498Y-66850126D01*
X142565500Y-66873924D01*
X142541702Y-66902922D01*
X142541701Y-66902923D01*
X142470526Y-66989649D01*
X142399954Y-67121679D01*
X142378153Y-67193551D01*
X142357273Y-67262386D01*
X142356498Y-67264940D01*
X142341824Y-67413925D01*
X142345501Y-67451257D01*
X142345500Y-70177175D01*
X142341824Y-70214498D01*
X142345500Y-70251820D01*
X142345500Y-70251830D01*
X142356497Y-70363483D01*
X142393968Y-70487009D01*
X142399954Y-70506744D01*
X142433527Y-70569554D01*
X142423820Y-70572498D01*
X142313506Y-70631463D01*
X142216815Y-70710815D01*
X142137463Y-70807506D01*
X142078498Y-70917820D01*
X142042188Y-71037518D01*
X142029928Y-71162000D01*
X142033000Y-71326250D01*
X142191750Y-71485000D01*
X142941000Y-71485000D01*
X142941000Y-71465000D01*
X143033002Y-71465000D01*
X143033001Y-71759000D01*
X142941000Y-71759000D01*
X142941000Y-71739000D01*
X142191750Y-71739000D01*
X142033000Y-71897750D01*
X142029928Y-72062000D01*
X142042188Y-72186482D01*
X142078498Y-72306180D01*
X142137463Y-72416494D01*
X142139953Y-72419529D01*
X142104595Y-72462613D01*
X142022528Y-72616148D01*
X141971992Y-72782744D01*
X141954928Y-72955998D01*
X141954928Y-73163322D01*
X141919243Y-73053617D01*
X141761214Y-72757962D01*
X141445653Y-72601952D01*
X140133605Y-73914000D01*
X141445653Y-75226048D01*
X141761214Y-75070038D01*
X141952020Y-74695255D01*
X142066044Y-74290449D01*
X142066945Y-74278950D01*
X142104595Y-74349387D01*
X142215038Y-74483962D01*
X142349613Y-74594405D01*
X142503148Y-74676472D01*
X142669744Y-74727008D01*
X142842998Y-74744072D01*
X143368002Y-74744072D01*
X143541256Y-74727008D01*
X143707852Y-74676472D01*
X143861387Y-74594405D01*
X143995962Y-74483962D01*
X144018000Y-74457109D01*
X144040038Y-74483962D01*
X144174613Y-74594405D01*
X144328148Y-74676472D01*
X144494744Y-74727008D01*
X144667998Y-74744072D01*
X145193002Y-74744072D01*
X145366256Y-74727008D01*
X145532852Y-74676472D01*
X145686387Y-74594405D01*
X145768269Y-74527206D01*
X145880614Y-74619405D01*
X146034150Y-74701472D01*
X146200746Y-74752008D01*
X146374000Y-74769072D01*
X146874000Y-74769072D01*
X147047254Y-74752008D01*
X147213850Y-74701472D01*
X147367386Y-74619405D01*
X147501962Y-74508962D01*
X147507342Y-74502406D01*
X147572815Y-74582185D01*
X147669506Y-74661537D01*
X147779820Y-74720502D01*
X147899518Y-74756812D01*
X148024000Y-74769072D01*
X148238250Y-74766000D01*
X148397000Y-74607250D01*
X148397000Y-73533000D01*
X148651000Y-73533000D01*
X148651000Y-74607250D01*
X148809750Y-74766000D01*
X149024000Y-74769072D01*
X149148482Y-74756812D01*
X149268180Y-74720502D01*
X149378494Y-74661537D01*
X149475185Y-74582185D01*
X149554537Y-74485494D01*
X149613502Y-74375180D01*
X149649812Y-74255482D01*
X149662072Y-74131000D01*
X149659000Y-73691750D01*
X149500250Y-73533000D01*
X148651000Y-73533000D01*
X148397000Y-73533000D01*
X148377000Y-73533000D01*
X148377000Y-73279000D01*
X148397000Y-73279000D01*
X148397000Y-71739000D01*
X148651000Y-71739000D01*
X148651000Y-73279000D01*
X149500250Y-73279000D01*
X149659000Y-73120250D01*
X149661940Y-72699940D01*
X150082250Y-72697000D01*
X150241000Y-72538250D01*
X150241000Y-71689000D01*
X149166750Y-71689000D01*
X149116750Y-71739000D01*
X148651000Y-71739000D01*
X148397000Y-71739000D01*
X148377000Y-71739000D01*
X148377000Y-71485000D01*
X148397000Y-71485000D01*
X148397000Y-71465000D01*
X148651000Y-71465000D01*
X148651000Y-71485000D01*
X149400250Y-71485000D01*
X149450250Y-71435000D01*
X150241000Y-71435000D01*
X150241000Y-71415000D01*
X150495000Y-71415000D01*
X150495000Y-71435000D01*
X150515000Y-71435000D01*
X150515000Y-71689000D01*
X150495000Y-71689000D01*
X150495000Y-72538250D01*
X150653750Y-72697000D01*
X151093000Y-72700072D01*
X151217482Y-72687812D01*
X151337180Y-72651502D01*
X151447494Y-72592537D01*
X151500628Y-72548932D01*
X151610148Y-72607472D01*
X151776744Y-72658008D01*
X151949998Y-72675072D01*
X152022358Y-72675072D01*
X151775152Y-72750061D01*
X151447683Y-72925097D01*
X151447681Y-72925098D01*
X151447682Y-72925098D01*
X151232579Y-73101628D01*
X151232577Y-73101630D01*
X151160655Y-73160655D01*
X151101630Y-73232577D01*
X149732582Y-74601626D01*
X149660655Y-74660655D01*
X149425097Y-74947683D01*
X149250061Y-75275153D01*
X149142275Y-75630477D01*
X149115000Y-75907404D01*
X149115000Y-75907411D01*
X149105881Y-76000000D01*
X149115000Y-76092589D01*
X149115000Y-76938300D01*
X148885750Y-76940000D01*
X148727000Y-77098750D01*
X148727000Y-77960500D01*
X148747000Y-77960500D01*
X148747000Y-78214500D01*
X148727000Y-78214500D01*
X148727000Y-78234500D01*
X148473000Y-78234500D01*
X148473000Y-78214500D01*
X148453000Y-78214500D01*
X148453000Y-77960500D01*
X148473000Y-77960500D01*
X148473000Y-77098750D01*
X148314250Y-76940000D01*
X147900000Y-76936928D01*
X147796217Y-76947149D01*
X147764972Y-76844148D01*
X147682905Y-76690613D01*
X147572462Y-76556038D01*
X147437887Y-76445595D01*
X147284352Y-76363528D01*
X147117756Y-76312992D01*
X146944502Y-76295928D01*
X146044498Y-76295928D01*
X145871244Y-76312992D01*
X145704648Y-76363528D01*
X145551113Y-76445595D01*
X145506231Y-76482429D01*
X145430886Y-76420595D01*
X145277350Y-76338528D01*
X145110754Y-76287992D01*
X144937500Y-76270928D01*
X143987500Y-76270928D01*
X143814246Y-76287992D01*
X143647650Y-76338528D01*
X143567106Y-76381580D01*
X143471462Y-76265038D01*
X143336887Y-76154595D01*
X143183352Y-76072528D01*
X143016756Y-76021992D01*
X142843502Y-76004928D01*
X142318498Y-76004928D01*
X142145244Y-76021992D01*
X141978648Y-76072528D01*
X141825113Y-76154595D01*
X141690538Y-76265038D01*
X141668500Y-76291891D01*
X141646462Y-76265038D01*
X141511887Y-76154595D01*
X141358352Y-76072528D01*
X141191756Y-76021992D01*
X141018502Y-76004928D01*
X140493498Y-76004928D01*
X140320244Y-76021992D01*
X140153648Y-76072528D01*
X140000113Y-76154595D01*
X139865538Y-76265038D01*
X139755095Y-76399613D01*
X139673028Y-76553148D01*
X139622492Y-76719744D01*
X139605428Y-76892998D01*
X139605428Y-76965000D01*
X139507911Y-76965000D01*
X139327271Y-77000932D01*
X139157111Y-77071414D01*
X139003972Y-77173738D01*
X138873738Y-77303972D01*
X138771414Y-77457111D01*
X138700932Y-77627271D01*
X138665000Y-77807911D01*
X138665000Y-77992089D01*
X138700932Y-78172729D01*
X138771414Y-78342889D01*
X138873738Y-78496028D01*
X139003972Y-78626262D01*
X139157111Y-78728586D01*
X139327271Y-78799068D01*
X139507911Y-78835000D01*
X139606615Y-78835000D01*
X139608500Y-79089250D01*
X139767250Y-79248000D01*
X140629000Y-79248000D01*
X140629000Y-79228000D01*
X140883000Y-79228000D01*
X140883000Y-79248000D01*
X140903000Y-79248000D01*
X140903000Y-79502000D01*
X140883000Y-79502000D01*
X140883000Y-79522000D01*
X140629000Y-79522000D01*
X140629000Y-79502000D01*
X139767250Y-79502000D01*
X139608500Y-79660750D01*
X139605428Y-80075000D01*
X139617688Y-80199482D01*
X139653998Y-80319180D01*
X139712963Y-80429494D01*
X139792315Y-80526185D01*
X139889006Y-80605537D01*
X139999320Y-80664502D01*
X140048705Y-80679483D01*
X139938114Y-80738595D01*
X139803538Y-80849038D01*
X139693095Y-80983614D01*
X139611028Y-81137150D01*
X139560492Y-81303746D01*
X139543428Y-81477000D01*
X139543428Y-81977000D01*
X139560492Y-82150254D01*
X139611028Y-82316850D01*
X139693095Y-82470386D01*
X139803538Y-82604962D01*
X139891317Y-82677000D01*
X139803538Y-82749038D01*
X139693095Y-82883614D01*
X139611028Y-83037150D01*
X139560492Y-83203746D01*
X139543428Y-83377000D01*
X139543428Y-83877000D01*
X139560492Y-84050254D01*
X139611028Y-84216850D01*
X139693095Y-84370386D01*
X139803538Y-84504962D01*
X139938114Y-84615405D01*
X140091650Y-84697472D01*
X140258246Y-84748008D01*
X140431500Y-84765072D01*
X141381500Y-84765072D01*
X141554754Y-84748008D01*
X141721350Y-84697472D01*
X141874886Y-84615405D01*
X142009462Y-84504962D01*
X142119905Y-84370386D01*
X142124516Y-84361759D01*
X142148963Y-84407494D01*
X142228315Y-84504185D01*
X142325006Y-84583537D01*
X142435320Y-84642502D01*
X142555018Y-84678812D01*
X142679500Y-84691072D01*
X142715000Y-84688294D01*
X142715000Y-85634946D01*
X142504500Y-85631928D01*
X142380018Y-85644188D01*
X142260320Y-85680498D01*
X142150006Y-85739463D01*
X142053315Y-85818815D01*
X141973963Y-85915506D01*
X141936307Y-85985954D01*
X141936572Y-85961000D01*
X141924312Y-85836518D01*
X141888002Y-85716820D01*
X141829037Y-85606506D01*
X141749685Y-85509815D01*
X141652994Y-85430463D01*
X141542680Y-85371498D01*
X141422982Y-85335188D01*
X141298500Y-85322928D01*
X140684250Y-85326000D01*
X140525500Y-85484750D01*
X140525500Y-86409000D01*
X140545500Y-86409000D01*
X140545500Y-86663000D01*
X140525500Y-86663000D01*
X140525500Y-86683000D01*
X140271500Y-86683000D01*
X140271500Y-86663000D01*
X137985500Y-86663000D01*
X137985500Y-86683000D01*
X137731500Y-86683000D01*
X137731500Y-86663000D01*
X136482250Y-86663000D01*
X136323500Y-86821750D01*
X136320428Y-87111000D01*
X136332688Y-87235482D01*
X136368998Y-87355180D01*
X136427963Y-87465494D01*
X136458743Y-87503000D01*
X135636000Y-87503000D01*
X135512118Y-87515201D01*
X135392996Y-87551336D01*
X135283213Y-87610017D01*
X135186987Y-87688987D01*
X135108017Y-87785213D01*
X135049336Y-87894996D01*
X135013201Y-88014118D01*
X135001000Y-88138000D01*
X135001000Y-101600000D01*
X135013201Y-101723882D01*
X135049336Y-101843004D01*
X135108017Y-101952787D01*
X135186987Y-102049013D01*
X135283213Y-102127983D01*
X135392996Y-102186664D01*
X135512118Y-102222799D01*
X135636000Y-102235000D01*
X137599928Y-102235000D01*
X137599928Y-102577502D01*
X137616992Y-102750756D01*
X137667528Y-102917352D01*
X137749595Y-103070887D01*
X137860038Y-103205462D01*
X137886891Y-103227500D01*
X137860038Y-103249538D01*
X137749595Y-103384113D01*
X137667528Y-103537648D01*
X137616992Y-103704244D01*
X137599928Y-103877498D01*
X137599928Y-104402502D01*
X137616992Y-104575756D01*
X137667528Y-104742352D01*
X137749595Y-104895887D01*
X137803000Y-104960961D01*
X137803000Y-105862249D01*
X137797509Y-105918000D01*
X137819423Y-106140498D01*
X137884324Y-106354446D01*
X137905733Y-106394499D01*
X137989717Y-106551623D01*
X138131552Y-106724449D01*
X138174860Y-106759991D01*
X138350004Y-106935135D01*
X138385551Y-106978449D01*
X138558377Y-107120284D01*
X138755553Y-107225676D01*
X138969501Y-107290577D01*
X139136248Y-107307000D01*
X139136257Y-107307000D01*
X139191999Y-107312490D01*
X139247741Y-107307000D01*
X147034640Y-107307000D01*
X147185637Y-107532983D01*
X147483017Y-107830363D01*
X147832698Y-108064012D01*
X148221244Y-108224953D01*
X148633721Y-108307000D01*
X149054279Y-108307000D01*
X149466756Y-108224953D01*
X149855302Y-108064012D01*
X150204983Y-107830363D01*
X150502363Y-107532983D01*
X150736012Y-107183302D01*
X150745457Y-107160500D01*
X152645749Y-107160500D01*
X152701500Y-107165991D01*
X152923999Y-107144077D01*
X153137947Y-107079176D01*
X153335123Y-106973784D01*
X153507949Y-106831949D01*
X153649784Y-106659123D01*
X153755176Y-106461947D01*
X153820077Y-106247999D01*
X153836500Y-106081252D01*
X153841991Y-106025500D01*
X153836500Y-105969748D01*
X153836500Y-105779872D01*
X167765000Y-105779872D01*
X167765000Y-106220128D01*
X167850890Y-106651925D01*
X168019369Y-107058669D01*
X168263962Y-107424729D01*
X168575271Y-107736038D01*
X168941331Y-107980631D01*
X169348075Y-108149110D01*
X169779872Y-108235000D01*
X170220128Y-108235000D01*
X170651925Y-108149110D01*
X171058669Y-107980631D01*
X171424729Y-107736038D01*
X171736038Y-107424729D01*
X171980631Y-107058669D01*
X172149110Y-106651925D01*
X172235000Y-106220128D01*
X172235000Y-105779872D01*
X172149110Y-105348075D01*
X171980631Y-104941331D01*
X171736038Y-104575271D01*
X171424729Y-104263962D01*
X171058669Y-104019369D01*
X170651925Y-103850890D01*
X170220128Y-103765000D01*
X169779872Y-103765000D01*
X169348075Y-103850890D01*
X168941331Y-104019369D01*
X168575271Y-104263962D01*
X168263962Y-104575271D01*
X168019369Y-104941331D01*
X167850890Y-105348075D01*
X167765000Y-105779872D01*
X153836500Y-105779872D01*
X153836500Y-105068461D01*
X153886530Y-105007500D01*
X160538178Y-105007500D01*
X160575500Y-105011176D01*
X160612822Y-105007500D01*
X160612833Y-105007500D01*
X160724486Y-104996503D01*
X160867747Y-104953046D01*
X160999776Y-104882474D01*
X161115501Y-104787501D01*
X161139304Y-104758497D01*
X161340497Y-104557304D01*
X161369501Y-104533501D01*
X161464474Y-104417776D01*
X161535046Y-104285747D01*
X161578503Y-104142486D01*
X161589500Y-104030833D01*
X161589500Y-104030824D01*
X161593176Y-103993501D01*
X161589500Y-103956178D01*
X161589500Y-102760822D01*
X161593176Y-102723499D01*
X161589500Y-102686176D01*
X161589500Y-102686167D01*
X161578503Y-102574514D01*
X161535046Y-102431253D01*
X161481399Y-102330888D01*
X161487382Y-102330299D01*
X161606504Y-102294164D01*
X161716287Y-102235483D01*
X161812513Y-102156513D01*
X161891483Y-102060287D01*
X161950164Y-101950504D01*
X161986299Y-101831382D01*
X161998500Y-101707500D01*
X161998500Y-99202212D01*
X162949000Y-99202212D01*
X162949000Y-99425788D01*
X162992617Y-99645067D01*
X163078176Y-99851624D01*
X163202388Y-100037520D01*
X163360480Y-100195612D01*
X163546376Y-100319824D01*
X163752933Y-100405383D01*
X163972212Y-100449000D01*
X164195788Y-100449000D01*
X164415067Y-100405383D01*
X164621624Y-100319824D01*
X164807520Y-100195612D01*
X164965612Y-100037520D01*
X165089824Y-99851624D01*
X165175383Y-99645067D01*
X165219000Y-99425788D01*
X165219000Y-99202212D01*
X165175383Y-98982933D01*
X165089824Y-98776376D01*
X164965612Y-98590480D01*
X164807520Y-98432388D01*
X164621624Y-98308176D01*
X164415067Y-98222617D01*
X164195788Y-98179000D01*
X163972212Y-98179000D01*
X163752933Y-98222617D01*
X163546376Y-98308176D01*
X163360480Y-98432388D01*
X163202388Y-98590480D01*
X163078176Y-98776376D01*
X162992617Y-98982933D01*
X162949000Y-99202212D01*
X161998500Y-99202212D01*
X161998500Y-90930268D01*
X162072745Y-90923024D01*
X162191932Y-90887106D01*
X162301822Y-90828627D01*
X162398192Y-90749832D01*
X162477338Y-90653751D01*
X162536219Y-90544075D01*
X162572571Y-90425019D01*
X162584999Y-90301160D01*
X162592775Y-86043036D01*
X162734848Y-85999938D01*
X163062317Y-85824902D01*
X163277420Y-85648372D01*
X163907415Y-85018376D01*
X163907420Y-85018372D01*
X165780933Y-83144860D01*
X165852855Y-83085835D01*
X165934479Y-82986377D01*
X166040000Y-82857798D01*
X166040001Y-99416287D01*
X166088980Y-99913576D01*
X166282537Y-100551651D01*
X166596859Y-101139704D01*
X167019864Y-101655137D01*
X167535297Y-102078142D01*
X168123350Y-102392464D01*
X168761425Y-102586021D01*
X169425000Y-102651378D01*
X170088576Y-102586021D01*
X170726651Y-102392464D01*
X171314704Y-102078142D01*
X171830137Y-101655137D01*
X172253142Y-101139704D01*
X172567464Y-100551651D01*
X172761021Y-99913576D01*
X172810000Y-99416287D01*
X172810000Y-70583713D01*
X172761021Y-70086424D01*
X172567464Y-69448349D01*
X172253142Y-68860296D01*
X171830137Y-68344863D01*
X171314703Y-67921858D01*
X170726650Y-67607536D01*
X170088575Y-67413979D01*
X169425000Y-67348622D01*
X168761424Y-67413979D01*
X168238421Y-67572629D01*
X167267420Y-66601628D01*
X167052317Y-66425098D01*
X166724848Y-66250062D01*
X166369524Y-66142275D01*
X166000000Y-66105881D01*
X165630476Y-66142275D01*
X165275152Y-66250062D01*
X165269966Y-66252834D01*
X164207072Y-65189941D01*
X164207072Y-64907000D01*
X164190008Y-64733746D01*
X164139472Y-64567150D01*
X164057405Y-64413614D01*
X163946962Y-64279038D01*
X163812386Y-64168595D01*
X163658850Y-64086528D01*
X163492254Y-64035992D01*
X163466500Y-64033455D01*
X163466500Y-63779872D01*
X167765000Y-63779872D01*
X167765000Y-64220128D01*
X167850890Y-64651925D01*
X168019369Y-65058669D01*
X168263962Y-65424729D01*
X168575271Y-65736038D01*
X168941331Y-65980631D01*
X169348075Y-66149110D01*
X169779872Y-66235000D01*
X170220128Y-66235000D01*
X170651925Y-66149110D01*
X171058669Y-65980631D01*
X171424729Y-65736038D01*
X171736038Y-65424729D01*
X171980631Y-65058669D01*
X172149110Y-64651925D01*
X172235000Y-64220128D01*
X172235000Y-63779872D01*
X172149110Y-63348075D01*
X171980631Y-62941331D01*
X171736038Y-62575271D01*
X171424729Y-62263962D01*
X171058669Y-62019369D01*
X170651925Y-61850890D01*
X170220128Y-61765000D01*
X169779872Y-61765000D01*
X169348075Y-61850890D01*
X168941331Y-62019369D01*
X168575271Y-62263962D01*
X168263962Y-62575271D01*
X168019369Y-62941331D01*
X167850890Y-63348075D01*
X167765000Y-63779872D01*
X163466500Y-63779872D01*
X163466500Y-63190248D01*
X163450077Y-63023501D01*
X163391318Y-62829800D01*
X163390608Y-62822592D01*
X163341850Y-62661858D01*
X163262671Y-62513725D01*
X163156115Y-62383885D01*
X163026275Y-62277329D01*
X162878142Y-62198150D01*
X162717408Y-62149392D01*
X162582673Y-62136121D01*
X162553998Y-62127423D01*
X162551153Y-62127143D01*
X162559999Y-62037334D01*
X162559999Y-62037326D01*
X162563675Y-62000001D01*
X162559999Y-61962676D01*
X162559999Y-59070821D01*
X162563675Y-59033498D01*
X162559999Y-58996175D01*
X162559999Y-58996166D01*
X162549002Y-58884513D01*
X162528284Y-58816212D01*
X168791000Y-58816212D01*
X168791000Y-59039788D01*
X168834617Y-59259067D01*
X168920176Y-59465624D01*
X169044388Y-59651520D01*
X169202480Y-59809612D01*
X169388376Y-59933824D01*
X169594933Y-60019383D01*
X169814212Y-60063000D01*
X170037788Y-60063000D01*
X170257067Y-60019383D01*
X170463624Y-59933824D01*
X170649520Y-59809612D01*
X170807612Y-59651520D01*
X170931824Y-59465624D01*
X171017383Y-59259067D01*
X171061000Y-59039788D01*
X171061000Y-58816212D01*
X171017383Y-58596933D01*
X170931824Y-58390376D01*
X170807612Y-58204480D01*
X170649520Y-58046388D01*
X170463624Y-57922176D01*
X170257067Y-57836617D01*
X170037788Y-57793000D01*
X169814212Y-57793000D01*
X169594933Y-57836617D01*
X169388376Y-57922176D01*
X169202480Y-58046388D01*
X169044388Y-58204480D01*
X168920176Y-58390376D01*
X168834617Y-58596933D01*
X168791000Y-58816212D01*
X162528284Y-58816212D01*
X162505545Y-58741252D01*
X162434973Y-58609223D01*
X162340000Y-58493498D01*
X162311002Y-58469700D01*
X161866003Y-58024701D01*
X161866072Y-58024002D01*
X161866072Y-57498998D01*
X161849008Y-57325744D01*
X161798472Y-57159148D01*
X161716405Y-57005613D01*
X161605962Y-56871038D01*
X161471387Y-56760595D01*
X161317852Y-56678528D01*
X161151256Y-56627992D01*
X160978002Y-56610928D01*
X160077998Y-56610928D01*
X159904744Y-56627992D01*
X159738148Y-56678528D01*
X159584613Y-56760595D01*
X159479172Y-56847128D01*
X159418185Y-56772815D01*
X159321494Y-56693463D01*
X159211180Y-56634498D01*
X159091482Y-56598188D01*
X158967000Y-56585928D01*
X158527750Y-56589000D01*
X158369000Y-56747750D01*
X158369000Y-57597000D01*
X158389000Y-57597000D01*
X158389000Y-57851000D01*
X158369000Y-57851000D01*
X158369000Y-57871000D01*
X158115000Y-57871000D01*
X158115000Y-57851000D01*
X158095000Y-57851000D01*
X158095000Y-57597000D01*
X158115000Y-57597000D01*
X158115000Y-56747750D01*
X157956250Y-56589000D01*
X157517000Y-56585928D01*
X157392518Y-56598188D01*
X157272820Y-56634498D01*
X157162506Y-56693463D01*
X157065815Y-56772815D01*
X156986463Y-56869506D01*
X156927498Y-56979820D01*
X156891188Y-57099518D01*
X156878928Y-57224000D01*
X156882000Y-57438250D01*
X156937692Y-57493942D01*
X156880582Y-57463416D01*
X156732745Y-57418571D01*
X156579000Y-57403428D01*
X156514000Y-57403428D01*
X156514000Y-57239322D01*
X156517676Y-57201999D01*
X156514000Y-57164676D01*
X156514000Y-57164667D01*
X156503003Y-57053014D01*
X156459546Y-56909753D01*
X156388974Y-56777724D01*
X156374213Y-56759738D01*
X156347068Y-56623271D01*
X156276586Y-56453111D01*
X156174262Y-56299972D01*
X156044028Y-56169738D01*
X155980066Y-56127000D01*
X172873000Y-56127000D01*
X172873000Y-108873000D01*
X127127000Y-108873000D01*
X127127000Y-105779872D01*
X127765000Y-105779872D01*
X127765000Y-106220128D01*
X127850890Y-106651925D01*
X128019369Y-107058669D01*
X128263962Y-107424729D01*
X128575271Y-107736038D01*
X128941331Y-107980631D01*
X129348075Y-108149110D01*
X129779872Y-108235000D01*
X130220128Y-108235000D01*
X130651925Y-108149110D01*
X131058669Y-107980631D01*
X131424729Y-107736038D01*
X131736038Y-107424729D01*
X131980631Y-107058669D01*
X132149110Y-106651925D01*
X132235000Y-106220128D01*
X132235000Y-105779872D01*
X132149110Y-105348075D01*
X131980631Y-104941331D01*
X131736038Y-104575271D01*
X131424729Y-104263962D01*
X131058669Y-104019369D01*
X130651925Y-103850890D01*
X130220128Y-103765000D01*
X129779872Y-103765000D01*
X129348075Y-103850890D01*
X128941331Y-104019369D01*
X128575271Y-104263962D01*
X128263962Y-104575271D01*
X128019369Y-104941331D01*
X127850890Y-105348075D01*
X127765000Y-105779872D01*
X127127000Y-105779872D01*
X127127000Y-85127000D01*
X127190000Y-85127000D01*
X127190000Y-99377000D01*
X127279818Y-100034940D01*
X127496268Y-100662716D01*
X127831032Y-101236202D01*
X128271245Y-101733359D01*
X128799990Y-102135082D01*
X129396948Y-102425933D01*
X129920406Y-102571104D01*
X130448000Y-102473749D01*
X130448000Y-85127000D01*
X130702000Y-85127000D01*
X130702000Y-102473749D01*
X131229594Y-102571104D01*
X131753052Y-102425933D01*
X132350010Y-102135082D01*
X132878755Y-101733359D01*
X133318968Y-101236202D01*
X133653732Y-100662716D01*
X133870182Y-100034940D01*
X133960000Y-99377000D01*
X133960000Y-85961000D01*
X136320428Y-85961000D01*
X136323500Y-86250250D01*
X136482250Y-86409000D01*
X137731500Y-86409000D01*
X137731500Y-85484750D01*
X137985500Y-85484750D01*
X137985500Y-86409000D01*
X140271500Y-86409000D01*
X140271500Y-85484750D01*
X140112750Y-85326000D01*
X139498500Y-85322928D01*
X139374018Y-85335188D01*
X139254320Y-85371498D01*
X139144006Y-85430463D01*
X139128500Y-85443188D01*
X139112994Y-85430463D01*
X139002680Y-85371498D01*
X138882982Y-85335188D01*
X138758500Y-85322928D01*
X138144250Y-85326000D01*
X137985500Y-85484750D01*
X137731500Y-85484750D01*
X137572750Y-85326000D01*
X136958500Y-85322928D01*
X136834018Y-85335188D01*
X136714320Y-85371498D01*
X136604006Y-85430463D01*
X136507315Y-85509815D01*
X136427963Y-85606506D01*
X136368998Y-85716820D01*
X136332688Y-85836518D01*
X136320428Y-85961000D01*
X133960000Y-85961000D01*
X133960000Y-85127000D01*
X130702000Y-85127000D01*
X130448000Y-85127000D01*
X127190000Y-85127000D01*
X127127000Y-85127000D01*
X127127000Y-70623000D01*
X127190000Y-70623000D01*
X127190000Y-84873000D01*
X130448000Y-84873000D01*
X130448000Y-67526251D01*
X130702000Y-67526251D01*
X130702000Y-84873000D01*
X133960000Y-84873000D01*
X133960000Y-75405653D01*
X138641952Y-75405653D01*
X138797962Y-75721214D01*
X139172745Y-75912020D01*
X139577551Y-76026044D01*
X139996824Y-76058902D01*
X140414451Y-76009334D01*
X140814383Y-75879243D01*
X141110038Y-75721214D01*
X141266048Y-75405653D01*
X139954000Y-74093605D01*
X138641952Y-75405653D01*
X133960000Y-75405653D01*
X133960000Y-72178824D01*
X134507098Y-72178824D01*
X134556666Y-72596451D01*
X134686757Y-72996383D01*
X134844786Y-73292038D01*
X135160347Y-73448048D01*
X136472395Y-72136000D01*
X135160347Y-70823952D01*
X134844786Y-70979962D01*
X134653980Y-71354745D01*
X134539956Y-71759551D01*
X134507098Y-72178824D01*
X133960000Y-72178824D01*
X133960000Y-70644347D01*
X135339952Y-70644347D01*
X136652000Y-71956395D01*
X136666143Y-71942253D01*
X136845748Y-72121858D01*
X136831605Y-72136000D01*
X136845748Y-72150143D01*
X136666143Y-72329748D01*
X136652000Y-72315605D01*
X135339952Y-73627653D01*
X135495962Y-73943214D01*
X135870745Y-74134020D01*
X136275551Y-74248044D01*
X136694824Y-74280902D01*
X137112451Y-74231334D01*
X137512383Y-74101243D01*
X137808038Y-73943214D01*
X137810565Y-73938102D01*
X137809098Y-73956824D01*
X137858666Y-74374451D01*
X137988757Y-74774383D01*
X138146786Y-75070038D01*
X138462347Y-75226048D01*
X139774395Y-73914000D01*
X139760253Y-73899858D01*
X139939858Y-73720253D01*
X139954000Y-73734395D01*
X141266048Y-72422347D01*
X141110038Y-72106786D01*
X140922639Y-72011379D01*
X141110038Y-71911214D01*
X141266048Y-71595653D01*
X139954000Y-70283605D01*
X139939858Y-70297748D01*
X139760253Y-70118143D01*
X139774395Y-70104000D01*
X140133605Y-70104000D01*
X141445653Y-71416048D01*
X141761214Y-71260038D01*
X141952020Y-70885255D01*
X142066044Y-70480449D01*
X142098902Y-70061176D01*
X142049334Y-69643549D01*
X141919243Y-69243617D01*
X141761214Y-68947962D01*
X141445653Y-68791952D01*
X140133605Y-70104000D01*
X139774395Y-70104000D01*
X138462347Y-68791952D01*
X138146786Y-68947962D01*
X137955980Y-69322745D01*
X137841956Y-69727551D01*
X137809098Y-70146824D01*
X137837853Y-70389092D01*
X137808038Y-70328786D01*
X137433255Y-70137980D01*
X137028449Y-70023956D01*
X136609176Y-69991098D01*
X136191549Y-70040666D01*
X135791617Y-70170757D01*
X135495962Y-70328786D01*
X135339952Y-70644347D01*
X133960000Y-70644347D01*
X133960000Y-70623000D01*
X133870182Y-69965060D01*
X133653732Y-69337284D01*
X133318968Y-68763798D01*
X133184865Y-68612347D01*
X138641952Y-68612347D01*
X139954000Y-69924395D01*
X141266048Y-68612347D01*
X141110038Y-68296786D01*
X140735255Y-68105980D01*
X140330449Y-67991956D01*
X139911176Y-67959098D01*
X139493549Y-68008666D01*
X139093617Y-68138757D01*
X138797962Y-68296786D01*
X138641952Y-68612347D01*
X133184865Y-68612347D01*
X132878755Y-68266641D01*
X132350010Y-67864918D01*
X131753052Y-67574067D01*
X131229594Y-67428896D01*
X130702000Y-67526251D01*
X130448000Y-67526251D01*
X129920406Y-67428896D01*
X129396948Y-67574067D01*
X128799990Y-67864918D01*
X128271245Y-68266641D01*
X127831032Y-68763798D01*
X127496268Y-69337284D01*
X127279818Y-69965060D01*
X127190000Y-70623000D01*
X127127000Y-70623000D01*
X127127000Y-63779872D01*
X127765000Y-63779872D01*
X127765000Y-64220128D01*
X127850890Y-64651925D01*
X128019369Y-65058669D01*
X128263962Y-65424729D01*
X128575271Y-65736038D01*
X128941331Y-65980631D01*
X129348075Y-66149110D01*
X129779872Y-66235000D01*
X130220128Y-66235000D01*
X130651925Y-66149110D01*
X131058669Y-65980631D01*
X131424729Y-65736038D01*
X131736038Y-65424729D01*
X131980631Y-65058669D01*
X132149110Y-64651925D01*
X132235000Y-64220128D01*
X132235000Y-63779872D01*
X132149110Y-63348075D01*
X131980631Y-62941331D01*
X131736038Y-62575271D01*
X131424729Y-62263962D01*
X131058669Y-62019369D01*
X130651925Y-61850890D01*
X130220128Y-61765000D01*
X129779872Y-61765000D01*
X129348075Y-61850890D01*
X128941331Y-62019369D01*
X128575271Y-62263962D01*
X128263962Y-62575271D01*
X128019369Y-62941331D01*
X127850890Y-63348075D01*
X127765000Y-63779872D01*
X127127000Y-63779872D01*
X127127000Y-58308212D01*
X128659000Y-58308212D01*
X128659000Y-58531788D01*
X128702617Y-58751067D01*
X128788176Y-58957624D01*
X128912388Y-59143520D01*
X129070480Y-59301612D01*
X129256376Y-59425824D01*
X129462933Y-59511383D01*
X129682212Y-59555000D01*
X129905788Y-59555000D01*
X130125067Y-59511383D01*
X130331624Y-59425824D01*
X130517520Y-59301612D01*
X130675612Y-59143520D01*
X130799824Y-58957624D01*
X130885383Y-58751067D01*
X130929000Y-58531788D01*
X130929000Y-58308212D01*
X130885383Y-58088933D01*
X130799824Y-57882376D01*
X130675612Y-57696480D01*
X130517520Y-57538388D01*
X130331624Y-57414176D01*
X130125067Y-57328617D01*
X129905788Y-57285000D01*
X129682212Y-57285000D01*
X129462933Y-57328617D01*
X129256376Y-57414176D01*
X129070480Y-57538388D01*
X128912388Y-57696480D01*
X128788176Y-57882376D01*
X128702617Y-58088933D01*
X128659000Y-58308212D01*
X127127000Y-58308212D01*
X127127000Y-56127000D01*
X154915934Y-56127000D01*
X154851972Y-56169738D01*
G37*
%TD.AperFunction*%
D24*
X156624000Y-89261500D02*
X156644000Y-89261500D01*
X156644000Y-89515500D01*
X156624000Y-89515500D01*
X156624000Y-89535500D01*
X156370000Y-89535500D01*
X156370000Y-89515500D01*
X156350000Y-89515500D01*
X156350000Y-89261500D01*
X156370000Y-89261500D01*
X156370000Y-89241500D01*
X156624000Y-89241500D01*
X156624000Y-89261500D01*
%TA.AperFunction,Conductor*%
D25*
G36*
X156624000Y-89261500D02*
G01*
X156644000Y-89261500D01*
X156644000Y-89515500D01*
X156624000Y-89515500D01*
X156624000Y-89535500D01*
X156370000Y-89535500D01*
X156370000Y-89515500D01*
X156350000Y-89515500D01*
X156350000Y-89261500D01*
X156370000Y-89261500D01*
X156370000Y-89241500D01*
X156624000Y-89241500D01*
X156624000Y-89261500D01*
G37*
%TD.AperFunction*%
D24*
X142860500Y-89154000D02*
X142880500Y-89154000D01*
X142880500Y-89408000D01*
X142860500Y-89408000D01*
X142860500Y-89428000D01*
X142606500Y-89428000D01*
X142606500Y-89408000D01*
X142586500Y-89408000D01*
X142586500Y-89154000D01*
X142606500Y-89154000D01*
X142606500Y-89134000D01*
X142860500Y-89134000D01*
X142860500Y-89154000D01*
%TA.AperFunction,Conductor*%
D25*
G36*
X142860500Y-89154000D02*
G01*
X142880500Y-89154000D01*
X142880500Y-89408000D01*
X142860500Y-89408000D01*
X142860500Y-89428000D01*
X142606500Y-89428000D01*
X142606500Y-89408000D01*
X142586500Y-89408000D01*
X142586500Y-89154000D01*
X142606500Y-89154000D01*
X142606500Y-89134000D01*
X142860500Y-89134000D01*
X142860500Y-89154000D01*
G37*
%TD.AperFunction*%
D24*
X152920611Y-78836086D02*
X153090771Y-78906568D01*
X153271411Y-78942500D01*
X153370115Y-78942500D01*
X153372000Y-79196750D01*
X153530750Y-79355500D01*
X154392500Y-79355500D01*
X154392500Y-79335500D01*
X154646500Y-79335500D01*
X154646500Y-79355500D01*
X154666500Y-79355500D01*
X154666500Y-79609500D01*
X154646500Y-79609500D01*
X154646500Y-79629500D01*
X154392500Y-79629500D01*
X154392500Y-79609500D01*
X153530750Y-79609500D01*
X153372000Y-79768250D01*
X153368928Y-80182500D01*
X153381188Y-80306982D01*
X153417498Y-80426680D01*
X153476463Y-80536994D01*
X153555815Y-80633685D01*
X153652506Y-80713037D01*
X153762820Y-80772002D01*
X153812205Y-80786983D01*
X153701614Y-80846095D01*
X153567038Y-80956538D01*
X153456595Y-81091114D01*
X153374528Y-81244650D01*
X153323992Y-81411246D01*
X153306928Y-81584500D01*
X153306928Y-82084500D01*
X153323992Y-82257754D01*
X153374528Y-82424350D01*
X153456595Y-82577886D01*
X153567038Y-82712462D01*
X153654817Y-82784500D01*
X153567038Y-82856538D01*
X153456595Y-82991114D01*
X153374528Y-83144650D01*
X153323992Y-83311246D01*
X153306928Y-83484500D01*
X153306928Y-83984500D01*
X153323992Y-84157754D01*
X153374528Y-84324350D01*
X153456595Y-84477886D01*
X153567038Y-84612462D01*
X153701614Y-84722905D01*
X153855150Y-84804972D01*
X154021746Y-84855508D01*
X154195000Y-84872572D01*
X155145000Y-84872572D01*
X155318254Y-84855508D01*
X155484850Y-84804972D01*
X155638386Y-84722905D01*
X155772962Y-84612462D01*
X155883405Y-84477886D01*
X155888016Y-84469259D01*
X155912463Y-84514994D01*
X155991815Y-84611685D01*
X156088506Y-84691037D01*
X156198820Y-84750002D01*
X156318518Y-84786312D01*
X156443000Y-84798572D01*
X156478500Y-84795794D01*
X156478500Y-85742446D01*
X156268000Y-85739428D01*
X156143518Y-85751688D01*
X156023820Y-85787998D01*
X155913506Y-85846963D01*
X155816815Y-85926315D01*
X155737463Y-86023006D01*
X155699807Y-86093454D01*
X155700072Y-86068500D01*
X155687812Y-85944018D01*
X155651502Y-85824320D01*
X155592537Y-85714006D01*
X155513185Y-85617315D01*
X155416494Y-85537963D01*
X155306180Y-85478998D01*
X155186482Y-85442688D01*
X155062000Y-85430428D01*
X154447750Y-85433500D01*
X154289000Y-85592250D01*
X154289000Y-86516500D01*
X154309000Y-86516500D01*
X154309000Y-86770500D01*
X154289000Y-86770500D01*
X154289000Y-86790500D01*
X154035000Y-86790500D01*
X154035000Y-86770500D01*
X151749000Y-86770500D01*
X151749000Y-86790500D01*
X151495000Y-86790500D01*
X151495000Y-86770500D01*
X150245750Y-86770500D01*
X150087000Y-86929250D01*
X150083928Y-87218500D01*
X150096188Y-87342982D01*
X150132498Y-87462680D01*
X150191463Y-87572994D01*
X150222243Y-87610500D01*
X149399500Y-87610500D01*
X149275618Y-87622701D01*
X149156496Y-87658836D01*
X149046713Y-87717517D01*
X148950487Y-87796487D01*
X148871517Y-87892713D01*
X148835000Y-87961031D01*
X148835000Y-86635747D01*
X149119524Y-86607725D01*
X149474848Y-86499938D01*
X149802317Y-86324902D01*
X150017420Y-86148372D01*
X150084068Y-86081724D01*
X150087000Y-86357750D01*
X150245750Y-86516500D01*
X151495000Y-86516500D01*
X151495000Y-85592250D01*
X151749000Y-85592250D01*
X151749000Y-86516500D01*
X154035000Y-86516500D01*
X154035000Y-85592250D01*
X153876250Y-85433500D01*
X153262000Y-85430428D01*
X153137518Y-85442688D01*
X153017820Y-85478998D01*
X152907506Y-85537963D01*
X152892000Y-85550688D01*
X152876494Y-85537963D01*
X152766180Y-85478998D01*
X152646482Y-85442688D01*
X152522000Y-85430428D01*
X151907750Y-85433500D01*
X151749000Y-85592250D01*
X151495000Y-85592250D01*
X151336250Y-85433500D01*
X150735297Y-85430495D01*
X152267418Y-83898374D01*
X152339345Y-83839345D01*
X152574903Y-83552317D01*
X152749939Y-83224848D01*
X152857725Y-82869524D01*
X152885000Y-82592597D01*
X152885000Y-82592588D01*
X152894119Y-82500001D01*
X152885000Y-82407414D01*
X152885000Y-78812292D01*
X152920611Y-78836086D01*
%TA.AperFunction,Conductor*%
D25*
G36*
X152920611Y-78836086D02*
G01*
X153090771Y-78906568D01*
X153271411Y-78942500D01*
X153370115Y-78942500D01*
X153372000Y-79196750D01*
X153530750Y-79355500D01*
X154392500Y-79355500D01*
X154392500Y-79335500D01*
X154646500Y-79335500D01*
X154646500Y-79355500D01*
X154666500Y-79355500D01*
X154666500Y-79609500D01*
X154646500Y-79609500D01*
X154646500Y-79629500D01*
X154392500Y-79629500D01*
X154392500Y-79609500D01*
X153530750Y-79609500D01*
X153372000Y-79768250D01*
X153368928Y-80182500D01*
X153381188Y-80306982D01*
X153417498Y-80426680D01*
X153476463Y-80536994D01*
X153555815Y-80633685D01*
X153652506Y-80713037D01*
X153762820Y-80772002D01*
X153812205Y-80786983D01*
X153701614Y-80846095D01*
X153567038Y-80956538D01*
X153456595Y-81091114D01*
X153374528Y-81244650D01*
X153323992Y-81411246D01*
X153306928Y-81584500D01*
X153306928Y-82084500D01*
X153323992Y-82257754D01*
X153374528Y-82424350D01*
X153456595Y-82577886D01*
X153567038Y-82712462D01*
X153654817Y-82784500D01*
X153567038Y-82856538D01*
X153456595Y-82991114D01*
X153374528Y-83144650D01*
X153323992Y-83311246D01*
X153306928Y-83484500D01*
X153306928Y-83984500D01*
X153323992Y-84157754D01*
X153374528Y-84324350D01*
X153456595Y-84477886D01*
X153567038Y-84612462D01*
X153701614Y-84722905D01*
X153855150Y-84804972D01*
X154021746Y-84855508D01*
X154195000Y-84872572D01*
X155145000Y-84872572D01*
X155318254Y-84855508D01*
X155484850Y-84804972D01*
X155638386Y-84722905D01*
X155772962Y-84612462D01*
X155883405Y-84477886D01*
X155888016Y-84469259D01*
X155912463Y-84514994D01*
X155991815Y-84611685D01*
X156088506Y-84691037D01*
X156198820Y-84750002D01*
X156318518Y-84786312D01*
X156443000Y-84798572D01*
X156478500Y-84795794D01*
X156478500Y-85742446D01*
X156268000Y-85739428D01*
X156143518Y-85751688D01*
X156023820Y-85787998D01*
X155913506Y-85846963D01*
X155816815Y-85926315D01*
X155737463Y-86023006D01*
X155699807Y-86093454D01*
X155700072Y-86068500D01*
X155687812Y-85944018D01*
X155651502Y-85824320D01*
X155592537Y-85714006D01*
X155513185Y-85617315D01*
X155416494Y-85537963D01*
X155306180Y-85478998D01*
X155186482Y-85442688D01*
X155062000Y-85430428D01*
X154447750Y-85433500D01*
X154289000Y-85592250D01*
X154289000Y-86516500D01*
X154309000Y-86516500D01*
X154309000Y-86770500D01*
X154289000Y-86770500D01*
X154289000Y-86790500D01*
X154035000Y-86790500D01*
X154035000Y-86770500D01*
X151749000Y-86770500D01*
X151749000Y-86790500D01*
X151495000Y-86790500D01*
X151495000Y-86770500D01*
X150245750Y-86770500D01*
X150087000Y-86929250D01*
X150083928Y-87218500D01*
X150096188Y-87342982D01*
X150132498Y-87462680D01*
X150191463Y-87572994D01*
X150222243Y-87610500D01*
X149399500Y-87610500D01*
X149275618Y-87622701D01*
X149156496Y-87658836D01*
X149046713Y-87717517D01*
X148950487Y-87796487D01*
X148871517Y-87892713D01*
X148835000Y-87961031D01*
X148835000Y-86635747D01*
X149119524Y-86607725D01*
X149474848Y-86499938D01*
X149802317Y-86324902D01*
X150017420Y-86148372D01*
X150084068Y-86081724D01*
X150087000Y-86357750D01*
X150245750Y-86516500D01*
X151495000Y-86516500D01*
X151495000Y-85592250D01*
X151749000Y-85592250D01*
X151749000Y-86516500D01*
X154035000Y-86516500D01*
X154035000Y-85592250D01*
X153876250Y-85433500D01*
X153262000Y-85430428D01*
X153137518Y-85442688D01*
X153017820Y-85478998D01*
X152907506Y-85537963D01*
X152892000Y-85550688D01*
X152876494Y-85537963D01*
X152766180Y-85478998D01*
X152646482Y-85442688D01*
X152522000Y-85430428D01*
X151907750Y-85433500D01*
X151749000Y-85592250D01*
X151495000Y-85592250D01*
X151336250Y-85433500D01*
X150735297Y-85430495D01*
X152267418Y-83898374D01*
X152339345Y-83839345D01*
X152574903Y-83552317D01*
X152749939Y-83224848D01*
X152857725Y-82869524D01*
X152885000Y-82592597D01*
X152885000Y-82592588D01*
X152894119Y-82500001D01*
X152885000Y-82407414D01*
X152885000Y-78812292D01*
X152920611Y-78836086D01*
G37*
%TD.AperFunction*%
D24*
X156895000Y-86975500D02*
X156915000Y-86975500D01*
X156915000Y-87229500D01*
X156895000Y-87229500D01*
X156895000Y-87249500D01*
X156641000Y-87249500D01*
X156641000Y-87229500D01*
X156621000Y-87229500D01*
X156621000Y-86975500D01*
X156641000Y-86975500D01*
X156641000Y-86955500D01*
X156895000Y-86955500D01*
X156895000Y-86975500D01*
%TA.AperFunction,Conductor*%
D25*
G36*
X156895000Y-86975500D02*
G01*
X156915000Y-86975500D01*
X156915000Y-87229500D01*
X156895000Y-87229500D01*
X156895000Y-87249500D01*
X156641000Y-87249500D01*
X156641000Y-87229500D01*
X156621000Y-87229500D01*
X156621000Y-86975500D01*
X156641000Y-86975500D01*
X156641000Y-86955500D01*
X156895000Y-86955500D01*
X156895000Y-86975500D01*
G37*
%TD.AperFunction*%
D24*
X143131500Y-86868000D02*
X143151500Y-86868000D01*
X143151500Y-87122000D01*
X143131500Y-87122000D01*
X143131500Y-87142000D01*
X142877500Y-87142000D01*
X142877500Y-87122000D01*
X142857500Y-87122000D01*
X142857500Y-86868000D01*
X142877500Y-86868000D01*
X142877500Y-86848000D01*
X143131500Y-86848000D01*
X143131500Y-86868000D01*
%TA.AperFunction,Conductor*%
D25*
G36*
X143131500Y-86868000D02*
G01*
X143151500Y-86868000D01*
X143151500Y-87122000D01*
X143131500Y-87122000D01*
X143131500Y-87142000D01*
X142877500Y-87142000D01*
X142877500Y-87122000D01*
X142857500Y-87122000D01*
X142857500Y-86868000D01*
X142877500Y-86868000D01*
X142877500Y-86848000D01*
X143131500Y-86848000D01*
X143131500Y-86868000D01*
G37*
%TD.AperFunction*%
D24*
X156754928Y-83777500D02*
X156641000Y-83777500D01*
X156641000Y-83757500D01*
X156621000Y-83757500D01*
X156621000Y-83692500D01*
X156754928Y-83692500D01*
X156754928Y-83777500D01*
%TA.AperFunction,Conductor*%
D25*
G36*
X156754928Y-83777500D02*
G01*
X156641000Y-83777500D01*
X156641000Y-83757500D01*
X156621000Y-83757500D01*
X156621000Y-83692500D01*
X156754928Y-83692500D01*
X156754928Y-83777500D01*
G37*
%TD.AperFunction*%
D24*
X142991428Y-83670000D02*
X142877500Y-83670000D01*
X142877500Y-83650000D01*
X142857500Y-83650000D01*
X142857500Y-83585000D01*
X142991428Y-83585000D01*
X142991428Y-83670000D01*
%TA.AperFunction,Conductor*%
D25*
G36*
X142991428Y-83670000D02*
G01*
X142877500Y-83670000D01*
X142877500Y-83650000D01*
X142857500Y-83650000D01*
X142857500Y-83585000D01*
X142991428Y-83585000D01*
X142991428Y-83670000D01*
G37*
%TD.AperFunction*%
D24*
X154392498Y-80696428D02*
X154354822Y-80696428D01*
X154392498Y-80658752D01*
X154392498Y-80696428D01*
%TA.AperFunction,Conductor*%
D25*
G36*
X154392498Y-80696428D02*
G01*
X154354822Y-80696428D01*
X154392498Y-80658752D01*
X154392498Y-80696428D01*
G37*
%TD.AperFunction*%
D24*
X162628510Y-77068240D02*
X162490500Y-77206250D01*
X162490500Y-78068000D01*
X162510500Y-78068000D01*
X162510500Y-78322000D01*
X162490500Y-78322000D01*
X162490500Y-78342000D01*
X162236500Y-78342000D01*
X162236500Y-78322000D01*
X162216500Y-78322000D01*
X162216500Y-78068000D01*
X162236500Y-78068000D01*
X162236500Y-77206250D01*
X162077750Y-77047500D01*
X161663500Y-77044428D01*
X161559717Y-77054649D01*
X161528472Y-76951648D01*
X161446405Y-76798113D01*
X161335962Y-76663538D01*
X161201387Y-76553095D01*
X161047852Y-76471028D01*
X160881256Y-76420492D01*
X160708002Y-76403428D01*
X159807998Y-76403428D01*
X159634744Y-76420492D01*
X159468148Y-76471028D01*
X159314613Y-76553095D01*
X159269731Y-76589929D01*
X159194386Y-76528095D01*
X159040850Y-76446028D01*
X158874254Y-76395492D01*
X158767727Y-76385000D01*
X160157411Y-76385000D01*
X160250000Y-76394119D01*
X160342589Y-76385000D01*
X160342597Y-76385000D01*
X160619524Y-76357725D01*
X160974848Y-76249939D01*
X161302317Y-76074903D01*
X161589345Y-75839345D01*
X161648374Y-75767418D01*
X162517418Y-74898374D01*
X162589345Y-74839345D01*
X162628510Y-74791622D01*
X162628510Y-77068240D01*
%TA.AperFunction,Conductor*%
D25*
G36*
X162628510Y-77068240D02*
G01*
X162490500Y-77206250D01*
X162490500Y-78068000D01*
X162510500Y-78068000D01*
X162510500Y-78322000D01*
X162490500Y-78322000D01*
X162490500Y-78342000D01*
X162236500Y-78342000D01*
X162236500Y-78322000D01*
X162216500Y-78322000D01*
X162216500Y-78068000D01*
X162236500Y-78068000D01*
X162236500Y-77206250D01*
X162077750Y-77047500D01*
X161663500Y-77044428D01*
X161559717Y-77054649D01*
X161528472Y-76951648D01*
X161446405Y-76798113D01*
X161335962Y-76663538D01*
X161201387Y-76553095D01*
X161047852Y-76471028D01*
X160881256Y-76420492D01*
X160708002Y-76403428D01*
X159807998Y-76403428D01*
X159634744Y-76420492D01*
X159468148Y-76471028D01*
X159314613Y-76553095D01*
X159269731Y-76589929D01*
X159194386Y-76528095D01*
X159040850Y-76446028D01*
X158874254Y-76395492D01*
X158767727Y-76385000D01*
X160157411Y-76385000D01*
X160250000Y-76394119D01*
X160342589Y-76385000D01*
X160342597Y-76385000D01*
X160619524Y-76357725D01*
X160974848Y-76249939D01*
X161302317Y-76074903D01*
X161589345Y-75839345D01*
X161648374Y-75767418D01*
X162517418Y-74898374D01*
X162589345Y-74839345D01*
X162628510Y-74791622D01*
X162628510Y-77068240D01*
G37*
%TD.AperFunction*%
D24*
X159407820Y-70540002D02*
X159527518Y-70576312D01*
X159652000Y-70588572D01*
X160245636Y-70588572D01*
X159982582Y-70851626D01*
X159910655Y-70910655D01*
X159675097Y-71197683D01*
X159500061Y-71525153D01*
X159431855Y-71750000D01*
X159402203Y-71847750D01*
X159392275Y-71880477D01*
X159365000Y-72157404D01*
X159365000Y-72157411D01*
X159355881Y-72250000D01*
X159365000Y-72342589D01*
X159365000Y-72615000D01*
X156856469Y-72615000D01*
X156898494Y-72592537D01*
X156995185Y-72513185D01*
X157074537Y-72416494D01*
X157133502Y-72306180D01*
X157169812Y-72186482D01*
X157182072Y-72062000D01*
X157182072Y-71162000D01*
X157180595Y-71147001D01*
X157437177Y-71147001D01*
X157474499Y-71150677D01*
X157511821Y-71147001D01*
X157511832Y-71147001D01*
X157623485Y-71136004D01*
X157766746Y-71092547D01*
X157898775Y-71021975D01*
X158014500Y-70927002D01*
X158038302Y-70897999D01*
X158166229Y-70770072D01*
X158692002Y-70770072D01*
X158865256Y-70753008D01*
X159031852Y-70702472D01*
X159185387Y-70620405D01*
X159319962Y-70509962D01*
X159321572Y-70508000D01*
X159347949Y-70508000D01*
X159407820Y-70540002D01*
%TA.AperFunction,Conductor*%
D25*
G36*
X159407820Y-70540002D02*
G01*
X159527518Y-70576312D01*
X159652000Y-70588572D01*
X160245636Y-70588572D01*
X159982582Y-70851626D01*
X159910655Y-70910655D01*
X159675097Y-71197683D01*
X159500061Y-71525153D01*
X159431855Y-71750000D01*
X159402203Y-71847750D01*
X159392275Y-71880477D01*
X159365000Y-72157404D01*
X159365000Y-72157411D01*
X159355881Y-72250000D01*
X159365000Y-72342589D01*
X159365000Y-72615000D01*
X156856469Y-72615000D01*
X156898494Y-72592537D01*
X156995185Y-72513185D01*
X157074537Y-72416494D01*
X157133502Y-72306180D01*
X157169812Y-72186482D01*
X157182072Y-72062000D01*
X157182072Y-71162000D01*
X157180595Y-71147001D01*
X157437177Y-71147001D01*
X157474499Y-71150677D01*
X157511821Y-71147001D01*
X157511832Y-71147001D01*
X157623485Y-71136004D01*
X157766746Y-71092547D01*
X157898775Y-71021975D01*
X158014500Y-70927002D01*
X158038302Y-70897999D01*
X158166229Y-70770072D01*
X158692002Y-70770072D01*
X158865256Y-70753008D01*
X159031852Y-70702472D01*
X159185387Y-70620405D01*
X159319962Y-70509962D01*
X159321572Y-70508000D01*
X159347949Y-70508000D01*
X159407820Y-70540002D01*
G37*
%TD.AperFunction*%
D24*
X157159186Y-62913372D02*
X157161000Y-63047250D01*
X157319750Y-63206000D01*
X158369000Y-63206000D01*
X158369000Y-63186000D01*
X158623000Y-63186000D01*
X158623000Y-63206000D01*
X158643000Y-63206000D01*
X158643000Y-63460000D01*
X158623000Y-63460000D01*
X158623000Y-64321750D01*
X158781750Y-64480500D01*
X158994002Y-64482074D01*
X158948528Y-64567150D01*
X158897992Y-64733746D01*
X158880928Y-64907000D01*
X158880928Y-65327797D01*
X158845996Y-65292865D01*
X158810449Y-65249551D01*
X158637623Y-65107716D01*
X158440447Y-65002324D01*
X158226499Y-64937423D01*
X158059752Y-64921000D01*
X158059751Y-64921000D01*
X158004000Y-64915509D01*
X157948249Y-64921000D01*
X157063640Y-64921000D01*
X157113008Y-64758256D01*
X157130072Y-64585002D01*
X157130072Y-63845500D01*
X157157928Y-63845500D01*
X157170188Y-63969982D01*
X157206498Y-64089680D01*
X157265463Y-64199994D01*
X157344815Y-64296685D01*
X157441506Y-64376037D01*
X157551820Y-64435002D01*
X157671518Y-64471312D01*
X157796000Y-64483572D01*
X158210250Y-64480500D01*
X158369000Y-64321750D01*
X158369000Y-63460000D01*
X157319750Y-63460000D01*
X157161000Y-63618750D01*
X157157928Y-63845500D01*
X157130072Y-63845500D01*
X157130072Y-63684998D01*
X157113008Y-63511744D01*
X157062472Y-63345148D01*
X156980405Y-63191613D01*
X156869962Y-63057038D01*
X156848403Y-63039345D01*
X156880582Y-63029584D01*
X157016829Y-62956758D01*
X157071976Y-62911500D01*
X157140178Y-62911500D01*
X157159186Y-62913372D01*
%TA.AperFunction,Conductor*%
D25*
G36*
X157159186Y-62913372D02*
G01*
X157161000Y-63047250D01*
X157319750Y-63206000D01*
X158369000Y-63206000D01*
X158369000Y-63186000D01*
X158623000Y-63186000D01*
X158623000Y-63206000D01*
X158643000Y-63206000D01*
X158643000Y-63460000D01*
X158623000Y-63460000D01*
X158623000Y-64321750D01*
X158781750Y-64480500D01*
X158994002Y-64482074D01*
X158948528Y-64567150D01*
X158897992Y-64733746D01*
X158880928Y-64907000D01*
X158880928Y-65327797D01*
X158845996Y-65292865D01*
X158810449Y-65249551D01*
X158637623Y-65107716D01*
X158440447Y-65002324D01*
X158226499Y-64937423D01*
X158059752Y-64921000D01*
X158059751Y-64921000D01*
X158004000Y-64915509D01*
X157948249Y-64921000D01*
X157063640Y-64921000D01*
X157113008Y-64758256D01*
X157130072Y-64585002D01*
X157130072Y-63845500D01*
X157157928Y-63845500D01*
X157170188Y-63969982D01*
X157206498Y-64089680D01*
X157265463Y-64199994D01*
X157344815Y-64296685D01*
X157441506Y-64376037D01*
X157551820Y-64435002D01*
X157671518Y-64471312D01*
X157796000Y-64483572D01*
X158210250Y-64480500D01*
X158369000Y-64321750D01*
X158369000Y-63460000D01*
X157319750Y-63460000D01*
X157161000Y-63618750D01*
X157157928Y-63845500D01*
X157130072Y-63845500D01*
X157130072Y-63684998D01*
X157113008Y-63511744D01*
X157062472Y-63345148D01*
X156980405Y-63191613D01*
X156869962Y-63057038D01*
X156848403Y-63039345D01*
X156880582Y-63029584D01*
X157016829Y-62956758D01*
X157071976Y-62911500D01*
X157140178Y-62911500D01*
X157159186Y-62913372D01*
G37*
%TD.AperFunction*%
D24*
X149203188Y-61727018D02*
X149190928Y-61851500D01*
X149194000Y-61865750D01*
X149352750Y-62024500D01*
X150677000Y-62024500D01*
X150677000Y-62004500D01*
X150931000Y-62004500D01*
X150931000Y-62024500D01*
X150951000Y-62024500D01*
X150951000Y-62278500D01*
X150931000Y-62278500D01*
X150931000Y-62927750D01*
X151089750Y-63086500D01*
X151779000Y-63089572D01*
X151903482Y-63077312D01*
X152023180Y-63041002D01*
X152133494Y-62982037D01*
X152230185Y-62902685D01*
X152309537Y-62805994D01*
X152358706Y-62714007D01*
X153052517Y-63407819D01*
X153020992Y-63511744D01*
X153003928Y-63684998D01*
X153003928Y-64321991D01*
X140963203Y-64321991D01*
X140221212Y-63580000D01*
X140500928Y-63580000D01*
X140513188Y-63704482D01*
X140549498Y-63824180D01*
X140608463Y-63934494D01*
X140687815Y-64031185D01*
X140784506Y-64110537D01*
X140894820Y-64169502D01*
X141014518Y-64205812D01*
X141139000Y-64218072D01*
X141303250Y-64215000D01*
X141462000Y-64056250D01*
X141462000Y-63307000D01*
X141716000Y-63307000D01*
X141716000Y-64056250D01*
X141874750Y-64215000D01*
X142039000Y-64218072D01*
X142163482Y-64205812D01*
X142283180Y-64169502D01*
X142342118Y-64137999D01*
X142430506Y-64210537D01*
X142540820Y-64269502D01*
X142660518Y-64305812D01*
X142785000Y-64318072D01*
X143224250Y-64315000D01*
X143383000Y-64156250D01*
X143383000Y-63307000D01*
X141716000Y-63307000D01*
X141462000Y-63307000D01*
X140662750Y-63307000D01*
X140504000Y-63465750D01*
X140500928Y-63580000D01*
X140221212Y-63580000D01*
X139909284Y-63268072D01*
X140039000Y-63268072D01*
X140163482Y-63255812D01*
X140283180Y-63219502D01*
X140393494Y-63160537D01*
X140490185Y-63081185D01*
X140565018Y-62990000D01*
X140599750Y-62990000D01*
X140662750Y-63053000D01*
X141462000Y-63053000D01*
X141462000Y-63033000D01*
X141716000Y-63033000D01*
X141716000Y-63053000D01*
X143383000Y-63053000D01*
X143383000Y-63033000D01*
X143637000Y-63033000D01*
X143637000Y-63053000D01*
X143657000Y-63053000D01*
X143657000Y-63307000D01*
X143637000Y-63307000D01*
X143637000Y-64156250D01*
X143795750Y-64315000D01*
X144235000Y-64318072D01*
X144359482Y-64305812D01*
X144479180Y-64269502D01*
X144589494Y-64210537D01*
X144686185Y-64131185D01*
X144765537Y-64034494D01*
X144824502Y-63924180D01*
X144842909Y-63863500D01*
X144935589Y-63863500D01*
X145116229Y-63827568D01*
X145192819Y-63795844D01*
X145269820Y-63837002D01*
X145389518Y-63873312D01*
X145514000Y-63885572D01*
X145740750Y-63882500D01*
X145899500Y-63723750D01*
X145899500Y-62674500D01*
X145879500Y-62674500D01*
X145879500Y-62420500D01*
X145899500Y-62420500D01*
X145899500Y-62400500D01*
X146153500Y-62400500D01*
X146153500Y-62420500D01*
X146173500Y-62420500D01*
X146173500Y-62674500D01*
X146153500Y-62674500D01*
X146153500Y-63723750D01*
X146312250Y-63882500D01*
X146539000Y-63885572D01*
X146663482Y-63873312D01*
X146783180Y-63837002D01*
X146893494Y-63778037D01*
X146990185Y-63698685D01*
X147014363Y-63669224D01*
X147095613Y-63735905D01*
X147249148Y-63817972D01*
X147415744Y-63868508D01*
X147588998Y-63885572D01*
X148114002Y-63885572D01*
X148287256Y-63868508D01*
X148453852Y-63817972D01*
X148607387Y-63735905D01*
X148741962Y-63625462D01*
X148852405Y-63490887D01*
X148934472Y-63337352D01*
X148985008Y-63170756D01*
X149002072Y-62997502D01*
X149002072Y-62451500D01*
X149190928Y-62451500D01*
X149203188Y-62575982D01*
X149239498Y-62695680D01*
X149298463Y-62805994D01*
X149377815Y-62902685D01*
X149474506Y-62982037D01*
X149584820Y-63041002D01*
X149704518Y-63077312D01*
X149829000Y-63089572D01*
X150518250Y-63086500D01*
X150677000Y-62927750D01*
X150677000Y-62278500D01*
X149352750Y-62278500D01*
X149194000Y-62437250D01*
X149190928Y-62451500D01*
X149002072Y-62451500D01*
X149002072Y-62097498D01*
X148985008Y-61924244D01*
X148934472Y-61757648D01*
X148872389Y-61641500D01*
X149229130Y-61641500D01*
X149203188Y-61727018D01*
%TA.AperFunction,Conductor*%
D25*
G36*
X149203188Y-61727018D02*
G01*
X149190928Y-61851500D01*
X149194000Y-61865750D01*
X149352750Y-62024500D01*
X150677000Y-62024500D01*
X150677000Y-62004500D01*
X150931000Y-62004500D01*
X150931000Y-62024500D01*
X150951000Y-62024500D01*
X150951000Y-62278500D01*
X150931000Y-62278500D01*
X150931000Y-62927750D01*
X151089750Y-63086500D01*
X151779000Y-63089572D01*
X151903482Y-63077312D01*
X152023180Y-63041002D01*
X152133494Y-62982037D01*
X152230185Y-62902685D01*
X152309537Y-62805994D01*
X152358706Y-62714007D01*
X153052517Y-63407819D01*
X153020992Y-63511744D01*
X153003928Y-63684998D01*
X153003928Y-64321991D01*
X140963203Y-64321991D01*
X140221212Y-63580000D01*
X140500928Y-63580000D01*
X140513188Y-63704482D01*
X140549498Y-63824180D01*
X140608463Y-63934494D01*
X140687815Y-64031185D01*
X140784506Y-64110537D01*
X140894820Y-64169502D01*
X141014518Y-64205812D01*
X141139000Y-64218072D01*
X141303250Y-64215000D01*
X141462000Y-64056250D01*
X141462000Y-63307000D01*
X141716000Y-63307000D01*
X141716000Y-64056250D01*
X141874750Y-64215000D01*
X142039000Y-64218072D01*
X142163482Y-64205812D01*
X142283180Y-64169502D01*
X142342118Y-64137999D01*
X142430506Y-64210537D01*
X142540820Y-64269502D01*
X142660518Y-64305812D01*
X142785000Y-64318072D01*
X143224250Y-64315000D01*
X143383000Y-64156250D01*
X143383000Y-63307000D01*
X141716000Y-63307000D01*
X141462000Y-63307000D01*
X140662750Y-63307000D01*
X140504000Y-63465750D01*
X140500928Y-63580000D01*
X140221212Y-63580000D01*
X139909284Y-63268072D01*
X140039000Y-63268072D01*
X140163482Y-63255812D01*
X140283180Y-63219502D01*
X140393494Y-63160537D01*
X140490185Y-63081185D01*
X140565018Y-62990000D01*
X140599750Y-62990000D01*
X140662750Y-63053000D01*
X141462000Y-63053000D01*
X141462000Y-63033000D01*
X141716000Y-63033000D01*
X141716000Y-63053000D01*
X143383000Y-63053000D01*
X143383000Y-63033000D01*
X143637000Y-63033000D01*
X143637000Y-63053000D01*
X143657000Y-63053000D01*
X143657000Y-63307000D01*
X143637000Y-63307000D01*
X143637000Y-64156250D01*
X143795750Y-64315000D01*
X144235000Y-64318072D01*
X144359482Y-64305812D01*
X144479180Y-64269502D01*
X144589494Y-64210537D01*
X144686185Y-64131185D01*
X144765537Y-64034494D01*
X144824502Y-63924180D01*
X144842909Y-63863500D01*
X144935589Y-63863500D01*
X145116229Y-63827568D01*
X145192819Y-63795844D01*
X145269820Y-63837002D01*
X145389518Y-63873312D01*
X145514000Y-63885572D01*
X145740750Y-63882500D01*
X145899500Y-63723750D01*
X145899500Y-62674500D01*
X145879500Y-62674500D01*
X145879500Y-62420500D01*
X145899500Y-62420500D01*
X145899500Y-62400500D01*
X146153500Y-62400500D01*
X146153500Y-62420500D01*
X146173500Y-62420500D01*
X146173500Y-62674500D01*
X146153500Y-62674500D01*
X146153500Y-63723750D01*
X146312250Y-63882500D01*
X146539000Y-63885572D01*
X146663482Y-63873312D01*
X146783180Y-63837002D01*
X146893494Y-63778037D01*
X146990185Y-63698685D01*
X147014363Y-63669224D01*
X147095613Y-63735905D01*
X147249148Y-63817972D01*
X147415744Y-63868508D01*
X147588998Y-63885572D01*
X148114002Y-63885572D01*
X148287256Y-63868508D01*
X148453852Y-63817972D01*
X148607387Y-63735905D01*
X148741962Y-63625462D01*
X148852405Y-63490887D01*
X148934472Y-63337352D01*
X148985008Y-63170756D01*
X149002072Y-62997502D01*
X149002072Y-62451500D01*
X149190928Y-62451500D01*
X149203188Y-62575982D01*
X149239498Y-62695680D01*
X149298463Y-62805994D01*
X149377815Y-62902685D01*
X149474506Y-62982037D01*
X149584820Y-63041002D01*
X149704518Y-63077312D01*
X149829000Y-63089572D01*
X150518250Y-63086500D01*
X150677000Y-62927750D01*
X150677000Y-62278500D01*
X149352750Y-62278500D01*
X149194000Y-62437250D01*
X149190928Y-62451500D01*
X149002072Y-62451500D01*
X149002072Y-62097498D01*
X148985008Y-61924244D01*
X148934472Y-61757648D01*
X148872389Y-61641500D01*
X149229130Y-61641500D01*
X149203188Y-61727018D01*
G37*
%TD.AperFunction*%
%TD*%
D24*
%TO.N,+12V*%
X141023738Y-88346028D02*
X141153972Y-88476262D01*
X141307111Y-88578586D01*
X141351000Y-88596765D01*
X141351000Y-101473000D01*
X135763000Y-101473000D01*
X135763000Y-88265000D01*
X140969597Y-88265000D01*
X141023738Y-88346028D01*
%TA.AperFunction,Conductor*%
D25*
G36*
X141023738Y-88346028D02*
G01*
X141153972Y-88476262D01*
X141307111Y-88578586D01*
X141351000Y-88596765D01*
X141351000Y-101473000D01*
X135763000Y-101473000D01*
X135763000Y-88265000D01*
X140969597Y-88265000D01*
X141023738Y-88346028D01*
G37*
%TD.AperFunction*%
%TD*%
D24*
%TO.N,Net-(C4-Pad1)*%
X147473000Y-101473000D02*
X142127000Y-101473000D01*
X142127000Y-90927000D01*
X147473000Y-90927000D01*
X147473000Y-101473000D01*
%TA.AperFunction,Conductor*%
D25*
G36*
X147473000Y-101473000D02*
G01*
X142127000Y-101473000D01*
X142127000Y-90927000D01*
X147473000Y-90927000D01*
X147473000Y-101473000D01*
G37*
%TD.AperFunction*%
%TD*%
D24*
%TO.N,VBUS*%
X148073000Y-90123000D02*
X144127000Y-90123000D01*
X144127000Y-87628105D01*
X144142572Y-87470000D01*
X144142572Y-86520000D01*
X144134200Y-86435000D01*
X144650000Y-86435000D01*
X144773882Y-86422799D01*
X144893004Y-86386664D01*
X145002787Y-86327983D01*
X145099013Y-86249013D01*
X145177983Y-86152787D01*
X145236664Y-86043004D01*
X145272799Y-85923882D01*
X145285000Y-85800000D01*
X145285000Y-84550000D01*
X145272799Y-84426118D01*
X145236664Y-84306996D01*
X145177983Y-84197213D01*
X145099013Y-84100987D01*
X144985000Y-83986974D01*
X144985000Y-82938001D01*
X146472177Y-82938001D01*
X146509499Y-82941677D01*
X146546821Y-82938001D01*
X146546832Y-82938001D01*
X146658485Y-82927004D01*
X146658498Y-82927000D01*
X148073000Y-82927000D01*
X148073000Y-90123000D01*
%TA.AperFunction,Conductor*%
D25*
G36*
X148073000Y-90123000D02*
G01*
X144127000Y-90123000D01*
X144127000Y-87628105D01*
X144142572Y-87470000D01*
X144142572Y-86520000D01*
X144134200Y-86435000D01*
X144650000Y-86435000D01*
X144773882Y-86422799D01*
X144893004Y-86386664D01*
X145002787Y-86327983D01*
X145099013Y-86249013D01*
X145177983Y-86152787D01*
X145236664Y-86043004D01*
X145272799Y-85923882D01*
X145285000Y-85800000D01*
X145285000Y-84550000D01*
X145272799Y-84426118D01*
X145236664Y-84306996D01*
X145177983Y-84197213D01*
X145099013Y-84100987D01*
X144985000Y-83986974D01*
X144985000Y-82938001D01*
X146472177Y-82938001D01*
X146509499Y-82941677D01*
X146546821Y-82938001D01*
X146546832Y-82938001D01*
X146658485Y-82927004D01*
X146658498Y-82927000D01*
X148073000Y-82927000D01*
X148073000Y-90123000D01*
G37*
%TD.AperFunction*%
%TD*%
D26*
%TO.N,Net-(C4-Pad1)*%
X143629500Y-82154451D02*
X143694909Y-82154451D01*
X144004215Y-82463757D01*
X144017525Y-82479975D01*
X144082239Y-82533085D01*
X144156072Y-82572549D01*
X144236185Y-82596851D01*
X144250000Y-82598212D01*
X144250000Y-84250000D01*
X144251921Y-84269509D01*
X144257612Y-84288268D01*
X144266853Y-84305557D01*
X144279289Y-84320711D01*
X144550000Y-84591422D01*
X144550000Y-85700000D01*
X143450000Y-85700000D01*
X143450000Y-84591422D01*
X143720711Y-84320711D01*
X143733147Y-84305557D01*
X143742388Y-84288268D01*
X143748079Y-84269509D01*
X143750000Y-84250000D01*
X143750000Y-82950000D01*
X143748079Y-82930491D01*
X143742388Y-82911732D01*
X143733147Y-82894443D01*
X143720711Y-82879289D01*
X143705557Y-82866853D01*
X143688268Y-82857612D01*
X143669509Y-82851921D01*
X143650000Y-82850000D01*
X143593230Y-82850000D01*
X143580147Y-82825523D01*
X143542658Y-82779842D01*
X143496977Y-82742353D01*
X143444860Y-82714496D01*
X143388310Y-82697341D01*
X143329500Y-82691549D01*
X142679500Y-82691549D01*
X142620690Y-82697341D01*
X142564140Y-82714496D01*
X142512023Y-82742353D01*
X142466342Y-82779842D01*
X142428853Y-82825523D01*
X142415770Y-82850000D01*
X142100000Y-82850000D01*
X142100000Y-82152000D01*
X142579633Y-82152000D01*
X142600500Y-82154055D01*
X142621367Y-82152000D01*
X142621374Y-82152000D01*
X142637993Y-82150363D01*
X142679500Y-82154451D01*
X143329500Y-82154451D01*
X143374694Y-82150000D01*
X143584306Y-82150000D01*
X143629500Y-82154451D01*
%TA.AperFunction,Conductor*%
D25*
G36*
X143629500Y-82154451D02*
G01*
X143694909Y-82154451D01*
X144004215Y-82463757D01*
X144017525Y-82479975D01*
X144082239Y-82533085D01*
X144156072Y-82572549D01*
X144236185Y-82596851D01*
X144250000Y-82598212D01*
X144250000Y-84250000D01*
X144251921Y-84269509D01*
X144257612Y-84288268D01*
X144266853Y-84305557D01*
X144279289Y-84320711D01*
X144550000Y-84591422D01*
X144550000Y-85700000D01*
X143450000Y-85700000D01*
X143450000Y-84591422D01*
X143720711Y-84320711D01*
X143733147Y-84305557D01*
X143742388Y-84288268D01*
X143748079Y-84269509D01*
X143750000Y-84250000D01*
X143750000Y-82950000D01*
X143748079Y-82930491D01*
X143742388Y-82911732D01*
X143733147Y-82894443D01*
X143720711Y-82879289D01*
X143705557Y-82866853D01*
X143688268Y-82857612D01*
X143669509Y-82851921D01*
X143650000Y-82850000D01*
X143593230Y-82850000D01*
X143580147Y-82825523D01*
X143542658Y-82779842D01*
X143496977Y-82742353D01*
X143444860Y-82714496D01*
X143388310Y-82697341D01*
X143329500Y-82691549D01*
X142679500Y-82691549D01*
X142620690Y-82697341D01*
X142564140Y-82714496D01*
X142512023Y-82742353D01*
X142466342Y-82779842D01*
X142428853Y-82825523D01*
X142415770Y-82850000D01*
X142100000Y-82850000D01*
X142100000Y-82152000D01*
X142579633Y-82152000D01*
X142600500Y-82154055D01*
X142621367Y-82152000D01*
X142621374Y-82152000D01*
X142637993Y-82150363D01*
X142679500Y-82154451D01*
X143329500Y-82154451D01*
X143374694Y-82150000D01*
X143584306Y-82150000D01*
X143629500Y-82154451D01*
G37*
%TD.AperFunction*%
%TD*%
D24*
%TO.N,+12V*%
X155114500Y-101580500D02*
X149526500Y-101580500D01*
X149526500Y-88372500D01*
X155114500Y-88372500D01*
X155114500Y-101580500D01*
%TA.AperFunction,Conductor*%
D25*
G36*
X155114500Y-101580500D02*
G01*
X149526500Y-101580500D01*
X149526500Y-88372500D01*
X155114500Y-88372500D01*
X155114500Y-101580500D01*
G37*
%TD.AperFunction*%
%TD*%
D24*
%TO.N,Net-(C14-Pad1)*%
X161236500Y-101580500D02*
X155890500Y-101580500D01*
X155890500Y-91034500D01*
X161236500Y-91034500D01*
X161236500Y-101580500D01*
%TA.AperFunction,Conductor*%
D25*
G36*
X161236500Y-101580500D02*
G01*
X155890500Y-101580500D01*
X155890500Y-91034500D01*
X161236500Y-91034500D01*
X161236500Y-101580500D01*
G37*
%TD.AperFunction*%
%TD*%
D24*
%TO.N,VBUS*%
X161823232Y-90173000D02*
X157877430Y-90173000D01*
X157885582Y-87762048D01*
X157889008Y-87750754D01*
X157906072Y-87577500D01*
X157906072Y-86627500D01*
X157897700Y-86542500D01*
X158413500Y-86542500D01*
X158537382Y-86530299D01*
X158656504Y-86494164D01*
X158766287Y-86435483D01*
X158862513Y-86356513D01*
X158941483Y-86260287D01*
X159000164Y-86150504D01*
X159036299Y-86031382D01*
X159048500Y-85907500D01*
X159048500Y-84657500D01*
X159036299Y-84533618D01*
X159000164Y-84414496D01*
X158941483Y-84304713D01*
X158862513Y-84208487D01*
X158748500Y-84094474D01*
X158748500Y-83045501D01*
X160235677Y-83045501D01*
X160272999Y-83049177D01*
X160310321Y-83045501D01*
X160310332Y-83045501D01*
X160421985Y-83034504D01*
X160421998Y-83034500D01*
X161836268Y-83034500D01*
X161823232Y-90173000D01*
%TA.AperFunction,Conductor*%
D25*
G36*
X161823232Y-90173000D02*
G01*
X157877430Y-90173000D01*
X157885582Y-87762048D01*
X157889008Y-87750754D01*
X157906072Y-87577500D01*
X157906072Y-86627500D01*
X157897700Y-86542500D01*
X158413500Y-86542500D01*
X158537382Y-86530299D01*
X158656504Y-86494164D01*
X158766287Y-86435483D01*
X158862513Y-86356513D01*
X158941483Y-86260287D01*
X159000164Y-86150504D01*
X159036299Y-86031382D01*
X159048500Y-85907500D01*
X159048500Y-84657500D01*
X159036299Y-84533618D01*
X159000164Y-84414496D01*
X158941483Y-84304713D01*
X158862513Y-84208487D01*
X158748500Y-84094474D01*
X158748500Y-83045501D01*
X160235677Y-83045501D01*
X160272999Y-83049177D01*
X160310321Y-83045501D01*
X160310332Y-83045501D01*
X160421985Y-83034504D01*
X160421998Y-83034500D01*
X161836268Y-83034500D01*
X161823232Y-90173000D01*
G37*
%TD.AperFunction*%
%TD*%
D26*
%TO.N,Net-(C14-Pad1)*%
X157393000Y-82261951D02*
X157458409Y-82261951D01*
X157767715Y-82571257D01*
X157781025Y-82587475D01*
X157845739Y-82640585D01*
X157919572Y-82680049D01*
X157999685Y-82704351D01*
X158013500Y-82705712D01*
X158013500Y-84357500D01*
X158015421Y-84377009D01*
X158021112Y-84395768D01*
X158030353Y-84413057D01*
X158042789Y-84428211D01*
X158313500Y-84698922D01*
X158313500Y-85807500D01*
X157213500Y-85807500D01*
X157213500Y-84698922D01*
X157484211Y-84428211D01*
X157496647Y-84413057D01*
X157505888Y-84395768D01*
X157511579Y-84377009D01*
X157513500Y-84357500D01*
X157513500Y-83057500D01*
X157511579Y-83037991D01*
X157505888Y-83019232D01*
X157496647Y-83001943D01*
X157484211Y-82986789D01*
X157469057Y-82974353D01*
X157451768Y-82965112D01*
X157433009Y-82959421D01*
X157413500Y-82957500D01*
X157356730Y-82957500D01*
X157343647Y-82933023D01*
X157306158Y-82887342D01*
X157260477Y-82849853D01*
X157208360Y-82821996D01*
X157151810Y-82804841D01*
X157093000Y-82799049D01*
X156443000Y-82799049D01*
X156384190Y-82804841D01*
X156327640Y-82821996D01*
X156275523Y-82849853D01*
X156229842Y-82887342D01*
X156192353Y-82933023D01*
X156179270Y-82957500D01*
X155863500Y-82957500D01*
X155863500Y-82259500D01*
X156343133Y-82259500D01*
X156364000Y-82261555D01*
X156384867Y-82259500D01*
X156384874Y-82259500D01*
X156401493Y-82257863D01*
X156443000Y-82261951D01*
X157093000Y-82261951D01*
X157138194Y-82257500D01*
X157347806Y-82257500D01*
X157393000Y-82261951D01*
%TA.AperFunction,Conductor*%
D25*
G36*
X157393000Y-82261951D02*
G01*
X157458409Y-82261951D01*
X157767715Y-82571257D01*
X157781025Y-82587475D01*
X157845739Y-82640585D01*
X157919572Y-82680049D01*
X157999685Y-82704351D01*
X158013500Y-82705712D01*
X158013500Y-84357500D01*
X158015421Y-84377009D01*
X158021112Y-84395768D01*
X158030353Y-84413057D01*
X158042789Y-84428211D01*
X158313500Y-84698922D01*
X158313500Y-85807500D01*
X157213500Y-85807500D01*
X157213500Y-84698922D01*
X157484211Y-84428211D01*
X157496647Y-84413057D01*
X157505888Y-84395768D01*
X157511579Y-84377009D01*
X157513500Y-84357500D01*
X157513500Y-83057500D01*
X157511579Y-83037991D01*
X157505888Y-83019232D01*
X157496647Y-83001943D01*
X157484211Y-82986789D01*
X157469057Y-82974353D01*
X157451768Y-82965112D01*
X157433009Y-82959421D01*
X157413500Y-82957500D01*
X157356730Y-82957500D01*
X157343647Y-82933023D01*
X157306158Y-82887342D01*
X157260477Y-82849853D01*
X157208360Y-82821996D01*
X157151810Y-82804841D01*
X157093000Y-82799049D01*
X156443000Y-82799049D01*
X156384190Y-82804841D01*
X156327640Y-82821996D01*
X156275523Y-82849853D01*
X156229842Y-82887342D01*
X156192353Y-82933023D01*
X156179270Y-82957500D01*
X155863500Y-82957500D01*
X155863500Y-82259500D01*
X156343133Y-82259500D01*
X156364000Y-82261555D01*
X156384867Y-82259500D01*
X156384874Y-82259500D01*
X156401493Y-82257863D01*
X156443000Y-82261951D01*
X157093000Y-82261951D01*
X157138194Y-82257500D01*
X157347806Y-82257500D01*
X157393000Y-82261951D01*
G37*
%TD.AperFunction*%
%TD*%
M02*
