M48
; DRILL file {KiCad 5.1.9-73d0e3b20d~88~ubuntu20.10.1} date Wed Jan 20 16:53:32 2021
; FORMAT={-:-/ absolute / inch / decimal}
; #@! TF.CreationDate,2021-01-20T16:53:32+01:00
; #@! TF.GenerationSoftware,Kicad,Pcbnew,5.1.9-73d0e3b20d~88~ubuntu20.10.1
; #@! TF.FileFunction,Plated,1,2,PTH
FMAT,2
INCH
T1C0.0118
T2C0.0394
T3C0.0472
T4C0.0787
%
G90
G05
T1
X5.02Y-4.06
X5.02Y-4.27
X5.03Y-2.23
X5.03Y-2.66
X5.25Y-2.65
X5.25Y-4.27
X5.26Y-2.23
X5.29Y-3.96
X5.3Y-3.42
X5.34Y-3.42
X5.39Y-2.41
X5.39Y-2.47
X5.39Y-4.04
X5.4232Y-3.3563
X5.46Y-2.62
X5.48Y-2.39
X5.4961Y-3.0669
X5.52Y-2.51
X5.5256Y-3.4783
X5.5315Y-3.3465
X5.55Y-2.96
X5.58Y-2.66
X5.5807Y-3.4547
X5.599Y-3.4069
X5.6Y-2.22
X5.6Y-2.62
X5.6105Y-3.3265
X5.6105Y-3.3659
X5.6142Y-3.5906
X5.6142Y-3.622
X5.6142Y-3.6535
X5.6142Y-3.685
X5.6142Y-3.7165
X5.6142Y-3.748
X5.6142Y-3.7795
X5.6142Y-3.811
X5.6142Y-3.8425
X5.6142Y-3.874
X5.6142Y-3.9055
X5.6142Y-3.937
X5.6142Y-3.9685
X5.6496Y-2.5295
X5.6575Y-3.3366
X5.6575Y-3.3622
X5.6805Y-2.6077
X5.6811Y-3.3366
X5.6811Y-3.3622
X5.7025Y-2.4775
X5.7075Y-2.345
X5.71Y-2.22
X5.748Y-2.5295
X5.76Y-2.25
X5.8465Y-3.0217
X5.8725Y-2.345
X5.8957Y-3.4154
X5.9055Y-2.9035
X5.9252Y-2.874
X5.935Y-2.5
X5.9547Y-2.2539
X5.9744Y-3.3563
X6.01Y-2.52
X6.0379Y-3.0712
X6.04Y-2.29
X6.05Y-2.41
X6.0675Y-3.4826
X6.0827Y-3.1791
X6.0925Y-3.3366
X6.0925Y-3.3661
X6.12Y-2.24
X6.1523Y-3.3359
X6.1523Y-3.3654
X6.156Y-3.5948
X6.156Y-3.6263
X6.156Y-3.6578
X6.156Y-3.6893
X6.156Y-3.7208
X6.156Y-3.7523
X6.156Y-3.7838
X6.156Y-3.8153
X6.156Y-3.8468
X6.156Y-3.8782
X6.156Y-3.9097
X6.156Y-3.9412
X6.156Y-3.9727
X6.1994Y-3.3408
X6.1994Y-3.3664
X6.2106Y-2.8445
X6.22Y-2.22
X6.223Y-3.3408
X6.223Y-3.3664
X6.2402Y-2.5492
X6.2795Y-2.7953
X6.3583Y-2.4528
X6.36Y-4.12
X6.38Y-4.04
X6.3834Y-2.707
X6.39Y-2.27
X6.3976Y-3.0217
X6.4Y-3.59
X6.41Y-2.41
X6.42Y-3.4
X6.45Y-2.51
X6.51Y-4.27
X6.52Y-3.3
X6.53Y-3.97
X6.63Y-2.62
X6.67Y-4.06
X6.78Y-2.24
X6.79Y-2.64
X6.79Y-4.0
X6.79Y-4.27
T4
X5.38Y-2.31
X5.38Y-2.57
X5.38Y-2.84
X5.51Y-2.76
X5.51Y-2.91
X5.86Y-4.18
T2
G00X5.1407Y-2.7756
M15
G01X5.1407Y-3.9173
M16
G05
T3
G00X6.6703Y-2.7795
M15
G01X6.6703Y-3.9134
M16
G05
T0
M30
