%TF.GenerationSoftware,KiCad,Pcbnew,5.1.9-73d0e3b20d~88~ubuntu20.10.1*%
%TF.CreationDate,2021-01-20T16:53:29+01:00*%
%TF.ProjectId,makita_protector,6d616b69-7461-45f7-9072-6f746563746f,rev?*%
%TF.SameCoordinates,Original*%
%TF.FileFunction,Legend,Top*%
%TF.FilePolarity,Positive*%
%FSLAX46Y46*%
G04 Gerber Fmt 4.6, Leading zero omitted, Abs format (unit mm)*
G04 Created by KiCad (PCBNEW 5.1.9-73d0e3b20d~88~ubuntu20.10.1) date 2021-01-20 16:53:29*
%MOMM*%
%LPD*%
G01*
G04 APERTURE LIST*
%ADD10C,0.150000*%
%ADD11C,0.010000*%
%ADD12C,0.120000*%
G04 APERTURE END LIST*
D10*
X133310380Y-59626380D02*
X133310380Y-59435904D01*
X133358000Y-59340666D01*
X133453238Y-59245428D01*
X133643714Y-59197809D01*
X133977047Y-59197809D01*
X134167523Y-59245428D01*
X134262761Y-59340666D01*
X134310380Y-59435904D01*
X134310380Y-59626380D01*
X134262761Y-59721619D01*
X134167523Y-59816857D01*
X133977047Y-59864476D01*
X133643714Y-59864476D01*
X133453238Y-59816857D01*
X133358000Y-59721619D01*
X133310380Y-59626380D01*
X133786571Y-58435904D02*
X133786571Y-58769238D01*
X134310380Y-58769238D02*
X133310380Y-58769238D01*
X133310380Y-58293047D01*
X133786571Y-57578761D02*
X133786571Y-57912095D01*
X134310380Y-57912095D02*
X133310380Y-57912095D01*
X133310380Y-57435904D01*
X135636095Y-74938000D02*
X135540857Y-74890380D01*
X135398000Y-74890380D01*
X135255142Y-74938000D01*
X135159904Y-75033238D01*
X135112285Y-75128476D01*
X135064666Y-75318952D01*
X135064666Y-75461809D01*
X135112285Y-75652285D01*
X135159904Y-75747523D01*
X135255142Y-75842761D01*
X135398000Y-75890380D01*
X135493238Y-75890380D01*
X135636095Y-75842761D01*
X135683714Y-75795142D01*
X135683714Y-75461809D01*
X135493238Y-75461809D01*
X136112285Y-75890380D02*
X136112285Y-74890380D01*
X136683714Y-75890380D01*
X136683714Y-74890380D01*
X137159904Y-75890380D02*
X137159904Y-74890380D01*
X137398000Y-74890380D01*
X137540857Y-74938000D01*
X137636095Y-75033238D01*
X137683714Y-75128476D01*
X137731333Y-75318952D01*
X137731333Y-75461809D01*
X137683714Y-75652285D01*
X137636095Y-75747523D01*
X137540857Y-75842761D01*
X137398000Y-75890380D01*
X137159904Y-75890380D01*
X133310380Y-66151047D02*
X133310380Y-65960571D01*
X133358000Y-65865333D01*
X133453238Y-65770095D01*
X133643714Y-65722476D01*
X133977047Y-65722476D01*
X134167523Y-65770095D01*
X134262761Y-65865333D01*
X134310380Y-65960571D01*
X134310380Y-66151047D01*
X134262761Y-66246285D01*
X134167523Y-66341523D01*
X133977047Y-66389142D01*
X133643714Y-66389142D01*
X133453238Y-66341523D01*
X133358000Y-66246285D01*
X133310380Y-66151047D01*
X134310380Y-65293904D02*
X133310380Y-65293904D01*
X134310380Y-64722476D01*
X133310380Y-64722476D01*
X164123714Y-97868571D02*
X164790380Y-97630476D01*
X164123714Y-97392380D01*
X164790380Y-96487619D02*
X164790380Y-97059047D01*
X164790380Y-96773333D02*
X163790380Y-96773333D01*
X163933238Y-96868571D01*
X164028476Y-96963809D01*
X164076095Y-97059047D01*
X164790380Y-95297142D02*
X163790380Y-95297142D01*
X164504666Y-94963809D01*
X163790380Y-94630476D01*
X164790380Y-94630476D01*
X164266571Y-93820952D02*
X164314190Y-93678095D01*
X164361809Y-93630476D01*
X164457047Y-93582857D01*
X164599904Y-93582857D01*
X164695142Y-93630476D01*
X164742761Y-93678095D01*
X164790380Y-93773333D01*
X164790380Y-94154285D01*
X163790380Y-94154285D01*
X163790380Y-93820952D01*
X163838000Y-93725714D01*
X163885619Y-93678095D01*
X163980857Y-93630476D01*
X164076095Y-93630476D01*
X164171333Y-93678095D01*
X164218952Y-93725714D01*
X164266571Y-93820952D01*
X164266571Y-94154285D01*
X164790380Y-93154285D02*
X163790380Y-93154285D01*
X163790380Y-92773333D01*
X163838000Y-92678095D01*
X163885619Y-92630476D01*
X163980857Y-92582857D01*
X164123714Y-92582857D01*
X164218952Y-92630476D01*
X164266571Y-92678095D01*
X164314190Y-92773333D01*
X164314190Y-93154285D01*
X163790380Y-91201904D02*
X163790380Y-91106666D01*
X163838000Y-91011428D01*
X163885619Y-90963809D01*
X163980857Y-90916190D01*
X164171333Y-90868571D01*
X164409428Y-90868571D01*
X164599904Y-90916190D01*
X164695142Y-90963809D01*
X164742761Y-91011428D01*
X164790380Y-91106666D01*
X164790380Y-91201904D01*
X164742761Y-91297142D01*
X164695142Y-91344761D01*
X164599904Y-91392380D01*
X164409428Y-91440000D01*
X164171333Y-91440000D01*
X163980857Y-91392380D01*
X163885619Y-91344761D01*
X163838000Y-91297142D01*
X163790380Y-91201904D01*
X164790380Y-89916190D02*
X164790380Y-90487619D01*
X164790380Y-90201904D02*
X163790380Y-90201904D01*
X163933238Y-90297142D01*
X164028476Y-90392380D01*
X164076095Y-90487619D01*
X163742761Y-88773333D02*
X165028476Y-89630476D01*
X163885619Y-88487619D02*
X163838000Y-88440000D01*
X163790380Y-88344761D01*
X163790380Y-88106666D01*
X163838000Y-88011428D01*
X163885619Y-87963809D01*
X163980857Y-87916190D01*
X164076095Y-87916190D01*
X164218952Y-87963809D01*
X164790380Y-88535238D01*
X164790380Y-87916190D01*
X163790380Y-87297142D02*
X163790380Y-87201904D01*
X163838000Y-87106666D01*
X163885619Y-87059047D01*
X163980857Y-87011428D01*
X164171333Y-86963809D01*
X164409428Y-86963809D01*
X164599904Y-87011428D01*
X164695142Y-87059047D01*
X164742761Y-87106666D01*
X164790380Y-87201904D01*
X164790380Y-87297142D01*
X164742761Y-87392380D01*
X164695142Y-87440000D01*
X164599904Y-87487619D01*
X164409428Y-87535238D01*
X164171333Y-87535238D01*
X163980857Y-87487619D01*
X163885619Y-87440000D01*
X163838000Y-87392380D01*
X163790380Y-87297142D01*
X163885619Y-86582857D02*
X163838000Y-86535238D01*
X163790380Y-86440000D01*
X163790380Y-86201904D01*
X163838000Y-86106666D01*
X163885619Y-86059047D01*
X163980857Y-86011428D01*
X164076095Y-86011428D01*
X164218952Y-86059047D01*
X164790380Y-86630476D01*
X164790380Y-86011428D01*
X163790380Y-85392380D02*
X163790380Y-85297142D01*
X163838000Y-85201904D01*
X163885619Y-85154285D01*
X163980857Y-85106666D01*
X164171333Y-85059047D01*
X164409428Y-85059047D01*
X164599904Y-85106666D01*
X164695142Y-85154285D01*
X164742761Y-85201904D01*
X164790380Y-85297142D01*
X164790380Y-85392380D01*
X164742761Y-85487619D01*
X164695142Y-85535238D01*
X164599904Y-85582857D01*
X164409428Y-85630476D01*
X164171333Y-85630476D01*
X163980857Y-85582857D01*
X163885619Y-85535238D01*
X163838000Y-85487619D01*
X163790380Y-85392380D01*
D11*
%TO.C,LOGO2*%
G36*
X158089600Y-103153054D02*
G01*
X158100465Y-103266993D01*
X158132082Y-103374616D01*
X158182985Y-103473615D01*
X158251707Y-103561684D01*
X158336781Y-103636516D01*
X158433768Y-103694384D01*
X158540036Y-103734005D01*
X158647050Y-103752573D01*
X158752700Y-103751434D01*
X158854875Y-103731930D01*
X158951466Y-103695406D01*
X159040362Y-103643205D01*
X159119454Y-103576673D01*
X159186631Y-103497152D01*
X159239783Y-103405987D01*
X159276801Y-103304523D01*
X159295573Y-103194102D01*
X159297511Y-103144206D01*
X159297511Y-103056267D01*
X159349440Y-103056267D01*
X159385747Y-103059111D01*
X159412645Y-103070911D01*
X159439751Y-103094649D01*
X159478133Y-103133031D01*
X159478133Y-105324602D01*
X159478124Y-105586739D01*
X159478092Y-105827241D01*
X159478028Y-106047048D01*
X159477924Y-106247101D01*
X159477773Y-106428344D01*
X159477566Y-106591716D01*
X159477294Y-106738160D01*
X159476950Y-106868617D01*
X159476526Y-106984029D01*
X159476013Y-107085338D01*
X159475403Y-107173484D01*
X159474688Y-107249410D01*
X159473860Y-107314057D01*
X159472911Y-107368367D01*
X159471833Y-107413280D01*
X159470617Y-107449740D01*
X159469255Y-107478687D01*
X159467739Y-107501063D01*
X159466062Y-107517809D01*
X159464214Y-107529868D01*
X159462187Y-107538180D01*
X159459975Y-107543687D01*
X159458892Y-107545537D01*
X159454729Y-107552549D01*
X159451195Y-107558996D01*
X159447365Y-107564900D01*
X159442318Y-107570286D01*
X159435129Y-107575178D01*
X159424877Y-107579598D01*
X159410636Y-107583572D01*
X159391486Y-107587121D01*
X159366501Y-107590270D01*
X159334760Y-107593042D01*
X159295338Y-107595461D01*
X159247314Y-107597551D01*
X159189763Y-107599335D01*
X159121763Y-107600837D01*
X159042390Y-107602080D01*
X158950721Y-107603089D01*
X158845834Y-107603885D01*
X158726804Y-107604494D01*
X158592710Y-107604939D01*
X158442627Y-107605243D01*
X158275633Y-107605430D01*
X158090804Y-107605524D01*
X157887217Y-107605548D01*
X157663950Y-107605525D01*
X157420078Y-107605480D01*
X157154679Y-107605437D01*
X157116296Y-107605432D01*
X156849318Y-107605389D01*
X156603998Y-107605318D01*
X156379417Y-107605213D01*
X156174655Y-107605066D01*
X155988794Y-107604869D01*
X155820912Y-107604616D01*
X155670092Y-107604300D01*
X155535413Y-107603913D01*
X155415956Y-107603447D01*
X155310801Y-107602897D01*
X155219029Y-107602253D01*
X155139721Y-107601511D01*
X155071957Y-107600661D01*
X155014818Y-107599697D01*
X154967383Y-107598611D01*
X154928734Y-107597397D01*
X154897951Y-107596047D01*
X154874115Y-107594555D01*
X154856306Y-107592911D01*
X154843605Y-107591111D01*
X154835092Y-107589145D01*
X154830734Y-107587477D01*
X154822272Y-107583906D01*
X154814503Y-107581270D01*
X154807398Y-107578634D01*
X154800927Y-107575062D01*
X154795061Y-107569621D01*
X154789771Y-107561375D01*
X154785026Y-107549390D01*
X154780798Y-107532731D01*
X154777057Y-107510463D01*
X154773773Y-107481652D01*
X154770917Y-107445363D01*
X154768460Y-107400661D01*
X154766371Y-107346611D01*
X154764622Y-107282279D01*
X154763183Y-107206730D01*
X154762024Y-107119030D01*
X154761117Y-107018243D01*
X154760431Y-106903434D01*
X154759937Y-106773670D01*
X154759605Y-106628015D01*
X154759407Y-106465535D01*
X154759313Y-106285295D01*
X154759292Y-106086360D01*
X154759315Y-105867796D01*
X154759354Y-105628668D01*
X154759378Y-105368040D01*
X154759378Y-105325889D01*
X154759364Y-105062992D01*
X154759339Y-104821732D01*
X154759329Y-104601165D01*
X154759358Y-104400352D01*
X154759452Y-104218349D01*
X154759638Y-104054216D01*
X154759941Y-103907011D01*
X154760386Y-103775792D01*
X154760966Y-103665867D01*
X155063803Y-103665867D01*
X155103593Y-103723711D01*
X155114764Y-103739479D01*
X155124834Y-103753441D01*
X155133862Y-103766784D01*
X155141903Y-103780693D01*
X155149014Y-103796356D01*
X155155253Y-103814958D01*
X155160675Y-103837686D01*
X155165338Y-103865727D01*
X155169299Y-103900267D01*
X155172615Y-103942492D01*
X155175341Y-103993589D01*
X155177536Y-104054744D01*
X155179255Y-104127144D01*
X155180556Y-104211975D01*
X155181495Y-104310422D01*
X155182130Y-104423674D01*
X155182516Y-104552916D01*
X155182712Y-104699334D01*
X155182773Y-104864116D01*
X155182757Y-105048447D01*
X155182720Y-105253513D01*
X155182711Y-105376133D01*
X155182735Y-105593082D01*
X155182769Y-105788642D01*
X155182757Y-105963999D01*
X155182642Y-106120341D01*
X155182370Y-106258857D01*
X155181882Y-106380734D01*
X155181124Y-106487160D01*
X155180038Y-106579322D01*
X155178569Y-106658409D01*
X155176660Y-106725608D01*
X155174256Y-106782107D01*
X155171299Y-106829093D01*
X155167734Y-106867755D01*
X155163505Y-106899280D01*
X155158554Y-106924855D01*
X155152827Y-106945670D01*
X155146267Y-106962911D01*
X155138817Y-106977765D01*
X155130421Y-106991422D01*
X155121024Y-107005069D01*
X155110568Y-107019893D01*
X155104477Y-107028783D01*
X155065704Y-107086400D01*
X155597268Y-107086400D01*
X155720517Y-107086365D01*
X155823013Y-107086215D01*
X155906580Y-107085878D01*
X155973044Y-107085286D01*
X156024229Y-107084367D01*
X156061959Y-107083051D01*
X156088060Y-107081269D01*
X156104356Y-107078951D01*
X156112672Y-107076026D01*
X156114832Y-107072424D01*
X156112661Y-107068075D01*
X156111465Y-107066645D01*
X156086315Y-107029573D01*
X156060417Y-106976772D01*
X156036808Y-106914770D01*
X156028539Y-106888357D01*
X156023922Y-106870416D01*
X156020021Y-106849355D01*
X156016752Y-106823089D01*
X156014034Y-106789532D01*
X156011785Y-106746599D01*
X156009923Y-106692204D01*
X156008364Y-106624262D01*
X156007028Y-106540688D01*
X156005831Y-106439395D01*
X156004692Y-106318300D01*
X156004315Y-106273600D01*
X156003298Y-106148449D01*
X156002540Y-106044082D01*
X156002097Y-105958707D01*
X156002030Y-105890533D01*
X156002395Y-105837765D01*
X156003252Y-105798614D01*
X156004659Y-105771285D01*
X156006675Y-105753986D01*
X156009357Y-105744926D01*
X156012764Y-105742312D01*
X156016956Y-105744351D01*
X156021429Y-105748667D01*
X156031784Y-105761602D01*
X156053842Y-105790676D01*
X156086043Y-105833759D01*
X156126826Y-105888718D01*
X156174630Y-105953423D01*
X156227895Y-106025742D01*
X156285060Y-106103544D01*
X156344563Y-106184698D01*
X156404845Y-106267072D01*
X156464345Y-106348536D01*
X156521502Y-106426957D01*
X156574755Y-106500204D01*
X156622543Y-106566147D01*
X156663307Y-106622654D01*
X156695484Y-106667593D01*
X156717515Y-106698834D01*
X156722083Y-106705466D01*
X156745004Y-106742369D01*
X156771812Y-106790359D01*
X156797211Y-106839897D01*
X156800432Y-106846577D01*
X156822110Y-106894772D01*
X156834696Y-106932334D01*
X156840426Y-106968160D01*
X156841544Y-107010200D01*
X156840910Y-107086400D01*
X157995349Y-107086400D01*
X157904185Y-106992669D01*
X157857388Y-106942775D01*
X157807101Y-106886295D01*
X157761056Y-106832026D01*
X157740631Y-106806673D01*
X157710193Y-106767128D01*
X157670138Y-106713916D01*
X157621639Y-106648667D01*
X157565865Y-106573011D01*
X157503989Y-106488577D01*
X157437181Y-106396994D01*
X157366613Y-106299892D01*
X157293455Y-106198901D01*
X157218879Y-106095650D01*
X157144056Y-105991768D01*
X157070157Y-105888885D01*
X156998354Y-105788631D01*
X156929816Y-105692636D01*
X156865716Y-105602527D01*
X156807225Y-105519936D01*
X156755514Y-105446492D01*
X156711753Y-105383824D01*
X156677115Y-105333561D01*
X156652770Y-105297334D01*
X156639889Y-105276771D01*
X156638131Y-105272668D01*
X156646090Y-105261342D01*
X156666885Y-105234162D01*
X156699153Y-105192829D01*
X156741530Y-105139044D01*
X156792653Y-105074506D01*
X156851159Y-105000918D01*
X156915686Y-104919978D01*
X156984869Y-104833388D01*
X157057347Y-104742848D01*
X157131754Y-104650060D01*
X157191483Y-104575702D01*
X158202489Y-104575702D01*
X158208398Y-104588659D01*
X158222728Y-104610908D01*
X158223775Y-104612391D01*
X158242562Y-104642544D01*
X158262209Y-104679375D01*
X158266108Y-104687511D01*
X158269644Y-104695940D01*
X158272770Y-104706059D01*
X158275514Y-104719260D01*
X158277908Y-104736938D01*
X158279981Y-104760484D01*
X158281765Y-104791293D01*
X158283288Y-104830757D01*
X158284581Y-104880269D01*
X158285674Y-104941223D01*
X158286597Y-105015011D01*
X158287381Y-105103028D01*
X158288055Y-105206665D01*
X158288650Y-105327316D01*
X158289195Y-105466374D01*
X158289721Y-105625232D01*
X158290255Y-105804089D01*
X158290794Y-105989207D01*
X158291228Y-106153145D01*
X158291491Y-106297303D01*
X158291516Y-106423079D01*
X158291235Y-106531871D01*
X158290581Y-106625077D01*
X158289486Y-106704097D01*
X158287882Y-106770328D01*
X158285703Y-106825170D01*
X158282881Y-106870021D01*
X158279349Y-106906278D01*
X158275039Y-106935341D01*
X158269883Y-106958609D01*
X158263815Y-106977479D01*
X158256767Y-106993351D01*
X158248671Y-107007622D01*
X158239460Y-107021691D01*
X158230960Y-107034158D01*
X158213824Y-107060452D01*
X158203678Y-107078037D01*
X158202489Y-107081257D01*
X158213396Y-107082334D01*
X158244589Y-107083335D01*
X158293777Y-107084235D01*
X158358667Y-107085010D01*
X158436970Y-107085637D01*
X158526393Y-107086091D01*
X158624644Y-107086349D01*
X158693555Y-107086400D01*
X158798548Y-107086180D01*
X158895390Y-107085548D01*
X158981893Y-107084549D01*
X159055868Y-107083227D01*
X159115126Y-107081626D01*
X159157480Y-107079791D01*
X159180740Y-107077765D01*
X159184622Y-107076493D01*
X159176924Y-107061591D01*
X159168926Y-107053560D01*
X159155754Y-107036434D01*
X159138515Y-107006183D01*
X159126593Y-106981622D01*
X159099955Y-106922711D01*
X159096880Y-105745845D01*
X159093805Y-104568978D01*
X158648147Y-104568978D01*
X158550330Y-104569142D01*
X158459936Y-104569611D01*
X158379370Y-104570347D01*
X158311038Y-104571316D01*
X158257344Y-104572480D01*
X158220695Y-104573803D01*
X158203496Y-104575249D01*
X158202489Y-104575702D01*
X157191483Y-104575702D01*
X157206730Y-104556722D01*
X157280910Y-104464537D01*
X157352931Y-104375204D01*
X157421431Y-104290424D01*
X157485045Y-104211898D01*
X157542412Y-104141326D01*
X157592167Y-104080409D01*
X157632948Y-104030847D01*
X157650112Y-104010178D01*
X157736404Y-103909516D01*
X157813003Y-103826259D01*
X157881817Y-103758438D01*
X157944752Y-103704089D01*
X157954133Y-103696722D01*
X157993644Y-103666117D01*
X156861884Y-103665867D01*
X156867173Y-103713844D01*
X156863870Y-103771188D01*
X156842339Y-103839463D01*
X156802365Y-103919212D01*
X156757057Y-103991495D01*
X156740839Y-104014140D01*
X156712786Y-104051696D01*
X156674570Y-104102021D01*
X156627863Y-104162973D01*
X156574339Y-104232411D01*
X156515669Y-104308194D01*
X156453525Y-104388180D01*
X156389579Y-104470228D01*
X156325505Y-104552196D01*
X156262973Y-104631943D01*
X156203657Y-104707327D01*
X156149229Y-104776207D01*
X156101361Y-104836442D01*
X156061725Y-104885889D01*
X156031994Y-104922408D01*
X156013839Y-104943858D01*
X156010780Y-104947156D01*
X156007921Y-104939149D01*
X156005707Y-104908855D01*
X156004143Y-104856556D01*
X156003233Y-104782531D01*
X156002980Y-104687063D01*
X156003387Y-104570434D01*
X156004296Y-104450445D01*
X156005618Y-104318333D01*
X156007143Y-104206594D01*
X156009119Y-104113025D01*
X156011794Y-104035419D01*
X156015418Y-103971574D01*
X156020239Y-103919283D01*
X156026506Y-103876344D01*
X156034468Y-103840551D01*
X156044373Y-103809700D01*
X156056469Y-103781586D01*
X156071007Y-103754005D01*
X156085689Y-103728966D01*
X156123686Y-103665867D01*
X155063803Y-103665867D01*
X154760966Y-103665867D01*
X154760999Y-103659617D01*
X154761805Y-103557544D01*
X154762830Y-103468633D01*
X154764100Y-103391941D01*
X154765640Y-103326527D01*
X154767476Y-103271449D01*
X154769633Y-103225765D01*
X154772137Y-103188534D01*
X154775013Y-103158813D01*
X154778287Y-103135662D01*
X154781985Y-103118139D01*
X154786131Y-103105301D01*
X154790753Y-103096208D01*
X154795874Y-103089918D01*
X154801522Y-103085488D01*
X154807721Y-103081978D01*
X154814496Y-103078445D01*
X154820492Y-103074876D01*
X154825725Y-103072300D01*
X154833901Y-103069972D01*
X154846114Y-103067878D01*
X154863459Y-103066007D01*
X154887031Y-103064347D01*
X154917923Y-103062884D01*
X154957232Y-103061608D01*
X155006050Y-103060504D01*
X155065473Y-103059561D01*
X155136596Y-103058767D01*
X155220512Y-103058109D01*
X155318317Y-103057575D01*
X155431106Y-103057153D01*
X155559971Y-103056829D01*
X155706009Y-103056592D01*
X155870314Y-103056430D01*
X156053980Y-103056330D01*
X156258103Y-103056280D01*
X156469247Y-103056267D01*
X158089600Y-103056267D01*
X158089600Y-103153054D01*
G37*
X158089600Y-103153054D02*
X158100465Y-103266993D01*
X158132082Y-103374616D01*
X158182985Y-103473615D01*
X158251707Y-103561684D01*
X158336781Y-103636516D01*
X158433768Y-103694384D01*
X158540036Y-103734005D01*
X158647050Y-103752573D01*
X158752700Y-103751434D01*
X158854875Y-103731930D01*
X158951466Y-103695406D01*
X159040362Y-103643205D01*
X159119454Y-103576673D01*
X159186631Y-103497152D01*
X159239783Y-103405987D01*
X159276801Y-103304523D01*
X159295573Y-103194102D01*
X159297511Y-103144206D01*
X159297511Y-103056267D01*
X159349440Y-103056267D01*
X159385747Y-103059111D01*
X159412645Y-103070911D01*
X159439751Y-103094649D01*
X159478133Y-103133031D01*
X159478133Y-105324602D01*
X159478124Y-105586739D01*
X159478092Y-105827241D01*
X159478028Y-106047048D01*
X159477924Y-106247101D01*
X159477773Y-106428344D01*
X159477566Y-106591716D01*
X159477294Y-106738160D01*
X159476950Y-106868617D01*
X159476526Y-106984029D01*
X159476013Y-107085338D01*
X159475403Y-107173484D01*
X159474688Y-107249410D01*
X159473860Y-107314057D01*
X159472911Y-107368367D01*
X159471833Y-107413280D01*
X159470617Y-107449740D01*
X159469255Y-107478687D01*
X159467739Y-107501063D01*
X159466062Y-107517809D01*
X159464214Y-107529868D01*
X159462187Y-107538180D01*
X159459975Y-107543687D01*
X159458892Y-107545537D01*
X159454729Y-107552549D01*
X159451195Y-107558996D01*
X159447365Y-107564900D01*
X159442318Y-107570286D01*
X159435129Y-107575178D01*
X159424877Y-107579598D01*
X159410636Y-107583572D01*
X159391486Y-107587121D01*
X159366501Y-107590270D01*
X159334760Y-107593042D01*
X159295338Y-107595461D01*
X159247314Y-107597551D01*
X159189763Y-107599335D01*
X159121763Y-107600837D01*
X159042390Y-107602080D01*
X158950721Y-107603089D01*
X158845834Y-107603885D01*
X158726804Y-107604494D01*
X158592710Y-107604939D01*
X158442627Y-107605243D01*
X158275633Y-107605430D01*
X158090804Y-107605524D01*
X157887217Y-107605548D01*
X157663950Y-107605525D01*
X157420078Y-107605480D01*
X157154679Y-107605437D01*
X157116296Y-107605432D01*
X156849318Y-107605389D01*
X156603998Y-107605318D01*
X156379417Y-107605213D01*
X156174655Y-107605066D01*
X155988794Y-107604869D01*
X155820912Y-107604616D01*
X155670092Y-107604300D01*
X155535413Y-107603913D01*
X155415956Y-107603447D01*
X155310801Y-107602897D01*
X155219029Y-107602253D01*
X155139721Y-107601511D01*
X155071957Y-107600661D01*
X155014818Y-107599697D01*
X154967383Y-107598611D01*
X154928734Y-107597397D01*
X154897951Y-107596047D01*
X154874115Y-107594555D01*
X154856306Y-107592911D01*
X154843605Y-107591111D01*
X154835092Y-107589145D01*
X154830734Y-107587477D01*
X154822272Y-107583906D01*
X154814503Y-107581270D01*
X154807398Y-107578634D01*
X154800927Y-107575062D01*
X154795061Y-107569621D01*
X154789771Y-107561375D01*
X154785026Y-107549390D01*
X154780798Y-107532731D01*
X154777057Y-107510463D01*
X154773773Y-107481652D01*
X154770917Y-107445363D01*
X154768460Y-107400661D01*
X154766371Y-107346611D01*
X154764622Y-107282279D01*
X154763183Y-107206730D01*
X154762024Y-107119030D01*
X154761117Y-107018243D01*
X154760431Y-106903434D01*
X154759937Y-106773670D01*
X154759605Y-106628015D01*
X154759407Y-106465535D01*
X154759313Y-106285295D01*
X154759292Y-106086360D01*
X154759315Y-105867796D01*
X154759354Y-105628668D01*
X154759378Y-105368040D01*
X154759378Y-105325889D01*
X154759364Y-105062992D01*
X154759339Y-104821732D01*
X154759329Y-104601165D01*
X154759358Y-104400352D01*
X154759452Y-104218349D01*
X154759638Y-104054216D01*
X154759941Y-103907011D01*
X154760386Y-103775792D01*
X154760966Y-103665867D01*
X155063803Y-103665867D01*
X155103593Y-103723711D01*
X155114764Y-103739479D01*
X155124834Y-103753441D01*
X155133862Y-103766784D01*
X155141903Y-103780693D01*
X155149014Y-103796356D01*
X155155253Y-103814958D01*
X155160675Y-103837686D01*
X155165338Y-103865727D01*
X155169299Y-103900267D01*
X155172615Y-103942492D01*
X155175341Y-103993589D01*
X155177536Y-104054744D01*
X155179255Y-104127144D01*
X155180556Y-104211975D01*
X155181495Y-104310422D01*
X155182130Y-104423674D01*
X155182516Y-104552916D01*
X155182712Y-104699334D01*
X155182773Y-104864116D01*
X155182757Y-105048447D01*
X155182720Y-105253513D01*
X155182711Y-105376133D01*
X155182735Y-105593082D01*
X155182769Y-105788642D01*
X155182757Y-105963999D01*
X155182642Y-106120341D01*
X155182370Y-106258857D01*
X155181882Y-106380734D01*
X155181124Y-106487160D01*
X155180038Y-106579322D01*
X155178569Y-106658409D01*
X155176660Y-106725608D01*
X155174256Y-106782107D01*
X155171299Y-106829093D01*
X155167734Y-106867755D01*
X155163505Y-106899280D01*
X155158554Y-106924855D01*
X155152827Y-106945670D01*
X155146267Y-106962911D01*
X155138817Y-106977765D01*
X155130421Y-106991422D01*
X155121024Y-107005069D01*
X155110568Y-107019893D01*
X155104477Y-107028783D01*
X155065704Y-107086400D01*
X155597268Y-107086400D01*
X155720517Y-107086365D01*
X155823013Y-107086215D01*
X155906580Y-107085878D01*
X155973044Y-107085286D01*
X156024229Y-107084367D01*
X156061959Y-107083051D01*
X156088060Y-107081269D01*
X156104356Y-107078951D01*
X156112672Y-107076026D01*
X156114832Y-107072424D01*
X156112661Y-107068075D01*
X156111465Y-107066645D01*
X156086315Y-107029573D01*
X156060417Y-106976772D01*
X156036808Y-106914770D01*
X156028539Y-106888357D01*
X156023922Y-106870416D01*
X156020021Y-106849355D01*
X156016752Y-106823089D01*
X156014034Y-106789532D01*
X156011785Y-106746599D01*
X156009923Y-106692204D01*
X156008364Y-106624262D01*
X156007028Y-106540688D01*
X156005831Y-106439395D01*
X156004692Y-106318300D01*
X156004315Y-106273600D01*
X156003298Y-106148449D01*
X156002540Y-106044082D01*
X156002097Y-105958707D01*
X156002030Y-105890533D01*
X156002395Y-105837765D01*
X156003252Y-105798614D01*
X156004659Y-105771285D01*
X156006675Y-105753986D01*
X156009357Y-105744926D01*
X156012764Y-105742312D01*
X156016956Y-105744351D01*
X156021429Y-105748667D01*
X156031784Y-105761602D01*
X156053842Y-105790676D01*
X156086043Y-105833759D01*
X156126826Y-105888718D01*
X156174630Y-105953423D01*
X156227895Y-106025742D01*
X156285060Y-106103544D01*
X156344563Y-106184698D01*
X156404845Y-106267072D01*
X156464345Y-106348536D01*
X156521502Y-106426957D01*
X156574755Y-106500204D01*
X156622543Y-106566147D01*
X156663307Y-106622654D01*
X156695484Y-106667593D01*
X156717515Y-106698834D01*
X156722083Y-106705466D01*
X156745004Y-106742369D01*
X156771812Y-106790359D01*
X156797211Y-106839897D01*
X156800432Y-106846577D01*
X156822110Y-106894772D01*
X156834696Y-106932334D01*
X156840426Y-106968160D01*
X156841544Y-107010200D01*
X156840910Y-107086400D01*
X157995349Y-107086400D01*
X157904185Y-106992669D01*
X157857388Y-106942775D01*
X157807101Y-106886295D01*
X157761056Y-106832026D01*
X157740631Y-106806673D01*
X157710193Y-106767128D01*
X157670138Y-106713916D01*
X157621639Y-106648667D01*
X157565865Y-106573011D01*
X157503989Y-106488577D01*
X157437181Y-106396994D01*
X157366613Y-106299892D01*
X157293455Y-106198901D01*
X157218879Y-106095650D01*
X157144056Y-105991768D01*
X157070157Y-105888885D01*
X156998354Y-105788631D01*
X156929816Y-105692636D01*
X156865716Y-105602527D01*
X156807225Y-105519936D01*
X156755514Y-105446492D01*
X156711753Y-105383824D01*
X156677115Y-105333561D01*
X156652770Y-105297334D01*
X156639889Y-105276771D01*
X156638131Y-105272668D01*
X156646090Y-105261342D01*
X156666885Y-105234162D01*
X156699153Y-105192829D01*
X156741530Y-105139044D01*
X156792653Y-105074506D01*
X156851159Y-105000918D01*
X156915686Y-104919978D01*
X156984869Y-104833388D01*
X157057347Y-104742848D01*
X157131754Y-104650060D01*
X157191483Y-104575702D01*
X158202489Y-104575702D01*
X158208398Y-104588659D01*
X158222728Y-104610908D01*
X158223775Y-104612391D01*
X158242562Y-104642544D01*
X158262209Y-104679375D01*
X158266108Y-104687511D01*
X158269644Y-104695940D01*
X158272770Y-104706059D01*
X158275514Y-104719260D01*
X158277908Y-104736938D01*
X158279981Y-104760484D01*
X158281765Y-104791293D01*
X158283288Y-104830757D01*
X158284581Y-104880269D01*
X158285674Y-104941223D01*
X158286597Y-105015011D01*
X158287381Y-105103028D01*
X158288055Y-105206665D01*
X158288650Y-105327316D01*
X158289195Y-105466374D01*
X158289721Y-105625232D01*
X158290255Y-105804089D01*
X158290794Y-105989207D01*
X158291228Y-106153145D01*
X158291491Y-106297303D01*
X158291516Y-106423079D01*
X158291235Y-106531871D01*
X158290581Y-106625077D01*
X158289486Y-106704097D01*
X158287882Y-106770328D01*
X158285703Y-106825170D01*
X158282881Y-106870021D01*
X158279349Y-106906278D01*
X158275039Y-106935341D01*
X158269883Y-106958609D01*
X158263815Y-106977479D01*
X158256767Y-106993351D01*
X158248671Y-107007622D01*
X158239460Y-107021691D01*
X158230960Y-107034158D01*
X158213824Y-107060452D01*
X158203678Y-107078037D01*
X158202489Y-107081257D01*
X158213396Y-107082334D01*
X158244589Y-107083335D01*
X158293777Y-107084235D01*
X158358667Y-107085010D01*
X158436970Y-107085637D01*
X158526393Y-107086091D01*
X158624644Y-107086349D01*
X158693555Y-107086400D01*
X158798548Y-107086180D01*
X158895390Y-107085548D01*
X158981893Y-107084549D01*
X159055868Y-107083227D01*
X159115126Y-107081626D01*
X159157480Y-107079791D01*
X159180740Y-107077765D01*
X159184622Y-107076493D01*
X159176924Y-107061591D01*
X159168926Y-107053560D01*
X159155754Y-107036434D01*
X159138515Y-107006183D01*
X159126593Y-106981622D01*
X159099955Y-106922711D01*
X159096880Y-105745845D01*
X159093805Y-104568978D01*
X158648147Y-104568978D01*
X158550330Y-104569142D01*
X158459936Y-104569611D01*
X158379370Y-104570347D01*
X158311038Y-104571316D01*
X158257344Y-104572480D01*
X158220695Y-104573803D01*
X158203496Y-104575249D01*
X158202489Y-104575702D01*
X157191483Y-104575702D01*
X157206730Y-104556722D01*
X157280910Y-104464537D01*
X157352931Y-104375204D01*
X157421431Y-104290424D01*
X157485045Y-104211898D01*
X157542412Y-104141326D01*
X157592167Y-104080409D01*
X157632948Y-104030847D01*
X157650112Y-104010178D01*
X157736404Y-103909516D01*
X157813003Y-103826259D01*
X157881817Y-103758438D01*
X157944752Y-103704089D01*
X157954133Y-103696722D01*
X157993644Y-103666117D01*
X156861884Y-103665867D01*
X156867173Y-103713844D01*
X156863870Y-103771188D01*
X156842339Y-103839463D01*
X156802365Y-103919212D01*
X156757057Y-103991495D01*
X156740839Y-104014140D01*
X156712786Y-104051696D01*
X156674570Y-104102021D01*
X156627863Y-104162973D01*
X156574339Y-104232411D01*
X156515669Y-104308194D01*
X156453525Y-104388180D01*
X156389579Y-104470228D01*
X156325505Y-104552196D01*
X156262973Y-104631943D01*
X156203657Y-104707327D01*
X156149229Y-104776207D01*
X156101361Y-104836442D01*
X156061725Y-104885889D01*
X156031994Y-104922408D01*
X156013839Y-104943858D01*
X156010780Y-104947156D01*
X156007921Y-104939149D01*
X156005707Y-104908855D01*
X156004143Y-104856556D01*
X156003233Y-104782531D01*
X156002980Y-104687063D01*
X156003387Y-104570434D01*
X156004296Y-104450445D01*
X156005618Y-104318333D01*
X156007143Y-104206594D01*
X156009119Y-104113025D01*
X156011794Y-104035419D01*
X156015418Y-103971574D01*
X156020239Y-103919283D01*
X156026506Y-103876344D01*
X156034468Y-103840551D01*
X156044373Y-103809700D01*
X156056469Y-103781586D01*
X156071007Y-103754005D01*
X156085689Y-103728966D01*
X156123686Y-103665867D01*
X155063803Y-103665867D01*
X154760966Y-103665867D01*
X154760999Y-103659617D01*
X154761805Y-103557544D01*
X154762830Y-103468633D01*
X154764100Y-103391941D01*
X154765640Y-103326527D01*
X154767476Y-103271449D01*
X154769633Y-103225765D01*
X154772137Y-103188534D01*
X154775013Y-103158813D01*
X154778287Y-103135662D01*
X154781985Y-103118139D01*
X154786131Y-103105301D01*
X154790753Y-103096208D01*
X154795874Y-103089918D01*
X154801522Y-103085488D01*
X154807721Y-103081978D01*
X154814496Y-103078445D01*
X154820492Y-103074876D01*
X154825725Y-103072300D01*
X154833901Y-103069972D01*
X154846114Y-103067878D01*
X154863459Y-103066007D01*
X154887031Y-103064347D01*
X154917923Y-103062884D01*
X154957232Y-103061608D01*
X155006050Y-103060504D01*
X155065473Y-103059561D01*
X155136596Y-103058767D01*
X155220512Y-103058109D01*
X155318317Y-103057575D01*
X155431106Y-103057153D01*
X155559971Y-103056829D01*
X155706009Y-103056592D01*
X155870314Y-103056430D01*
X156053980Y-103056330D01*
X156258103Y-103056280D01*
X156469247Y-103056267D01*
X158089600Y-103056267D01*
X158089600Y-103153054D01*
G36*
X161364429Y-103613071D02*
G01*
X161524570Y-103634245D01*
X161688510Y-103674385D01*
X161858313Y-103733889D01*
X162036043Y-103813154D01*
X162047310Y-103818699D01*
X162105005Y-103846725D01*
X162156552Y-103870802D01*
X162198191Y-103889249D01*
X162226162Y-103900386D01*
X162235733Y-103902933D01*
X162254950Y-103907941D01*
X162259561Y-103912147D01*
X162254458Y-103922580D01*
X162238418Y-103948868D01*
X162213288Y-103988257D01*
X162180914Y-104037991D01*
X162143143Y-104095315D01*
X162101822Y-104157476D01*
X162058798Y-104221718D01*
X162015917Y-104285285D01*
X161975026Y-104345425D01*
X161937971Y-104399380D01*
X161906600Y-104444397D01*
X161882759Y-104477721D01*
X161868294Y-104496597D01*
X161866309Y-104498787D01*
X161856191Y-104494138D01*
X161833850Y-104476962D01*
X161803280Y-104450440D01*
X161787536Y-104435964D01*
X161691047Y-104360682D01*
X161584336Y-104305241D01*
X161468832Y-104270141D01*
X161345962Y-104255880D01*
X161276561Y-104257051D01*
X161155423Y-104274212D01*
X161046205Y-104310094D01*
X160948582Y-104364959D01*
X160862228Y-104439070D01*
X160786815Y-104532688D01*
X160722018Y-104646076D01*
X160684601Y-104732667D01*
X160640748Y-104868366D01*
X160608428Y-105015850D01*
X160587557Y-105171314D01*
X160578051Y-105330956D01*
X160579827Y-105490973D01*
X160592803Y-105647561D01*
X160616894Y-105796918D01*
X160652018Y-105935240D01*
X160698092Y-106058724D01*
X160714373Y-106092978D01*
X160782620Y-106207064D01*
X160863079Y-106303557D01*
X160954570Y-106381670D01*
X161055911Y-106440617D01*
X161165920Y-106479612D01*
X161283415Y-106497868D01*
X161324883Y-106499211D01*
X161446441Y-106488290D01*
X161566878Y-106455474D01*
X161684666Y-106401439D01*
X161798277Y-106326865D01*
X161889685Y-106248539D01*
X161936215Y-106204008D01*
X162117483Y-106501271D01*
X162162580Y-106575433D01*
X162203819Y-106643646D01*
X162239735Y-106703459D01*
X162268866Y-106752420D01*
X162289750Y-106788079D01*
X162300924Y-106807984D01*
X162302375Y-106811079D01*
X162294146Y-106820718D01*
X162268567Y-106837999D01*
X162228873Y-106861283D01*
X162178297Y-106888934D01*
X162120074Y-106919315D01*
X162057437Y-106950790D01*
X161993621Y-106981722D01*
X161931860Y-107010473D01*
X161875388Y-107035408D01*
X161827438Y-107054889D01*
X161803986Y-107063318D01*
X161670221Y-107101133D01*
X161532327Y-107126136D01*
X161384622Y-107139140D01*
X161257833Y-107141468D01*
X161189878Y-107140373D01*
X161124277Y-107138275D01*
X161066847Y-107135434D01*
X161023403Y-107132106D01*
X161009298Y-107130422D01*
X160870284Y-107101587D01*
X160728757Y-107056468D01*
X160591275Y-106997750D01*
X160464394Y-106928120D01*
X160386889Y-106875441D01*
X160259481Y-106767239D01*
X160141178Y-106640671D01*
X160034172Y-106498866D01*
X159940652Y-106344951D01*
X159862810Y-106182053D01*
X159818956Y-106064756D01*
X159768708Y-105881128D01*
X159735209Y-105686581D01*
X159718449Y-105485325D01*
X159718416Y-105281568D01*
X159735101Y-105079521D01*
X159768493Y-104883392D01*
X159818580Y-104697391D01*
X159822397Y-104685803D01*
X159885281Y-104523750D01*
X159962028Y-104375832D01*
X160055242Y-104237865D01*
X160167527Y-104105661D01*
X160211392Y-104060399D01*
X160347534Y-103936457D01*
X160487491Y-103833915D01*
X160633411Y-103751656D01*
X160787442Y-103688564D01*
X160951732Y-103643523D01*
X161047289Y-103626033D01*
X161206023Y-103610466D01*
X161364429Y-103613071D01*
G37*
X161364429Y-103613071D02*
X161524570Y-103634245D01*
X161688510Y-103674385D01*
X161858313Y-103733889D01*
X162036043Y-103813154D01*
X162047310Y-103818699D01*
X162105005Y-103846725D01*
X162156552Y-103870802D01*
X162198191Y-103889249D01*
X162226162Y-103900386D01*
X162235733Y-103902933D01*
X162254950Y-103907941D01*
X162259561Y-103912147D01*
X162254458Y-103922580D01*
X162238418Y-103948868D01*
X162213288Y-103988257D01*
X162180914Y-104037991D01*
X162143143Y-104095315D01*
X162101822Y-104157476D01*
X162058798Y-104221718D01*
X162015917Y-104285285D01*
X161975026Y-104345425D01*
X161937971Y-104399380D01*
X161906600Y-104444397D01*
X161882759Y-104477721D01*
X161868294Y-104496597D01*
X161866309Y-104498787D01*
X161856191Y-104494138D01*
X161833850Y-104476962D01*
X161803280Y-104450440D01*
X161787536Y-104435964D01*
X161691047Y-104360682D01*
X161584336Y-104305241D01*
X161468832Y-104270141D01*
X161345962Y-104255880D01*
X161276561Y-104257051D01*
X161155423Y-104274212D01*
X161046205Y-104310094D01*
X160948582Y-104364959D01*
X160862228Y-104439070D01*
X160786815Y-104532688D01*
X160722018Y-104646076D01*
X160684601Y-104732667D01*
X160640748Y-104868366D01*
X160608428Y-105015850D01*
X160587557Y-105171314D01*
X160578051Y-105330956D01*
X160579827Y-105490973D01*
X160592803Y-105647561D01*
X160616894Y-105796918D01*
X160652018Y-105935240D01*
X160698092Y-106058724D01*
X160714373Y-106092978D01*
X160782620Y-106207064D01*
X160863079Y-106303557D01*
X160954570Y-106381670D01*
X161055911Y-106440617D01*
X161165920Y-106479612D01*
X161283415Y-106497868D01*
X161324883Y-106499211D01*
X161446441Y-106488290D01*
X161566878Y-106455474D01*
X161684666Y-106401439D01*
X161798277Y-106326865D01*
X161889685Y-106248539D01*
X161936215Y-106204008D01*
X162117483Y-106501271D01*
X162162580Y-106575433D01*
X162203819Y-106643646D01*
X162239735Y-106703459D01*
X162268866Y-106752420D01*
X162289750Y-106788079D01*
X162300924Y-106807984D01*
X162302375Y-106811079D01*
X162294146Y-106820718D01*
X162268567Y-106837999D01*
X162228873Y-106861283D01*
X162178297Y-106888934D01*
X162120074Y-106919315D01*
X162057437Y-106950790D01*
X161993621Y-106981722D01*
X161931860Y-107010473D01*
X161875388Y-107035408D01*
X161827438Y-107054889D01*
X161803986Y-107063318D01*
X161670221Y-107101133D01*
X161532327Y-107126136D01*
X161384622Y-107139140D01*
X161257833Y-107141468D01*
X161189878Y-107140373D01*
X161124277Y-107138275D01*
X161066847Y-107135434D01*
X161023403Y-107132106D01*
X161009298Y-107130422D01*
X160870284Y-107101587D01*
X160728757Y-107056468D01*
X160591275Y-106997750D01*
X160464394Y-106928120D01*
X160386889Y-106875441D01*
X160259481Y-106767239D01*
X160141178Y-106640671D01*
X160034172Y-106498866D01*
X159940652Y-106344951D01*
X159862810Y-106182053D01*
X159818956Y-106064756D01*
X159768708Y-105881128D01*
X159735209Y-105686581D01*
X159718449Y-105485325D01*
X159718416Y-105281568D01*
X159735101Y-105079521D01*
X159768493Y-104883392D01*
X159818580Y-104697391D01*
X159822397Y-104685803D01*
X159885281Y-104523750D01*
X159962028Y-104375832D01*
X160055242Y-104237865D01*
X160167527Y-104105661D01*
X160211392Y-104060399D01*
X160347534Y-103936457D01*
X160487491Y-103833915D01*
X160633411Y-103751656D01*
X160787442Y-103688564D01*
X160951732Y-103643523D01*
X161047289Y-103626033D01*
X161206023Y-103610466D01*
X161364429Y-103613071D01*
G36*
X163709574Y-104530552D02*
G01*
X163861492Y-104550567D01*
X163996756Y-104584202D01*
X164116239Y-104631725D01*
X164220815Y-104693405D01*
X164298424Y-104756965D01*
X164367265Y-104831099D01*
X164421006Y-104910871D01*
X164463910Y-105003091D01*
X164479384Y-105046161D01*
X164492244Y-105085142D01*
X164503446Y-105121289D01*
X164513120Y-105156434D01*
X164521396Y-105192410D01*
X164528403Y-105231050D01*
X164534272Y-105274185D01*
X164539131Y-105323649D01*
X164543110Y-105381273D01*
X164546340Y-105448891D01*
X164548949Y-105528334D01*
X164551067Y-105621436D01*
X164552824Y-105730027D01*
X164554349Y-105855942D01*
X164555772Y-106001012D01*
X164557025Y-106143778D01*
X164558351Y-106299968D01*
X164559556Y-106435239D01*
X164560766Y-106551246D01*
X164562106Y-106649645D01*
X164563700Y-106732093D01*
X164565675Y-106800246D01*
X164568156Y-106855760D01*
X164571269Y-106900292D01*
X164575138Y-106935498D01*
X164579889Y-106963034D01*
X164585648Y-106984556D01*
X164592539Y-107001722D01*
X164600689Y-107016186D01*
X164610223Y-107029606D01*
X164621266Y-107043638D01*
X164625566Y-107049071D01*
X164641386Y-107071910D01*
X164648422Y-107087463D01*
X164648444Y-107087922D01*
X164637567Y-107090121D01*
X164606582Y-107092147D01*
X164557957Y-107093942D01*
X164494163Y-107095451D01*
X164417669Y-107096616D01*
X164330944Y-107097380D01*
X164236457Y-107097686D01*
X164225550Y-107097689D01*
X163802657Y-107097689D01*
X163799395Y-107001622D01*
X163796133Y-106905556D01*
X163734044Y-106956543D01*
X163636714Y-107024057D01*
X163526813Y-107078749D01*
X163440349Y-107108978D01*
X163371278Y-107123666D01*
X163287925Y-107133659D01*
X163198159Y-107138646D01*
X163109845Y-107138313D01*
X163030851Y-107132351D01*
X162994622Y-107126638D01*
X162854603Y-107088776D01*
X162728178Y-107033932D01*
X162616260Y-106962924D01*
X162519762Y-106876568D01*
X162439600Y-106775679D01*
X162376687Y-106661076D01*
X162332312Y-106534984D01*
X162319978Y-106478401D01*
X162312368Y-106416202D01*
X162308739Y-106341363D01*
X162308245Y-106307467D01*
X162308310Y-106304282D01*
X163068248Y-106304282D01*
X163077541Y-106379333D01*
X163105728Y-106443160D01*
X163154197Y-106498798D01*
X163159254Y-106503211D01*
X163207548Y-106538037D01*
X163259257Y-106560620D01*
X163319989Y-106572540D01*
X163395352Y-106575383D01*
X163413459Y-106574978D01*
X163467278Y-106572325D01*
X163507308Y-106566909D01*
X163542324Y-106556745D01*
X163581103Y-106539850D01*
X163591745Y-106534672D01*
X163652396Y-106498844D01*
X163699215Y-106456212D01*
X163711952Y-106440973D01*
X163756622Y-106384462D01*
X163756622Y-106188586D01*
X163756086Y-106109939D01*
X163754396Y-106051988D01*
X163751428Y-106012875D01*
X163747057Y-105990741D01*
X163742972Y-105984274D01*
X163727047Y-105981111D01*
X163693264Y-105978488D01*
X163646340Y-105976655D01*
X163590993Y-105975857D01*
X163582106Y-105975842D01*
X163461330Y-105981096D01*
X163358660Y-105997263D01*
X163272106Y-106024961D01*
X163199681Y-106064808D01*
X163144751Y-106111758D01*
X163100204Y-106169645D01*
X163075480Y-106232693D01*
X163068248Y-106304282D01*
X162308310Y-106304282D01*
X162310178Y-106213712D01*
X162318522Y-106134812D01*
X162334768Y-106063590D01*
X162360405Y-105992864D01*
X162384401Y-105940493D01*
X162443020Y-105845196D01*
X162521117Y-105757170D01*
X162616315Y-105678017D01*
X162726238Y-105609340D01*
X162848510Y-105552741D01*
X162980755Y-105509821D01*
X163045422Y-105494882D01*
X163181604Y-105472777D01*
X163330049Y-105458194D01*
X163481505Y-105451813D01*
X163608064Y-105453445D01*
X163769950Y-105460224D01*
X163762530Y-105401245D01*
X163743238Y-105302092D01*
X163712104Y-105221372D01*
X163668269Y-105158466D01*
X163610871Y-105112756D01*
X163539048Y-105083622D01*
X163451941Y-105070447D01*
X163348686Y-105072611D01*
X163310711Y-105076612D01*
X163169520Y-105101780D01*
X163032707Y-105142814D01*
X162938178Y-105180815D01*
X162893018Y-105200190D01*
X162854585Y-105215760D01*
X162828234Y-105225405D01*
X162820546Y-105227452D01*
X162810802Y-105218374D01*
X162794083Y-105189405D01*
X162770232Y-105140217D01*
X162739093Y-105070484D01*
X162700507Y-104979879D01*
X162693910Y-104964089D01*
X162663853Y-104891772D01*
X162636874Y-104826425D01*
X162614136Y-104770906D01*
X162596806Y-104728072D01*
X162586048Y-104700781D01*
X162582941Y-104691942D01*
X162592940Y-104687187D01*
X162619217Y-104681910D01*
X162647489Y-104678231D01*
X162677646Y-104673474D01*
X162725433Y-104664028D01*
X162786612Y-104650820D01*
X162856946Y-104634776D01*
X162932194Y-104616820D01*
X162960755Y-104609797D01*
X163065816Y-104584209D01*
X163153480Y-104564147D01*
X163228068Y-104548969D01*
X163293903Y-104538035D01*
X163355307Y-104530704D01*
X163416602Y-104526335D01*
X163482110Y-104524287D01*
X163540128Y-104523889D01*
X163709574Y-104530552D01*
G37*
X163709574Y-104530552D02*
X163861492Y-104550567D01*
X163996756Y-104584202D01*
X164116239Y-104631725D01*
X164220815Y-104693405D01*
X164298424Y-104756965D01*
X164367265Y-104831099D01*
X164421006Y-104910871D01*
X164463910Y-105003091D01*
X164479384Y-105046161D01*
X164492244Y-105085142D01*
X164503446Y-105121289D01*
X164513120Y-105156434D01*
X164521396Y-105192410D01*
X164528403Y-105231050D01*
X164534272Y-105274185D01*
X164539131Y-105323649D01*
X164543110Y-105381273D01*
X164546340Y-105448891D01*
X164548949Y-105528334D01*
X164551067Y-105621436D01*
X164552824Y-105730027D01*
X164554349Y-105855942D01*
X164555772Y-106001012D01*
X164557025Y-106143778D01*
X164558351Y-106299968D01*
X164559556Y-106435239D01*
X164560766Y-106551246D01*
X164562106Y-106649645D01*
X164563700Y-106732093D01*
X164565675Y-106800246D01*
X164568156Y-106855760D01*
X164571269Y-106900292D01*
X164575138Y-106935498D01*
X164579889Y-106963034D01*
X164585648Y-106984556D01*
X164592539Y-107001722D01*
X164600689Y-107016186D01*
X164610223Y-107029606D01*
X164621266Y-107043638D01*
X164625566Y-107049071D01*
X164641386Y-107071910D01*
X164648422Y-107087463D01*
X164648444Y-107087922D01*
X164637567Y-107090121D01*
X164606582Y-107092147D01*
X164557957Y-107093942D01*
X164494163Y-107095451D01*
X164417669Y-107096616D01*
X164330944Y-107097380D01*
X164236457Y-107097686D01*
X164225550Y-107097689D01*
X163802657Y-107097689D01*
X163799395Y-107001622D01*
X163796133Y-106905556D01*
X163734044Y-106956543D01*
X163636714Y-107024057D01*
X163526813Y-107078749D01*
X163440349Y-107108978D01*
X163371278Y-107123666D01*
X163287925Y-107133659D01*
X163198159Y-107138646D01*
X163109845Y-107138313D01*
X163030851Y-107132351D01*
X162994622Y-107126638D01*
X162854603Y-107088776D01*
X162728178Y-107033932D01*
X162616260Y-106962924D01*
X162519762Y-106876568D01*
X162439600Y-106775679D01*
X162376687Y-106661076D01*
X162332312Y-106534984D01*
X162319978Y-106478401D01*
X162312368Y-106416202D01*
X162308739Y-106341363D01*
X162308245Y-106307467D01*
X162308310Y-106304282D01*
X163068248Y-106304282D01*
X163077541Y-106379333D01*
X163105728Y-106443160D01*
X163154197Y-106498798D01*
X163159254Y-106503211D01*
X163207548Y-106538037D01*
X163259257Y-106560620D01*
X163319989Y-106572540D01*
X163395352Y-106575383D01*
X163413459Y-106574978D01*
X163467278Y-106572325D01*
X163507308Y-106566909D01*
X163542324Y-106556745D01*
X163581103Y-106539850D01*
X163591745Y-106534672D01*
X163652396Y-106498844D01*
X163699215Y-106456212D01*
X163711952Y-106440973D01*
X163756622Y-106384462D01*
X163756622Y-106188586D01*
X163756086Y-106109939D01*
X163754396Y-106051988D01*
X163751428Y-106012875D01*
X163747057Y-105990741D01*
X163742972Y-105984274D01*
X163727047Y-105981111D01*
X163693264Y-105978488D01*
X163646340Y-105976655D01*
X163590993Y-105975857D01*
X163582106Y-105975842D01*
X163461330Y-105981096D01*
X163358660Y-105997263D01*
X163272106Y-106024961D01*
X163199681Y-106064808D01*
X163144751Y-106111758D01*
X163100204Y-106169645D01*
X163075480Y-106232693D01*
X163068248Y-106304282D01*
X162308310Y-106304282D01*
X162310178Y-106213712D01*
X162318522Y-106134812D01*
X162334768Y-106063590D01*
X162360405Y-105992864D01*
X162384401Y-105940493D01*
X162443020Y-105845196D01*
X162521117Y-105757170D01*
X162616315Y-105678017D01*
X162726238Y-105609340D01*
X162848510Y-105552741D01*
X162980755Y-105509821D01*
X163045422Y-105494882D01*
X163181604Y-105472777D01*
X163330049Y-105458194D01*
X163481505Y-105451813D01*
X163608064Y-105453445D01*
X163769950Y-105460224D01*
X163762530Y-105401245D01*
X163743238Y-105302092D01*
X163712104Y-105221372D01*
X163668269Y-105158466D01*
X163610871Y-105112756D01*
X163539048Y-105083622D01*
X163451941Y-105070447D01*
X163348686Y-105072611D01*
X163310711Y-105076612D01*
X163169520Y-105101780D01*
X163032707Y-105142814D01*
X162938178Y-105180815D01*
X162893018Y-105200190D01*
X162854585Y-105215760D01*
X162828234Y-105225405D01*
X162820546Y-105227452D01*
X162810802Y-105218374D01*
X162794083Y-105189405D01*
X162770232Y-105140217D01*
X162739093Y-105070484D01*
X162700507Y-104979879D01*
X162693910Y-104964089D01*
X162663853Y-104891772D01*
X162636874Y-104826425D01*
X162614136Y-104770906D01*
X162596806Y-104728072D01*
X162586048Y-104700781D01*
X162582941Y-104691942D01*
X162592940Y-104687187D01*
X162619217Y-104681910D01*
X162647489Y-104678231D01*
X162677646Y-104673474D01*
X162725433Y-104664028D01*
X162786612Y-104650820D01*
X162856946Y-104634776D01*
X162932194Y-104616820D01*
X162960755Y-104609797D01*
X163065816Y-104584209D01*
X163153480Y-104564147D01*
X163228068Y-104548969D01*
X163293903Y-104538035D01*
X163355307Y-104530704D01*
X163416602Y-104526335D01*
X163482110Y-104524287D01*
X163540128Y-104523889D01*
X163709574Y-104530552D01*
G36*
X167222507Y-105136245D02*
G01*
X167222526Y-105370662D01*
X167222552Y-105583603D01*
X167222625Y-105776168D01*
X167222782Y-105949459D01*
X167223064Y-106104576D01*
X167223509Y-106242620D01*
X167224156Y-106364692D01*
X167225045Y-106471894D01*
X167226213Y-106565326D01*
X167227701Y-106646090D01*
X167229546Y-106715286D01*
X167231789Y-106774015D01*
X167234469Y-106823379D01*
X167237623Y-106864478D01*
X167241292Y-106898413D01*
X167245513Y-106926286D01*
X167250327Y-106949198D01*
X167255773Y-106968249D01*
X167261888Y-106984540D01*
X167268712Y-106999173D01*
X167276285Y-107013249D01*
X167284645Y-107027868D01*
X167289839Y-107036974D01*
X167324104Y-107097689D01*
X166465955Y-107097689D01*
X166465955Y-107001733D01*
X166465224Y-106958370D01*
X166463272Y-106925205D01*
X166460463Y-106907424D01*
X166459221Y-106905778D01*
X166447799Y-106912662D01*
X166425084Y-106930505D01*
X166402385Y-106949879D01*
X166347800Y-106990614D01*
X166278321Y-107031617D01*
X166201270Y-107069123D01*
X166123965Y-107099364D01*
X166093113Y-107109012D01*
X166024616Y-107123578D01*
X165941764Y-107133539D01*
X165852371Y-107138583D01*
X165764248Y-107138396D01*
X165685207Y-107132666D01*
X165647511Y-107126858D01*
X165509414Y-107088797D01*
X165382113Y-107031073D01*
X165266292Y-106954211D01*
X165162637Y-106858739D01*
X165071833Y-106745179D01*
X165005031Y-106634381D01*
X164950164Y-106517625D01*
X164908163Y-106398276D01*
X164878167Y-106272283D01*
X164859311Y-106135594D01*
X164850732Y-105984158D01*
X164850006Y-105906711D01*
X164852100Y-105849934D01*
X165681217Y-105849934D01*
X165681424Y-105943002D01*
X165684337Y-106030692D01*
X165690000Y-106107772D01*
X165698455Y-106169009D01*
X165701038Y-106181350D01*
X165732840Y-106288633D01*
X165774498Y-106375658D01*
X165826363Y-106442642D01*
X165888781Y-106489805D01*
X165962100Y-106517365D01*
X166046669Y-106525541D01*
X166142835Y-106514551D01*
X166206311Y-106498829D01*
X166255454Y-106480639D01*
X166309583Y-106454791D01*
X166350244Y-106431089D01*
X166420800Y-106384721D01*
X166420800Y-105234530D01*
X166353392Y-105190962D01*
X166274867Y-105150040D01*
X166190681Y-105123389D01*
X166105557Y-105111465D01*
X166024216Y-105114722D01*
X165951380Y-105133615D01*
X165919426Y-105149184D01*
X165861501Y-105192181D01*
X165812544Y-105248953D01*
X165771390Y-105321575D01*
X165736874Y-105412121D01*
X165707833Y-105522666D01*
X165706552Y-105528533D01*
X165696381Y-105590788D01*
X165688739Y-105668594D01*
X165683670Y-105756720D01*
X165681217Y-105849934D01*
X164852100Y-105849934D01*
X164857857Y-105693895D01*
X164879802Y-105498059D01*
X164915786Y-105319332D01*
X164965759Y-105157845D01*
X165029668Y-105013726D01*
X165107462Y-104887106D01*
X165199089Y-104778115D01*
X165304497Y-104686883D01*
X165349662Y-104655932D01*
X165450611Y-104599785D01*
X165553901Y-104560174D01*
X165663989Y-104536014D01*
X165785330Y-104526219D01*
X165877836Y-104527265D01*
X166007490Y-104538231D01*
X166120084Y-104560046D01*
X166218875Y-104593714D01*
X166307121Y-104640236D01*
X166355986Y-104674448D01*
X166385353Y-104696362D01*
X166407043Y-104711333D01*
X166415253Y-104715733D01*
X166416868Y-104704904D01*
X166418159Y-104674251D01*
X166419138Y-104626526D01*
X166419817Y-104564479D01*
X166420210Y-104490862D01*
X166420330Y-104408427D01*
X166420188Y-104319925D01*
X166419797Y-104228107D01*
X166419171Y-104135724D01*
X166418320Y-104045528D01*
X166417260Y-103960271D01*
X166416001Y-103882703D01*
X166414556Y-103815576D01*
X166412938Y-103761641D01*
X166411161Y-103723650D01*
X166410669Y-103716667D01*
X166403092Y-103646251D01*
X166391531Y-103591102D01*
X166373792Y-103543981D01*
X166347682Y-103497647D01*
X166341415Y-103488067D01*
X166316983Y-103451378D01*
X167222311Y-103451378D01*
X167222507Y-105136245D01*
G37*
X167222507Y-105136245D02*
X167222526Y-105370662D01*
X167222552Y-105583603D01*
X167222625Y-105776168D01*
X167222782Y-105949459D01*
X167223064Y-106104576D01*
X167223509Y-106242620D01*
X167224156Y-106364692D01*
X167225045Y-106471894D01*
X167226213Y-106565326D01*
X167227701Y-106646090D01*
X167229546Y-106715286D01*
X167231789Y-106774015D01*
X167234469Y-106823379D01*
X167237623Y-106864478D01*
X167241292Y-106898413D01*
X167245513Y-106926286D01*
X167250327Y-106949198D01*
X167255773Y-106968249D01*
X167261888Y-106984540D01*
X167268712Y-106999173D01*
X167276285Y-107013249D01*
X167284645Y-107027868D01*
X167289839Y-107036974D01*
X167324104Y-107097689D01*
X166465955Y-107097689D01*
X166465955Y-107001733D01*
X166465224Y-106958370D01*
X166463272Y-106925205D01*
X166460463Y-106907424D01*
X166459221Y-106905778D01*
X166447799Y-106912662D01*
X166425084Y-106930505D01*
X166402385Y-106949879D01*
X166347800Y-106990614D01*
X166278321Y-107031617D01*
X166201270Y-107069123D01*
X166123965Y-107099364D01*
X166093113Y-107109012D01*
X166024616Y-107123578D01*
X165941764Y-107133539D01*
X165852371Y-107138583D01*
X165764248Y-107138396D01*
X165685207Y-107132666D01*
X165647511Y-107126858D01*
X165509414Y-107088797D01*
X165382113Y-107031073D01*
X165266292Y-106954211D01*
X165162637Y-106858739D01*
X165071833Y-106745179D01*
X165005031Y-106634381D01*
X164950164Y-106517625D01*
X164908163Y-106398276D01*
X164878167Y-106272283D01*
X164859311Y-106135594D01*
X164850732Y-105984158D01*
X164850006Y-105906711D01*
X164852100Y-105849934D01*
X165681217Y-105849934D01*
X165681424Y-105943002D01*
X165684337Y-106030692D01*
X165690000Y-106107772D01*
X165698455Y-106169009D01*
X165701038Y-106181350D01*
X165732840Y-106288633D01*
X165774498Y-106375658D01*
X165826363Y-106442642D01*
X165888781Y-106489805D01*
X165962100Y-106517365D01*
X166046669Y-106525541D01*
X166142835Y-106514551D01*
X166206311Y-106498829D01*
X166255454Y-106480639D01*
X166309583Y-106454791D01*
X166350244Y-106431089D01*
X166420800Y-106384721D01*
X166420800Y-105234530D01*
X166353392Y-105190962D01*
X166274867Y-105150040D01*
X166190681Y-105123389D01*
X166105557Y-105111465D01*
X166024216Y-105114722D01*
X165951380Y-105133615D01*
X165919426Y-105149184D01*
X165861501Y-105192181D01*
X165812544Y-105248953D01*
X165771390Y-105321575D01*
X165736874Y-105412121D01*
X165707833Y-105522666D01*
X165706552Y-105528533D01*
X165696381Y-105590788D01*
X165688739Y-105668594D01*
X165683670Y-105756720D01*
X165681217Y-105849934D01*
X164852100Y-105849934D01*
X164857857Y-105693895D01*
X164879802Y-105498059D01*
X164915786Y-105319332D01*
X164965759Y-105157845D01*
X165029668Y-105013726D01*
X165107462Y-104887106D01*
X165199089Y-104778115D01*
X165304497Y-104686883D01*
X165349662Y-104655932D01*
X165450611Y-104599785D01*
X165553901Y-104560174D01*
X165663989Y-104536014D01*
X165785330Y-104526219D01*
X165877836Y-104527265D01*
X166007490Y-104538231D01*
X166120084Y-104560046D01*
X166218875Y-104593714D01*
X166307121Y-104640236D01*
X166355986Y-104674448D01*
X166385353Y-104696362D01*
X166407043Y-104711333D01*
X166415253Y-104715733D01*
X166416868Y-104704904D01*
X166418159Y-104674251D01*
X166419138Y-104626526D01*
X166419817Y-104564479D01*
X166420210Y-104490862D01*
X166420330Y-104408427D01*
X166420188Y-104319925D01*
X166419797Y-104228107D01*
X166419171Y-104135724D01*
X166418320Y-104045528D01*
X166417260Y-103960271D01*
X166416001Y-103882703D01*
X166414556Y-103815576D01*
X166412938Y-103761641D01*
X166411161Y-103723650D01*
X166410669Y-103716667D01*
X166403092Y-103646251D01*
X166391531Y-103591102D01*
X166373792Y-103543981D01*
X166347682Y-103497647D01*
X166341415Y-103488067D01*
X166316983Y-103451378D01*
X167222311Y-103451378D01*
X167222507Y-105136245D01*
G36*
X158762957Y-102690571D02*
G01*
X158859232Y-102714809D01*
X158945816Y-102757641D01*
X159020627Y-102817419D01*
X159081582Y-102892494D01*
X159126601Y-102981220D01*
X159152864Y-103077530D01*
X159158714Y-103174795D01*
X159143860Y-103268654D01*
X159110160Y-103356511D01*
X159059472Y-103435770D01*
X158993655Y-103503836D01*
X158914566Y-103558112D01*
X158824066Y-103596002D01*
X158772800Y-103608426D01*
X158728302Y-103615947D01*
X158694001Y-103618919D01*
X158661040Y-103617094D01*
X158620566Y-103610225D01*
X158587469Y-103603250D01*
X158494053Y-103571741D01*
X158410381Y-103520617D01*
X158338335Y-103451429D01*
X158279800Y-103365728D01*
X158265852Y-103338489D01*
X158249414Y-103302122D01*
X158239106Y-103271582D01*
X158233540Y-103239450D01*
X158231331Y-103198307D01*
X158231052Y-103152222D01*
X158235139Y-103067865D01*
X158248554Y-102998586D01*
X158273744Y-102937961D01*
X158313154Y-102879567D01*
X158351702Y-102835302D01*
X158423594Y-102769484D01*
X158498687Y-102724053D01*
X158581438Y-102696850D01*
X158659072Y-102686576D01*
X158762957Y-102690571D01*
G37*
X158762957Y-102690571D02*
X158859232Y-102714809D01*
X158945816Y-102757641D01*
X159020627Y-102817419D01*
X159081582Y-102892494D01*
X159126601Y-102981220D01*
X159152864Y-103077530D01*
X159158714Y-103174795D01*
X159143860Y-103268654D01*
X159110160Y-103356511D01*
X159059472Y-103435770D01*
X158993655Y-103503836D01*
X158914566Y-103558112D01*
X158824066Y-103596002D01*
X158772800Y-103608426D01*
X158728302Y-103615947D01*
X158694001Y-103618919D01*
X158661040Y-103617094D01*
X158620566Y-103610225D01*
X158587469Y-103603250D01*
X158494053Y-103571741D01*
X158410381Y-103520617D01*
X158338335Y-103451429D01*
X158279800Y-103365728D01*
X158265852Y-103338489D01*
X158249414Y-103302122D01*
X158239106Y-103271582D01*
X158233540Y-103239450D01*
X158231331Y-103198307D01*
X158231052Y-103152222D01*
X158235139Y-103067865D01*
X158248554Y-102998586D01*
X158273744Y-102937961D01*
X158313154Y-102879567D01*
X158351702Y-102835302D01*
X158423594Y-102769484D01*
X158498687Y-102724053D01*
X158581438Y-102696850D01*
X158659072Y-102686576D01*
X158762957Y-102690571D01*
G36*
X154914629Y-107933066D02*
G01*
X154954111Y-107933467D01*
X155069800Y-107936259D01*
X155166689Y-107944550D01*
X155248081Y-107959232D01*
X155317277Y-107981193D01*
X155377580Y-108011322D01*
X155432292Y-108050510D01*
X155451833Y-108067532D01*
X155484250Y-108107363D01*
X155513480Y-108161413D01*
X155536009Y-108221323D01*
X155548321Y-108278739D01*
X155549600Y-108299956D01*
X155541583Y-108358769D01*
X155520101Y-108423013D01*
X155489001Y-108483821D01*
X155452134Y-108532330D01*
X155446146Y-108538182D01*
X155395421Y-108579321D01*
X155339875Y-108611435D01*
X155276304Y-108635365D01*
X155201506Y-108651953D01*
X155112278Y-108662041D01*
X155005418Y-108666469D01*
X154956472Y-108666845D01*
X154894238Y-108666545D01*
X154850472Y-108665292D01*
X154821069Y-108662554D01*
X154801921Y-108657801D01*
X154788923Y-108650501D01*
X154781955Y-108644267D01*
X154775374Y-108636694D01*
X154770212Y-108626924D01*
X154766297Y-108612340D01*
X154763457Y-108590326D01*
X154761520Y-108558264D01*
X154760316Y-108513536D01*
X154759672Y-108453526D01*
X154759417Y-108375617D01*
X154759378Y-108299956D01*
X154759130Y-108199041D01*
X154759183Y-108118427D01*
X154760143Y-108079822D01*
X154906133Y-108079822D01*
X154906133Y-108520089D01*
X154999266Y-108520004D01*
X155055307Y-108518396D01*
X155114001Y-108514256D01*
X155162972Y-108508464D01*
X155164462Y-108508226D01*
X155243608Y-108489090D01*
X155304998Y-108459287D01*
X155351695Y-108416878D01*
X155381365Y-108370961D01*
X155399647Y-108320026D01*
X155398229Y-108272200D01*
X155377012Y-108220933D01*
X155335511Y-108167899D01*
X155278002Y-108128600D01*
X155203250Y-108102331D01*
X155153292Y-108093035D01*
X155096584Y-108086507D01*
X155036481Y-108081782D01*
X154985361Y-108079817D01*
X154982333Y-108079808D01*
X154906133Y-108079822D01*
X154760143Y-108079822D01*
X154760740Y-108055851D01*
X154765002Y-108009055D01*
X154773170Y-107975778D01*
X154786444Y-107953759D01*
X154806026Y-107940739D01*
X154833117Y-107934457D01*
X154868918Y-107932653D01*
X154914629Y-107933066D01*
G37*
X154914629Y-107933066D02*
X154954111Y-107933467D01*
X155069800Y-107936259D01*
X155166689Y-107944550D01*
X155248081Y-107959232D01*
X155317277Y-107981193D01*
X155377580Y-108011322D01*
X155432292Y-108050510D01*
X155451833Y-108067532D01*
X155484250Y-108107363D01*
X155513480Y-108161413D01*
X155536009Y-108221323D01*
X155548321Y-108278739D01*
X155549600Y-108299956D01*
X155541583Y-108358769D01*
X155520101Y-108423013D01*
X155489001Y-108483821D01*
X155452134Y-108532330D01*
X155446146Y-108538182D01*
X155395421Y-108579321D01*
X155339875Y-108611435D01*
X155276304Y-108635365D01*
X155201506Y-108651953D01*
X155112278Y-108662041D01*
X155005418Y-108666469D01*
X154956472Y-108666845D01*
X154894238Y-108666545D01*
X154850472Y-108665292D01*
X154821069Y-108662554D01*
X154801921Y-108657801D01*
X154788923Y-108650501D01*
X154781955Y-108644267D01*
X154775374Y-108636694D01*
X154770212Y-108626924D01*
X154766297Y-108612340D01*
X154763457Y-108590326D01*
X154761520Y-108558264D01*
X154760316Y-108513536D01*
X154759672Y-108453526D01*
X154759417Y-108375617D01*
X154759378Y-108299956D01*
X154759130Y-108199041D01*
X154759183Y-108118427D01*
X154760143Y-108079822D01*
X154906133Y-108079822D01*
X154906133Y-108520089D01*
X154999266Y-108520004D01*
X155055307Y-108518396D01*
X155114001Y-108514256D01*
X155162972Y-108508464D01*
X155164462Y-108508226D01*
X155243608Y-108489090D01*
X155304998Y-108459287D01*
X155351695Y-108416878D01*
X155381365Y-108370961D01*
X155399647Y-108320026D01*
X155398229Y-108272200D01*
X155377012Y-108220933D01*
X155335511Y-108167899D01*
X155278002Y-108128600D01*
X155203250Y-108102331D01*
X155153292Y-108093035D01*
X155096584Y-108086507D01*
X155036481Y-108081782D01*
X154985361Y-108079817D01*
X154982333Y-108079808D01*
X154906133Y-108079822D01*
X154760143Y-108079822D01*
X154760740Y-108055851D01*
X154765002Y-108009055D01*
X154773170Y-107975778D01*
X154786444Y-107953759D01*
X154806026Y-107940739D01*
X154833117Y-107934457D01*
X154868918Y-107932653D01*
X154914629Y-107933066D01*
G36*
X156323206Y-107933146D02*
G01*
X156392614Y-107933518D01*
X156445003Y-107934385D01*
X156483153Y-107935946D01*
X156509841Y-107938403D01*
X156527847Y-107941957D01*
X156539951Y-107946810D01*
X156548931Y-107953161D01*
X156552182Y-107956084D01*
X156571957Y-107987142D01*
X156575518Y-108022828D01*
X156562509Y-108054510D01*
X156556494Y-108060913D01*
X156546765Y-108067121D01*
X156531099Y-108071910D01*
X156506592Y-108075514D01*
X156470339Y-108078164D01*
X156419435Y-108080095D01*
X156350974Y-108081539D01*
X156288383Y-108082418D01*
X156040666Y-108085467D01*
X156037281Y-108150378D01*
X156033895Y-108215289D01*
X156202042Y-108215289D01*
X156275041Y-108215919D01*
X156328483Y-108218553D01*
X156365372Y-108224309D01*
X156388712Y-108234304D01*
X156401506Y-108249656D01*
X156406758Y-108271482D01*
X156407555Y-108291738D01*
X156405077Y-108316592D01*
X156395723Y-108334906D01*
X156376617Y-108347637D01*
X156344882Y-108355741D01*
X156297641Y-108360176D01*
X156232017Y-108361899D01*
X156196199Y-108362045D01*
X156035022Y-108362045D01*
X156035022Y-108520089D01*
X156283378Y-108520089D01*
X156364787Y-108520202D01*
X156426658Y-108520712D01*
X156472032Y-108521870D01*
X156503946Y-108523930D01*
X156525441Y-108527146D01*
X156539557Y-108531772D01*
X156549332Y-108538059D01*
X156554311Y-108542667D01*
X156571390Y-108569560D01*
X156576889Y-108593467D01*
X156569037Y-108622667D01*
X156554311Y-108644267D01*
X156546454Y-108651066D01*
X156536312Y-108656346D01*
X156521156Y-108660298D01*
X156498259Y-108663113D01*
X156464891Y-108664982D01*
X156418325Y-108666098D01*
X156355833Y-108666651D01*
X156274686Y-108666833D01*
X156232578Y-108666845D01*
X156142402Y-108666765D01*
X156072076Y-108666398D01*
X156018871Y-108665552D01*
X155980060Y-108664036D01*
X155952913Y-108661659D01*
X155934702Y-108658229D01*
X155922700Y-108653554D01*
X155914178Y-108647444D01*
X155910844Y-108644267D01*
X155904245Y-108636670D01*
X155899073Y-108626870D01*
X155895154Y-108612239D01*
X155892316Y-108590152D01*
X155890385Y-108557982D01*
X155889188Y-108513103D01*
X155888552Y-108452889D01*
X155888303Y-108374713D01*
X155888266Y-108301923D01*
X155888300Y-108208707D01*
X155888535Y-108135431D01*
X155889170Y-108079458D01*
X155890406Y-108038151D01*
X155892444Y-108008872D01*
X155895483Y-107988984D01*
X155899723Y-107975850D01*
X155905365Y-107966832D01*
X155912609Y-107959293D01*
X155914394Y-107957612D01*
X155923055Y-107950172D01*
X155933118Y-107944409D01*
X155947375Y-107940112D01*
X155968617Y-107937064D01*
X155999636Y-107935051D01*
X156043223Y-107933860D01*
X156102169Y-107933275D01*
X156179266Y-107933083D01*
X156233999Y-107933067D01*
X156323206Y-107933146D01*
G37*
X156323206Y-107933146D02*
X156392614Y-107933518D01*
X156445003Y-107934385D01*
X156483153Y-107935946D01*
X156509841Y-107938403D01*
X156527847Y-107941957D01*
X156539951Y-107946810D01*
X156548931Y-107953161D01*
X156552182Y-107956084D01*
X156571957Y-107987142D01*
X156575518Y-108022828D01*
X156562509Y-108054510D01*
X156556494Y-108060913D01*
X156546765Y-108067121D01*
X156531099Y-108071910D01*
X156506592Y-108075514D01*
X156470339Y-108078164D01*
X156419435Y-108080095D01*
X156350974Y-108081539D01*
X156288383Y-108082418D01*
X156040666Y-108085467D01*
X156037281Y-108150378D01*
X156033895Y-108215289D01*
X156202042Y-108215289D01*
X156275041Y-108215919D01*
X156328483Y-108218553D01*
X156365372Y-108224309D01*
X156388712Y-108234304D01*
X156401506Y-108249656D01*
X156406758Y-108271482D01*
X156407555Y-108291738D01*
X156405077Y-108316592D01*
X156395723Y-108334906D01*
X156376617Y-108347637D01*
X156344882Y-108355741D01*
X156297641Y-108360176D01*
X156232017Y-108361899D01*
X156196199Y-108362045D01*
X156035022Y-108362045D01*
X156035022Y-108520089D01*
X156283378Y-108520089D01*
X156364787Y-108520202D01*
X156426658Y-108520712D01*
X156472032Y-108521870D01*
X156503946Y-108523930D01*
X156525441Y-108527146D01*
X156539557Y-108531772D01*
X156549332Y-108538059D01*
X156554311Y-108542667D01*
X156571390Y-108569560D01*
X156576889Y-108593467D01*
X156569037Y-108622667D01*
X156554311Y-108644267D01*
X156546454Y-108651066D01*
X156536312Y-108656346D01*
X156521156Y-108660298D01*
X156498259Y-108663113D01*
X156464891Y-108664982D01*
X156418325Y-108666098D01*
X156355833Y-108666651D01*
X156274686Y-108666833D01*
X156232578Y-108666845D01*
X156142402Y-108666765D01*
X156072076Y-108666398D01*
X156018871Y-108665552D01*
X155980060Y-108664036D01*
X155952913Y-108661659D01*
X155934702Y-108658229D01*
X155922700Y-108653554D01*
X155914178Y-108647444D01*
X155910844Y-108644267D01*
X155904245Y-108636670D01*
X155899073Y-108626870D01*
X155895154Y-108612239D01*
X155892316Y-108590152D01*
X155890385Y-108557982D01*
X155889188Y-108513103D01*
X155888552Y-108452889D01*
X155888303Y-108374713D01*
X155888266Y-108301923D01*
X155888300Y-108208707D01*
X155888535Y-108135431D01*
X155889170Y-108079458D01*
X155890406Y-108038151D01*
X155892444Y-108008872D01*
X155895483Y-107988984D01*
X155899723Y-107975850D01*
X155905365Y-107966832D01*
X155912609Y-107959293D01*
X155914394Y-107957612D01*
X155923055Y-107950172D01*
X155933118Y-107944409D01*
X155947375Y-107940112D01*
X155968617Y-107937064D01*
X155999636Y-107935051D01*
X156043223Y-107933860D01*
X156102169Y-107933275D01*
X156179266Y-107933083D01*
X156233999Y-107933067D01*
X156323206Y-107933146D01*
G36*
X157344297Y-107934351D02*
G01*
X157419112Y-107939581D01*
X157488694Y-107947750D01*
X157548998Y-107958550D01*
X157595980Y-107971673D01*
X157625594Y-107986813D01*
X157630140Y-107991269D01*
X157645946Y-108025850D01*
X157641153Y-108061351D01*
X157616636Y-108091725D01*
X157615466Y-108092596D01*
X157601046Y-108101954D01*
X157585992Y-108106876D01*
X157564995Y-108107473D01*
X157532743Y-108103861D01*
X157483927Y-108096154D01*
X157480000Y-108095505D01*
X157407261Y-108086569D01*
X157328783Y-108082161D01*
X157250073Y-108082119D01*
X157176639Y-108086279D01*
X157113989Y-108094479D01*
X157067630Y-108106557D01*
X157064584Y-108107771D01*
X157030952Y-108126615D01*
X157019136Y-108145685D01*
X157028386Y-108164439D01*
X157057953Y-108182337D01*
X157107089Y-108198837D01*
X157175043Y-108213396D01*
X157220355Y-108220406D01*
X157314544Y-108233889D01*
X157389456Y-108246214D01*
X157448283Y-108258449D01*
X157494215Y-108271661D01*
X157530445Y-108286917D01*
X157560162Y-108305285D01*
X157586558Y-108327831D01*
X157607770Y-108349971D01*
X157632935Y-108380819D01*
X157645319Y-108407345D01*
X157649192Y-108440026D01*
X157649333Y-108451995D01*
X157646424Y-108491712D01*
X157634798Y-108521259D01*
X157614677Y-108547486D01*
X157573784Y-108587576D01*
X157528183Y-108618149D01*
X157474487Y-108640203D01*
X157409308Y-108654735D01*
X157329256Y-108662741D01*
X157230943Y-108665218D01*
X157214711Y-108665177D01*
X157149151Y-108663818D01*
X157084134Y-108660730D01*
X157026748Y-108656356D01*
X156984078Y-108651140D01*
X156980628Y-108650541D01*
X156938204Y-108640491D01*
X156902220Y-108627796D01*
X156881850Y-108616190D01*
X156862893Y-108585572D01*
X156861573Y-108549918D01*
X156877915Y-108518144D01*
X156881571Y-108514551D01*
X156896685Y-108503876D01*
X156915585Y-108499276D01*
X156944838Y-108500059D01*
X156980349Y-108504127D01*
X157020030Y-108507762D01*
X157075655Y-108510828D01*
X157140594Y-108513053D01*
X157208215Y-108514164D01*
X157226000Y-108514237D01*
X157293872Y-108513964D01*
X157343546Y-108512646D01*
X157379390Y-108509827D01*
X157405776Y-108505050D01*
X157427074Y-108497857D01*
X157439874Y-108491867D01*
X157468000Y-108475233D01*
X157485932Y-108460168D01*
X157488553Y-108455897D01*
X157483024Y-108438263D01*
X157456740Y-108421192D01*
X157411522Y-108405458D01*
X157349192Y-108391838D01*
X157330829Y-108388804D01*
X157234910Y-108373738D01*
X157158359Y-108361146D01*
X157098220Y-108350111D01*
X157051540Y-108339720D01*
X157015363Y-108329056D01*
X156986735Y-108317205D01*
X156962702Y-108303251D01*
X156940308Y-108286281D01*
X156916598Y-108265378D01*
X156908620Y-108258049D01*
X156880647Y-108230699D01*
X156865840Y-108209029D01*
X156860048Y-108184232D01*
X156859111Y-108152983D01*
X156869425Y-108091705D01*
X156900248Y-108039640D01*
X156951405Y-107996958D01*
X157022717Y-107963825D01*
X157073600Y-107948964D01*
X157128900Y-107939366D01*
X157195147Y-107933936D01*
X157268294Y-107932367D01*
X157344297Y-107934351D01*
G37*
X157344297Y-107934351D02*
X157419112Y-107939581D01*
X157488694Y-107947750D01*
X157548998Y-107958550D01*
X157595980Y-107971673D01*
X157625594Y-107986813D01*
X157630140Y-107991269D01*
X157645946Y-108025850D01*
X157641153Y-108061351D01*
X157616636Y-108091725D01*
X157615466Y-108092596D01*
X157601046Y-108101954D01*
X157585992Y-108106876D01*
X157564995Y-108107473D01*
X157532743Y-108103861D01*
X157483927Y-108096154D01*
X157480000Y-108095505D01*
X157407261Y-108086569D01*
X157328783Y-108082161D01*
X157250073Y-108082119D01*
X157176639Y-108086279D01*
X157113989Y-108094479D01*
X157067630Y-108106557D01*
X157064584Y-108107771D01*
X157030952Y-108126615D01*
X157019136Y-108145685D01*
X157028386Y-108164439D01*
X157057953Y-108182337D01*
X157107089Y-108198837D01*
X157175043Y-108213396D01*
X157220355Y-108220406D01*
X157314544Y-108233889D01*
X157389456Y-108246214D01*
X157448283Y-108258449D01*
X157494215Y-108271661D01*
X157530445Y-108286917D01*
X157560162Y-108305285D01*
X157586558Y-108327831D01*
X157607770Y-108349971D01*
X157632935Y-108380819D01*
X157645319Y-108407345D01*
X157649192Y-108440026D01*
X157649333Y-108451995D01*
X157646424Y-108491712D01*
X157634798Y-108521259D01*
X157614677Y-108547486D01*
X157573784Y-108587576D01*
X157528183Y-108618149D01*
X157474487Y-108640203D01*
X157409308Y-108654735D01*
X157329256Y-108662741D01*
X157230943Y-108665218D01*
X157214711Y-108665177D01*
X157149151Y-108663818D01*
X157084134Y-108660730D01*
X157026748Y-108656356D01*
X156984078Y-108651140D01*
X156980628Y-108650541D01*
X156938204Y-108640491D01*
X156902220Y-108627796D01*
X156881850Y-108616190D01*
X156862893Y-108585572D01*
X156861573Y-108549918D01*
X156877915Y-108518144D01*
X156881571Y-108514551D01*
X156896685Y-108503876D01*
X156915585Y-108499276D01*
X156944838Y-108500059D01*
X156980349Y-108504127D01*
X157020030Y-108507762D01*
X157075655Y-108510828D01*
X157140594Y-108513053D01*
X157208215Y-108514164D01*
X157226000Y-108514237D01*
X157293872Y-108513964D01*
X157343546Y-108512646D01*
X157379390Y-108509827D01*
X157405776Y-108505050D01*
X157427074Y-108497857D01*
X157439874Y-108491867D01*
X157468000Y-108475233D01*
X157485932Y-108460168D01*
X157488553Y-108455897D01*
X157483024Y-108438263D01*
X157456740Y-108421192D01*
X157411522Y-108405458D01*
X157349192Y-108391838D01*
X157330829Y-108388804D01*
X157234910Y-108373738D01*
X157158359Y-108361146D01*
X157098220Y-108350111D01*
X157051540Y-108339720D01*
X157015363Y-108329056D01*
X156986735Y-108317205D01*
X156962702Y-108303251D01*
X156940308Y-108286281D01*
X156916598Y-108265378D01*
X156908620Y-108258049D01*
X156880647Y-108230699D01*
X156865840Y-108209029D01*
X156860048Y-108184232D01*
X156859111Y-108152983D01*
X156869425Y-108091705D01*
X156900248Y-108039640D01*
X156951405Y-107996958D01*
X157022717Y-107963825D01*
X157073600Y-107948964D01*
X157128900Y-107939366D01*
X157195147Y-107933936D01*
X157268294Y-107932367D01*
X157344297Y-107934351D01*
G36*
X158112178Y-107955645D02*
G01*
X158118758Y-107963218D01*
X158123921Y-107972987D01*
X158127836Y-107987571D01*
X158130676Y-108009585D01*
X158132613Y-108041648D01*
X158133817Y-108086375D01*
X158134461Y-108146385D01*
X158134716Y-108224294D01*
X158134755Y-108299956D01*
X158134686Y-108393802D01*
X158134362Y-108467689D01*
X158133614Y-108524232D01*
X158132268Y-108566049D01*
X158130154Y-108595757D01*
X158127100Y-108615973D01*
X158122934Y-108629314D01*
X158117484Y-108638398D01*
X158112178Y-108644267D01*
X158079174Y-108663947D01*
X158044009Y-108662181D01*
X158012545Y-108640717D01*
X158005316Y-108632337D01*
X157999666Y-108622614D01*
X157995401Y-108608861D01*
X157992327Y-108588389D01*
X157990248Y-108558512D01*
X157988970Y-108516541D01*
X157988299Y-108459789D01*
X157988041Y-108385567D01*
X157988000Y-108301537D01*
X157988000Y-107988485D01*
X158015709Y-107960776D01*
X158049863Y-107937463D01*
X158082994Y-107936623D01*
X158112178Y-107955645D01*
G37*
X158112178Y-107955645D02*
X158118758Y-107963218D01*
X158123921Y-107972987D01*
X158127836Y-107987571D01*
X158130676Y-108009585D01*
X158132613Y-108041648D01*
X158133817Y-108086375D01*
X158134461Y-108146385D01*
X158134716Y-108224294D01*
X158134755Y-108299956D01*
X158134686Y-108393802D01*
X158134362Y-108467689D01*
X158133614Y-108524232D01*
X158132268Y-108566049D01*
X158130154Y-108595757D01*
X158127100Y-108615973D01*
X158122934Y-108629314D01*
X158117484Y-108638398D01*
X158112178Y-108644267D01*
X158079174Y-108663947D01*
X158044009Y-108662181D01*
X158012545Y-108640717D01*
X158005316Y-108632337D01*
X157999666Y-108622614D01*
X157995401Y-108608861D01*
X157992327Y-108588389D01*
X157990248Y-108558512D01*
X157988970Y-108516541D01*
X157988299Y-108459789D01*
X157988041Y-108385567D01*
X157988000Y-108301537D01*
X157988000Y-107988485D01*
X158015709Y-107960776D01*
X158049863Y-107937463D01*
X158082994Y-107936623D01*
X158112178Y-107955645D01*
G36*
X159085919Y-107938599D02*
G01*
X159154435Y-107950095D01*
X159207057Y-107967967D01*
X159241292Y-107991499D01*
X159250621Y-108004924D01*
X159260107Y-108036148D01*
X159253723Y-108064395D01*
X159233570Y-108091182D01*
X159202255Y-108103713D01*
X159156817Y-108102696D01*
X159121674Y-108095906D01*
X159043581Y-108082971D01*
X158963774Y-108081742D01*
X158874445Y-108092241D01*
X158849771Y-108096690D01*
X158766709Y-108120108D01*
X158701727Y-108154945D01*
X158655539Y-108200604D01*
X158628855Y-108256494D01*
X158623337Y-108285388D01*
X158626949Y-108344012D01*
X158650271Y-108395879D01*
X158691176Y-108439978D01*
X158747541Y-108475299D01*
X158817240Y-108500829D01*
X158898148Y-108515559D01*
X158988140Y-108518478D01*
X159085090Y-108508575D01*
X159090564Y-108507641D01*
X159129125Y-108500459D01*
X159150506Y-108493521D01*
X159159773Y-108483227D01*
X159161994Y-108465976D01*
X159162044Y-108456841D01*
X159162044Y-108418489D01*
X159093569Y-108418489D01*
X159033100Y-108414347D01*
X158991835Y-108401147D01*
X158967825Y-108377730D01*
X158959123Y-108342936D01*
X158959017Y-108338394D01*
X158964108Y-108308654D01*
X158981567Y-108287419D01*
X159014061Y-108273366D01*
X159064257Y-108265173D01*
X159112877Y-108262161D01*
X159183544Y-108260433D01*
X159234802Y-108263070D01*
X159269761Y-108272800D01*
X159291530Y-108292353D01*
X159303220Y-108324456D01*
X159307940Y-108371838D01*
X159308800Y-108434071D01*
X159307391Y-108503535D01*
X159303152Y-108550786D01*
X159296064Y-108576012D01*
X159294689Y-108577988D01*
X159255772Y-108609508D01*
X159198714Y-108634470D01*
X159127131Y-108652340D01*
X159044642Y-108662586D01*
X158954861Y-108664673D01*
X158861408Y-108658068D01*
X158806444Y-108649956D01*
X158720234Y-108625554D01*
X158640108Y-108585662D01*
X158573023Y-108533887D01*
X158562827Y-108523539D01*
X158529698Y-108480035D01*
X158499806Y-108426118D01*
X158476643Y-108369592D01*
X158463702Y-108318259D01*
X158462142Y-108298544D01*
X158468782Y-108257419D01*
X158486432Y-108206252D01*
X158511703Y-108152394D01*
X158541211Y-108103195D01*
X158567281Y-108070334D01*
X158628235Y-108021452D01*
X158707031Y-107982545D01*
X158800843Y-107954494D01*
X158906850Y-107938179D01*
X159004000Y-107934192D01*
X159085919Y-107938599D01*
G37*
X159085919Y-107938599D02*
X159154435Y-107950095D01*
X159207057Y-107967967D01*
X159241292Y-107991499D01*
X159250621Y-108004924D01*
X159260107Y-108036148D01*
X159253723Y-108064395D01*
X159233570Y-108091182D01*
X159202255Y-108103713D01*
X159156817Y-108102696D01*
X159121674Y-108095906D01*
X159043581Y-108082971D01*
X158963774Y-108081742D01*
X158874445Y-108092241D01*
X158849771Y-108096690D01*
X158766709Y-108120108D01*
X158701727Y-108154945D01*
X158655539Y-108200604D01*
X158628855Y-108256494D01*
X158623337Y-108285388D01*
X158626949Y-108344012D01*
X158650271Y-108395879D01*
X158691176Y-108439978D01*
X158747541Y-108475299D01*
X158817240Y-108500829D01*
X158898148Y-108515559D01*
X158988140Y-108518478D01*
X159085090Y-108508575D01*
X159090564Y-108507641D01*
X159129125Y-108500459D01*
X159150506Y-108493521D01*
X159159773Y-108483227D01*
X159161994Y-108465976D01*
X159162044Y-108456841D01*
X159162044Y-108418489D01*
X159093569Y-108418489D01*
X159033100Y-108414347D01*
X158991835Y-108401147D01*
X158967825Y-108377730D01*
X158959123Y-108342936D01*
X158959017Y-108338394D01*
X158964108Y-108308654D01*
X158981567Y-108287419D01*
X159014061Y-108273366D01*
X159064257Y-108265173D01*
X159112877Y-108262161D01*
X159183544Y-108260433D01*
X159234802Y-108263070D01*
X159269761Y-108272800D01*
X159291530Y-108292353D01*
X159303220Y-108324456D01*
X159307940Y-108371838D01*
X159308800Y-108434071D01*
X159307391Y-108503535D01*
X159303152Y-108550786D01*
X159296064Y-108576012D01*
X159294689Y-108577988D01*
X159255772Y-108609508D01*
X159198714Y-108634470D01*
X159127131Y-108652340D01*
X159044642Y-108662586D01*
X158954861Y-108664673D01*
X158861408Y-108658068D01*
X158806444Y-108649956D01*
X158720234Y-108625554D01*
X158640108Y-108585662D01*
X158573023Y-108533887D01*
X158562827Y-108523539D01*
X158529698Y-108480035D01*
X158499806Y-108426118D01*
X158476643Y-108369592D01*
X158463702Y-108318259D01*
X158462142Y-108298544D01*
X158468782Y-108257419D01*
X158486432Y-108206252D01*
X158511703Y-108152394D01*
X158541211Y-108103195D01*
X158567281Y-108070334D01*
X158628235Y-108021452D01*
X158707031Y-107982545D01*
X158800843Y-107954494D01*
X158906850Y-107938179D01*
X159004000Y-107934192D01*
X159085919Y-107938599D01*
G36*
X159735886Y-107937448D02*
G01*
X159759452Y-107951273D01*
X159790265Y-107973881D01*
X159829922Y-108006338D01*
X159880020Y-108049708D01*
X159942157Y-108105058D01*
X160017928Y-108173451D01*
X160104666Y-108252084D01*
X160285289Y-108415878D01*
X160290933Y-108196029D01*
X160292971Y-108120351D01*
X160294937Y-108063994D01*
X160297266Y-108023706D01*
X160300394Y-107996235D01*
X160304755Y-107978329D01*
X160310784Y-107966737D01*
X160318916Y-107958208D01*
X160323228Y-107954623D01*
X160357759Y-107935670D01*
X160390617Y-107938441D01*
X160416682Y-107954633D01*
X160443333Y-107976199D01*
X160446648Y-108291151D01*
X160447565Y-108383779D01*
X160448032Y-108456544D01*
X160447887Y-108512161D01*
X160446968Y-108553342D01*
X160445113Y-108582803D01*
X160442161Y-108603255D01*
X160437950Y-108617413D01*
X160432318Y-108627991D01*
X160426073Y-108636474D01*
X160412561Y-108652207D01*
X160399117Y-108662636D01*
X160383876Y-108666639D01*
X160364974Y-108663094D01*
X160340545Y-108650879D01*
X160308727Y-108628871D01*
X160267652Y-108595949D01*
X160215458Y-108550991D01*
X160150278Y-108492875D01*
X160076444Y-108426099D01*
X159811155Y-108185458D01*
X159805511Y-108404589D01*
X159803469Y-108480128D01*
X159801498Y-108536354D01*
X159799161Y-108576524D01*
X159796019Y-108603896D01*
X159791636Y-108621728D01*
X159785576Y-108633279D01*
X159777400Y-108641807D01*
X159773216Y-108645282D01*
X159736235Y-108664372D01*
X159701292Y-108661493D01*
X159670864Y-108637100D01*
X159663903Y-108627286D01*
X159658477Y-108615826D01*
X159654397Y-108599968D01*
X159651471Y-108576963D01*
X159649508Y-108544062D01*
X159648317Y-108498516D01*
X159647708Y-108437573D01*
X159647489Y-108358486D01*
X159647466Y-108299956D01*
X159647540Y-108208407D01*
X159647887Y-108136687D01*
X159648699Y-108082045D01*
X159650167Y-108041732D01*
X159652481Y-108012998D01*
X159655833Y-107993093D01*
X159660412Y-107979268D01*
X159666411Y-107968772D01*
X159670864Y-107962811D01*
X159682150Y-107948691D01*
X159692699Y-107938029D01*
X159704107Y-107931892D01*
X159717970Y-107931343D01*
X159735886Y-107937448D01*
G37*
X159735886Y-107937448D02*
X159759452Y-107951273D01*
X159790265Y-107973881D01*
X159829922Y-108006338D01*
X159880020Y-108049708D01*
X159942157Y-108105058D01*
X160017928Y-108173451D01*
X160104666Y-108252084D01*
X160285289Y-108415878D01*
X160290933Y-108196029D01*
X160292971Y-108120351D01*
X160294937Y-108063994D01*
X160297266Y-108023706D01*
X160300394Y-107996235D01*
X160304755Y-107978329D01*
X160310784Y-107966737D01*
X160318916Y-107958208D01*
X160323228Y-107954623D01*
X160357759Y-107935670D01*
X160390617Y-107938441D01*
X160416682Y-107954633D01*
X160443333Y-107976199D01*
X160446648Y-108291151D01*
X160447565Y-108383779D01*
X160448032Y-108456544D01*
X160447887Y-108512161D01*
X160446968Y-108553342D01*
X160445113Y-108582803D01*
X160442161Y-108603255D01*
X160437950Y-108617413D01*
X160432318Y-108627991D01*
X160426073Y-108636474D01*
X160412561Y-108652207D01*
X160399117Y-108662636D01*
X160383876Y-108666639D01*
X160364974Y-108663094D01*
X160340545Y-108650879D01*
X160308727Y-108628871D01*
X160267652Y-108595949D01*
X160215458Y-108550991D01*
X160150278Y-108492875D01*
X160076444Y-108426099D01*
X159811155Y-108185458D01*
X159805511Y-108404589D01*
X159803469Y-108480128D01*
X159801498Y-108536354D01*
X159799161Y-108576524D01*
X159796019Y-108603896D01*
X159791636Y-108621728D01*
X159785576Y-108633279D01*
X159777400Y-108641807D01*
X159773216Y-108645282D01*
X159736235Y-108664372D01*
X159701292Y-108661493D01*
X159670864Y-108637100D01*
X159663903Y-108627286D01*
X159658477Y-108615826D01*
X159654397Y-108599968D01*
X159651471Y-108576963D01*
X159649508Y-108544062D01*
X159648317Y-108498516D01*
X159647708Y-108437573D01*
X159647489Y-108358486D01*
X159647466Y-108299956D01*
X159647540Y-108208407D01*
X159647887Y-108136687D01*
X159648699Y-108082045D01*
X159650167Y-108041732D01*
X159652481Y-108012998D01*
X159655833Y-107993093D01*
X159660412Y-107979268D01*
X159666411Y-107968772D01*
X159670864Y-107962811D01*
X159682150Y-107948691D01*
X159692699Y-107938029D01*
X159704107Y-107931892D01*
X159717970Y-107931343D01*
X159735886Y-107937448D01*
G36*
X161266343Y-107933260D02*
G01*
X161342701Y-107934174D01*
X161401217Y-107936311D01*
X161444255Y-107940175D01*
X161474183Y-107946267D01*
X161493368Y-107955090D01*
X161504176Y-107967146D01*
X161508973Y-107982939D01*
X161510127Y-108002970D01*
X161510133Y-108005335D01*
X161509131Y-108027992D01*
X161504396Y-108045503D01*
X161493333Y-108058574D01*
X161473348Y-108067913D01*
X161441846Y-108074227D01*
X161396232Y-108078222D01*
X161333913Y-108080606D01*
X161252293Y-108082086D01*
X161227277Y-108082414D01*
X160985200Y-108085467D01*
X160981814Y-108150378D01*
X160978429Y-108215289D01*
X161146576Y-108215289D01*
X161212266Y-108215531D01*
X161259172Y-108216556D01*
X161291083Y-108218811D01*
X161311791Y-108222742D01*
X161325084Y-108228798D01*
X161334755Y-108237424D01*
X161334817Y-108237493D01*
X161352356Y-108271112D01*
X161351722Y-108307448D01*
X161333314Y-108338423D01*
X161329671Y-108341607D01*
X161316741Y-108349812D01*
X161299024Y-108355521D01*
X161272570Y-108359162D01*
X161233432Y-108361167D01*
X161177662Y-108361964D01*
X161141994Y-108362045D01*
X160979555Y-108362045D01*
X160979555Y-108520089D01*
X161226161Y-108520089D01*
X161307580Y-108520231D01*
X161369410Y-108520814D01*
X161414637Y-108522068D01*
X161446248Y-108524227D01*
X161467231Y-108527523D01*
X161480573Y-108532189D01*
X161489261Y-108538457D01*
X161491450Y-108540733D01*
X161507614Y-108572280D01*
X161508797Y-108608168D01*
X161495536Y-108639285D01*
X161485043Y-108649271D01*
X161474129Y-108654769D01*
X161457217Y-108659022D01*
X161431633Y-108662180D01*
X161394701Y-108664392D01*
X161343746Y-108665806D01*
X161276094Y-108666572D01*
X161189069Y-108666838D01*
X161169394Y-108666845D01*
X161080911Y-108666787D01*
X161012227Y-108666467D01*
X160960564Y-108665667D01*
X160923145Y-108664167D01*
X160897190Y-108661749D01*
X160879922Y-108658194D01*
X160868562Y-108653282D01*
X160860332Y-108646795D01*
X160855817Y-108642138D01*
X160849021Y-108633889D01*
X160843712Y-108623669D01*
X160839706Y-108608800D01*
X160836821Y-108586602D01*
X160834874Y-108554393D01*
X160833681Y-108509496D01*
X160833061Y-108449228D01*
X160832829Y-108370911D01*
X160832800Y-108304994D01*
X160832871Y-108212628D01*
X160833208Y-108140117D01*
X160833998Y-108084737D01*
X160835426Y-108043765D01*
X160837679Y-108014478D01*
X160840943Y-107994153D01*
X160845404Y-107980066D01*
X160851248Y-107969495D01*
X160856197Y-107962811D01*
X160879594Y-107933067D01*
X161169774Y-107933067D01*
X161266343Y-107933260D01*
G37*
X161266343Y-107933260D02*
X161342701Y-107934174D01*
X161401217Y-107936311D01*
X161444255Y-107940175D01*
X161474183Y-107946267D01*
X161493368Y-107955090D01*
X161504176Y-107967146D01*
X161508973Y-107982939D01*
X161510127Y-108002970D01*
X161510133Y-108005335D01*
X161509131Y-108027992D01*
X161504396Y-108045503D01*
X161493333Y-108058574D01*
X161473348Y-108067913D01*
X161441846Y-108074227D01*
X161396232Y-108078222D01*
X161333913Y-108080606D01*
X161252293Y-108082086D01*
X161227277Y-108082414D01*
X160985200Y-108085467D01*
X160981814Y-108150378D01*
X160978429Y-108215289D01*
X161146576Y-108215289D01*
X161212266Y-108215531D01*
X161259172Y-108216556D01*
X161291083Y-108218811D01*
X161311791Y-108222742D01*
X161325084Y-108228798D01*
X161334755Y-108237424D01*
X161334817Y-108237493D01*
X161352356Y-108271112D01*
X161351722Y-108307448D01*
X161333314Y-108338423D01*
X161329671Y-108341607D01*
X161316741Y-108349812D01*
X161299024Y-108355521D01*
X161272570Y-108359162D01*
X161233432Y-108361167D01*
X161177662Y-108361964D01*
X161141994Y-108362045D01*
X160979555Y-108362045D01*
X160979555Y-108520089D01*
X161226161Y-108520089D01*
X161307580Y-108520231D01*
X161369410Y-108520814D01*
X161414637Y-108522068D01*
X161446248Y-108524227D01*
X161467231Y-108527523D01*
X161480573Y-108532189D01*
X161489261Y-108538457D01*
X161491450Y-108540733D01*
X161507614Y-108572280D01*
X161508797Y-108608168D01*
X161495536Y-108639285D01*
X161485043Y-108649271D01*
X161474129Y-108654769D01*
X161457217Y-108659022D01*
X161431633Y-108662180D01*
X161394701Y-108664392D01*
X161343746Y-108665806D01*
X161276094Y-108666572D01*
X161189069Y-108666838D01*
X161169394Y-108666845D01*
X161080911Y-108666787D01*
X161012227Y-108666467D01*
X160960564Y-108665667D01*
X160923145Y-108664167D01*
X160897190Y-108661749D01*
X160879922Y-108658194D01*
X160868562Y-108653282D01*
X160860332Y-108646795D01*
X160855817Y-108642138D01*
X160849021Y-108633889D01*
X160843712Y-108623669D01*
X160839706Y-108608800D01*
X160836821Y-108586602D01*
X160834874Y-108554393D01*
X160833681Y-108509496D01*
X160833061Y-108449228D01*
X160832829Y-108370911D01*
X160832800Y-108304994D01*
X160832871Y-108212628D01*
X160833208Y-108140117D01*
X160833998Y-108084737D01*
X160835426Y-108043765D01*
X160837679Y-108014478D01*
X160840943Y-107994153D01*
X160845404Y-107980066D01*
X160851248Y-107969495D01*
X160856197Y-107962811D01*
X160879594Y-107933067D01*
X161169774Y-107933067D01*
X161266343Y-107933260D01*
G36*
X162054309Y-107933275D02*
G01*
X162183288Y-107937636D01*
X162292991Y-107950861D01*
X162385226Y-107973741D01*
X162461802Y-108007070D01*
X162524527Y-108051638D01*
X162575212Y-108108236D01*
X162615663Y-108177658D01*
X162616459Y-108179351D01*
X162640601Y-108241483D01*
X162649203Y-108296509D01*
X162642231Y-108351887D01*
X162619654Y-108415073D01*
X162615372Y-108424689D01*
X162586172Y-108480966D01*
X162553356Y-108524451D01*
X162511002Y-108561417D01*
X162453190Y-108598135D01*
X162449831Y-108600052D01*
X162399504Y-108624227D01*
X162342621Y-108642282D01*
X162275527Y-108654839D01*
X162194565Y-108662522D01*
X162096082Y-108665953D01*
X162061286Y-108666251D01*
X161895594Y-108666845D01*
X161872197Y-108637100D01*
X161865257Y-108627319D01*
X161859842Y-108615897D01*
X161855765Y-108600095D01*
X161852837Y-108577175D01*
X161850867Y-108544396D01*
X161850225Y-108520089D01*
X162006844Y-108520089D01*
X162100726Y-108520089D01*
X162155664Y-108518483D01*
X162212060Y-108514255D01*
X162258345Y-108508292D01*
X162261139Y-108507790D01*
X162343348Y-108485736D01*
X162407114Y-108452600D01*
X162454452Y-108406847D01*
X162487382Y-108346939D01*
X162493108Y-108331061D01*
X162498721Y-108306333D01*
X162496291Y-108281902D01*
X162484467Y-108249400D01*
X162477340Y-108233434D01*
X162454000Y-108191006D01*
X162425880Y-108161240D01*
X162394940Y-108140511D01*
X162332966Y-108113537D01*
X162253651Y-108093998D01*
X162161253Y-108082746D01*
X162094333Y-108080270D01*
X162006844Y-108079822D01*
X162006844Y-108520089D01*
X161850225Y-108520089D01*
X161849668Y-108499021D01*
X161849050Y-108438311D01*
X161848825Y-108359526D01*
X161848800Y-108297920D01*
X161848800Y-107988485D01*
X161876509Y-107960776D01*
X161888806Y-107949544D01*
X161902103Y-107941853D01*
X161920672Y-107937040D01*
X161948786Y-107934446D01*
X161990717Y-107933410D01*
X162050737Y-107933270D01*
X162054309Y-107933275D01*
G37*
X162054309Y-107933275D02*
X162183288Y-107937636D01*
X162292991Y-107950861D01*
X162385226Y-107973741D01*
X162461802Y-108007070D01*
X162524527Y-108051638D01*
X162575212Y-108108236D01*
X162615663Y-108177658D01*
X162616459Y-108179351D01*
X162640601Y-108241483D01*
X162649203Y-108296509D01*
X162642231Y-108351887D01*
X162619654Y-108415073D01*
X162615372Y-108424689D01*
X162586172Y-108480966D01*
X162553356Y-108524451D01*
X162511002Y-108561417D01*
X162453190Y-108598135D01*
X162449831Y-108600052D01*
X162399504Y-108624227D01*
X162342621Y-108642282D01*
X162275527Y-108654839D01*
X162194565Y-108662522D01*
X162096082Y-108665953D01*
X162061286Y-108666251D01*
X161895594Y-108666845D01*
X161872197Y-108637100D01*
X161865257Y-108627319D01*
X161859842Y-108615897D01*
X161855765Y-108600095D01*
X161852837Y-108577175D01*
X161850867Y-108544396D01*
X161850225Y-108520089D01*
X162006844Y-108520089D01*
X162100726Y-108520089D01*
X162155664Y-108518483D01*
X162212060Y-108514255D01*
X162258345Y-108508292D01*
X162261139Y-108507790D01*
X162343348Y-108485736D01*
X162407114Y-108452600D01*
X162454452Y-108406847D01*
X162487382Y-108346939D01*
X162493108Y-108331061D01*
X162498721Y-108306333D01*
X162496291Y-108281902D01*
X162484467Y-108249400D01*
X162477340Y-108233434D01*
X162454000Y-108191006D01*
X162425880Y-108161240D01*
X162394940Y-108140511D01*
X162332966Y-108113537D01*
X162253651Y-108093998D01*
X162161253Y-108082746D01*
X162094333Y-108080270D01*
X162006844Y-108079822D01*
X162006844Y-108520089D01*
X161850225Y-108520089D01*
X161849668Y-108499021D01*
X161849050Y-108438311D01*
X161848825Y-108359526D01*
X161848800Y-108297920D01*
X161848800Y-107988485D01*
X161876509Y-107960776D01*
X161888806Y-107949544D01*
X161902103Y-107941853D01*
X161920672Y-107937040D01*
X161948786Y-107934446D01*
X161990717Y-107933410D01*
X162050737Y-107933270D01*
X162054309Y-107933275D01*
G36*
X164780665Y-107935034D02*
G01*
X164800255Y-107942035D01*
X164801010Y-107942377D01*
X164827613Y-107962678D01*
X164842270Y-107983561D01*
X164845138Y-107993352D01*
X164844996Y-108006361D01*
X164840961Y-108024895D01*
X164832146Y-108051257D01*
X164817669Y-108087752D01*
X164796645Y-108136687D01*
X164768188Y-108200365D01*
X164731415Y-108281093D01*
X164711175Y-108325216D01*
X164674625Y-108403985D01*
X164640315Y-108476423D01*
X164609552Y-108539880D01*
X164583648Y-108591708D01*
X164563910Y-108629259D01*
X164551650Y-108649884D01*
X164549224Y-108652733D01*
X164518183Y-108665302D01*
X164483121Y-108663619D01*
X164455000Y-108648332D01*
X164453854Y-108647089D01*
X164442668Y-108630154D01*
X164423904Y-108597170D01*
X164399875Y-108552380D01*
X164372897Y-108500032D01*
X164363201Y-108480742D01*
X164290014Y-108334150D01*
X164210240Y-108493393D01*
X164181767Y-108548415D01*
X164155350Y-108596132D01*
X164133148Y-108632893D01*
X164117319Y-108655044D01*
X164111954Y-108659741D01*
X164070257Y-108666102D01*
X164035849Y-108652733D01*
X164025728Y-108638446D01*
X164008214Y-108606692D01*
X163984735Y-108560597D01*
X163956720Y-108503285D01*
X163925599Y-108437880D01*
X163892799Y-108367507D01*
X163859750Y-108295291D01*
X163827881Y-108224355D01*
X163798619Y-108157825D01*
X163773395Y-108098826D01*
X163753636Y-108050481D01*
X163740772Y-108015915D01*
X163736231Y-107998253D01*
X163736277Y-107997613D01*
X163747326Y-107975388D01*
X163769410Y-107952753D01*
X163770710Y-107951768D01*
X163797853Y-107936425D01*
X163822958Y-107936574D01*
X163832368Y-107939466D01*
X163843834Y-107945718D01*
X163856010Y-107958014D01*
X163870357Y-107978908D01*
X163888336Y-108010949D01*
X163911407Y-108056688D01*
X163941030Y-108118677D01*
X163967745Y-108175898D01*
X163998480Y-108242226D01*
X164026021Y-108301874D01*
X164048938Y-108351725D01*
X164065798Y-108388664D01*
X164075173Y-108409573D01*
X164076540Y-108412845D01*
X164082689Y-108407497D01*
X164096822Y-108385109D01*
X164117057Y-108348946D01*
X164141515Y-108302277D01*
X164151248Y-108283022D01*
X164184217Y-108218004D01*
X164209643Y-108170654D01*
X164229612Y-108138219D01*
X164246210Y-108117946D01*
X164261524Y-108107082D01*
X164277640Y-108102875D01*
X164288143Y-108102400D01*
X164306670Y-108104042D01*
X164322904Y-108110831D01*
X164339035Y-108125566D01*
X164357251Y-108151044D01*
X164379739Y-108190061D01*
X164408689Y-108245414D01*
X164424662Y-108276903D01*
X164450570Y-108327087D01*
X164473167Y-108368704D01*
X164490458Y-108398242D01*
X164500450Y-108412189D01*
X164501809Y-108412770D01*
X164508261Y-108401793D01*
X164522708Y-108373290D01*
X164543703Y-108330244D01*
X164569797Y-108275638D01*
X164599546Y-108212454D01*
X164614180Y-108181071D01*
X164652250Y-108100078D01*
X164682905Y-108037756D01*
X164707737Y-107992071D01*
X164728337Y-107960989D01*
X164746298Y-107942478D01*
X164763210Y-107934504D01*
X164780665Y-107935034D01*
G37*
X164780665Y-107935034D02*
X164800255Y-107942035D01*
X164801010Y-107942377D01*
X164827613Y-107962678D01*
X164842270Y-107983561D01*
X164845138Y-107993352D01*
X164844996Y-108006361D01*
X164840961Y-108024895D01*
X164832146Y-108051257D01*
X164817669Y-108087752D01*
X164796645Y-108136687D01*
X164768188Y-108200365D01*
X164731415Y-108281093D01*
X164711175Y-108325216D01*
X164674625Y-108403985D01*
X164640315Y-108476423D01*
X164609552Y-108539880D01*
X164583648Y-108591708D01*
X164563910Y-108629259D01*
X164551650Y-108649884D01*
X164549224Y-108652733D01*
X164518183Y-108665302D01*
X164483121Y-108663619D01*
X164455000Y-108648332D01*
X164453854Y-108647089D01*
X164442668Y-108630154D01*
X164423904Y-108597170D01*
X164399875Y-108552380D01*
X164372897Y-108500032D01*
X164363201Y-108480742D01*
X164290014Y-108334150D01*
X164210240Y-108493393D01*
X164181767Y-108548415D01*
X164155350Y-108596132D01*
X164133148Y-108632893D01*
X164117319Y-108655044D01*
X164111954Y-108659741D01*
X164070257Y-108666102D01*
X164035849Y-108652733D01*
X164025728Y-108638446D01*
X164008214Y-108606692D01*
X163984735Y-108560597D01*
X163956720Y-108503285D01*
X163925599Y-108437880D01*
X163892799Y-108367507D01*
X163859750Y-108295291D01*
X163827881Y-108224355D01*
X163798619Y-108157825D01*
X163773395Y-108098826D01*
X163753636Y-108050481D01*
X163740772Y-108015915D01*
X163736231Y-107998253D01*
X163736277Y-107997613D01*
X163747326Y-107975388D01*
X163769410Y-107952753D01*
X163770710Y-107951768D01*
X163797853Y-107936425D01*
X163822958Y-107936574D01*
X163832368Y-107939466D01*
X163843834Y-107945718D01*
X163856010Y-107958014D01*
X163870357Y-107978908D01*
X163888336Y-108010949D01*
X163911407Y-108056688D01*
X163941030Y-108118677D01*
X163967745Y-108175898D01*
X163998480Y-108242226D01*
X164026021Y-108301874D01*
X164048938Y-108351725D01*
X164065798Y-108388664D01*
X164075173Y-108409573D01*
X164076540Y-108412845D01*
X164082689Y-108407497D01*
X164096822Y-108385109D01*
X164117057Y-108348946D01*
X164141515Y-108302277D01*
X164151248Y-108283022D01*
X164184217Y-108218004D01*
X164209643Y-108170654D01*
X164229612Y-108138219D01*
X164246210Y-108117946D01*
X164261524Y-108107082D01*
X164277640Y-108102875D01*
X164288143Y-108102400D01*
X164306670Y-108104042D01*
X164322904Y-108110831D01*
X164339035Y-108125566D01*
X164357251Y-108151044D01*
X164379739Y-108190061D01*
X164408689Y-108245414D01*
X164424662Y-108276903D01*
X164450570Y-108327087D01*
X164473167Y-108368704D01*
X164490458Y-108398242D01*
X164500450Y-108412189D01*
X164501809Y-108412770D01*
X164508261Y-108401793D01*
X164522708Y-108373290D01*
X164543703Y-108330244D01*
X164569797Y-108275638D01*
X164599546Y-108212454D01*
X164614180Y-108181071D01*
X164652250Y-108100078D01*
X164682905Y-108037756D01*
X164707737Y-107992071D01*
X164728337Y-107960989D01*
X164746298Y-107942478D01*
X164763210Y-107934504D01*
X164780665Y-107935034D01*
G36*
X165224614Y-107939877D02*
G01*
X165248327Y-107954647D01*
X165274978Y-107976227D01*
X165274978Y-108297773D01*
X165274893Y-108391830D01*
X165274529Y-108465932D01*
X165273724Y-108522704D01*
X165272313Y-108564768D01*
X165270133Y-108594748D01*
X165267021Y-108615267D01*
X165262814Y-108628949D01*
X165257348Y-108638416D01*
X165253472Y-108643082D01*
X165222034Y-108663575D01*
X165186233Y-108662739D01*
X165154873Y-108645264D01*
X165128222Y-108623684D01*
X165128222Y-107976227D01*
X165154873Y-107954647D01*
X165180594Y-107938949D01*
X165201600Y-107933067D01*
X165224614Y-107939877D01*
G37*
X165224614Y-107939877D02*
X165248327Y-107954647D01*
X165274978Y-107976227D01*
X165274978Y-108297773D01*
X165274893Y-108391830D01*
X165274529Y-108465932D01*
X165273724Y-108522704D01*
X165272313Y-108564768D01*
X165270133Y-108594748D01*
X165267021Y-108615267D01*
X165262814Y-108628949D01*
X165257348Y-108638416D01*
X165253472Y-108643082D01*
X165222034Y-108663575D01*
X165186233Y-108662739D01*
X165154873Y-108645264D01*
X165128222Y-108623684D01*
X165128222Y-107976227D01*
X165154873Y-107954647D01*
X165180594Y-107938949D01*
X165201600Y-107933067D01*
X165224614Y-107939877D01*
G36*
X165999065Y-107933163D02*
G01*
X166077772Y-107933542D01*
X166138863Y-107934333D01*
X166184817Y-107935670D01*
X166218114Y-107937683D01*
X166241236Y-107940506D01*
X166256662Y-107944269D01*
X166266871Y-107949105D01*
X166271813Y-107952822D01*
X166297457Y-107985358D01*
X166300559Y-108019138D01*
X166284711Y-108049826D01*
X166274348Y-108062089D01*
X166263196Y-108070450D01*
X166247035Y-108075657D01*
X166221642Y-108078457D01*
X166182798Y-108079596D01*
X166126280Y-108079821D01*
X166115180Y-108079822D01*
X165969244Y-108079822D01*
X165969244Y-108350756D01*
X165969148Y-108436154D01*
X165968711Y-108501864D01*
X165967712Y-108550774D01*
X165965928Y-108585773D01*
X165963137Y-108609749D01*
X165959117Y-108625593D01*
X165953645Y-108636191D01*
X165946666Y-108644267D01*
X165913734Y-108664112D01*
X165879354Y-108662548D01*
X165848176Y-108639906D01*
X165845886Y-108637100D01*
X165838429Y-108626492D01*
X165832747Y-108614081D01*
X165828601Y-108596850D01*
X165825750Y-108571784D01*
X165823954Y-108535867D01*
X165822972Y-108486083D01*
X165822564Y-108419417D01*
X165822489Y-108343589D01*
X165822489Y-108079822D01*
X165683127Y-108079822D01*
X165623322Y-108079418D01*
X165581918Y-108077840D01*
X165554748Y-108074547D01*
X165537646Y-108068992D01*
X165526443Y-108060631D01*
X165525083Y-108059178D01*
X165508725Y-108025939D01*
X165510172Y-107988362D01*
X165528978Y-107955645D01*
X165536250Y-107949298D01*
X165545627Y-107944266D01*
X165559609Y-107940396D01*
X165580696Y-107937537D01*
X165611389Y-107935535D01*
X165654189Y-107934239D01*
X165711595Y-107933498D01*
X165786110Y-107933158D01*
X165880233Y-107933068D01*
X165900260Y-107933067D01*
X165999065Y-107933163D01*
G37*
X165999065Y-107933163D02*
X166077772Y-107933542D01*
X166138863Y-107934333D01*
X166184817Y-107935670D01*
X166218114Y-107937683D01*
X166241236Y-107940506D01*
X166256662Y-107944269D01*
X166266871Y-107949105D01*
X166271813Y-107952822D01*
X166297457Y-107985358D01*
X166300559Y-108019138D01*
X166284711Y-108049826D01*
X166274348Y-108062089D01*
X166263196Y-108070450D01*
X166247035Y-108075657D01*
X166221642Y-108078457D01*
X166182798Y-108079596D01*
X166126280Y-108079821D01*
X166115180Y-108079822D01*
X165969244Y-108079822D01*
X165969244Y-108350756D01*
X165969148Y-108436154D01*
X165968711Y-108501864D01*
X165967712Y-108550774D01*
X165965928Y-108585773D01*
X165963137Y-108609749D01*
X165959117Y-108625593D01*
X165953645Y-108636191D01*
X165946666Y-108644267D01*
X165913734Y-108664112D01*
X165879354Y-108662548D01*
X165848176Y-108639906D01*
X165845886Y-108637100D01*
X165838429Y-108626492D01*
X165832747Y-108614081D01*
X165828601Y-108596850D01*
X165825750Y-108571784D01*
X165823954Y-108535867D01*
X165822972Y-108486083D01*
X165822564Y-108419417D01*
X165822489Y-108343589D01*
X165822489Y-108079822D01*
X165683127Y-108079822D01*
X165623322Y-108079418D01*
X165581918Y-108077840D01*
X165554748Y-108074547D01*
X165537646Y-108068992D01*
X165526443Y-108060631D01*
X165525083Y-108059178D01*
X165508725Y-108025939D01*
X165510172Y-107988362D01*
X165528978Y-107955645D01*
X165536250Y-107949298D01*
X165545627Y-107944266D01*
X165559609Y-107940396D01*
X165580696Y-107937537D01*
X165611389Y-107935535D01*
X165654189Y-107934239D01*
X165711595Y-107933498D01*
X165786110Y-107933158D01*
X165880233Y-107933068D01*
X165900260Y-107933067D01*
X165999065Y-107933163D01*
G36*
X167264823Y-107938533D02*
G01*
X167296202Y-107960776D01*
X167323911Y-107988485D01*
X167323911Y-108297920D01*
X167323838Y-108389799D01*
X167323495Y-108461840D01*
X167322692Y-108516780D01*
X167321241Y-108557360D01*
X167318952Y-108586317D01*
X167315636Y-108606391D01*
X167311105Y-108620321D01*
X167305169Y-108630845D01*
X167300514Y-108637100D01*
X167269783Y-108661673D01*
X167234496Y-108664341D01*
X167202245Y-108649271D01*
X167191588Y-108640374D01*
X167184464Y-108628557D01*
X167180167Y-108609526D01*
X167177991Y-108578992D01*
X167177228Y-108532662D01*
X167177155Y-108496871D01*
X167177155Y-108362045D01*
X166680444Y-108362045D01*
X166680444Y-108484700D01*
X166679931Y-108540787D01*
X166677876Y-108579333D01*
X166673508Y-108605361D01*
X166666056Y-108623897D01*
X166657047Y-108637100D01*
X166626144Y-108661604D01*
X166591196Y-108664506D01*
X166557738Y-108647089D01*
X166548604Y-108637959D01*
X166542152Y-108625855D01*
X166537897Y-108607001D01*
X166535352Y-108577620D01*
X166534029Y-108533937D01*
X166533443Y-108472175D01*
X166533375Y-108458000D01*
X166532891Y-108341631D01*
X166532641Y-108245727D01*
X166532723Y-108168177D01*
X166533231Y-108106869D01*
X166534262Y-108059690D01*
X166535913Y-108024530D01*
X166538279Y-107999276D01*
X166541457Y-107981817D01*
X166545544Y-107970041D01*
X166550634Y-107961835D01*
X166556266Y-107955645D01*
X166588128Y-107935844D01*
X166621357Y-107938533D01*
X166652735Y-107960776D01*
X166665433Y-107975126D01*
X166673526Y-107990978D01*
X166678042Y-108013554D01*
X166680006Y-108048078D01*
X166680444Y-108099776D01*
X166680444Y-108215289D01*
X167177155Y-108215289D01*
X167177155Y-108096756D01*
X167177662Y-108042148D01*
X167179698Y-108005275D01*
X167184035Y-107981307D01*
X167191447Y-107965415D01*
X167199733Y-107955645D01*
X167231594Y-107935844D01*
X167264823Y-107938533D01*
G37*
X167264823Y-107938533D02*
X167296202Y-107960776D01*
X167323911Y-107988485D01*
X167323911Y-108297920D01*
X167323838Y-108389799D01*
X167323495Y-108461840D01*
X167322692Y-108516780D01*
X167321241Y-108557360D01*
X167318952Y-108586317D01*
X167315636Y-108606391D01*
X167311105Y-108620321D01*
X167305169Y-108630845D01*
X167300514Y-108637100D01*
X167269783Y-108661673D01*
X167234496Y-108664341D01*
X167202245Y-108649271D01*
X167191588Y-108640374D01*
X167184464Y-108628557D01*
X167180167Y-108609526D01*
X167177991Y-108578992D01*
X167177228Y-108532662D01*
X167177155Y-108496871D01*
X167177155Y-108362045D01*
X166680444Y-108362045D01*
X166680444Y-108484700D01*
X166679931Y-108540787D01*
X166677876Y-108579333D01*
X166673508Y-108605361D01*
X166666056Y-108623897D01*
X166657047Y-108637100D01*
X166626144Y-108661604D01*
X166591196Y-108664506D01*
X166557738Y-108647089D01*
X166548604Y-108637959D01*
X166542152Y-108625855D01*
X166537897Y-108607001D01*
X166535352Y-108577620D01*
X166534029Y-108533937D01*
X166533443Y-108472175D01*
X166533375Y-108458000D01*
X166532891Y-108341631D01*
X166532641Y-108245727D01*
X166532723Y-108168177D01*
X166533231Y-108106869D01*
X166534262Y-108059690D01*
X166535913Y-108024530D01*
X166538279Y-107999276D01*
X166541457Y-107981817D01*
X166545544Y-107970041D01*
X166550634Y-107961835D01*
X166556266Y-107955645D01*
X166588128Y-107935844D01*
X166621357Y-107938533D01*
X166652735Y-107960776D01*
X166665433Y-107975126D01*
X166673526Y-107990978D01*
X166678042Y-108013554D01*
X166680006Y-108048078D01*
X166680444Y-108099776D01*
X166680444Y-108215289D01*
X167177155Y-108215289D01*
X167177155Y-108096756D01*
X167177662Y-108042148D01*
X167179698Y-108005275D01*
X167184035Y-107981307D01*
X167191447Y-107965415D01*
X167199733Y-107955645D01*
X167231594Y-107935844D01*
X167264823Y-107938533D01*
%TO.C,LOGO1*%
G36*
X140601744Y-107837918D02*
G01*
X140657201Y-107865568D01*
X140706148Y-107916480D01*
X140719629Y-107935338D01*
X140734314Y-107960015D01*
X140743842Y-107986816D01*
X140749293Y-108022587D01*
X140751747Y-108074169D01*
X140752286Y-108142267D01*
X140749852Y-108235588D01*
X140741394Y-108305657D01*
X140725174Y-108357931D01*
X140699454Y-108397869D01*
X140662497Y-108430929D01*
X140659782Y-108432886D01*
X140623360Y-108452908D01*
X140579502Y-108462815D01*
X140523724Y-108465257D01*
X140433048Y-108465257D01*
X140433010Y-108553283D01*
X140432166Y-108602308D01*
X140427024Y-108631065D01*
X140413587Y-108648311D01*
X140387858Y-108662808D01*
X140381679Y-108665769D01*
X140352764Y-108679648D01*
X140330376Y-108688414D01*
X140313729Y-108689171D01*
X140302036Y-108679023D01*
X140294510Y-108655073D01*
X140290366Y-108614426D01*
X140288815Y-108554186D01*
X140289071Y-108471455D01*
X140290349Y-108363339D01*
X140290748Y-108331000D01*
X140292185Y-108219524D01*
X140293472Y-108146603D01*
X140432971Y-108146603D01*
X140433755Y-108208499D01*
X140437240Y-108248997D01*
X140445124Y-108275708D01*
X140459105Y-108296244D01*
X140468597Y-108306260D01*
X140507404Y-108335567D01*
X140541763Y-108337952D01*
X140577216Y-108313750D01*
X140578114Y-108312857D01*
X140592539Y-108294153D01*
X140601313Y-108268732D01*
X140605739Y-108229584D01*
X140607118Y-108169697D01*
X140607143Y-108156430D01*
X140603812Y-108073901D01*
X140592969Y-108016691D01*
X140573340Y-107981766D01*
X140543650Y-107966094D01*
X140526491Y-107964514D01*
X140485766Y-107971926D01*
X140457832Y-107996330D01*
X140441017Y-108040980D01*
X140433650Y-108109130D01*
X140432971Y-108146603D01*
X140293472Y-108146603D01*
X140293708Y-108133245D01*
X140295677Y-108068333D01*
X140298450Y-108020958D01*
X140302388Y-107987290D01*
X140307849Y-107963498D01*
X140315192Y-107945753D01*
X140324777Y-107930224D01*
X140328887Y-107924381D01*
X140383405Y-107869185D01*
X140452336Y-107837890D01*
X140532072Y-107829165D01*
X140601744Y-107837918D01*
G37*
X140601744Y-107837918D02*
X140657201Y-107865568D01*
X140706148Y-107916480D01*
X140719629Y-107935338D01*
X140734314Y-107960015D01*
X140743842Y-107986816D01*
X140749293Y-108022587D01*
X140751747Y-108074169D01*
X140752286Y-108142267D01*
X140749852Y-108235588D01*
X140741394Y-108305657D01*
X140725174Y-108357931D01*
X140699454Y-108397869D01*
X140662497Y-108430929D01*
X140659782Y-108432886D01*
X140623360Y-108452908D01*
X140579502Y-108462815D01*
X140523724Y-108465257D01*
X140433048Y-108465257D01*
X140433010Y-108553283D01*
X140432166Y-108602308D01*
X140427024Y-108631065D01*
X140413587Y-108648311D01*
X140387858Y-108662808D01*
X140381679Y-108665769D01*
X140352764Y-108679648D01*
X140330376Y-108688414D01*
X140313729Y-108689171D01*
X140302036Y-108679023D01*
X140294510Y-108655073D01*
X140290366Y-108614426D01*
X140288815Y-108554186D01*
X140289071Y-108471455D01*
X140290349Y-108363339D01*
X140290748Y-108331000D01*
X140292185Y-108219524D01*
X140293472Y-108146603D01*
X140432971Y-108146603D01*
X140433755Y-108208499D01*
X140437240Y-108248997D01*
X140445124Y-108275708D01*
X140459105Y-108296244D01*
X140468597Y-108306260D01*
X140507404Y-108335567D01*
X140541763Y-108337952D01*
X140577216Y-108313750D01*
X140578114Y-108312857D01*
X140592539Y-108294153D01*
X140601313Y-108268732D01*
X140605739Y-108229584D01*
X140607118Y-108169697D01*
X140607143Y-108156430D01*
X140603812Y-108073901D01*
X140592969Y-108016691D01*
X140573340Y-107981766D01*
X140543650Y-107966094D01*
X140526491Y-107964514D01*
X140485766Y-107971926D01*
X140457832Y-107996330D01*
X140441017Y-108040980D01*
X140433650Y-108109130D01*
X140432971Y-108146603D01*
X140293472Y-108146603D01*
X140293708Y-108133245D01*
X140295677Y-108068333D01*
X140298450Y-108020958D01*
X140302388Y-107987290D01*
X140307849Y-107963498D01*
X140315192Y-107945753D01*
X140324777Y-107930224D01*
X140328887Y-107924381D01*
X140383405Y-107869185D01*
X140452336Y-107837890D01*
X140532072Y-107829165D01*
X140601744Y-107837918D01*
G36*
X141718093Y-107845780D02*
G01*
X141764672Y-107872723D01*
X141797057Y-107899466D01*
X141820742Y-107927484D01*
X141837059Y-107961748D01*
X141847339Y-108007227D01*
X141852914Y-108068892D01*
X141855116Y-108151711D01*
X141855371Y-108211246D01*
X141855371Y-108430391D01*
X141793686Y-108458044D01*
X141732000Y-108485697D01*
X141724743Y-108245670D01*
X141721744Y-108156028D01*
X141718598Y-108090962D01*
X141714701Y-108046026D01*
X141709447Y-108016770D01*
X141702231Y-107998748D01*
X141692450Y-107987511D01*
X141689312Y-107985079D01*
X141641761Y-107966083D01*
X141593697Y-107973600D01*
X141565086Y-107993543D01*
X141553447Y-108007675D01*
X141545391Y-108026220D01*
X141540271Y-108054334D01*
X141537441Y-108097173D01*
X141536256Y-108159895D01*
X141536057Y-108225261D01*
X141536018Y-108307268D01*
X141534614Y-108365316D01*
X141529914Y-108404465D01*
X141519987Y-108429780D01*
X141502903Y-108446323D01*
X141476732Y-108459156D01*
X141441775Y-108472491D01*
X141403596Y-108487007D01*
X141408141Y-108229389D01*
X141409971Y-108136519D01*
X141412112Y-108067889D01*
X141415181Y-108018711D01*
X141419794Y-107984198D01*
X141426568Y-107959562D01*
X141436119Y-107940016D01*
X141447634Y-107922770D01*
X141503190Y-107867680D01*
X141570980Y-107835822D01*
X141644713Y-107828191D01*
X141718093Y-107845780D01*
G37*
X141718093Y-107845780D02*
X141764672Y-107872723D01*
X141797057Y-107899466D01*
X141820742Y-107927484D01*
X141837059Y-107961748D01*
X141847339Y-108007227D01*
X141852914Y-108068892D01*
X141855116Y-108151711D01*
X141855371Y-108211246D01*
X141855371Y-108430391D01*
X141793686Y-108458044D01*
X141732000Y-108485697D01*
X141724743Y-108245670D01*
X141721744Y-108156028D01*
X141718598Y-108090962D01*
X141714701Y-108046026D01*
X141709447Y-108016770D01*
X141702231Y-107998748D01*
X141692450Y-107987511D01*
X141689312Y-107985079D01*
X141641761Y-107966083D01*
X141593697Y-107973600D01*
X141565086Y-107993543D01*
X141553447Y-108007675D01*
X141545391Y-108026220D01*
X141540271Y-108054334D01*
X141537441Y-108097173D01*
X141536256Y-108159895D01*
X141536057Y-108225261D01*
X141536018Y-108307268D01*
X141534614Y-108365316D01*
X141529914Y-108404465D01*
X141519987Y-108429780D01*
X141502903Y-108446323D01*
X141476732Y-108459156D01*
X141441775Y-108472491D01*
X141403596Y-108487007D01*
X141408141Y-108229389D01*
X141409971Y-108136519D01*
X141412112Y-108067889D01*
X141415181Y-108018711D01*
X141419794Y-107984198D01*
X141426568Y-107959562D01*
X141436119Y-107940016D01*
X141447634Y-107922770D01*
X141503190Y-107867680D01*
X141570980Y-107835822D01*
X141644713Y-107828191D01*
X141718093Y-107845780D01*
G36*
X140043115Y-107839962D02*
G01*
X140111145Y-107875733D01*
X140161351Y-107933301D01*
X140179185Y-107970312D01*
X140193063Y-108025882D01*
X140200167Y-108096096D01*
X140200840Y-108172727D01*
X140195427Y-108247552D01*
X140184270Y-108312342D01*
X140167714Y-108358873D01*
X140162626Y-108366887D01*
X140102355Y-108426707D01*
X140030769Y-108462535D01*
X139953092Y-108473020D01*
X139874548Y-108456810D01*
X139852689Y-108447092D01*
X139810122Y-108417143D01*
X139772763Y-108377433D01*
X139769232Y-108372397D01*
X139754881Y-108348124D01*
X139745394Y-108322178D01*
X139739790Y-108288022D01*
X139737086Y-108239119D01*
X139736299Y-108168935D01*
X139736286Y-108153200D01*
X139736322Y-108148192D01*
X139881429Y-108148192D01*
X139882273Y-108214430D01*
X139885596Y-108258386D01*
X139892583Y-108286779D01*
X139904416Y-108306325D01*
X139910457Y-108312857D01*
X139945186Y-108337680D01*
X139978903Y-108336548D01*
X140012995Y-108315016D01*
X140033329Y-108292029D01*
X140045371Y-108258478D01*
X140052134Y-108205569D01*
X140052598Y-108199399D01*
X140053752Y-108103513D01*
X140041688Y-108032299D01*
X140016570Y-107986194D01*
X139978560Y-107965635D01*
X139964992Y-107964514D01*
X139929364Y-107970152D01*
X139904994Y-107989686D01*
X139890093Y-108027042D01*
X139882875Y-108086150D01*
X139881429Y-108148192D01*
X139736322Y-108148192D01*
X139736826Y-108078413D01*
X139739096Y-108026159D01*
X139744068Y-107989949D01*
X139752713Y-107963299D01*
X139766005Y-107939722D01*
X139768943Y-107935338D01*
X139818313Y-107876249D01*
X139872109Y-107841947D01*
X139937602Y-107828331D01*
X139959842Y-107827665D01*
X140043115Y-107839962D01*
G37*
X140043115Y-107839962D02*
X140111145Y-107875733D01*
X140161351Y-107933301D01*
X140179185Y-107970312D01*
X140193063Y-108025882D01*
X140200167Y-108096096D01*
X140200840Y-108172727D01*
X140195427Y-108247552D01*
X140184270Y-108312342D01*
X140167714Y-108358873D01*
X140162626Y-108366887D01*
X140102355Y-108426707D01*
X140030769Y-108462535D01*
X139953092Y-108473020D01*
X139874548Y-108456810D01*
X139852689Y-108447092D01*
X139810122Y-108417143D01*
X139772763Y-108377433D01*
X139769232Y-108372397D01*
X139754881Y-108348124D01*
X139745394Y-108322178D01*
X139739790Y-108288022D01*
X139737086Y-108239119D01*
X139736299Y-108168935D01*
X139736286Y-108153200D01*
X139736322Y-108148192D01*
X139881429Y-108148192D01*
X139882273Y-108214430D01*
X139885596Y-108258386D01*
X139892583Y-108286779D01*
X139904416Y-108306325D01*
X139910457Y-108312857D01*
X139945186Y-108337680D01*
X139978903Y-108336548D01*
X140012995Y-108315016D01*
X140033329Y-108292029D01*
X140045371Y-108258478D01*
X140052134Y-108205569D01*
X140052598Y-108199399D01*
X140053752Y-108103513D01*
X140041688Y-108032299D01*
X140016570Y-107986194D01*
X139978560Y-107965635D01*
X139964992Y-107964514D01*
X139929364Y-107970152D01*
X139904994Y-107989686D01*
X139890093Y-108027042D01*
X139882875Y-108086150D01*
X139881429Y-108148192D01*
X139736322Y-108148192D01*
X139736826Y-108078413D01*
X139739096Y-108026159D01*
X139744068Y-107989949D01*
X139752713Y-107963299D01*
X139766005Y-107939722D01*
X139768943Y-107935338D01*
X139818313Y-107876249D01*
X139872109Y-107841947D01*
X139937602Y-107828331D01*
X139959842Y-107827665D01*
X140043115Y-107839962D01*
G36*
X141170303Y-107849239D02*
G01*
X141227527Y-107887735D01*
X141271749Y-107943335D01*
X141298167Y-108014086D01*
X141303510Y-108066162D01*
X141302903Y-108087893D01*
X141297822Y-108104531D01*
X141283855Y-108119437D01*
X141256589Y-108135973D01*
X141211612Y-108157498D01*
X141144511Y-108187374D01*
X141144171Y-108187524D01*
X141082407Y-108215813D01*
X141031759Y-108240933D01*
X140997404Y-108260179D01*
X140984518Y-108270848D01*
X140984514Y-108270934D01*
X140995872Y-108294166D01*
X141022431Y-108319774D01*
X141052923Y-108338221D01*
X141068370Y-108341886D01*
X141110515Y-108329212D01*
X141146808Y-108297471D01*
X141164517Y-108262572D01*
X141181552Y-108236845D01*
X141214922Y-108207546D01*
X141254149Y-108182235D01*
X141288756Y-108168471D01*
X141295993Y-108167714D01*
X141304139Y-108180160D01*
X141304630Y-108211972D01*
X141298643Y-108254866D01*
X141287357Y-108300558D01*
X141271950Y-108340761D01*
X141271171Y-108342322D01*
X141224804Y-108407062D01*
X141164711Y-108451097D01*
X141096465Y-108472711D01*
X141025638Y-108470185D01*
X140957804Y-108441804D01*
X140954788Y-108439808D01*
X140901427Y-108391448D01*
X140866340Y-108328352D01*
X140846922Y-108245387D01*
X140844316Y-108222078D01*
X140839701Y-108112055D01*
X140845233Y-108060748D01*
X140984514Y-108060748D01*
X140986324Y-108092753D01*
X140996222Y-108102093D01*
X141020898Y-108095105D01*
X141059795Y-108078587D01*
X141103275Y-108057881D01*
X141104356Y-108057333D01*
X141141209Y-108037949D01*
X141156000Y-108025013D01*
X141152353Y-108011451D01*
X141136995Y-107993632D01*
X141097923Y-107967845D01*
X141055846Y-107965950D01*
X141018103Y-107984717D01*
X140992034Y-108020915D01*
X140984514Y-108060748D01*
X140845233Y-108060748D01*
X140849194Y-108024027D01*
X140873550Y-107954212D01*
X140907456Y-107905302D01*
X140968653Y-107855878D01*
X141036063Y-107831359D01*
X141104880Y-107829797D01*
X141170303Y-107849239D01*
G37*
X141170303Y-107849239D02*
X141227527Y-107887735D01*
X141271749Y-107943335D01*
X141298167Y-108014086D01*
X141303510Y-108066162D01*
X141302903Y-108087893D01*
X141297822Y-108104531D01*
X141283855Y-108119437D01*
X141256589Y-108135973D01*
X141211612Y-108157498D01*
X141144511Y-108187374D01*
X141144171Y-108187524D01*
X141082407Y-108215813D01*
X141031759Y-108240933D01*
X140997404Y-108260179D01*
X140984518Y-108270848D01*
X140984514Y-108270934D01*
X140995872Y-108294166D01*
X141022431Y-108319774D01*
X141052923Y-108338221D01*
X141068370Y-108341886D01*
X141110515Y-108329212D01*
X141146808Y-108297471D01*
X141164517Y-108262572D01*
X141181552Y-108236845D01*
X141214922Y-108207546D01*
X141254149Y-108182235D01*
X141288756Y-108168471D01*
X141295993Y-108167714D01*
X141304139Y-108180160D01*
X141304630Y-108211972D01*
X141298643Y-108254866D01*
X141287357Y-108300558D01*
X141271950Y-108340761D01*
X141271171Y-108342322D01*
X141224804Y-108407062D01*
X141164711Y-108451097D01*
X141096465Y-108472711D01*
X141025638Y-108470185D01*
X140957804Y-108441804D01*
X140954788Y-108439808D01*
X140901427Y-108391448D01*
X140866340Y-108328352D01*
X140846922Y-108245387D01*
X140844316Y-108222078D01*
X140839701Y-108112055D01*
X140845233Y-108060748D01*
X140984514Y-108060748D01*
X140986324Y-108092753D01*
X140996222Y-108102093D01*
X141020898Y-108095105D01*
X141059795Y-108078587D01*
X141103275Y-108057881D01*
X141104356Y-108057333D01*
X141141209Y-108037949D01*
X141156000Y-108025013D01*
X141152353Y-108011451D01*
X141136995Y-107993632D01*
X141097923Y-107967845D01*
X141055846Y-107965950D01*
X141018103Y-107984717D01*
X140992034Y-108020915D01*
X140984514Y-108060748D01*
X140845233Y-108060748D01*
X140849194Y-108024027D01*
X140873550Y-107954212D01*
X140907456Y-107905302D01*
X140968653Y-107855878D01*
X141036063Y-107831359D01*
X141104880Y-107829797D01*
X141170303Y-107849239D01*
G36*
X142377886Y-107769289D02*
G01*
X142382139Y-107828613D01*
X142387025Y-107863572D01*
X142393795Y-107878820D01*
X142403702Y-107879015D01*
X142406914Y-107877195D01*
X142449644Y-107864015D01*
X142505227Y-107864785D01*
X142561737Y-107878333D01*
X142597082Y-107895861D01*
X142633321Y-107923861D01*
X142659813Y-107955549D01*
X142677999Y-107995813D01*
X142689322Y-108049543D01*
X142695222Y-108121626D01*
X142697143Y-108216951D01*
X142697177Y-108235237D01*
X142697200Y-108440646D01*
X142651491Y-108456580D01*
X142619027Y-108467420D01*
X142601215Y-108472468D01*
X142600691Y-108472514D01*
X142598937Y-108458828D01*
X142597444Y-108421076D01*
X142596326Y-108364224D01*
X142595697Y-108293234D01*
X142595600Y-108250073D01*
X142595398Y-108164973D01*
X142594358Y-108103981D01*
X142591831Y-108062177D01*
X142587164Y-108034642D01*
X142579707Y-108016456D01*
X142568811Y-108002698D01*
X142562007Y-107996073D01*
X142515272Y-107969375D01*
X142464272Y-107967375D01*
X142418001Y-107989955D01*
X142409444Y-107998107D01*
X142396893Y-108013436D01*
X142388188Y-108031618D01*
X142382631Y-108057909D01*
X142379526Y-108097562D01*
X142378176Y-108155832D01*
X142377886Y-108236173D01*
X142377886Y-108440646D01*
X142332177Y-108456580D01*
X142299713Y-108467420D01*
X142281901Y-108472468D01*
X142281377Y-108472514D01*
X142280037Y-108458623D01*
X142278828Y-108419439D01*
X142277801Y-108358700D01*
X142277002Y-108280141D01*
X142276481Y-108187498D01*
X142276286Y-108084509D01*
X142276286Y-107687342D01*
X142323457Y-107667444D01*
X142370629Y-107647547D01*
X142377886Y-107769289D01*
G37*
X142377886Y-107769289D02*
X142382139Y-107828613D01*
X142387025Y-107863572D01*
X142393795Y-107878820D01*
X142403702Y-107879015D01*
X142406914Y-107877195D01*
X142449644Y-107864015D01*
X142505227Y-107864785D01*
X142561737Y-107878333D01*
X142597082Y-107895861D01*
X142633321Y-107923861D01*
X142659813Y-107955549D01*
X142677999Y-107995813D01*
X142689322Y-108049543D01*
X142695222Y-108121626D01*
X142697143Y-108216951D01*
X142697177Y-108235237D01*
X142697200Y-108440646D01*
X142651491Y-108456580D01*
X142619027Y-108467420D01*
X142601215Y-108472468D01*
X142600691Y-108472514D01*
X142598937Y-108458828D01*
X142597444Y-108421076D01*
X142596326Y-108364224D01*
X142595697Y-108293234D01*
X142595600Y-108250073D01*
X142595398Y-108164973D01*
X142594358Y-108103981D01*
X142591831Y-108062177D01*
X142587164Y-108034642D01*
X142579707Y-108016456D01*
X142568811Y-108002698D01*
X142562007Y-107996073D01*
X142515272Y-107969375D01*
X142464272Y-107967375D01*
X142418001Y-107989955D01*
X142409444Y-107998107D01*
X142396893Y-108013436D01*
X142388188Y-108031618D01*
X142382631Y-108057909D01*
X142379526Y-108097562D01*
X142378176Y-108155832D01*
X142377886Y-108236173D01*
X142377886Y-108440646D01*
X142332177Y-108456580D01*
X142299713Y-108467420D01*
X142281901Y-108472468D01*
X142281377Y-108472514D01*
X142280037Y-108458623D01*
X142278828Y-108419439D01*
X142277801Y-108358700D01*
X142277002Y-108280141D01*
X142276481Y-108187498D01*
X142276286Y-108084509D01*
X142276286Y-107687342D01*
X142323457Y-107667444D01*
X142370629Y-107647547D01*
X142377886Y-107769289D01*
G36*
X143041744Y-107868968D02*
G01*
X143098616Y-107890087D01*
X143099267Y-107890493D01*
X143134440Y-107916380D01*
X143160407Y-107946633D01*
X143178670Y-107986058D01*
X143190732Y-108039462D01*
X143198096Y-108111651D01*
X143202264Y-108207432D01*
X143202629Y-108221078D01*
X143207876Y-108426842D01*
X143163716Y-108449678D01*
X143131763Y-108465110D01*
X143112470Y-108472423D01*
X143111578Y-108472514D01*
X143108239Y-108459022D01*
X143105587Y-108422626D01*
X143103956Y-108369452D01*
X143103600Y-108326393D01*
X143103592Y-108256641D01*
X143100403Y-108212837D01*
X143089288Y-108191944D01*
X143065501Y-108190925D01*
X143024296Y-108206741D01*
X142962086Y-108235815D01*
X142916341Y-108259963D01*
X142892813Y-108280913D01*
X142885896Y-108303747D01*
X142885886Y-108304877D01*
X142897299Y-108344212D01*
X142931092Y-108365462D01*
X142982809Y-108368539D01*
X143020061Y-108368006D01*
X143039703Y-108378735D01*
X143051952Y-108404505D01*
X143059002Y-108437337D01*
X143048842Y-108455966D01*
X143045017Y-108458632D01*
X143009001Y-108469340D01*
X142958566Y-108470856D01*
X142906626Y-108463759D01*
X142869822Y-108450788D01*
X142818938Y-108407585D01*
X142790014Y-108347446D01*
X142784286Y-108300462D01*
X142788657Y-108258082D01*
X142804475Y-108223488D01*
X142835797Y-108192763D01*
X142886678Y-108161990D01*
X142961176Y-108127252D01*
X142965714Y-108125288D01*
X143032821Y-108094287D01*
X143074232Y-108068862D01*
X143091981Y-108046014D01*
X143088107Y-108022745D01*
X143064643Y-107996056D01*
X143057627Y-107989914D01*
X143010630Y-107966100D01*
X142961933Y-107967103D01*
X142919522Y-107990451D01*
X142891384Y-108033675D01*
X142888769Y-108042160D01*
X142863308Y-108083308D01*
X142831001Y-108103128D01*
X142784286Y-108122770D01*
X142784286Y-108071950D01*
X142798496Y-107998082D01*
X142840675Y-107930327D01*
X142862624Y-107907661D01*
X142912517Y-107878569D01*
X142975967Y-107865400D01*
X143041744Y-107868968D01*
G37*
X143041744Y-107868968D02*
X143098616Y-107890087D01*
X143099267Y-107890493D01*
X143134440Y-107916380D01*
X143160407Y-107946633D01*
X143178670Y-107986058D01*
X143190732Y-108039462D01*
X143198096Y-108111651D01*
X143202264Y-108207432D01*
X143202629Y-108221078D01*
X143207876Y-108426842D01*
X143163716Y-108449678D01*
X143131763Y-108465110D01*
X143112470Y-108472423D01*
X143111578Y-108472514D01*
X143108239Y-108459022D01*
X143105587Y-108422626D01*
X143103956Y-108369452D01*
X143103600Y-108326393D01*
X143103592Y-108256641D01*
X143100403Y-108212837D01*
X143089288Y-108191944D01*
X143065501Y-108190925D01*
X143024296Y-108206741D01*
X142962086Y-108235815D01*
X142916341Y-108259963D01*
X142892813Y-108280913D01*
X142885896Y-108303747D01*
X142885886Y-108304877D01*
X142897299Y-108344212D01*
X142931092Y-108365462D01*
X142982809Y-108368539D01*
X143020061Y-108368006D01*
X143039703Y-108378735D01*
X143051952Y-108404505D01*
X143059002Y-108437337D01*
X143048842Y-108455966D01*
X143045017Y-108458632D01*
X143009001Y-108469340D01*
X142958566Y-108470856D01*
X142906626Y-108463759D01*
X142869822Y-108450788D01*
X142818938Y-108407585D01*
X142790014Y-108347446D01*
X142784286Y-108300462D01*
X142788657Y-108258082D01*
X142804475Y-108223488D01*
X142835797Y-108192763D01*
X142886678Y-108161990D01*
X142961176Y-108127252D01*
X142965714Y-108125288D01*
X143032821Y-108094287D01*
X143074232Y-108068862D01*
X143091981Y-108046014D01*
X143088107Y-108022745D01*
X143064643Y-107996056D01*
X143057627Y-107989914D01*
X143010630Y-107966100D01*
X142961933Y-107967103D01*
X142919522Y-107990451D01*
X142891384Y-108033675D01*
X142888769Y-108042160D01*
X142863308Y-108083308D01*
X142831001Y-108103128D01*
X142784286Y-108122770D01*
X142784286Y-108071950D01*
X142798496Y-107998082D01*
X142840675Y-107930327D01*
X142862624Y-107907661D01*
X142912517Y-107878569D01*
X142975967Y-107865400D01*
X143041744Y-107868968D01*
G36*
X143531926Y-107867755D02*
G01*
X143597858Y-107892084D01*
X143651273Y-107935117D01*
X143672164Y-107965409D01*
X143694939Y-108020994D01*
X143694466Y-108061186D01*
X143670562Y-108088217D01*
X143661717Y-108092813D01*
X143623530Y-108107144D01*
X143604028Y-108103472D01*
X143597422Y-108079407D01*
X143597086Y-108066114D01*
X143584992Y-108017210D01*
X143553471Y-107982999D01*
X143509659Y-107966476D01*
X143460695Y-107970634D01*
X143420894Y-107992227D01*
X143407450Y-108004544D01*
X143397921Y-108019487D01*
X143391485Y-108042075D01*
X143387317Y-108077328D01*
X143384597Y-108130266D01*
X143382502Y-108205907D01*
X143381960Y-108229857D01*
X143379981Y-108311790D01*
X143377731Y-108369455D01*
X143374357Y-108407608D01*
X143369006Y-108431004D01*
X143360824Y-108444398D01*
X143348959Y-108452545D01*
X143341362Y-108456144D01*
X143309102Y-108468452D01*
X143290111Y-108472514D01*
X143283836Y-108458948D01*
X143280006Y-108417934D01*
X143278600Y-108348999D01*
X143279598Y-108251669D01*
X143279908Y-108236657D01*
X143282101Y-108147859D01*
X143284693Y-108083019D01*
X143288382Y-108037067D01*
X143293864Y-108004935D01*
X143301835Y-107981553D01*
X143312993Y-107961852D01*
X143318830Y-107953410D01*
X143352296Y-107916057D01*
X143389727Y-107887003D01*
X143394309Y-107884467D01*
X143461426Y-107864443D01*
X143531926Y-107867755D01*
G37*
X143531926Y-107867755D02*
X143597858Y-107892084D01*
X143651273Y-107935117D01*
X143672164Y-107965409D01*
X143694939Y-108020994D01*
X143694466Y-108061186D01*
X143670562Y-108088217D01*
X143661717Y-108092813D01*
X143623530Y-108107144D01*
X143604028Y-108103472D01*
X143597422Y-108079407D01*
X143597086Y-108066114D01*
X143584992Y-108017210D01*
X143553471Y-107982999D01*
X143509659Y-107966476D01*
X143460695Y-107970634D01*
X143420894Y-107992227D01*
X143407450Y-108004544D01*
X143397921Y-108019487D01*
X143391485Y-108042075D01*
X143387317Y-108077328D01*
X143384597Y-108130266D01*
X143382502Y-108205907D01*
X143381960Y-108229857D01*
X143379981Y-108311790D01*
X143377731Y-108369455D01*
X143374357Y-108407608D01*
X143369006Y-108431004D01*
X143360824Y-108444398D01*
X143348959Y-108452545D01*
X143341362Y-108456144D01*
X143309102Y-108468452D01*
X143290111Y-108472514D01*
X143283836Y-108458948D01*
X143280006Y-108417934D01*
X143278600Y-108348999D01*
X143279598Y-108251669D01*
X143279908Y-108236657D01*
X143282101Y-108147859D01*
X143284693Y-108083019D01*
X143288382Y-108037067D01*
X143293864Y-108004935D01*
X143301835Y-107981553D01*
X143312993Y-107961852D01*
X143318830Y-107953410D01*
X143352296Y-107916057D01*
X143389727Y-107887003D01*
X143394309Y-107884467D01*
X143461426Y-107864443D01*
X143531926Y-107867755D01*
G36*
X144192117Y-107983358D02*
G01*
X144191933Y-108091837D01*
X144191219Y-108175287D01*
X144189675Y-108237704D01*
X144187001Y-108283085D01*
X144182894Y-108315429D01*
X144177055Y-108338733D01*
X144169182Y-108356995D01*
X144163221Y-108367418D01*
X144113855Y-108423945D01*
X144051264Y-108459377D01*
X143982013Y-108472090D01*
X143912668Y-108460463D01*
X143871375Y-108439568D01*
X143828025Y-108403422D01*
X143798481Y-108359276D01*
X143780655Y-108301462D01*
X143772463Y-108224313D01*
X143771302Y-108167714D01*
X143771458Y-108163647D01*
X143872857Y-108163647D01*
X143873476Y-108228550D01*
X143876314Y-108271514D01*
X143882840Y-108299622D01*
X143894523Y-108319953D01*
X143908483Y-108335288D01*
X143955365Y-108364890D01*
X144005701Y-108367419D01*
X144053276Y-108342705D01*
X144056979Y-108339356D01*
X144072783Y-108321935D01*
X144082693Y-108301209D01*
X144088058Y-108270362D01*
X144090228Y-108222577D01*
X144090571Y-108169748D01*
X144089827Y-108103381D01*
X144086748Y-108059106D01*
X144080061Y-108030009D01*
X144068496Y-108009173D01*
X144059013Y-107998107D01*
X144014960Y-107970198D01*
X143964224Y-107966843D01*
X143915796Y-107988159D01*
X143906450Y-107996073D01*
X143890540Y-108013647D01*
X143880610Y-108034587D01*
X143875278Y-108065782D01*
X143873163Y-108114122D01*
X143872857Y-108163647D01*
X143771458Y-108163647D01*
X143774810Y-108076568D01*
X143786726Y-108008086D01*
X143809135Y-107956600D01*
X143844124Y-107916443D01*
X143871375Y-107895861D01*
X143920907Y-107873625D01*
X143978316Y-107863304D01*
X144031682Y-107866067D01*
X144061543Y-107877212D01*
X144073261Y-107880383D01*
X144081037Y-107868557D01*
X144086465Y-107836866D01*
X144090571Y-107788593D01*
X144095067Y-107734829D01*
X144101313Y-107702482D01*
X144112676Y-107683985D01*
X144132528Y-107671770D01*
X144145000Y-107666362D01*
X144192171Y-107646601D01*
X144192117Y-107983358D01*
G37*
X144192117Y-107983358D02*
X144191933Y-108091837D01*
X144191219Y-108175287D01*
X144189675Y-108237704D01*
X144187001Y-108283085D01*
X144182894Y-108315429D01*
X144177055Y-108338733D01*
X144169182Y-108356995D01*
X144163221Y-108367418D01*
X144113855Y-108423945D01*
X144051264Y-108459377D01*
X143982013Y-108472090D01*
X143912668Y-108460463D01*
X143871375Y-108439568D01*
X143828025Y-108403422D01*
X143798481Y-108359276D01*
X143780655Y-108301462D01*
X143772463Y-108224313D01*
X143771302Y-108167714D01*
X143771458Y-108163647D01*
X143872857Y-108163647D01*
X143873476Y-108228550D01*
X143876314Y-108271514D01*
X143882840Y-108299622D01*
X143894523Y-108319953D01*
X143908483Y-108335288D01*
X143955365Y-108364890D01*
X144005701Y-108367419D01*
X144053276Y-108342705D01*
X144056979Y-108339356D01*
X144072783Y-108321935D01*
X144082693Y-108301209D01*
X144088058Y-108270362D01*
X144090228Y-108222577D01*
X144090571Y-108169748D01*
X144089827Y-108103381D01*
X144086748Y-108059106D01*
X144080061Y-108030009D01*
X144068496Y-108009173D01*
X144059013Y-107998107D01*
X144014960Y-107970198D01*
X143964224Y-107966843D01*
X143915796Y-107988159D01*
X143906450Y-107996073D01*
X143890540Y-108013647D01*
X143880610Y-108034587D01*
X143875278Y-108065782D01*
X143873163Y-108114122D01*
X143872857Y-108163647D01*
X143771458Y-108163647D01*
X143774810Y-108076568D01*
X143786726Y-108008086D01*
X143809135Y-107956600D01*
X143844124Y-107916443D01*
X143871375Y-107895861D01*
X143920907Y-107873625D01*
X143978316Y-107863304D01*
X144031682Y-107866067D01*
X144061543Y-107877212D01*
X144073261Y-107880383D01*
X144081037Y-107868557D01*
X144086465Y-107836866D01*
X144090571Y-107788593D01*
X144095067Y-107734829D01*
X144101313Y-107702482D01*
X144112676Y-107683985D01*
X144132528Y-107671770D01*
X144145000Y-107666362D01*
X144192171Y-107646601D01*
X144192117Y-107983358D01*
G36*
X144781833Y-107876663D02*
G01*
X144784048Y-107914850D01*
X144785784Y-107972886D01*
X144786899Y-108046180D01*
X144787257Y-108123055D01*
X144787257Y-108383196D01*
X144741326Y-108429127D01*
X144709675Y-108457429D01*
X144681890Y-108468893D01*
X144643915Y-108468168D01*
X144628840Y-108466321D01*
X144581726Y-108460948D01*
X144542756Y-108457869D01*
X144533257Y-108457585D01*
X144501233Y-108459445D01*
X144455432Y-108464114D01*
X144437674Y-108466321D01*
X144394057Y-108469735D01*
X144364745Y-108462320D01*
X144335680Y-108439427D01*
X144325188Y-108429127D01*
X144279257Y-108383196D01*
X144279257Y-107896602D01*
X144316226Y-107879758D01*
X144348059Y-107867282D01*
X144366683Y-107862914D01*
X144371458Y-107876718D01*
X144375921Y-107915286D01*
X144379775Y-107974356D01*
X144382722Y-108049663D01*
X144384143Y-108113286D01*
X144388114Y-108363657D01*
X144422759Y-108368556D01*
X144454268Y-108365131D01*
X144469708Y-108354041D01*
X144474023Y-108333308D01*
X144477708Y-108289145D01*
X144480469Y-108227146D01*
X144482012Y-108152909D01*
X144482235Y-108114706D01*
X144482457Y-107894783D01*
X144528166Y-107878849D01*
X144560518Y-107868015D01*
X144578115Y-107862962D01*
X144578623Y-107862914D01*
X144580388Y-107876648D01*
X144582329Y-107914730D01*
X144584282Y-107972482D01*
X144586084Y-108045227D01*
X144587343Y-108113286D01*
X144591314Y-108363657D01*
X144678400Y-108363657D01*
X144682396Y-108135240D01*
X144686392Y-107906822D01*
X144728847Y-107884868D01*
X144760192Y-107869793D01*
X144778744Y-107862951D01*
X144779279Y-107862914D01*
X144781833Y-107876663D01*
G37*
X144781833Y-107876663D02*
X144784048Y-107914850D01*
X144785784Y-107972886D01*
X144786899Y-108046180D01*
X144787257Y-108123055D01*
X144787257Y-108383196D01*
X144741326Y-108429127D01*
X144709675Y-108457429D01*
X144681890Y-108468893D01*
X144643915Y-108468168D01*
X144628840Y-108466321D01*
X144581726Y-108460948D01*
X144542756Y-108457869D01*
X144533257Y-108457585D01*
X144501233Y-108459445D01*
X144455432Y-108464114D01*
X144437674Y-108466321D01*
X144394057Y-108469735D01*
X144364745Y-108462320D01*
X144335680Y-108439427D01*
X144325188Y-108429127D01*
X144279257Y-108383196D01*
X144279257Y-107896602D01*
X144316226Y-107879758D01*
X144348059Y-107867282D01*
X144366683Y-107862914D01*
X144371458Y-107876718D01*
X144375921Y-107915286D01*
X144379775Y-107974356D01*
X144382722Y-108049663D01*
X144384143Y-108113286D01*
X144388114Y-108363657D01*
X144422759Y-108368556D01*
X144454268Y-108365131D01*
X144469708Y-108354041D01*
X144474023Y-108333308D01*
X144477708Y-108289145D01*
X144480469Y-108227146D01*
X144482012Y-108152909D01*
X144482235Y-108114706D01*
X144482457Y-107894783D01*
X144528166Y-107878849D01*
X144560518Y-107868015D01*
X144578115Y-107862962D01*
X144578623Y-107862914D01*
X144580388Y-107876648D01*
X144582329Y-107914730D01*
X144584282Y-107972482D01*
X144586084Y-108045227D01*
X144587343Y-108113286D01*
X144591314Y-108363657D01*
X144678400Y-108363657D01*
X144682396Y-108135240D01*
X144686392Y-107906822D01*
X144728847Y-107884868D01*
X144760192Y-107869793D01*
X144778744Y-107862951D01*
X144779279Y-107862914D01*
X144781833Y-107876663D01*
G36*
X145146876Y-107874335D02*
G01*
X145188667Y-107893344D01*
X145221469Y-107916378D01*
X145245503Y-107942133D01*
X145262097Y-107975358D01*
X145272577Y-108020800D01*
X145278271Y-108083207D01*
X145280507Y-108167327D01*
X145280743Y-108222721D01*
X145280743Y-108438826D01*
X145243774Y-108455670D01*
X145214656Y-108467981D01*
X145200231Y-108472514D01*
X145197472Y-108459025D01*
X145195282Y-108422653D01*
X145193942Y-108369542D01*
X145193657Y-108327372D01*
X145192434Y-108266447D01*
X145189136Y-108218115D01*
X145184321Y-108188518D01*
X145180496Y-108182229D01*
X145154783Y-108188652D01*
X145114418Y-108205125D01*
X145067679Y-108227458D01*
X145022845Y-108251457D01*
X144988193Y-108272930D01*
X144972002Y-108287685D01*
X144971938Y-108287845D01*
X144973330Y-108315152D01*
X144985818Y-108341219D01*
X145007743Y-108362392D01*
X145039743Y-108369474D01*
X145067092Y-108368649D01*
X145105826Y-108368042D01*
X145126158Y-108377116D01*
X145138369Y-108401092D01*
X145139909Y-108405613D01*
X145145203Y-108439806D01*
X145131047Y-108460568D01*
X145094148Y-108470462D01*
X145054289Y-108472292D01*
X144982562Y-108458727D01*
X144945432Y-108439355D01*
X144899576Y-108393845D01*
X144875256Y-108337983D01*
X144873073Y-108278957D01*
X144893629Y-108223953D01*
X144924549Y-108189486D01*
X144955420Y-108170189D01*
X145003942Y-108145759D01*
X145060485Y-108120985D01*
X145069910Y-108117199D01*
X145132019Y-108089791D01*
X145167822Y-108065634D01*
X145179337Y-108041619D01*
X145168580Y-108014635D01*
X145150114Y-107993543D01*
X145106469Y-107967572D01*
X145058446Y-107965624D01*
X145014406Y-107985637D01*
X144982709Y-108025551D01*
X144978549Y-108035848D01*
X144954327Y-108073724D01*
X144918965Y-108101842D01*
X144874343Y-108124917D01*
X144874343Y-108059485D01*
X144876969Y-108019506D01*
X144888230Y-107987997D01*
X144913199Y-107954378D01*
X144937169Y-107928484D01*
X144974441Y-107891817D01*
X145003401Y-107872121D01*
X145034505Y-107864220D01*
X145069713Y-107862914D01*
X145146876Y-107874335D01*
G37*
X145146876Y-107874335D02*
X145188667Y-107893344D01*
X145221469Y-107916378D01*
X145245503Y-107942133D01*
X145262097Y-107975358D01*
X145272577Y-108020800D01*
X145278271Y-108083207D01*
X145280507Y-108167327D01*
X145280743Y-108222721D01*
X145280743Y-108438826D01*
X145243774Y-108455670D01*
X145214656Y-108467981D01*
X145200231Y-108472514D01*
X145197472Y-108459025D01*
X145195282Y-108422653D01*
X145193942Y-108369542D01*
X145193657Y-108327372D01*
X145192434Y-108266447D01*
X145189136Y-108218115D01*
X145184321Y-108188518D01*
X145180496Y-108182229D01*
X145154783Y-108188652D01*
X145114418Y-108205125D01*
X145067679Y-108227458D01*
X145022845Y-108251457D01*
X144988193Y-108272930D01*
X144972002Y-108287685D01*
X144971938Y-108287845D01*
X144973330Y-108315152D01*
X144985818Y-108341219D01*
X145007743Y-108362392D01*
X145039743Y-108369474D01*
X145067092Y-108368649D01*
X145105826Y-108368042D01*
X145126158Y-108377116D01*
X145138369Y-108401092D01*
X145139909Y-108405613D01*
X145145203Y-108439806D01*
X145131047Y-108460568D01*
X145094148Y-108470462D01*
X145054289Y-108472292D01*
X144982562Y-108458727D01*
X144945432Y-108439355D01*
X144899576Y-108393845D01*
X144875256Y-108337983D01*
X144873073Y-108278957D01*
X144893629Y-108223953D01*
X144924549Y-108189486D01*
X144955420Y-108170189D01*
X145003942Y-108145759D01*
X145060485Y-108120985D01*
X145069910Y-108117199D01*
X145132019Y-108089791D01*
X145167822Y-108065634D01*
X145179337Y-108041619D01*
X145168580Y-108014635D01*
X145150114Y-107993543D01*
X145106469Y-107967572D01*
X145058446Y-107965624D01*
X145014406Y-107985637D01*
X144982709Y-108025551D01*
X144978549Y-108035848D01*
X144954327Y-108073724D01*
X144918965Y-108101842D01*
X144874343Y-108124917D01*
X144874343Y-108059485D01*
X144876969Y-108019506D01*
X144888230Y-107987997D01*
X144913199Y-107954378D01*
X144937169Y-107928484D01*
X144974441Y-107891817D01*
X145003401Y-107872121D01*
X145034505Y-107864220D01*
X145069713Y-107862914D01*
X145146876Y-107874335D01*
G36*
X145654600Y-107876752D02*
G01*
X145671948Y-107884334D01*
X145713356Y-107917128D01*
X145748765Y-107964547D01*
X145770664Y-108015151D01*
X145774229Y-108040098D01*
X145762279Y-108074927D01*
X145736067Y-108093357D01*
X145707964Y-108104516D01*
X145695095Y-108106572D01*
X145688829Y-108091649D01*
X145676456Y-108059175D01*
X145671028Y-108044502D01*
X145640590Y-107993744D01*
X145596520Y-107968427D01*
X145540010Y-107969206D01*
X145535825Y-107970203D01*
X145505655Y-107984507D01*
X145483476Y-108012393D01*
X145468327Y-108057287D01*
X145459250Y-108122615D01*
X145455286Y-108211804D01*
X145454914Y-108259261D01*
X145454730Y-108334071D01*
X145453522Y-108385069D01*
X145450309Y-108417471D01*
X145444109Y-108436495D01*
X145433940Y-108447356D01*
X145418819Y-108455272D01*
X145417946Y-108455670D01*
X145388828Y-108467981D01*
X145374403Y-108472514D01*
X145372186Y-108458809D01*
X145370289Y-108420925D01*
X145368847Y-108363715D01*
X145367998Y-108292027D01*
X145367829Y-108239565D01*
X145368692Y-108138047D01*
X145372070Y-108061032D01*
X145379142Y-108004023D01*
X145391088Y-107962526D01*
X145409090Y-107932043D01*
X145434327Y-107908080D01*
X145459247Y-107891355D01*
X145519171Y-107869097D01*
X145588911Y-107864076D01*
X145654600Y-107876752D01*
G37*
X145654600Y-107876752D02*
X145671948Y-107884334D01*
X145713356Y-107917128D01*
X145748765Y-107964547D01*
X145770664Y-108015151D01*
X145774229Y-108040098D01*
X145762279Y-108074927D01*
X145736067Y-108093357D01*
X145707964Y-108104516D01*
X145695095Y-108106572D01*
X145688829Y-108091649D01*
X145676456Y-108059175D01*
X145671028Y-108044502D01*
X145640590Y-107993744D01*
X145596520Y-107968427D01*
X145540010Y-107969206D01*
X145535825Y-107970203D01*
X145505655Y-107984507D01*
X145483476Y-108012393D01*
X145468327Y-108057287D01*
X145459250Y-108122615D01*
X145455286Y-108211804D01*
X145454914Y-108259261D01*
X145454730Y-108334071D01*
X145453522Y-108385069D01*
X145450309Y-108417471D01*
X145444109Y-108436495D01*
X145433940Y-108447356D01*
X145418819Y-108455272D01*
X145417946Y-108455670D01*
X145388828Y-108467981D01*
X145374403Y-108472514D01*
X145372186Y-108458809D01*
X145370289Y-108420925D01*
X145368847Y-108363715D01*
X145367998Y-108292027D01*
X145367829Y-108239565D01*
X145368692Y-108138047D01*
X145372070Y-108061032D01*
X145379142Y-108004023D01*
X145391088Y-107962526D01*
X145409090Y-107932043D01*
X145434327Y-107908080D01*
X145459247Y-107891355D01*
X145519171Y-107869097D01*
X145588911Y-107864076D01*
X145654600Y-107876752D01*
G36*
X146155595Y-107884966D02*
G01*
X146213021Y-107922497D01*
X146240719Y-107956096D01*
X146262662Y-108017064D01*
X146264405Y-108065308D01*
X146260457Y-108129816D01*
X146111686Y-108194934D01*
X146039349Y-108228202D01*
X145992084Y-108254964D01*
X145967507Y-108278144D01*
X145963237Y-108300667D01*
X145976889Y-108325455D01*
X145991943Y-108341886D01*
X146035746Y-108368235D01*
X146083389Y-108370081D01*
X146127145Y-108349546D01*
X146159289Y-108308752D01*
X146165038Y-108294347D01*
X146192576Y-108249356D01*
X146224258Y-108230182D01*
X146267714Y-108213779D01*
X146267714Y-108275966D01*
X146263872Y-108318283D01*
X146248823Y-108353969D01*
X146217280Y-108394943D01*
X146212592Y-108400267D01*
X146177506Y-108436720D01*
X146147347Y-108456283D01*
X146109615Y-108465283D01*
X146078335Y-108468230D01*
X146022385Y-108468965D01*
X145982555Y-108459660D01*
X145957708Y-108445846D01*
X145918656Y-108415467D01*
X145891625Y-108382613D01*
X145874517Y-108341294D01*
X145865238Y-108285521D01*
X145861693Y-108209305D01*
X145861410Y-108170622D01*
X145862372Y-108124247D01*
X145950007Y-108124247D01*
X145951023Y-108149126D01*
X145953556Y-108153200D01*
X145970274Y-108147665D01*
X146006249Y-108133017D01*
X146054331Y-108112190D01*
X146064386Y-108107714D01*
X146125152Y-108076814D01*
X146158632Y-108049657D01*
X146165990Y-108024220D01*
X146148391Y-107998481D01*
X146133856Y-107987109D01*
X146081410Y-107964364D01*
X146032322Y-107968122D01*
X145991227Y-107995884D01*
X145962758Y-108045152D01*
X145953631Y-108084257D01*
X145950007Y-108124247D01*
X145862372Y-108124247D01*
X145863285Y-108080249D01*
X145870196Y-108013384D01*
X145883884Y-107964695D01*
X145906096Y-107928849D01*
X145938574Y-107900513D01*
X145952733Y-107891355D01*
X146017053Y-107867507D01*
X146087473Y-107866006D01*
X146155595Y-107884966D01*
G37*
X146155595Y-107884966D02*
X146213021Y-107922497D01*
X146240719Y-107956096D01*
X146262662Y-108017064D01*
X146264405Y-108065308D01*
X146260457Y-108129816D01*
X146111686Y-108194934D01*
X146039349Y-108228202D01*
X145992084Y-108254964D01*
X145967507Y-108278144D01*
X145963237Y-108300667D01*
X145976889Y-108325455D01*
X145991943Y-108341886D01*
X146035746Y-108368235D01*
X146083389Y-108370081D01*
X146127145Y-108349546D01*
X146159289Y-108308752D01*
X146165038Y-108294347D01*
X146192576Y-108249356D01*
X146224258Y-108230182D01*
X146267714Y-108213779D01*
X146267714Y-108275966D01*
X146263872Y-108318283D01*
X146248823Y-108353969D01*
X146217280Y-108394943D01*
X146212592Y-108400267D01*
X146177506Y-108436720D01*
X146147347Y-108456283D01*
X146109615Y-108465283D01*
X146078335Y-108468230D01*
X146022385Y-108468965D01*
X145982555Y-108459660D01*
X145957708Y-108445846D01*
X145918656Y-108415467D01*
X145891625Y-108382613D01*
X145874517Y-108341294D01*
X145865238Y-108285521D01*
X145861693Y-108209305D01*
X145861410Y-108170622D01*
X145862372Y-108124247D01*
X145950007Y-108124247D01*
X145951023Y-108149126D01*
X145953556Y-108153200D01*
X145970274Y-108147665D01*
X146006249Y-108133017D01*
X146054331Y-108112190D01*
X146064386Y-108107714D01*
X146125152Y-108076814D01*
X146158632Y-108049657D01*
X146165990Y-108024220D01*
X146148391Y-107998481D01*
X146133856Y-107987109D01*
X146081410Y-107964364D01*
X146032322Y-107968122D01*
X145991227Y-107995884D01*
X145962758Y-108045152D01*
X145953631Y-108084257D01*
X145950007Y-108124247D01*
X145862372Y-108124247D01*
X145863285Y-108080249D01*
X145870196Y-108013384D01*
X145883884Y-107964695D01*
X145906096Y-107928849D01*
X145938574Y-107900513D01*
X145952733Y-107891355D01*
X146017053Y-107867507D01*
X146087473Y-107866006D01*
X146155595Y-107884966D01*
G36*
X143105910Y-103160348D02*
G01*
X143184454Y-103160778D01*
X143241298Y-103161942D01*
X143280105Y-103164207D01*
X143304538Y-103167940D01*
X143318262Y-103173506D01*
X143324940Y-103181273D01*
X143328236Y-103191605D01*
X143328556Y-103192943D01*
X143333562Y-103217079D01*
X143342829Y-103264701D01*
X143355392Y-103330741D01*
X143370287Y-103410128D01*
X143386551Y-103497796D01*
X143387119Y-103500875D01*
X143403410Y-103586789D01*
X143418652Y-103662696D01*
X143431861Y-103724045D01*
X143442054Y-103766282D01*
X143448248Y-103784855D01*
X143448543Y-103785184D01*
X143466788Y-103794253D01*
X143504405Y-103809367D01*
X143553271Y-103827262D01*
X143553543Y-103827358D01*
X143615093Y-103850493D01*
X143687657Y-103879965D01*
X143756057Y-103909597D01*
X143759294Y-103911062D01*
X143870702Y-103961626D01*
X144117399Y-103793160D01*
X144193077Y-103741803D01*
X144261631Y-103695889D01*
X144319088Y-103658030D01*
X144361476Y-103630837D01*
X144384825Y-103616921D01*
X144387042Y-103615889D01*
X144404010Y-103620484D01*
X144435701Y-103642655D01*
X144483352Y-103683447D01*
X144548198Y-103743905D01*
X144614397Y-103808227D01*
X144678214Y-103871612D01*
X144735329Y-103929451D01*
X144782305Y-103978175D01*
X144815703Y-104014210D01*
X144832085Y-104033984D01*
X144832694Y-104035002D01*
X144834505Y-104048572D01*
X144827683Y-104070733D01*
X144810540Y-104104478D01*
X144781393Y-104152800D01*
X144738555Y-104218692D01*
X144681448Y-104303517D01*
X144630766Y-104378177D01*
X144585461Y-104445140D01*
X144548150Y-104500516D01*
X144521452Y-104540420D01*
X144507985Y-104560962D01*
X144507137Y-104562356D01*
X144508781Y-104582038D01*
X144521245Y-104620293D01*
X144542048Y-104669889D01*
X144549462Y-104685728D01*
X144581814Y-104756290D01*
X144616328Y-104836353D01*
X144644365Y-104905629D01*
X144664568Y-104957045D01*
X144680615Y-104996119D01*
X144689888Y-105016541D01*
X144691041Y-105018114D01*
X144708096Y-105020721D01*
X144748298Y-105027863D01*
X144806302Y-105038523D01*
X144876763Y-105051685D01*
X144954335Y-105066333D01*
X145033672Y-105081449D01*
X145109431Y-105096018D01*
X145176264Y-105109022D01*
X145228828Y-105119445D01*
X145261776Y-105126270D01*
X145269857Y-105128199D01*
X145278205Y-105132962D01*
X145284506Y-105143718D01*
X145289045Y-105164098D01*
X145292104Y-105197734D01*
X145293967Y-105248255D01*
X145294918Y-105319292D01*
X145295240Y-105414476D01*
X145295257Y-105453492D01*
X145295257Y-105770799D01*
X145219057Y-105785839D01*
X145176663Y-105793995D01*
X145113400Y-105805899D01*
X145036962Y-105820116D01*
X144955043Y-105835210D01*
X144932400Y-105839355D01*
X144856806Y-105854053D01*
X144790953Y-105868505D01*
X144740366Y-105881375D01*
X144710574Y-105891322D01*
X144705612Y-105894287D01*
X144693426Y-105915283D01*
X144675953Y-105955967D01*
X144656577Y-106008322D01*
X144652734Y-106019600D01*
X144627339Y-106089523D01*
X144595817Y-106168418D01*
X144564969Y-106239266D01*
X144564817Y-106239595D01*
X144513447Y-106350733D01*
X144682399Y-106599253D01*
X144851352Y-106847772D01*
X144634429Y-107065058D01*
X144568819Y-107129726D01*
X144508979Y-107186733D01*
X144458267Y-107233033D01*
X144420046Y-107265584D01*
X144397675Y-107281343D01*
X144394466Y-107282343D01*
X144375626Y-107274469D01*
X144337180Y-107252578D01*
X144283330Y-107219267D01*
X144218276Y-107177131D01*
X144147940Y-107129943D01*
X144076555Y-107081810D01*
X144012908Y-107039928D01*
X143961041Y-107006871D01*
X143924995Y-106985218D01*
X143908867Y-106977543D01*
X143889189Y-106984037D01*
X143851875Y-107001150D01*
X143804621Y-107025326D01*
X143799612Y-107028013D01*
X143735977Y-107059927D01*
X143692341Y-107075579D01*
X143665202Y-107075745D01*
X143651057Y-107061204D01*
X143650975Y-107061000D01*
X143643905Y-107043779D01*
X143627042Y-107002899D01*
X143601695Y-106941525D01*
X143569171Y-106862819D01*
X143530778Y-106769947D01*
X143487822Y-106666072D01*
X143446222Y-106565502D01*
X143400504Y-106454516D01*
X143358526Y-106351703D01*
X143321548Y-106260215D01*
X143290827Y-106183201D01*
X143267622Y-106123815D01*
X143253190Y-106085209D01*
X143248743Y-106070800D01*
X143259896Y-106054272D01*
X143289069Y-106027930D01*
X143327971Y-105998887D01*
X143438757Y-105907039D01*
X143525351Y-105801759D01*
X143586716Y-105685266D01*
X143621815Y-105559776D01*
X143629608Y-105427507D01*
X143623943Y-105366457D01*
X143593078Y-105239795D01*
X143539920Y-105127941D01*
X143467767Y-105032001D01*
X143379917Y-104953076D01*
X143279665Y-104892270D01*
X143170310Y-104850687D01*
X143055147Y-104829428D01*
X142937475Y-104829599D01*
X142820590Y-104852301D01*
X142707789Y-104898638D01*
X142602369Y-104969713D01*
X142558368Y-105009911D01*
X142473979Y-105113129D01*
X142415222Y-105225925D01*
X142381704Y-105345010D01*
X142373035Y-105467095D01*
X142388823Y-105588893D01*
X142428678Y-105707116D01*
X142492207Y-105818475D01*
X142579021Y-105919684D01*
X142676029Y-105998887D01*
X142716437Y-106029162D01*
X142744982Y-106055219D01*
X142755257Y-106070825D01*
X142749877Y-106087843D01*
X142734575Y-106128500D01*
X142710612Y-106189642D01*
X142679244Y-106268119D01*
X142641732Y-106360780D01*
X142599333Y-106464472D01*
X142557663Y-106565526D01*
X142511690Y-106676607D01*
X142469107Y-106779541D01*
X142431221Y-106871165D01*
X142399340Y-106948316D01*
X142374771Y-107007831D01*
X142358820Y-107046544D01*
X142352910Y-107061000D01*
X142338948Y-107075685D01*
X142311940Y-107075642D01*
X142268413Y-107060099D01*
X142204890Y-107028284D01*
X142204388Y-107028013D01*
X142156560Y-107003323D01*
X142117897Y-106985338D01*
X142096095Y-106977614D01*
X142095133Y-106977543D01*
X142078721Y-106985378D01*
X142042487Y-107007165D01*
X141990474Y-107040328D01*
X141926725Y-107082291D01*
X141856060Y-107129943D01*
X141784116Y-107178191D01*
X141719274Y-107220151D01*
X141665735Y-107253227D01*
X141627697Y-107274821D01*
X141609533Y-107282343D01*
X141592808Y-107272457D01*
X141559180Y-107244826D01*
X141512010Y-107202495D01*
X141454658Y-107148505D01*
X141390484Y-107085899D01*
X141369497Y-107064983D01*
X141152499Y-106847623D01*
X141317668Y-106605220D01*
X141367864Y-106530781D01*
X141411919Y-106463972D01*
X141447362Y-106408665D01*
X141471719Y-106368729D01*
X141482522Y-106348036D01*
X141482838Y-106346563D01*
X141477143Y-106327058D01*
X141461826Y-106287822D01*
X141439537Y-106235430D01*
X141423893Y-106200355D01*
X141394641Y-106133201D01*
X141367094Y-106065358D01*
X141345737Y-106008034D01*
X141339935Y-105990572D01*
X141323452Y-105943938D01*
X141307340Y-105907905D01*
X141298490Y-105894287D01*
X141278960Y-105885952D01*
X141236334Y-105874137D01*
X141176145Y-105860181D01*
X141103922Y-105845422D01*
X141071600Y-105839355D01*
X140989522Y-105824273D01*
X140910795Y-105809669D01*
X140843109Y-105796980D01*
X140794160Y-105787642D01*
X140784943Y-105785839D01*
X140708743Y-105770799D01*
X140708743Y-105453492D01*
X140708914Y-105349154D01*
X140709616Y-105270213D01*
X140711134Y-105213038D01*
X140713749Y-105173999D01*
X140717746Y-105149465D01*
X140723409Y-105135805D01*
X140731020Y-105129389D01*
X140734143Y-105128199D01*
X140752978Y-105123980D01*
X140794588Y-105115562D01*
X140853630Y-105103961D01*
X140924757Y-105090195D01*
X141002625Y-105075280D01*
X141081887Y-105060232D01*
X141157198Y-105046069D01*
X141223213Y-105033806D01*
X141274587Y-105024461D01*
X141305975Y-105019050D01*
X141312959Y-105018114D01*
X141319285Y-105005596D01*
X141333290Y-104972246D01*
X141352355Y-104924377D01*
X141359634Y-104905629D01*
X141388996Y-104833195D01*
X141423571Y-104753170D01*
X141454537Y-104685728D01*
X141477323Y-104634159D01*
X141492482Y-104591785D01*
X141497542Y-104565834D01*
X141496736Y-104562356D01*
X141486041Y-104545936D01*
X141461620Y-104509417D01*
X141426095Y-104456687D01*
X141382087Y-104391635D01*
X141332217Y-104318151D01*
X141322356Y-104303645D01*
X141264492Y-104217704D01*
X141221956Y-104152261D01*
X141193054Y-104104304D01*
X141176090Y-104070820D01*
X141169367Y-104048795D01*
X141171190Y-104035217D01*
X141171236Y-104035131D01*
X141185586Y-104017297D01*
X141217323Y-103982817D01*
X141263010Y-103935268D01*
X141319204Y-103878222D01*
X141382468Y-103815255D01*
X141389602Y-103808227D01*
X141469330Y-103731020D01*
X141530857Y-103674330D01*
X141575421Y-103637110D01*
X141604257Y-103618315D01*
X141616958Y-103615889D01*
X141635494Y-103626471D01*
X141673961Y-103650916D01*
X141728386Y-103686612D01*
X141794798Y-103730947D01*
X141869225Y-103781311D01*
X141886601Y-103793160D01*
X142133297Y-103961626D01*
X142244706Y-103911062D01*
X142312457Y-103881595D01*
X142385183Y-103851959D01*
X142447703Y-103828330D01*
X142450457Y-103827358D01*
X142499360Y-103809457D01*
X142537057Y-103794320D01*
X142555425Y-103785210D01*
X142555456Y-103785184D01*
X142561285Y-103768717D01*
X142571192Y-103728219D01*
X142584195Y-103668242D01*
X142599309Y-103593340D01*
X142615552Y-103508064D01*
X142616881Y-103500875D01*
X142633175Y-103413014D01*
X142648133Y-103333260D01*
X142660791Y-103266681D01*
X142670186Y-103218347D01*
X142675354Y-103193325D01*
X142675444Y-103192943D01*
X142678589Y-103182299D01*
X142684704Y-103174262D01*
X142697453Y-103168467D01*
X142720500Y-103164547D01*
X142757509Y-103162135D01*
X142812144Y-103160865D01*
X142888067Y-103160371D01*
X142988944Y-103160286D01*
X143002000Y-103160286D01*
X143105910Y-103160348D01*
G37*
X143105910Y-103160348D02*
X143184454Y-103160778D01*
X143241298Y-103161942D01*
X143280105Y-103164207D01*
X143304538Y-103167940D01*
X143318262Y-103173506D01*
X143324940Y-103181273D01*
X143328236Y-103191605D01*
X143328556Y-103192943D01*
X143333562Y-103217079D01*
X143342829Y-103264701D01*
X143355392Y-103330741D01*
X143370287Y-103410128D01*
X143386551Y-103497796D01*
X143387119Y-103500875D01*
X143403410Y-103586789D01*
X143418652Y-103662696D01*
X143431861Y-103724045D01*
X143442054Y-103766282D01*
X143448248Y-103784855D01*
X143448543Y-103785184D01*
X143466788Y-103794253D01*
X143504405Y-103809367D01*
X143553271Y-103827262D01*
X143553543Y-103827358D01*
X143615093Y-103850493D01*
X143687657Y-103879965D01*
X143756057Y-103909597D01*
X143759294Y-103911062D01*
X143870702Y-103961626D01*
X144117399Y-103793160D01*
X144193077Y-103741803D01*
X144261631Y-103695889D01*
X144319088Y-103658030D01*
X144361476Y-103630837D01*
X144384825Y-103616921D01*
X144387042Y-103615889D01*
X144404010Y-103620484D01*
X144435701Y-103642655D01*
X144483352Y-103683447D01*
X144548198Y-103743905D01*
X144614397Y-103808227D01*
X144678214Y-103871612D01*
X144735329Y-103929451D01*
X144782305Y-103978175D01*
X144815703Y-104014210D01*
X144832085Y-104033984D01*
X144832694Y-104035002D01*
X144834505Y-104048572D01*
X144827683Y-104070733D01*
X144810540Y-104104478D01*
X144781393Y-104152800D01*
X144738555Y-104218692D01*
X144681448Y-104303517D01*
X144630766Y-104378177D01*
X144585461Y-104445140D01*
X144548150Y-104500516D01*
X144521452Y-104540420D01*
X144507985Y-104560962D01*
X144507137Y-104562356D01*
X144508781Y-104582038D01*
X144521245Y-104620293D01*
X144542048Y-104669889D01*
X144549462Y-104685728D01*
X144581814Y-104756290D01*
X144616328Y-104836353D01*
X144644365Y-104905629D01*
X144664568Y-104957045D01*
X144680615Y-104996119D01*
X144689888Y-105016541D01*
X144691041Y-105018114D01*
X144708096Y-105020721D01*
X144748298Y-105027863D01*
X144806302Y-105038523D01*
X144876763Y-105051685D01*
X144954335Y-105066333D01*
X145033672Y-105081449D01*
X145109431Y-105096018D01*
X145176264Y-105109022D01*
X145228828Y-105119445D01*
X145261776Y-105126270D01*
X145269857Y-105128199D01*
X145278205Y-105132962D01*
X145284506Y-105143718D01*
X145289045Y-105164098D01*
X145292104Y-105197734D01*
X145293967Y-105248255D01*
X145294918Y-105319292D01*
X145295240Y-105414476D01*
X145295257Y-105453492D01*
X145295257Y-105770799D01*
X145219057Y-105785839D01*
X145176663Y-105793995D01*
X145113400Y-105805899D01*
X145036962Y-105820116D01*
X144955043Y-105835210D01*
X144932400Y-105839355D01*
X144856806Y-105854053D01*
X144790953Y-105868505D01*
X144740366Y-105881375D01*
X144710574Y-105891322D01*
X144705612Y-105894287D01*
X144693426Y-105915283D01*
X144675953Y-105955967D01*
X144656577Y-106008322D01*
X144652734Y-106019600D01*
X144627339Y-106089523D01*
X144595817Y-106168418D01*
X144564969Y-106239266D01*
X144564817Y-106239595D01*
X144513447Y-106350733D01*
X144682399Y-106599253D01*
X144851352Y-106847772D01*
X144634429Y-107065058D01*
X144568819Y-107129726D01*
X144508979Y-107186733D01*
X144458267Y-107233033D01*
X144420046Y-107265584D01*
X144397675Y-107281343D01*
X144394466Y-107282343D01*
X144375626Y-107274469D01*
X144337180Y-107252578D01*
X144283330Y-107219267D01*
X144218276Y-107177131D01*
X144147940Y-107129943D01*
X144076555Y-107081810D01*
X144012908Y-107039928D01*
X143961041Y-107006871D01*
X143924995Y-106985218D01*
X143908867Y-106977543D01*
X143889189Y-106984037D01*
X143851875Y-107001150D01*
X143804621Y-107025326D01*
X143799612Y-107028013D01*
X143735977Y-107059927D01*
X143692341Y-107075579D01*
X143665202Y-107075745D01*
X143651057Y-107061204D01*
X143650975Y-107061000D01*
X143643905Y-107043779D01*
X143627042Y-107002899D01*
X143601695Y-106941525D01*
X143569171Y-106862819D01*
X143530778Y-106769947D01*
X143487822Y-106666072D01*
X143446222Y-106565502D01*
X143400504Y-106454516D01*
X143358526Y-106351703D01*
X143321548Y-106260215D01*
X143290827Y-106183201D01*
X143267622Y-106123815D01*
X143253190Y-106085209D01*
X143248743Y-106070800D01*
X143259896Y-106054272D01*
X143289069Y-106027930D01*
X143327971Y-105998887D01*
X143438757Y-105907039D01*
X143525351Y-105801759D01*
X143586716Y-105685266D01*
X143621815Y-105559776D01*
X143629608Y-105427507D01*
X143623943Y-105366457D01*
X143593078Y-105239795D01*
X143539920Y-105127941D01*
X143467767Y-105032001D01*
X143379917Y-104953076D01*
X143279665Y-104892270D01*
X143170310Y-104850687D01*
X143055147Y-104829428D01*
X142937475Y-104829599D01*
X142820590Y-104852301D01*
X142707789Y-104898638D01*
X142602369Y-104969713D01*
X142558368Y-105009911D01*
X142473979Y-105113129D01*
X142415222Y-105225925D01*
X142381704Y-105345010D01*
X142373035Y-105467095D01*
X142388823Y-105588893D01*
X142428678Y-105707116D01*
X142492207Y-105818475D01*
X142579021Y-105919684D01*
X142676029Y-105998887D01*
X142716437Y-106029162D01*
X142744982Y-106055219D01*
X142755257Y-106070825D01*
X142749877Y-106087843D01*
X142734575Y-106128500D01*
X142710612Y-106189642D01*
X142679244Y-106268119D01*
X142641732Y-106360780D01*
X142599333Y-106464472D01*
X142557663Y-106565526D01*
X142511690Y-106676607D01*
X142469107Y-106779541D01*
X142431221Y-106871165D01*
X142399340Y-106948316D01*
X142374771Y-107007831D01*
X142358820Y-107046544D01*
X142352910Y-107061000D01*
X142338948Y-107075685D01*
X142311940Y-107075642D01*
X142268413Y-107060099D01*
X142204890Y-107028284D01*
X142204388Y-107028013D01*
X142156560Y-107003323D01*
X142117897Y-106985338D01*
X142096095Y-106977614D01*
X142095133Y-106977543D01*
X142078721Y-106985378D01*
X142042487Y-107007165D01*
X141990474Y-107040328D01*
X141926725Y-107082291D01*
X141856060Y-107129943D01*
X141784116Y-107178191D01*
X141719274Y-107220151D01*
X141665735Y-107253227D01*
X141627697Y-107274821D01*
X141609533Y-107282343D01*
X141592808Y-107272457D01*
X141559180Y-107244826D01*
X141512010Y-107202495D01*
X141454658Y-107148505D01*
X141390484Y-107085899D01*
X141369497Y-107064983D01*
X141152499Y-106847623D01*
X141317668Y-106605220D01*
X141367864Y-106530781D01*
X141411919Y-106463972D01*
X141447362Y-106408665D01*
X141471719Y-106368729D01*
X141482522Y-106348036D01*
X141482838Y-106346563D01*
X141477143Y-106327058D01*
X141461826Y-106287822D01*
X141439537Y-106235430D01*
X141423893Y-106200355D01*
X141394641Y-106133201D01*
X141367094Y-106065358D01*
X141345737Y-106008034D01*
X141339935Y-105990572D01*
X141323452Y-105943938D01*
X141307340Y-105907905D01*
X141298490Y-105894287D01*
X141278960Y-105885952D01*
X141236334Y-105874137D01*
X141176145Y-105860181D01*
X141103922Y-105845422D01*
X141071600Y-105839355D01*
X140989522Y-105824273D01*
X140910795Y-105809669D01*
X140843109Y-105796980D01*
X140794160Y-105787642D01*
X140784943Y-105785839D01*
X140708743Y-105770799D01*
X140708743Y-105453492D01*
X140708914Y-105349154D01*
X140709616Y-105270213D01*
X140711134Y-105213038D01*
X140713749Y-105173999D01*
X140717746Y-105149465D01*
X140723409Y-105135805D01*
X140731020Y-105129389D01*
X140734143Y-105128199D01*
X140752978Y-105123980D01*
X140794588Y-105115562D01*
X140853630Y-105103961D01*
X140924757Y-105090195D01*
X141002625Y-105075280D01*
X141081887Y-105060232D01*
X141157198Y-105046069D01*
X141223213Y-105033806D01*
X141274587Y-105024461D01*
X141305975Y-105019050D01*
X141312959Y-105018114D01*
X141319285Y-105005596D01*
X141333290Y-104972246D01*
X141352355Y-104924377D01*
X141359634Y-104905629D01*
X141388996Y-104833195D01*
X141423571Y-104753170D01*
X141454537Y-104685728D01*
X141477323Y-104634159D01*
X141492482Y-104591785D01*
X141497542Y-104565834D01*
X141496736Y-104562356D01*
X141486041Y-104545936D01*
X141461620Y-104509417D01*
X141426095Y-104456687D01*
X141382087Y-104391635D01*
X141332217Y-104318151D01*
X141322356Y-104303645D01*
X141264492Y-104217704D01*
X141221956Y-104152261D01*
X141193054Y-104104304D01*
X141176090Y-104070820D01*
X141169367Y-104048795D01*
X141171190Y-104035217D01*
X141171236Y-104035131D01*
X141185586Y-104017297D01*
X141217323Y-103982817D01*
X141263010Y-103935268D01*
X141319204Y-103878222D01*
X141382468Y-103815255D01*
X141389602Y-103808227D01*
X141469330Y-103731020D01*
X141530857Y-103674330D01*
X141575421Y-103637110D01*
X141604257Y-103618315D01*
X141616958Y-103615889D01*
X141635494Y-103626471D01*
X141673961Y-103650916D01*
X141728386Y-103686612D01*
X141794798Y-103730947D01*
X141869225Y-103781311D01*
X141886601Y-103793160D01*
X142133297Y-103961626D01*
X142244706Y-103911062D01*
X142312457Y-103881595D01*
X142385183Y-103851959D01*
X142447703Y-103828330D01*
X142450457Y-103827358D01*
X142499360Y-103809457D01*
X142537057Y-103794320D01*
X142555425Y-103785210D01*
X142555456Y-103785184D01*
X142561285Y-103768717D01*
X142571192Y-103728219D01*
X142584195Y-103668242D01*
X142599309Y-103593340D01*
X142615552Y-103508064D01*
X142616881Y-103500875D01*
X142633175Y-103413014D01*
X142648133Y-103333260D01*
X142660791Y-103266681D01*
X142670186Y-103218347D01*
X142675354Y-103193325D01*
X142675444Y-103192943D01*
X142678589Y-103182299D01*
X142684704Y-103174262D01*
X142697453Y-103168467D01*
X142720500Y-103164547D01*
X142757509Y-103162135D01*
X142812144Y-103160865D01*
X142888067Y-103160371D01*
X142988944Y-103160286D01*
X143002000Y-103160286D01*
X143105910Y-103160348D01*
D12*
%TO.C,L1*%
X147359500Y-90652000D02*
X145859500Y-90652000D01*
X136739500Y-90652000D02*
X138239500Y-90652000D01*
X147359500Y-90652000D02*
X147359500Y-92152000D01*
X136739500Y-90652000D02*
X136739500Y-92152000D01*
X136739500Y-101372000D02*
X136739500Y-99872000D01*
X136739500Y-101372000D02*
X138239500Y-101372000D01*
X147359500Y-101372000D02*
X145859500Y-101372000D01*
X147359500Y-101372000D02*
X147359500Y-99872000D01*
%TO.C,J6*%
X138352000Y-72136000D02*
G75*
G03*
X138352000Y-72136000I-1700000J0D01*
G01*
%TO.C,J5*%
X138352000Y-58674000D02*
G75*
G03*
X138352000Y-58674000I-1700000J0D01*
G01*
%TO.C,J4*%
X141654000Y-70104000D02*
G75*
G03*
X141654000Y-70104000I-1700000J0D01*
G01*
%TO.C,J3*%
X138352000Y-65278000D02*
G75*
G03*
X138352000Y-65278000I-1700000J0D01*
G01*
%TO.C,J2*%
X141654000Y-73914000D02*
G75*
G03*
X141654000Y-73914000I-1700000J0D01*
G01*
%TO.C,J1*%
X150544000Y-106172000D02*
G75*
G03*
X150544000Y-106172000I-1700000J0D01*
G01*
%TO.C,R23*%
X153436500Y-103562064D02*
X153436500Y-103107936D01*
X151966500Y-103562064D02*
X151966500Y-103107936D01*
%TO.C,R22*%
X139673000Y-103454564D02*
X139673000Y-103000436D01*
X138203000Y-103454564D02*
X138203000Y-103000436D01*
%TO.C,L2*%
X161123000Y-90759500D02*
X159623000Y-90759500D01*
X150503000Y-90759500D02*
X152003000Y-90759500D01*
X161123000Y-90759500D02*
X161123000Y-92259500D01*
X150503000Y-90759500D02*
X150503000Y-92259500D01*
X150503000Y-101479500D02*
X150503000Y-99979500D01*
X150503000Y-101479500D02*
X152003000Y-101479500D01*
X161123000Y-101479500D02*
X159623000Y-101479500D01*
X161123000Y-101479500D02*
X161123000Y-99979500D01*
%TO.C,U3*%
X159328000Y-83430500D02*
X159328000Y-81630500D01*
X156108000Y-81630500D02*
X156108000Y-84080500D01*
%TO.C,R19*%
X155659064Y-80217500D02*
X155204936Y-80217500D01*
X155659064Y-78747500D02*
X155204936Y-78747500D01*
%TO.C,R18*%
X160993000Y-78239436D02*
X160993000Y-78693564D01*
X159523000Y-78239436D02*
X159523000Y-78693564D01*
%TO.C,R17*%
X155204936Y-76715500D02*
X155659064Y-76715500D01*
X155204936Y-78185500D02*
X155659064Y-78185500D01*
%TO.C,R12*%
X161628500Y-79334564D02*
X161628500Y-78880436D01*
X163098500Y-79334564D02*
X163098500Y-78880436D01*
%TO.C,R11*%
X160028500Y-82934564D02*
X160028500Y-82480436D01*
X161498500Y-82934564D02*
X161498500Y-82480436D01*
%TO.C,C18*%
X153252000Y-88829752D02*
X153252000Y-87407248D01*
X155072000Y-88829752D02*
X155072000Y-87407248D01*
%TO.C,C17*%
X150712000Y-88829752D02*
X150712000Y-87407248D01*
X152532000Y-88829752D02*
X152532000Y-87407248D01*
%TO.C,C16*%
X158961000Y-78205248D02*
X158961000Y-78727752D01*
X157491000Y-78205248D02*
X157491000Y-78727752D01*
%TO.C,C14*%
X153935000Y-83045752D02*
X153935000Y-82523248D01*
X155405000Y-83045752D02*
X155405000Y-82523248D01*
%TO.C,C12*%
X158683252Y-90298500D02*
X157260748Y-90298500D01*
X158683252Y-88478500D02*
X157260748Y-88478500D01*
%TO.C,C11*%
X157979252Y-87837500D02*
X157456748Y-87837500D01*
X157979252Y-86367500D02*
X157456748Y-86367500D01*
%TO.C,F2*%
X161381221Y-62736000D02*
X161706779Y-62736000D01*
X161381221Y-63756000D02*
X161706779Y-63756000D01*
%TO.C,C4*%
X140171500Y-82938252D02*
X140171500Y-82415748D01*
X141641500Y-82938252D02*
X141641500Y-82415748D01*
%TO.C,U2*%
X153279000Y-62806500D02*
X155229000Y-62806500D01*
X153279000Y-62806500D02*
X151329000Y-62806500D01*
X153279000Y-57686500D02*
X155229000Y-57686500D01*
X153279000Y-57686500D02*
X149829000Y-57686500D01*
%TO.C,U1*%
X145564500Y-83323000D02*
X145564500Y-81523000D01*
X142344500Y-81523000D02*
X142344500Y-83973000D01*
%TO.C,R21*%
X147166064Y-63282500D02*
X146711936Y-63282500D01*
X147166064Y-61812500D02*
X146711936Y-61812500D01*
%TO.C,R20*%
X146711936Y-57748500D02*
X147166064Y-57748500D01*
X146711936Y-59218500D02*
X147166064Y-59218500D01*
%TO.C,R16*%
X154839936Y-63400000D02*
X155294064Y-63400000D01*
X154839936Y-64870000D02*
X155294064Y-64870000D01*
%TO.C,R15*%
X144245000Y-58446936D02*
X144245000Y-58901064D01*
X142775000Y-58446936D02*
X142775000Y-58901064D01*
%TO.C,R14*%
X161263000Y-58446936D02*
X161263000Y-58901064D01*
X159793000Y-58446936D02*
X159793000Y-58901064D01*
%TO.C,R13*%
X159231000Y-62193436D02*
X159231000Y-62647564D01*
X157761000Y-62193436D02*
X157761000Y-62647564D01*
%TO.C,R10*%
X147166064Y-61250500D02*
X146711936Y-61250500D01*
X147166064Y-59780500D02*
X146711936Y-59780500D01*
%TO.C,R9*%
X143790936Y-72671000D02*
X144245064Y-72671000D01*
X143790936Y-74141000D02*
X144245064Y-74141000D01*
%TO.C,R8*%
X151665000Y-70839064D02*
X151665000Y-70384936D01*
X153135000Y-70839064D02*
X153135000Y-70384936D01*
%TO.C,R7*%
X141895564Y-80110000D02*
X141441436Y-80110000D01*
X141895564Y-78640000D02*
X141441436Y-78640000D01*
%TO.C,R6*%
X147229500Y-78131936D02*
X147229500Y-78586064D01*
X145759500Y-78131936D02*
X145759500Y-78586064D01*
%TO.C,R5*%
X141441436Y-76608000D02*
X141895564Y-76608000D01*
X141441436Y-78078000D02*
X141895564Y-78078000D01*
%TO.C,R4*%
X151865064Y-67029000D02*
X151410936Y-67029000D01*
X151865064Y-65559000D02*
X151410936Y-65559000D01*
%TO.C,R3*%
X158977000Y-68479936D02*
X158977000Y-68934064D01*
X157507000Y-68479936D02*
X157507000Y-68934064D01*
%TO.C,R2*%
X147865000Y-79227064D02*
X147865000Y-78772936D01*
X149335000Y-79227064D02*
X149335000Y-78772936D01*
%TO.C,R1*%
X146265000Y-82827064D02*
X146265000Y-82372936D01*
X147735000Y-82827064D02*
X147735000Y-82372936D01*
%TO.C,Q2*%
X149154000Y-69852000D02*
X148224000Y-69852000D01*
X145994000Y-69852000D02*
X146924000Y-69852000D01*
X145994000Y-69852000D02*
X145994000Y-72012000D01*
X149154000Y-69852000D02*
X149154000Y-71312000D01*
%TO.C,Q1*%
X159712000Y-67123000D02*
X163217000Y-67123000D01*
X159947000Y-70393000D02*
X163217000Y-70393000D01*
X159947000Y-70058000D02*
X159947000Y-70393000D01*
X163217000Y-70058000D02*
X163217000Y-70393000D01*
X163217000Y-67123000D02*
X163217000Y-67458000D01*
%TO.C,F1*%
X160941936Y-64622000D02*
X162146064Y-64622000D01*
X160941936Y-66442000D02*
X162146064Y-66442000D01*
%TO.C,D4*%
X139829000Y-60650000D02*
X139829000Y-61580000D01*
X139829000Y-63810000D02*
X139829000Y-62880000D01*
X139829000Y-63810000D02*
X141989000Y-63810000D01*
X139829000Y-60650000D02*
X141289000Y-60650000D01*
%TO.C,D3*%
X145598000Y-69852000D02*
X144668000Y-69852000D01*
X142438000Y-69852000D02*
X143368000Y-69852000D01*
X142438000Y-69852000D02*
X142438000Y-72012000D01*
X145598000Y-69852000D02*
X145598000Y-71312000D01*
%TO.C,D2*%
X156774000Y-69852000D02*
X155844000Y-69852000D01*
X153614000Y-69852000D02*
X154544000Y-69852000D01*
X153614000Y-69852000D02*
X153614000Y-72012000D01*
X156774000Y-69852000D02*
X156774000Y-71312000D01*
%TO.C,D1*%
X153614000Y-67816000D02*
X154544000Y-67816000D01*
X156774000Y-67816000D02*
X155844000Y-67816000D01*
X156774000Y-67816000D02*
X156774000Y-65656000D01*
X153614000Y-67816000D02*
X153614000Y-66356000D01*
%TO.C,C13*%
X144245000Y-61968748D02*
X144245000Y-62491252D01*
X142775000Y-61968748D02*
X142775000Y-62491252D01*
%TO.C,C10*%
X157507000Y-58935252D02*
X157507000Y-58412748D01*
X158977000Y-58935252D02*
X158977000Y-58412748D01*
%TO.C,C9*%
X139488500Y-88722252D02*
X139488500Y-87299748D01*
X141308500Y-88722252D02*
X141308500Y-87299748D01*
%TO.C,C8*%
X147312748Y-72671000D02*
X147835252Y-72671000D01*
X147312748Y-74141000D02*
X147835252Y-74141000D01*
%TO.C,C7*%
X136948500Y-88722252D02*
X136948500Y-87299748D01*
X138768500Y-88722252D02*
X138768500Y-87299748D01*
%TO.C,C6*%
X145197500Y-78097748D02*
X145197500Y-78620252D01*
X143727500Y-78097748D02*
X143727500Y-78620252D01*
%TO.C,C5*%
X151103000Y-70350748D02*
X151103000Y-70873252D01*
X149633000Y-70350748D02*
X149633000Y-70873252D01*
%TO.C,C3*%
X148343252Y-67029000D02*
X147820748Y-67029000D01*
X148343252Y-65559000D02*
X147820748Y-65559000D01*
%TO.C,C2*%
X144919752Y-90191000D02*
X143497248Y-90191000D01*
X144919752Y-88371000D02*
X143497248Y-88371000D01*
%TO.C,C1*%
X144215752Y-87730000D02*
X143693248Y-87730000D01*
X144215752Y-86260000D02*
X143693248Y-86260000D01*
%TD*%
M02*
