%TF.GenerationSoftware,KiCad,Pcbnew,5.1.9-73d0e3b20d~88~ubuntu20.10.1*%
%TF.CreationDate,2021-01-20T16:53:29+01:00*%
%TF.ProjectId,makita_protector,6d616b69-7461-45f7-9072-6f746563746f,rev?*%
%TF.SameCoordinates,Original*%
%TF.FileFunction,Copper,L2,Bot*%
%TF.FilePolarity,Positive*%
%FSLAX46Y46*%
G04 Gerber Fmt 4.6, Leading zero omitted, Abs format (unit mm)*
G04 Created by KiCad (PCBNEW 5.1.9-73d0e3b20d~88~ubuntu20.10.1) date 2021-01-20 16:53:29*
%MOMM*%
%LPD*%
G01*
G04 APERTURE LIST*
%TA.AperFunction,ComponentPad*%
%ADD10C,3.000000*%
%TD*%
%TA.AperFunction,ComponentPad*%
%ADD11O,5.500000X34.000000*%
%TD*%
%TA.AperFunction,ViaPad*%
%ADD12C,0.600000*%
%TD*%
%TA.AperFunction,Conductor*%
%ADD13C,0.250000*%
%TD*%
%TA.AperFunction,Conductor*%
%ADD14C,0.254000*%
%TD*%
%TA.AperFunction,Conductor*%
%ADD15C,0.100000*%
%TD*%
G04 APERTURE END LIST*
D10*
%TO.P,J6,1*%
%TO.N,GND*%
X136652000Y-72136000D03*
%TD*%
%TO.P,J5,1*%
%TO.N,Net-(J5-Pad1)*%
X136652000Y-58674000D03*
%TD*%
%TO.P,J4,1*%
%TO.N,GND*%
X139954000Y-70104000D03*
%TD*%
%TO.P,J3,1*%
%TO.N,Net-(C3-Pad2)*%
X136652000Y-65278000D03*
%TD*%
%TO.P,J2,1*%
%TO.N,GND*%
X139954000Y-73914000D03*
%TD*%
%TO.P,J1,1*%
%TO.N,+12V*%
X148844000Y-106172000D03*
%TD*%
D11*
%TO.P,BT1,2*%
%TO.N,GND*%
X130575000Y-85000000D03*
%TO.P,BT1,1*%
%TO.N,Net-(BT1-Pad1)*%
X169425000Y-85000000D03*
%TD*%
D12*
%TO.N,*%
X141750000Y-87750000D03*
%TO.N,GND*%
X143500000Y-64250000D03*
X140208000Y-63754000D03*
X136906000Y-61214000D03*
X146000000Y-64250000D03*
X150750000Y-63500000D03*
X151250000Y-57250000D03*
X158500000Y-64750000D03*
X150500000Y-73000000D03*
X150000000Y-73750000D03*
X159500000Y-71000000D03*
X157750000Y-72250000D03*
X162500000Y-76750000D03*
X148500000Y-76750000D03*
X154500000Y-80750000D03*
X156269171Y-84730829D03*
X156269171Y-85480829D03*
X154750000Y-84750000D03*
X154750000Y-85500000D03*
X151750000Y-85250000D03*
X149750000Y-86750000D03*
X137750000Y-85250000D03*
X140500000Y-85000000D03*
X142505671Y-84494329D03*
X142505671Y-85494329D03*
X142214000Y-86536000D03*
X161544000Y-104648000D03*
X162052000Y-102616000D03*
X162560000Y-91186000D03*
X163068000Y-86360000D03*
X165608000Y-83820000D03*
X165862000Y-100838000D03*
X169418000Y-103124000D03*
X172466000Y-101600000D03*
X172466000Y-108458000D03*
X165354000Y-108458000D03*
X133350000Y-108458000D03*
X127508000Y-108458000D03*
X127508000Y-103124000D03*
X136906000Y-102616000D03*
X134366000Y-100584000D03*
X134620000Y-86868000D03*
X135636000Y-86868000D03*
X127762000Y-67564000D03*
X133350000Y-67310000D03*
X127762000Y-56642000D03*
X133604000Y-56642000D03*
X142240000Y-56388000D03*
X145034000Y-56388000D03*
X152654000Y-64008000D03*
X153670000Y-61214000D03*
X153416000Y-58166000D03*
X141732000Y-67564000D03*
X140970000Y-75184000D03*
X172212000Y-56896000D03*
X157988000Y-56388000D03*
X172466000Y-67056000D03*
X168402000Y-66548000D03*
X163830000Y-63754000D03*
X162814000Y-61214000D03*
X162306000Y-57658000D03*
X139192000Y-60706000D03*
X138684000Y-66548000D03*
X142240000Y-66548000D03*
X136906000Y-62738000D03*
%TO.N,VBUS*%
X161500000Y-62300000D03*
X162139500Y-68758000D03*
X155448000Y-56896000D03*
X146304000Y-57150000D03*
%TO.N,Net-(C4-Pad1)*%
X142600000Y-96000000D03*
X142600000Y-96800000D03*
X142600000Y-97600000D03*
X142600000Y-98400000D03*
X142600000Y-99200000D03*
X142600000Y-100000000D03*
X142600000Y-100800000D03*
X142600000Y-95200000D03*
X142600000Y-94400000D03*
X142600000Y-93600000D03*
X142600000Y-92800000D03*
X142600000Y-92000000D03*
X142600000Y-91200000D03*
X143700000Y-84750000D03*
X144300000Y-84750000D03*
X144300000Y-85400000D03*
X143700000Y-85400000D03*
%TO.N,+12V*%
X140350000Y-88350000D03*
X139600000Y-77900000D03*
X154113500Y-88457500D03*
X153363500Y-78007500D03*
%TO.N,Net-(C13-Pad1)*%
X149161500Y-59563000D03*
X144970500Y-59563000D03*
%TO.N,Net-(C14-Pad1)*%
X156363500Y-96107500D03*
X156363500Y-96907500D03*
X156363500Y-97707500D03*
X156363500Y-98507500D03*
X156363500Y-99307500D03*
X156363500Y-100107500D03*
X156363500Y-100907500D03*
X156363500Y-95307500D03*
X156363500Y-94507500D03*
X156363500Y-93707500D03*
X156363500Y-92907500D03*
X156363500Y-92107500D03*
X156363500Y-91307500D03*
X157463500Y-84857500D03*
X158063500Y-84857500D03*
X158063500Y-85507500D03*
X157463500Y-85507500D03*
%TO.N,Net-(R10-Pad2)*%
X144284395Y-66235030D03*
X144843500Y-62928500D03*
%TD*%
D13*
%TO.N,VBUS*%
X161500000Y-68118500D02*
X162139500Y-68758000D01*
X161500000Y-62300000D02*
X161500000Y-68118500D01*
X155148001Y-56596001D02*
X153461999Y-56596001D01*
X155448000Y-56896000D02*
X155148001Y-56596001D01*
X153461999Y-56596001D02*
X152146000Y-57912000D01*
X147066000Y-57912000D02*
X146304000Y-57150000D01*
X152146000Y-57912000D02*
X147066000Y-57912000D01*
%TO.N,+12V*%
X139600000Y-87600000D02*
X139600000Y-77900000D01*
X140350000Y-88350000D02*
X139600000Y-87600000D01*
X153363500Y-87707500D02*
X153363500Y-78007500D01*
X154113500Y-88457500D02*
X153363500Y-87707500D01*
%TO.N,Net-(C13-Pad1)*%
X149161500Y-59563000D02*
X144970500Y-59563000D01*
%TO.N,Net-(R10-Pad2)*%
X144284395Y-66235030D02*
X144284395Y-63487605D01*
X144284395Y-63487605D02*
X144843500Y-62928500D01*
%TD*%
D14*
%TO.N,GND*%
X151831199Y-57152000D02*
X147380802Y-57152000D01*
X147227153Y-56998351D01*
X147203068Y-56877271D01*
X147132586Y-56707111D01*
X147030262Y-56553972D01*
X146900028Y-56423738D01*
X146746889Y-56321414D01*
X146576729Y-56250932D01*
X146396089Y-56215000D01*
X146211911Y-56215000D01*
X146031271Y-56250932D01*
X145861111Y-56321414D01*
X145707972Y-56423738D01*
X145577738Y-56553972D01*
X145475414Y-56707111D01*
X145404932Y-56877271D01*
X145369000Y-57057911D01*
X145369000Y-57242089D01*
X145404932Y-57422729D01*
X145475414Y-57592889D01*
X145577738Y-57746028D01*
X145707972Y-57876262D01*
X145861111Y-57978586D01*
X146031271Y-58049068D01*
X146152351Y-58073153D01*
X146502201Y-58423002D01*
X146525999Y-58452001D01*
X146641724Y-58546974D01*
X146773753Y-58617546D01*
X146917014Y-58661003D01*
X147028667Y-58672000D01*
X147028675Y-58672000D01*
X147066000Y-58675676D01*
X147103325Y-58672000D01*
X148869293Y-58672000D01*
X148718611Y-58734414D01*
X148615965Y-58803000D01*
X145516035Y-58803000D01*
X145413389Y-58734414D01*
X145243229Y-58663932D01*
X145062589Y-58628000D01*
X144878411Y-58628000D01*
X144697771Y-58663932D01*
X144527611Y-58734414D01*
X144374472Y-58836738D01*
X144244238Y-58966972D01*
X144141914Y-59120111D01*
X144071432Y-59290271D01*
X144035500Y-59470911D01*
X144035500Y-59655089D01*
X144071432Y-59835729D01*
X144141914Y-60005889D01*
X144244238Y-60159028D01*
X144374472Y-60289262D01*
X144527611Y-60391586D01*
X144697771Y-60462068D01*
X144878411Y-60498000D01*
X145062589Y-60498000D01*
X145243229Y-60462068D01*
X145413389Y-60391586D01*
X145516035Y-60323000D01*
X148615965Y-60323000D01*
X148718611Y-60391586D01*
X148888771Y-60462068D01*
X149069411Y-60498000D01*
X149253589Y-60498000D01*
X149434229Y-60462068D01*
X149604389Y-60391586D01*
X149757528Y-60289262D01*
X149887762Y-60159028D01*
X149990086Y-60005889D01*
X150060568Y-59835729D01*
X150096500Y-59655089D01*
X150096500Y-59470911D01*
X150060568Y-59290271D01*
X149990086Y-59120111D01*
X149887762Y-58966972D01*
X149757528Y-58836738D01*
X149604389Y-58734414D01*
X149453707Y-58672000D01*
X152108678Y-58672000D01*
X152146000Y-58675676D01*
X152183322Y-58672000D01*
X152183333Y-58672000D01*
X152294986Y-58661003D01*
X152438247Y-58617546D01*
X152570276Y-58546974D01*
X152686001Y-58452001D01*
X152709804Y-58422997D01*
X153776801Y-57356001D01*
X154630848Y-57356001D01*
X154721738Y-57492028D01*
X154851972Y-57622262D01*
X155005111Y-57724586D01*
X155175271Y-57795068D01*
X155355911Y-57831000D01*
X155540089Y-57831000D01*
X155720729Y-57795068D01*
X155890889Y-57724586D01*
X156044028Y-57622262D01*
X156174262Y-57492028D01*
X156276586Y-57338889D01*
X156347068Y-57168729D01*
X156383000Y-56988089D01*
X156383000Y-56803911D01*
X156347068Y-56623271D01*
X156276586Y-56453111D01*
X156174262Y-56299972D01*
X156044028Y-56169738D01*
X155980066Y-56127000D01*
X172873000Y-56127000D01*
X172873000Y-108873000D01*
X127127000Y-108873000D01*
X127127000Y-105779872D01*
X127765000Y-105779872D01*
X127765000Y-106220128D01*
X127850890Y-106651925D01*
X128019369Y-107058669D01*
X128263962Y-107424729D01*
X128575271Y-107736038D01*
X128941331Y-107980631D01*
X129348075Y-108149110D01*
X129779872Y-108235000D01*
X130220128Y-108235000D01*
X130651925Y-108149110D01*
X131058669Y-107980631D01*
X131424729Y-107736038D01*
X131736038Y-107424729D01*
X131980631Y-107058669D01*
X132149110Y-106651925D01*
X132235000Y-106220128D01*
X132235000Y-105961721D01*
X146709000Y-105961721D01*
X146709000Y-106382279D01*
X146791047Y-106794756D01*
X146951988Y-107183302D01*
X147185637Y-107532983D01*
X147483017Y-107830363D01*
X147832698Y-108064012D01*
X148221244Y-108224953D01*
X148633721Y-108307000D01*
X149054279Y-108307000D01*
X149466756Y-108224953D01*
X149855302Y-108064012D01*
X150204983Y-107830363D01*
X150502363Y-107532983D01*
X150736012Y-107183302D01*
X150896953Y-106794756D01*
X150979000Y-106382279D01*
X150979000Y-105961721D01*
X150942828Y-105779872D01*
X167765000Y-105779872D01*
X167765000Y-106220128D01*
X167850890Y-106651925D01*
X168019369Y-107058669D01*
X168263962Y-107424729D01*
X168575271Y-107736038D01*
X168941331Y-107980631D01*
X169348075Y-108149110D01*
X169779872Y-108235000D01*
X170220128Y-108235000D01*
X170651925Y-108149110D01*
X171058669Y-107980631D01*
X171424729Y-107736038D01*
X171736038Y-107424729D01*
X171980631Y-107058669D01*
X172149110Y-106651925D01*
X172235000Y-106220128D01*
X172235000Y-105779872D01*
X172149110Y-105348075D01*
X171980631Y-104941331D01*
X171736038Y-104575271D01*
X171424729Y-104263962D01*
X171058669Y-104019369D01*
X170651925Y-103850890D01*
X170220128Y-103765000D01*
X169779872Y-103765000D01*
X169348075Y-103850890D01*
X168941331Y-104019369D01*
X168575271Y-104263962D01*
X168263962Y-104575271D01*
X168019369Y-104941331D01*
X167850890Y-105348075D01*
X167765000Y-105779872D01*
X150942828Y-105779872D01*
X150896953Y-105549244D01*
X150736012Y-105160698D01*
X150502363Y-104811017D01*
X150204983Y-104513637D01*
X149855302Y-104279988D01*
X149466756Y-104119047D01*
X149054279Y-104037000D01*
X148633721Y-104037000D01*
X148221244Y-104119047D01*
X147832698Y-104279988D01*
X147483017Y-104513637D01*
X147185637Y-104811017D01*
X146951988Y-105160698D01*
X146791047Y-105549244D01*
X146709000Y-105961721D01*
X132235000Y-105961721D01*
X132235000Y-105779872D01*
X132149110Y-105348075D01*
X131980631Y-104941331D01*
X131736038Y-104575271D01*
X131424729Y-104263962D01*
X131058669Y-104019369D01*
X130651925Y-103850890D01*
X130220128Y-103765000D01*
X129779872Y-103765000D01*
X129348075Y-103850890D01*
X128941331Y-104019369D01*
X128575271Y-104263962D01*
X128263962Y-104575271D01*
X128019369Y-104941331D01*
X127850890Y-105348075D01*
X127765000Y-105779872D01*
X127127000Y-105779872D01*
X127127000Y-85127000D01*
X127190000Y-85127000D01*
X127190000Y-99377000D01*
X127279818Y-100034940D01*
X127496268Y-100662716D01*
X127831032Y-101236202D01*
X128271245Y-101733359D01*
X128799990Y-102135082D01*
X129396948Y-102425933D01*
X129920406Y-102571104D01*
X130448000Y-102473749D01*
X130448000Y-85127000D01*
X130702000Y-85127000D01*
X130702000Y-102473749D01*
X131229594Y-102571104D01*
X131753052Y-102425933D01*
X132350010Y-102135082D01*
X132878755Y-101733359D01*
X133318968Y-101236202D01*
X133653732Y-100662716D01*
X133870182Y-100034940D01*
X133960000Y-99377000D01*
X133960000Y-85127000D01*
X130702000Y-85127000D01*
X130448000Y-85127000D01*
X127190000Y-85127000D01*
X127127000Y-85127000D01*
X127127000Y-70623000D01*
X127190000Y-70623000D01*
X127190000Y-84873000D01*
X130448000Y-84873000D01*
X130448000Y-67526251D01*
X130702000Y-67526251D01*
X130702000Y-84873000D01*
X133960000Y-84873000D01*
X133960000Y-77807911D01*
X138665000Y-77807911D01*
X138665000Y-77992089D01*
X138700932Y-78172729D01*
X138771414Y-78342889D01*
X138840001Y-78445537D01*
X138840000Y-87562678D01*
X138836324Y-87600000D01*
X138840000Y-87637322D01*
X138840000Y-87637332D01*
X138850997Y-87748985D01*
X138883606Y-87856485D01*
X138894454Y-87892246D01*
X138965026Y-88024276D01*
X138972369Y-88033223D01*
X139059999Y-88140001D01*
X139089002Y-88163803D01*
X139426847Y-88501649D01*
X139450932Y-88622729D01*
X139521414Y-88792889D01*
X139623738Y-88946028D01*
X139753972Y-89076262D01*
X139907111Y-89178586D01*
X140077271Y-89249068D01*
X140257911Y-89285000D01*
X140442089Y-89285000D01*
X140622729Y-89249068D01*
X140792889Y-89178586D01*
X140946028Y-89076262D01*
X141076262Y-88946028D01*
X141178586Y-88792889D01*
X141249068Y-88622729D01*
X141263628Y-88549532D01*
X141307111Y-88578586D01*
X141365000Y-88602564D01*
X141365000Y-101600000D01*
X141377201Y-101723882D01*
X141413336Y-101843004D01*
X141472017Y-101952787D01*
X141550987Y-102049013D01*
X141647213Y-102127983D01*
X141756996Y-102186664D01*
X141876118Y-102222799D01*
X142000000Y-102235000D01*
X147600000Y-102235000D01*
X147723882Y-102222799D01*
X147843004Y-102186664D01*
X147952787Y-102127983D01*
X148049013Y-102049013D01*
X148127983Y-101952787D01*
X148186664Y-101843004D01*
X148222799Y-101723882D01*
X148235000Y-101600000D01*
X148235000Y-82400000D01*
X148222799Y-82276118D01*
X148186664Y-82156996D01*
X148127983Y-82047213D01*
X148049013Y-81950987D01*
X147952787Y-81872017D01*
X147843004Y-81813336D01*
X147723882Y-81777201D01*
X147600000Y-81765000D01*
X142000000Y-81765000D01*
X141876118Y-81777201D01*
X141756996Y-81813336D01*
X141647213Y-81872017D01*
X141550987Y-81950987D01*
X141472017Y-82047213D01*
X141413336Y-82156996D01*
X141377201Y-82276118D01*
X141365000Y-82400000D01*
X141365000Y-86897436D01*
X141307111Y-86921414D01*
X141153972Y-87023738D01*
X141023738Y-87153972D01*
X140921414Y-87307111D01*
X140850932Y-87477271D01*
X140836372Y-87550468D01*
X140792889Y-87521414D01*
X140622729Y-87450932D01*
X140501649Y-87426847D01*
X140360000Y-87285199D01*
X140360000Y-78445535D01*
X140428586Y-78342889D01*
X140499068Y-78172729D01*
X140535000Y-77992089D01*
X140535000Y-77915411D01*
X152428500Y-77915411D01*
X152428500Y-78099589D01*
X152464432Y-78280229D01*
X152534914Y-78450389D01*
X152603501Y-78553037D01*
X152603500Y-87670178D01*
X152599824Y-87707500D01*
X152603500Y-87744822D01*
X152603500Y-87744832D01*
X152614497Y-87856485D01*
X152657954Y-87999746D01*
X152728526Y-88131776D01*
X152756000Y-88165253D01*
X152823499Y-88247501D01*
X152852502Y-88271303D01*
X153190347Y-88609149D01*
X153214432Y-88730229D01*
X153284914Y-88900389D01*
X153387238Y-89053528D01*
X153517472Y-89183762D01*
X153670611Y-89286086D01*
X153840771Y-89356568D01*
X154021411Y-89392500D01*
X154205589Y-89392500D01*
X154386229Y-89356568D01*
X154556389Y-89286086D01*
X154709528Y-89183762D01*
X154839762Y-89053528D01*
X154942086Y-88900389D01*
X155012568Y-88730229D01*
X155048500Y-88549589D01*
X155048500Y-88365411D01*
X155012568Y-88184771D01*
X154942086Y-88014611D01*
X154839762Y-87861472D01*
X154709528Y-87731238D01*
X154556389Y-87628914D01*
X154386229Y-87558432D01*
X154265149Y-87534347D01*
X154123500Y-87392699D01*
X154123500Y-82507500D01*
X155128500Y-82507500D01*
X155128500Y-101707500D01*
X155140701Y-101831382D01*
X155176836Y-101950504D01*
X155235517Y-102060287D01*
X155314487Y-102156513D01*
X155410713Y-102235483D01*
X155520496Y-102294164D01*
X155639618Y-102330299D01*
X155763500Y-102342500D01*
X161363500Y-102342500D01*
X161487382Y-102330299D01*
X161606504Y-102294164D01*
X161716287Y-102235483D01*
X161812513Y-102156513D01*
X161891483Y-102060287D01*
X161950164Y-101950504D01*
X161986299Y-101831382D01*
X161998500Y-101707500D01*
X161998500Y-82507500D01*
X161986299Y-82383618D01*
X161950164Y-82264496D01*
X161891483Y-82154713D01*
X161812513Y-82058487D01*
X161716287Y-81979517D01*
X161606504Y-81920836D01*
X161487382Y-81884701D01*
X161363500Y-81872500D01*
X155763500Y-81872500D01*
X155639618Y-81884701D01*
X155520496Y-81920836D01*
X155410713Y-81979517D01*
X155314487Y-82058487D01*
X155235517Y-82154713D01*
X155176836Y-82264496D01*
X155140701Y-82383618D01*
X155128500Y-82507500D01*
X154123500Y-82507500D01*
X154123500Y-78553035D01*
X154192086Y-78450389D01*
X154262568Y-78280229D01*
X154298500Y-78099589D01*
X154298500Y-77915411D01*
X154262568Y-77734771D01*
X154192086Y-77564611D01*
X154089762Y-77411472D01*
X153959528Y-77281238D01*
X153806389Y-77178914D01*
X153636229Y-77108432D01*
X153455589Y-77072500D01*
X153271411Y-77072500D01*
X153090771Y-77108432D01*
X152920611Y-77178914D01*
X152767472Y-77281238D01*
X152637238Y-77411472D01*
X152534914Y-77564611D01*
X152464432Y-77734771D01*
X152428500Y-77915411D01*
X140535000Y-77915411D01*
X140535000Y-77807911D01*
X140499068Y-77627271D01*
X140428586Y-77457111D01*
X140326262Y-77303972D01*
X140196028Y-77173738D01*
X140042889Y-77071414D01*
X139872729Y-77000932D01*
X139692089Y-76965000D01*
X139507911Y-76965000D01*
X139327271Y-77000932D01*
X139157111Y-77071414D01*
X139003972Y-77173738D01*
X138873738Y-77303972D01*
X138771414Y-77457111D01*
X138700932Y-77627271D01*
X138665000Y-77807911D01*
X133960000Y-77807911D01*
X133960000Y-75405653D01*
X138641952Y-75405653D01*
X138797962Y-75721214D01*
X139172745Y-75912020D01*
X139577551Y-76026044D01*
X139996824Y-76058902D01*
X140414451Y-76009334D01*
X140814383Y-75879243D01*
X141110038Y-75721214D01*
X141266048Y-75405653D01*
X139954000Y-74093605D01*
X138641952Y-75405653D01*
X133960000Y-75405653D01*
X133960000Y-72178824D01*
X134507098Y-72178824D01*
X134556666Y-72596451D01*
X134686757Y-72996383D01*
X134844786Y-73292038D01*
X135160347Y-73448048D01*
X136472395Y-72136000D01*
X135160347Y-70823952D01*
X134844786Y-70979962D01*
X134653980Y-71354745D01*
X134539956Y-71759551D01*
X134507098Y-72178824D01*
X133960000Y-72178824D01*
X133960000Y-70644347D01*
X135339952Y-70644347D01*
X136652000Y-71956395D01*
X136666143Y-71942253D01*
X136845748Y-72121858D01*
X136831605Y-72136000D01*
X136845748Y-72150143D01*
X136666143Y-72329748D01*
X136652000Y-72315605D01*
X135339952Y-73627653D01*
X135495962Y-73943214D01*
X135870745Y-74134020D01*
X136275551Y-74248044D01*
X136694824Y-74280902D01*
X137112451Y-74231334D01*
X137512383Y-74101243D01*
X137808038Y-73943214D01*
X137810565Y-73938102D01*
X137809098Y-73956824D01*
X137858666Y-74374451D01*
X137988757Y-74774383D01*
X138146786Y-75070038D01*
X138462347Y-75226048D01*
X139774395Y-73914000D01*
X140133605Y-73914000D01*
X141445653Y-75226048D01*
X141761214Y-75070038D01*
X141952020Y-74695255D01*
X142066044Y-74290449D01*
X142098902Y-73871176D01*
X142049334Y-73453549D01*
X141919243Y-73053617D01*
X141761214Y-72757962D01*
X141445653Y-72601952D01*
X140133605Y-73914000D01*
X139774395Y-73914000D01*
X139760253Y-73899858D01*
X139939858Y-73720253D01*
X139954000Y-73734395D01*
X141266048Y-72422347D01*
X141110038Y-72106786D01*
X140922639Y-72011379D01*
X141110038Y-71911214D01*
X141266048Y-71595653D01*
X139954000Y-70283605D01*
X139939858Y-70297748D01*
X139760253Y-70118143D01*
X139774395Y-70104000D01*
X140133605Y-70104000D01*
X141445653Y-71416048D01*
X141761214Y-71260038D01*
X141952020Y-70885255D01*
X142036956Y-70583714D01*
X166040000Y-70583714D01*
X166040001Y-99416287D01*
X166088980Y-99913576D01*
X166282537Y-100551651D01*
X166596859Y-101139704D01*
X167019864Y-101655137D01*
X167535297Y-102078142D01*
X168123350Y-102392464D01*
X168761425Y-102586021D01*
X169425000Y-102651378D01*
X170088576Y-102586021D01*
X170726651Y-102392464D01*
X171314704Y-102078142D01*
X171830137Y-101655137D01*
X172253142Y-101139704D01*
X172567464Y-100551651D01*
X172761021Y-99913576D01*
X172810000Y-99416287D01*
X172810000Y-70583713D01*
X172761021Y-70086424D01*
X172567464Y-69448349D01*
X172253142Y-68860296D01*
X171830137Y-68344863D01*
X171314703Y-67921858D01*
X170726650Y-67607536D01*
X170088575Y-67413979D01*
X169425000Y-67348622D01*
X168761424Y-67413979D01*
X168123349Y-67607536D01*
X167535296Y-67921858D01*
X167019863Y-68344863D01*
X166596858Y-68860297D01*
X166282536Y-69448350D01*
X166088979Y-70086425D01*
X166040000Y-70583714D01*
X142036956Y-70583714D01*
X142066044Y-70480449D01*
X142098902Y-70061176D01*
X142049334Y-69643549D01*
X141919243Y-69243617D01*
X141761214Y-68947962D01*
X141445653Y-68791952D01*
X140133605Y-70104000D01*
X139774395Y-70104000D01*
X138462347Y-68791952D01*
X138146786Y-68947962D01*
X137955980Y-69322745D01*
X137841956Y-69727551D01*
X137809098Y-70146824D01*
X137837853Y-70389092D01*
X137808038Y-70328786D01*
X137433255Y-70137980D01*
X137028449Y-70023956D01*
X136609176Y-69991098D01*
X136191549Y-70040666D01*
X135791617Y-70170757D01*
X135495962Y-70328786D01*
X135339952Y-70644347D01*
X133960000Y-70644347D01*
X133960000Y-70623000D01*
X133870182Y-69965060D01*
X133653732Y-69337284D01*
X133318968Y-68763798D01*
X133184865Y-68612347D01*
X138641952Y-68612347D01*
X139954000Y-69924395D01*
X141266048Y-68612347D01*
X141110038Y-68296786D01*
X140735255Y-68105980D01*
X140330449Y-67991956D01*
X139911176Y-67959098D01*
X139493549Y-68008666D01*
X139093617Y-68138757D01*
X138797962Y-68296786D01*
X138641952Y-68612347D01*
X133184865Y-68612347D01*
X132878755Y-68266641D01*
X132350010Y-67864918D01*
X131753052Y-67574067D01*
X131229594Y-67428896D01*
X130702000Y-67526251D01*
X130448000Y-67526251D01*
X129920406Y-67428896D01*
X129396948Y-67574067D01*
X128799990Y-67864918D01*
X128271245Y-68266641D01*
X127831032Y-68763798D01*
X127496268Y-69337284D01*
X127279818Y-69965060D01*
X127190000Y-70623000D01*
X127127000Y-70623000D01*
X127127000Y-63779872D01*
X127765000Y-63779872D01*
X127765000Y-64220128D01*
X127850890Y-64651925D01*
X128019369Y-65058669D01*
X128263962Y-65424729D01*
X128575271Y-65736038D01*
X128941331Y-65980631D01*
X129348075Y-66149110D01*
X129779872Y-66235000D01*
X130220128Y-66235000D01*
X130651925Y-66149110D01*
X131058669Y-65980631D01*
X131424729Y-65736038D01*
X131736038Y-65424729D01*
X131974582Y-65067721D01*
X134517000Y-65067721D01*
X134517000Y-65488279D01*
X134599047Y-65900756D01*
X134759988Y-66289302D01*
X134993637Y-66638983D01*
X135291017Y-66936363D01*
X135640698Y-67170012D01*
X136029244Y-67330953D01*
X136441721Y-67413000D01*
X136862279Y-67413000D01*
X137274756Y-67330953D01*
X137663302Y-67170012D01*
X138012983Y-66936363D01*
X138310363Y-66638983D01*
X138544012Y-66289302D01*
X138604636Y-66142941D01*
X143349395Y-66142941D01*
X143349395Y-66327119D01*
X143385327Y-66507759D01*
X143455809Y-66677919D01*
X143558133Y-66831058D01*
X143688367Y-66961292D01*
X143841506Y-67063616D01*
X144011666Y-67134098D01*
X144192306Y-67170030D01*
X144376484Y-67170030D01*
X144557124Y-67134098D01*
X144727284Y-67063616D01*
X144880423Y-66961292D01*
X145010657Y-66831058D01*
X145112981Y-66677919D01*
X145183463Y-66507759D01*
X145219395Y-66327119D01*
X145219395Y-66142941D01*
X145183463Y-65962301D01*
X145112981Y-65792141D01*
X145044395Y-65689495D01*
X145044395Y-63841857D01*
X145116229Y-63827568D01*
X145286389Y-63757086D01*
X145439528Y-63654762D01*
X145569762Y-63524528D01*
X145672086Y-63371389D01*
X145742568Y-63201229D01*
X145778500Y-63020589D01*
X145778500Y-62836411D01*
X145742568Y-62655771D01*
X145672086Y-62485611D01*
X145569762Y-62332472D01*
X145445201Y-62207911D01*
X160565000Y-62207911D01*
X160565000Y-62392089D01*
X160600932Y-62572729D01*
X160671414Y-62742889D01*
X160740000Y-62845536D01*
X160740001Y-68081168D01*
X160736324Y-68118500D01*
X160750998Y-68267485D01*
X160794454Y-68410746D01*
X160865026Y-68542776D01*
X160919387Y-68609014D01*
X160960000Y-68658501D01*
X160988998Y-68682299D01*
X161216347Y-68909649D01*
X161240432Y-69030729D01*
X161310914Y-69200889D01*
X161413238Y-69354028D01*
X161543472Y-69484262D01*
X161696611Y-69586586D01*
X161866771Y-69657068D01*
X162047411Y-69693000D01*
X162231589Y-69693000D01*
X162412229Y-69657068D01*
X162582389Y-69586586D01*
X162735528Y-69484262D01*
X162865762Y-69354028D01*
X162968086Y-69200889D01*
X163038568Y-69030729D01*
X163074500Y-68850089D01*
X163074500Y-68665911D01*
X163038568Y-68485271D01*
X162968086Y-68315111D01*
X162865762Y-68161972D01*
X162735528Y-68031738D01*
X162582389Y-67929414D01*
X162412229Y-67858932D01*
X162291149Y-67834847D01*
X162260000Y-67803699D01*
X162260000Y-63779872D01*
X167765000Y-63779872D01*
X167765000Y-64220128D01*
X167850890Y-64651925D01*
X168019369Y-65058669D01*
X168263962Y-65424729D01*
X168575271Y-65736038D01*
X168941331Y-65980631D01*
X169348075Y-66149110D01*
X169779872Y-66235000D01*
X170220128Y-66235000D01*
X170651925Y-66149110D01*
X171058669Y-65980631D01*
X171424729Y-65736038D01*
X171736038Y-65424729D01*
X171980631Y-65058669D01*
X172149110Y-64651925D01*
X172235000Y-64220128D01*
X172235000Y-63779872D01*
X172149110Y-63348075D01*
X171980631Y-62941331D01*
X171736038Y-62575271D01*
X171424729Y-62263962D01*
X171058669Y-62019369D01*
X170651925Y-61850890D01*
X170220128Y-61765000D01*
X169779872Y-61765000D01*
X169348075Y-61850890D01*
X168941331Y-62019369D01*
X168575271Y-62263962D01*
X168263962Y-62575271D01*
X168019369Y-62941331D01*
X167850890Y-63348075D01*
X167765000Y-63779872D01*
X162260000Y-63779872D01*
X162260000Y-62845535D01*
X162328586Y-62742889D01*
X162399068Y-62572729D01*
X162435000Y-62392089D01*
X162435000Y-62207911D01*
X162399068Y-62027271D01*
X162328586Y-61857111D01*
X162226262Y-61703972D01*
X162096028Y-61573738D01*
X161942889Y-61471414D01*
X161772729Y-61400932D01*
X161592089Y-61365000D01*
X161407911Y-61365000D01*
X161227271Y-61400932D01*
X161057111Y-61471414D01*
X160903972Y-61573738D01*
X160773738Y-61703972D01*
X160671414Y-61857111D01*
X160600932Y-62027271D01*
X160565000Y-62207911D01*
X145445201Y-62207911D01*
X145439528Y-62202238D01*
X145286389Y-62099914D01*
X145116229Y-62029432D01*
X144935589Y-61993500D01*
X144751411Y-61993500D01*
X144570771Y-62029432D01*
X144400611Y-62099914D01*
X144247472Y-62202238D01*
X144117238Y-62332472D01*
X144014914Y-62485611D01*
X143944432Y-62655771D01*
X143920347Y-62776851D01*
X143773393Y-62923806D01*
X143744395Y-62947604D01*
X143720597Y-62976602D01*
X143720596Y-62976603D01*
X143649421Y-63063329D01*
X143578849Y-63195359D01*
X143535393Y-63338620D01*
X143520719Y-63487605D01*
X143524396Y-63524937D01*
X143524395Y-65689494D01*
X143455809Y-65792141D01*
X143385327Y-65962301D01*
X143349395Y-66142941D01*
X138604636Y-66142941D01*
X138704953Y-65900756D01*
X138787000Y-65488279D01*
X138787000Y-65067721D01*
X138704953Y-64655244D01*
X138544012Y-64266698D01*
X138310363Y-63917017D01*
X138012983Y-63619637D01*
X137663302Y-63385988D01*
X137274756Y-63225047D01*
X136862279Y-63143000D01*
X136441721Y-63143000D01*
X136029244Y-63225047D01*
X135640698Y-63385988D01*
X135291017Y-63619637D01*
X134993637Y-63917017D01*
X134759988Y-64266698D01*
X134599047Y-64655244D01*
X134517000Y-65067721D01*
X131974582Y-65067721D01*
X131980631Y-65058669D01*
X132149110Y-64651925D01*
X132235000Y-64220128D01*
X132235000Y-63779872D01*
X132149110Y-63348075D01*
X131980631Y-62941331D01*
X131736038Y-62575271D01*
X131424729Y-62263962D01*
X131058669Y-62019369D01*
X130651925Y-61850890D01*
X130220128Y-61765000D01*
X129779872Y-61765000D01*
X129348075Y-61850890D01*
X128941331Y-62019369D01*
X128575271Y-62263962D01*
X128263962Y-62575271D01*
X128019369Y-62941331D01*
X127850890Y-63348075D01*
X127765000Y-63779872D01*
X127127000Y-63779872D01*
X127127000Y-58463721D01*
X134517000Y-58463721D01*
X134517000Y-58884279D01*
X134599047Y-59296756D01*
X134759988Y-59685302D01*
X134993637Y-60034983D01*
X135291017Y-60332363D01*
X135640698Y-60566012D01*
X136029244Y-60726953D01*
X136441721Y-60809000D01*
X136862279Y-60809000D01*
X137274756Y-60726953D01*
X137663302Y-60566012D01*
X138012983Y-60332363D01*
X138310363Y-60034983D01*
X138544012Y-59685302D01*
X138704953Y-59296756D01*
X138787000Y-58884279D01*
X138787000Y-58463721D01*
X138704953Y-58051244D01*
X138544012Y-57662698D01*
X138310363Y-57313017D01*
X138012983Y-57015637D01*
X137663302Y-56781988D01*
X137274756Y-56621047D01*
X136862279Y-56539000D01*
X136441721Y-56539000D01*
X136029244Y-56621047D01*
X135640698Y-56781988D01*
X135291017Y-57015637D01*
X134993637Y-57313017D01*
X134759988Y-57662698D01*
X134599047Y-58051244D01*
X134517000Y-58463721D01*
X127127000Y-58463721D01*
X127127000Y-56127000D01*
X152856198Y-56127000D01*
X151831199Y-57152000D01*
%TA.AperFunction,Conductor*%
D15*
G36*
X151831199Y-57152000D02*
G01*
X147380802Y-57152000D01*
X147227153Y-56998351D01*
X147203068Y-56877271D01*
X147132586Y-56707111D01*
X147030262Y-56553972D01*
X146900028Y-56423738D01*
X146746889Y-56321414D01*
X146576729Y-56250932D01*
X146396089Y-56215000D01*
X146211911Y-56215000D01*
X146031271Y-56250932D01*
X145861111Y-56321414D01*
X145707972Y-56423738D01*
X145577738Y-56553972D01*
X145475414Y-56707111D01*
X145404932Y-56877271D01*
X145369000Y-57057911D01*
X145369000Y-57242089D01*
X145404932Y-57422729D01*
X145475414Y-57592889D01*
X145577738Y-57746028D01*
X145707972Y-57876262D01*
X145861111Y-57978586D01*
X146031271Y-58049068D01*
X146152351Y-58073153D01*
X146502201Y-58423002D01*
X146525999Y-58452001D01*
X146641724Y-58546974D01*
X146773753Y-58617546D01*
X146917014Y-58661003D01*
X147028667Y-58672000D01*
X147028675Y-58672000D01*
X147066000Y-58675676D01*
X147103325Y-58672000D01*
X148869293Y-58672000D01*
X148718611Y-58734414D01*
X148615965Y-58803000D01*
X145516035Y-58803000D01*
X145413389Y-58734414D01*
X145243229Y-58663932D01*
X145062589Y-58628000D01*
X144878411Y-58628000D01*
X144697771Y-58663932D01*
X144527611Y-58734414D01*
X144374472Y-58836738D01*
X144244238Y-58966972D01*
X144141914Y-59120111D01*
X144071432Y-59290271D01*
X144035500Y-59470911D01*
X144035500Y-59655089D01*
X144071432Y-59835729D01*
X144141914Y-60005889D01*
X144244238Y-60159028D01*
X144374472Y-60289262D01*
X144527611Y-60391586D01*
X144697771Y-60462068D01*
X144878411Y-60498000D01*
X145062589Y-60498000D01*
X145243229Y-60462068D01*
X145413389Y-60391586D01*
X145516035Y-60323000D01*
X148615965Y-60323000D01*
X148718611Y-60391586D01*
X148888771Y-60462068D01*
X149069411Y-60498000D01*
X149253589Y-60498000D01*
X149434229Y-60462068D01*
X149604389Y-60391586D01*
X149757528Y-60289262D01*
X149887762Y-60159028D01*
X149990086Y-60005889D01*
X150060568Y-59835729D01*
X150096500Y-59655089D01*
X150096500Y-59470911D01*
X150060568Y-59290271D01*
X149990086Y-59120111D01*
X149887762Y-58966972D01*
X149757528Y-58836738D01*
X149604389Y-58734414D01*
X149453707Y-58672000D01*
X152108678Y-58672000D01*
X152146000Y-58675676D01*
X152183322Y-58672000D01*
X152183333Y-58672000D01*
X152294986Y-58661003D01*
X152438247Y-58617546D01*
X152570276Y-58546974D01*
X152686001Y-58452001D01*
X152709804Y-58422997D01*
X153776801Y-57356001D01*
X154630848Y-57356001D01*
X154721738Y-57492028D01*
X154851972Y-57622262D01*
X155005111Y-57724586D01*
X155175271Y-57795068D01*
X155355911Y-57831000D01*
X155540089Y-57831000D01*
X155720729Y-57795068D01*
X155890889Y-57724586D01*
X156044028Y-57622262D01*
X156174262Y-57492028D01*
X156276586Y-57338889D01*
X156347068Y-57168729D01*
X156383000Y-56988089D01*
X156383000Y-56803911D01*
X156347068Y-56623271D01*
X156276586Y-56453111D01*
X156174262Y-56299972D01*
X156044028Y-56169738D01*
X155980066Y-56127000D01*
X172873000Y-56127000D01*
X172873000Y-108873000D01*
X127127000Y-108873000D01*
X127127000Y-105779872D01*
X127765000Y-105779872D01*
X127765000Y-106220128D01*
X127850890Y-106651925D01*
X128019369Y-107058669D01*
X128263962Y-107424729D01*
X128575271Y-107736038D01*
X128941331Y-107980631D01*
X129348075Y-108149110D01*
X129779872Y-108235000D01*
X130220128Y-108235000D01*
X130651925Y-108149110D01*
X131058669Y-107980631D01*
X131424729Y-107736038D01*
X131736038Y-107424729D01*
X131980631Y-107058669D01*
X132149110Y-106651925D01*
X132235000Y-106220128D01*
X132235000Y-105961721D01*
X146709000Y-105961721D01*
X146709000Y-106382279D01*
X146791047Y-106794756D01*
X146951988Y-107183302D01*
X147185637Y-107532983D01*
X147483017Y-107830363D01*
X147832698Y-108064012D01*
X148221244Y-108224953D01*
X148633721Y-108307000D01*
X149054279Y-108307000D01*
X149466756Y-108224953D01*
X149855302Y-108064012D01*
X150204983Y-107830363D01*
X150502363Y-107532983D01*
X150736012Y-107183302D01*
X150896953Y-106794756D01*
X150979000Y-106382279D01*
X150979000Y-105961721D01*
X150942828Y-105779872D01*
X167765000Y-105779872D01*
X167765000Y-106220128D01*
X167850890Y-106651925D01*
X168019369Y-107058669D01*
X168263962Y-107424729D01*
X168575271Y-107736038D01*
X168941331Y-107980631D01*
X169348075Y-108149110D01*
X169779872Y-108235000D01*
X170220128Y-108235000D01*
X170651925Y-108149110D01*
X171058669Y-107980631D01*
X171424729Y-107736038D01*
X171736038Y-107424729D01*
X171980631Y-107058669D01*
X172149110Y-106651925D01*
X172235000Y-106220128D01*
X172235000Y-105779872D01*
X172149110Y-105348075D01*
X171980631Y-104941331D01*
X171736038Y-104575271D01*
X171424729Y-104263962D01*
X171058669Y-104019369D01*
X170651925Y-103850890D01*
X170220128Y-103765000D01*
X169779872Y-103765000D01*
X169348075Y-103850890D01*
X168941331Y-104019369D01*
X168575271Y-104263962D01*
X168263962Y-104575271D01*
X168019369Y-104941331D01*
X167850890Y-105348075D01*
X167765000Y-105779872D01*
X150942828Y-105779872D01*
X150896953Y-105549244D01*
X150736012Y-105160698D01*
X150502363Y-104811017D01*
X150204983Y-104513637D01*
X149855302Y-104279988D01*
X149466756Y-104119047D01*
X149054279Y-104037000D01*
X148633721Y-104037000D01*
X148221244Y-104119047D01*
X147832698Y-104279988D01*
X147483017Y-104513637D01*
X147185637Y-104811017D01*
X146951988Y-105160698D01*
X146791047Y-105549244D01*
X146709000Y-105961721D01*
X132235000Y-105961721D01*
X132235000Y-105779872D01*
X132149110Y-105348075D01*
X131980631Y-104941331D01*
X131736038Y-104575271D01*
X131424729Y-104263962D01*
X131058669Y-104019369D01*
X130651925Y-103850890D01*
X130220128Y-103765000D01*
X129779872Y-103765000D01*
X129348075Y-103850890D01*
X128941331Y-104019369D01*
X128575271Y-104263962D01*
X128263962Y-104575271D01*
X128019369Y-104941331D01*
X127850890Y-105348075D01*
X127765000Y-105779872D01*
X127127000Y-105779872D01*
X127127000Y-85127000D01*
X127190000Y-85127000D01*
X127190000Y-99377000D01*
X127279818Y-100034940D01*
X127496268Y-100662716D01*
X127831032Y-101236202D01*
X128271245Y-101733359D01*
X128799990Y-102135082D01*
X129396948Y-102425933D01*
X129920406Y-102571104D01*
X130448000Y-102473749D01*
X130448000Y-85127000D01*
X130702000Y-85127000D01*
X130702000Y-102473749D01*
X131229594Y-102571104D01*
X131753052Y-102425933D01*
X132350010Y-102135082D01*
X132878755Y-101733359D01*
X133318968Y-101236202D01*
X133653732Y-100662716D01*
X133870182Y-100034940D01*
X133960000Y-99377000D01*
X133960000Y-85127000D01*
X130702000Y-85127000D01*
X130448000Y-85127000D01*
X127190000Y-85127000D01*
X127127000Y-85127000D01*
X127127000Y-70623000D01*
X127190000Y-70623000D01*
X127190000Y-84873000D01*
X130448000Y-84873000D01*
X130448000Y-67526251D01*
X130702000Y-67526251D01*
X130702000Y-84873000D01*
X133960000Y-84873000D01*
X133960000Y-77807911D01*
X138665000Y-77807911D01*
X138665000Y-77992089D01*
X138700932Y-78172729D01*
X138771414Y-78342889D01*
X138840001Y-78445537D01*
X138840000Y-87562678D01*
X138836324Y-87600000D01*
X138840000Y-87637322D01*
X138840000Y-87637332D01*
X138850997Y-87748985D01*
X138883606Y-87856485D01*
X138894454Y-87892246D01*
X138965026Y-88024276D01*
X138972369Y-88033223D01*
X139059999Y-88140001D01*
X139089002Y-88163803D01*
X139426847Y-88501649D01*
X139450932Y-88622729D01*
X139521414Y-88792889D01*
X139623738Y-88946028D01*
X139753972Y-89076262D01*
X139907111Y-89178586D01*
X140077271Y-89249068D01*
X140257911Y-89285000D01*
X140442089Y-89285000D01*
X140622729Y-89249068D01*
X140792889Y-89178586D01*
X140946028Y-89076262D01*
X141076262Y-88946028D01*
X141178586Y-88792889D01*
X141249068Y-88622729D01*
X141263628Y-88549532D01*
X141307111Y-88578586D01*
X141365000Y-88602564D01*
X141365000Y-101600000D01*
X141377201Y-101723882D01*
X141413336Y-101843004D01*
X141472017Y-101952787D01*
X141550987Y-102049013D01*
X141647213Y-102127983D01*
X141756996Y-102186664D01*
X141876118Y-102222799D01*
X142000000Y-102235000D01*
X147600000Y-102235000D01*
X147723882Y-102222799D01*
X147843004Y-102186664D01*
X147952787Y-102127983D01*
X148049013Y-102049013D01*
X148127983Y-101952787D01*
X148186664Y-101843004D01*
X148222799Y-101723882D01*
X148235000Y-101600000D01*
X148235000Y-82400000D01*
X148222799Y-82276118D01*
X148186664Y-82156996D01*
X148127983Y-82047213D01*
X148049013Y-81950987D01*
X147952787Y-81872017D01*
X147843004Y-81813336D01*
X147723882Y-81777201D01*
X147600000Y-81765000D01*
X142000000Y-81765000D01*
X141876118Y-81777201D01*
X141756996Y-81813336D01*
X141647213Y-81872017D01*
X141550987Y-81950987D01*
X141472017Y-82047213D01*
X141413336Y-82156996D01*
X141377201Y-82276118D01*
X141365000Y-82400000D01*
X141365000Y-86897436D01*
X141307111Y-86921414D01*
X141153972Y-87023738D01*
X141023738Y-87153972D01*
X140921414Y-87307111D01*
X140850932Y-87477271D01*
X140836372Y-87550468D01*
X140792889Y-87521414D01*
X140622729Y-87450932D01*
X140501649Y-87426847D01*
X140360000Y-87285199D01*
X140360000Y-78445535D01*
X140428586Y-78342889D01*
X140499068Y-78172729D01*
X140535000Y-77992089D01*
X140535000Y-77915411D01*
X152428500Y-77915411D01*
X152428500Y-78099589D01*
X152464432Y-78280229D01*
X152534914Y-78450389D01*
X152603501Y-78553037D01*
X152603500Y-87670178D01*
X152599824Y-87707500D01*
X152603500Y-87744822D01*
X152603500Y-87744832D01*
X152614497Y-87856485D01*
X152657954Y-87999746D01*
X152728526Y-88131776D01*
X152756000Y-88165253D01*
X152823499Y-88247501D01*
X152852502Y-88271303D01*
X153190347Y-88609149D01*
X153214432Y-88730229D01*
X153284914Y-88900389D01*
X153387238Y-89053528D01*
X153517472Y-89183762D01*
X153670611Y-89286086D01*
X153840771Y-89356568D01*
X154021411Y-89392500D01*
X154205589Y-89392500D01*
X154386229Y-89356568D01*
X154556389Y-89286086D01*
X154709528Y-89183762D01*
X154839762Y-89053528D01*
X154942086Y-88900389D01*
X155012568Y-88730229D01*
X155048500Y-88549589D01*
X155048500Y-88365411D01*
X155012568Y-88184771D01*
X154942086Y-88014611D01*
X154839762Y-87861472D01*
X154709528Y-87731238D01*
X154556389Y-87628914D01*
X154386229Y-87558432D01*
X154265149Y-87534347D01*
X154123500Y-87392699D01*
X154123500Y-82507500D01*
X155128500Y-82507500D01*
X155128500Y-101707500D01*
X155140701Y-101831382D01*
X155176836Y-101950504D01*
X155235517Y-102060287D01*
X155314487Y-102156513D01*
X155410713Y-102235483D01*
X155520496Y-102294164D01*
X155639618Y-102330299D01*
X155763500Y-102342500D01*
X161363500Y-102342500D01*
X161487382Y-102330299D01*
X161606504Y-102294164D01*
X161716287Y-102235483D01*
X161812513Y-102156513D01*
X161891483Y-102060287D01*
X161950164Y-101950504D01*
X161986299Y-101831382D01*
X161998500Y-101707500D01*
X161998500Y-82507500D01*
X161986299Y-82383618D01*
X161950164Y-82264496D01*
X161891483Y-82154713D01*
X161812513Y-82058487D01*
X161716287Y-81979517D01*
X161606504Y-81920836D01*
X161487382Y-81884701D01*
X161363500Y-81872500D01*
X155763500Y-81872500D01*
X155639618Y-81884701D01*
X155520496Y-81920836D01*
X155410713Y-81979517D01*
X155314487Y-82058487D01*
X155235517Y-82154713D01*
X155176836Y-82264496D01*
X155140701Y-82383618D01*
X155128500Y-82507500D01*
X154123500Y-82507500D01*
X154123500Y-78553035D01*
X154192086Y-78450389D01*
X154262568Y-78280229D01*
X154298500Y-78099589D01*
X154298500Y-77915411D01*
X154262568Y-77734771D01*
X154192086Y-77564611D01*
X154089762Y-77411472D01*
X153959528Y-77281238D01*
X153806389Y-77178914D01*
X153636229Y-77108432D01*
X153455589Y-77072500D01*
X153271411Y-77072500D01*
X153090771Y-77108432D01*
X152920611Y-77178914D01*
X152767472Y-77281238D01*
X152637238Y-77411472D01*
X152534914Y-77564611D01*
X152464432Y-77734771D01*
X152428500Y-77915411D01*
X140535000Y-77915411D01*
X140535000Y-77807911D01*
X140499068Y-77627271D01*
X140428586Y-77457111D01*
X140326262Y-77303972D01*
X140196028Y-77173738D01*
X140042889Y-77071414D01*
X139872729Y-77000932D01*
X139692089Y-76965000D01*
X139507911Y-76965000D01*
X139327271Y-77000932D01*
X139157111Y-77071414D01*
X139003972Y-77173738D01*
X138873738Y-77303972D01*
X138771414Y-77457111D01*
X138700932Y-77627271D01*
X138665000Y-77807911D01*
X133960000Y-77807911D01*
X133960000Y-75405653D01*
X138641952Y-75405653D01*
X138797962Y-75721214D01*
X139172745Y-75912020D01*
X139577551Y-76026044D01*
X139996824Y-76058902D01*
X140414451Y-76009334D01*
X140814383Y-75879243D01*
X141110038Y-75721214D01*
X141266048Y-75405653D01*
X139954000Y-74093605D01*
X138641952Y-75405653D01*
X133960000Y-75405653D01*
X133960000Y-72178824D01*
X134507098Y-72178824D01*
X134556666Y-72596451D01*
X134686757Y-72996383D01*
X134844786Y-73292038D01*
X135160347Y-73448048D01*
X136472395Y-72136000D01*
X135160347Y-70823952D01*
X134844786Y-70979962D01*
X134653980Y-71354745D01*
X134539956Y-71759551D01*
X134507098Y-72178824D01*
X133960000Y-72178824D01*
X133960000Y-70644347D01*
X135339952Y-70644347D01*
X136652000Y-71956395D01*
X136666143Y-71942253D01*
X136845748Y-72121858D01*
X136831605Y-72136000D01*
X136845748Y-72150143D01*
X136666143Y-72329748D01*
X136652000Y-72315605D01*
X135339952Y-73627653D01*
X135495962Y-73943214D01*
X135870745Y-74134020D01*
X136275551Y-74248044D01*
X136694824Y-74280902D01*
X137112451Y-74231334D01*
X137512383Y-74101243D01*
X137808038Y-73943214D01*
X137810565Y-73938102D01*
X137809098Y-73956824D01*
X137858666Y-74374451D01*
X137988757Y-74774383D01*
X138146786Y-75070038D01*
X138462347Y-75226048D01*
X139774395Y-73914000D01*
X140133605Y-73914000D01*
X141445653Y-75226048D01*
X141761214Y-75070038D01*
X141952020Y-74695255D01*
X142066044Y-74290449D01*
X142098902Y-73871176D01*
X142049334Y-73453549D01*
X141919243Y-73053617D01*
X141761214Y-72757962D01*
X141445653Y-72601952D01*
X140133605Y-73914000D01*
X139774395Y-73914000D01*
X139760253Y-73899858D01*
X139939858Y-73720253D01*
X139954000Y-73734395D01*
X141266048Y-72422347D01*
X141110038Y-72106786D01*
X140922639Y-72011379D01*
X141110038Y-71911214D01*
X141266048Y-71595653D01*
X139954000Y-70283605D01*
X139939858Y-70297748D01*
X139760253Y-70118143D01*
X139774395Y-70104000D01*
X140133605Y-70104000D01*
X141445653Y-71416048D01*
X141761214Y-71260038D01*
X141952020Y-70885255D01*
X142036956Y-70583714D01*
X166040000Y-70583714D01*
X166040001Y-99416287D01*
X166088980Y-99913576D01*
X166282537Y-100551651D01*
X166596859Y-101139704D01*
X167019864Y-101655137D01*
X167535297Y-102078142D01*
X168123350Y-102392464D01*
X168761425Y-102586021D01*
X169425000Y-102651378D01*
X170088576Y-102586021D01*
X170726651Y-102392464D01*
X171314704Y-102078142D01*
X171830137Y-101655137D01*
X172253142Y-101139704D01*
X172567464Y-100551651D01*
X172761021Y-99913576D01*
X172810000Y-99416287D01*
X172810000Y-70583713D01*
X172761021Y-70086424D01*
X172567464Y-69448349D01*
X172253142Y-68860296D01*
X171830137Y-68344863D01*
X171314703Y-67921858D01*
X170726650Y-67607536D01*
X170088575Y-67413979D01*
X169425000Y-67348622D01*
X168761424Y-67413979D01*
X168123349Y-67607536D01*
X167535296Y-67921858D01*
X167019863Y-68344863D01*
X166596858Y-68860297D01*
X166282536Y-69448350D01*
X166088979Y-70086425D01*
X166040000Y-70583714D01*
X142036956Y-70583714D01*
X142066044Y-70480449D01*
X142098902Y-70061176D01*
X142049334Y-69643549D01*
X141919243Y-69243617D01*
X141761214Y-68947962D01*
X141445653Y-68791952D01*
X140133605Y-70104000D01*
X139774395Y-70104000D01*
X138462347Y-68791952D01*
X138146786Y-68947962D01*
X137955980Y-69322745D01*
X137841956Y-69727551D01*
X137809098Y-70146824D01*
X137837853Y-70389092D01*
X137808038Y-70328786D01*
X137433255Y-70137980D01*
X137028449Y-70023956D01*
X136609176Y-69991098D01*
X136191549Y-70040666D01*
X135791617Y-70170757D01*
X135495962Y-70328786D01*
X135339952Y-70644347D01*
X133960000Y-70644347D01*
X133960000Y-70623000D01*
X133870182Y-69965060D01*
X133653732Y-69337284D01*
X133318968Y-68763798D01*
X133184865Y-68612347D01*
X138641952Y-68612347D01*
X139954000Y-69924395D01*
X141266048Y-68612347D01*
X141110038Y-68296786D01*
X140735255Y-68105980D01*
X140330449Y-67991956D01*
X139911176Y-67959098D01*
X139493549Y-68008666D01*
X139093617Y-68138757D01*
X138797962Y-68296786D01*
X138641952Y-68612347D01*
X133184865Y-68612347D01*
X132878755Y-68266641D01*
X132350010Y-67864918D01*
X131753052Y-67574067D01*
X131229594Y-67428896D01*
X130702000Y-67526251D01*
X130448000Y-67526251D01*
X129920406Y-67428896D01*
X129396948Y-67574067D01*
X128799990Y-67864918D01*
X128271245Y-68266641D01*
X127831032Y-68763798D01*
X127496268Y-69337284D01*
X127279818Y-69965060D01*
X127190000Y-70623000D01*
X127127000Y-70623000D01*
X127127000Y-63779872D01*
X127765000Y-63779872D01*
X127765000Y-64220128D01*
X127850890Y-64651925D01*
X128019369Y-65058669D01*
X128263962Y-65424729D01*
X128575271Y-65736038D01*
X128941331Y-65980631D01*
X129348075Y-66149110D01*
X129779872Y-66235000D01*
X130220128Y-66235000D01*
X130651925Y-66149110D01*
X131058669Y-65980631D01*
X131424729Y-65736038D01*
X131736038Y-65424729D01*
X131974582Y-65067721D01*
X134517000Y-65067721D01*
X134517000Y-65488279D01*
X134599047Y-65900756D01*
X134759988Y-66289302D01*
X134993637Y-66638983D01*
X135291017Y-66936363D01*
X135640698Y-67170012D01*
X136029244Y-67330953D01*
X136441721Y-67413000D01*
X136862279Y-67413000D01*
X137274756Y-67330953D01*
X137663302Y-67170012D01*
X138012983Y-66936363D01*
X138310363Y-66638983D01*
X138544012Y-66289302D01*
X138604636Y-66142941D01*
X143349395Y-66142941D01*
X143349395Y-66327119D01*
X143385327Y-66507759D01*
X143455809Y-66677919D01*
X143558133Y-66831058D01*
X143688367Y-66961292D01*
X143841506Y-67063616D01*
X144011666Y-67134098D01*
X144192306Y-67170030D01*
X144376484Y-67170030D01*
X144557124Y-67134098D01*
X144727284Y-67063616D01*
X144880423Y-66961292D01*
X145010657Y-66831058D01*
X145112981Y-66677919D01*
X145183463Y-66507759D01*
X145219395Y-66327119D01*
X145219395Y-66142941D01*
X145183463Y-65962301D01*
X145112981Y-65792141D01*
X145044395Y-65689495D01*
X145044395Y-63841857D01*
X145116229Y-63827568D01*
X145286389Y-63757086D01*
X145439528Y-63654762D01*
X145569762Y-63524528D01*
X145672086Y-63371389D01*
X145742568Y-63201229D01*
X145778500Y-63020589D01*
X145778500Y-62836411D01*
X145742568Y-62655771D01*
X145672086Y-62485611D01*
X145569762Y-62332472D01*
X145445201Y-62207911D01*
X160565000Y-62207911D01*
X160565000Y-62392089D01*
X160600932Y-62572729D01*
X160671414Y-62742889D01*
X160740000Y-62845536D01*
X160740001Y-68081168D01*
X160736324Y-68118500D01*
X160750998Y-68267485D01*
X160794454Y-68410746D01*
X160865026Y-68542776D01*
X160919387Y-68609014D01*
X160960000Y-68658501D01*
X160988998Y-68682299D01*
X161216347Y-68909649D01*
X161240432Y-69030729D01*
X161310914Y-69200889D01*
X161413238Y-69354028D01*
X161543472Y-69484262D01*
X161696611Y-69586586D01*
X161866771Y-69657068D01*
X162047411Y-69693000D01*
X162231589Y-69693000D01*
X162412229Y-69657068D01*
X162582389Y-69586586D01*
X162735528Y-69484262D01*
X162865762Y-69354028D01*
X162968086Y-69200889D01*
X163038568Y-69030729D01*
X163074500Y-68850089D01*
X163074500Y-68665911D01*
X163038568Y-68485271D01*
X162968086Y-68315111D01*
X162865762Y-68161972D01*
X162735528Y-68031738D01*
X162582389Y-67929414D01*
X162412229Y-67858932D01*
X162291149Y-67834847D01*
X162260000Y-67803699D01*
X162260000Y-63779872D01*
X167765000Y-63779872D01*
X167765000Y-64220128D01*
X167850890Y-64651925D01*
X168019369Y-65058669D01*
X168263962Y-65424729D01*
X168575271Y-65736038D01*
X168941331Y-65980631D01*
X169348075Y-66149110D01*
X169779872Y-66235000D01*
X170220128Y-66235000D01*
X170651925Y-66149110D01*
X171058669Y-65980631D01*
X171424729Y-65736038D01*
X171736038Y-65424729D01*
X171980631Y-65058669D01*
X172149110Y-64651925D01*
X172235000Y-64220128D01*
X172235000Y-63779872D01*
X172149110Y-63348075D01*
X171980631Y-62941331D01*
X171736038Y-62575271D01*
X171424729Y-62263962D01*
X171058669Y-62019369D01*
X170651925Y-61850890D01*
X170220128Y-61765000D01*
X169779872Y-61765000D01*
X169348075Y-61850890D01*
X168941331Y-62019369D01*
X168575271Y-62263962D01*
X168263962Y-62575271D01*
X168019369Y-62941331D01*
X167850890Y-63348075D01*
X167765000Y-63779872D01*
X162260000Y-63779872D01*
X162260000Y-62845535D01*
X162328586Y-62742889D01*
X162399068Y-62572729D01*
X162435000Y-62392089D01*
X162435000Y-62207911D01*
X162399068Y-62027271D01*
X162328586Y-61857111D01*
X162226262Y-61703972D01*
X162096028Y-61573738D01*
X161942889Y-61471414D01*
X161772729Y-61400932D01*
X161592089Y-61365000D01*
X161407911Y-61365000D01*
X161227271Y-61400932D01*
X161057111Y-61471414D01*
X160903972Y-61573738D01*
X160773738Y-61703972D01*
X160671414Y-61857111D01*
X160600932Y-62027271D01*
X160565000Y-62207911D01*
X145445201Y-62207911D01*
X145439528Y-62202238D01*
X145286389Y-62099914D01*
X145116229Y-62029432D01*
X144935589Y-61993500D01*
X144751411Y-61993500D01*
X144570771Y-62029432D01*
X144400611Y-62099914D01*
X144247472Y-62202238D01*
X144117238Y-62332472D01*
X144014914Y-62485611D01*
X143944432Y-62655771D01*
X143920347Y-62776851D01*
X143773393Y-62923806D01*
X143744395Y-62947604D01*
X143720597Y-62976602D01*
X143720596Y-62976603D01*
X143649421Y-63063329D01*
X143578849Y-63195359D01*
X143535393Y-63338620D01*
X143520719Y-63487605D01*
X143524396Y-63524937D01*
X143524395Y-65689494D01*
X143455809Y-65792141D01*
X143385327Y-65962301D01*
X143349395Y-66142941D01*
X138604636Y-66142941D01*
X138704953Y-65900756D01*
X138787000Y-65488279D01*
X138787000Y-65067721D01*
X138704953Y-64655244D01*
X138544012Y-64266698D01*
X138310363Y-63917017D01*
X138012983Y-63619637D01*
X137663302Y-63385988D01*
X137274756Y-63225047D01*
X136862279Y-63143000D01*
X136441721Y-63143000D01*
X136029244Y-63225047D01*
X135640698Y-63385988D01*
X135291017Y-63619637D01*
X134993637Y-63917017D01*
X134759988Y-64266698D01*
X134599047Y-64655244D01*
X134517000Y-65067721D01*
X131974582Y-65067721D01*
X131980631Y-65058669D01*
X132149110Y-64651925D01*
X132235000Y-64220128D01*
X132235000Y-63779872D01*
X132149110Y-63348075D01*
X131980631Y-62941331D01*
X131736038Y-62575271D01*
X131424729Y-62263962D01*
X131058669Y-62019369D01*
X130651925Y-61850890D01*
X130220128Y-61765000D01*
X129779872Y-61765000D01*
X129348075Y-61850890D01*
X128941331Y-62019369D01*
X128575271Y-62263962D01*
X128263962Y-62575271D01*
X128019369Y-62941331D01*
X127850890Y-63348075D01*
X127765000Y-63779872D01*
X127127000Y-63779872D01*
X127127000Y-58463721D01*
X134517000Y-58463721D01*
X134517000Y-58884279D01*
X134599047Y-59296756D01*
X134759988Y-59685302D01*
X134993637Y-60034983D01*
X135291017Y-60332363D01*
X135640698Y-60566012D01*
X136029244Y-60726953D01*
X136441721Y-60809000D01*
X136862279Y-60809000D01*
X137274756Y-60726953D01*
X137663302Y-60566012D01*
X138012983Y-60332363D01*
X138310363Y-60034983D01*
X138544012Y-59685302D01*
X138704953Y-59296756D01*
X138787000Y-58884279D01*
X138787000Y-58463721D01*
X138704953Y-58051244D01*
X138544012Y-57662698D01*
X138310363Y-57313017D01*
X138012983Y-57015637D01*
X137663302Y-56781988D01*
X137274756Y-56621047D01*
X136862279Y-56539000D01*
X136441721Y-56539000D01*
X136029244Y-56621047D01*
X135640698Y-56781988D01*
X135291017Y-57015637D01*
X134993637Y-57313017D01*
X134759988Y-57662698D01*
X134599047Y-58051244D01*
X134517000Y-58463721D01*
X127127000Y-58463721D01*
X127127000Y-56127000D01*
X152856198Y-56127000D01*
X151831199Y-57152000D01*
G37*
%TD.AperFunction*%
%TD*%
D14*
%TO.N,Net-(C4-Pad1)*%
X147473000Y-101473000D02*
X142127000Y-101473000D01*
X142127000Y-88605878D01*
X142192889Y-88578586D01*
X142346028Y-88476262D01*
X142476262Y-88346028D01*
X142578586Y-88192889D01*
X142649068Y-88022729D01*
X142685000Y-87842089D01*
X142685000Y-87657911D01*
X142649068Y-87477271D01*
X142610373Y-87383853D01*
X142656889Y-87364586D01*
X142810028Y-87262262D01*
X142940262Y-87132028D01*
X143042586Y-86978889D01*
X143113068Y-86808729D01*
X143149000Y-86628089D01*
X143149000Y-86443911D01*
X143113068Y-86263271D01*
X143096757Y-86223893D01*
X143101699Y-86220591D01*
X143231933Y-86090357D01*
X143334257Y-85937218D01*
X143404739Y-85767058D01*
X143440671Y-85586418D01*
X143440671Y-85402240D01*
X143404739Y-85221600D01*
X143334257Y-85051440D01*
X143296097Y-84994329D01*
X143334257Y-84937218D01*
X143404739Y-84767058D01*
X143440671Y-84586418D01*
X143440671Y-84402240D01*
X143404739Y-84221600D01*
X143334257Y-84051440D01*
X143231933Y-83898301D01*
X143101699Y-83768067D01*
X142948560Y-83665743D01*
X142778400Y-83595261D01*
X142597760Y-83559329D01*
X142413582Y-83559329D01*
X142232942Y-83595261D01*
X142127000Y-83639143D01*
X142127000Y-82527000D01*
X147473000Y-82527000D01*
X147473000Y-101473000D01*
%TA.AperFunction,Conductor*%
D15*
G36*
X147473000Y-101473000D02*
G01*
X142127000Y-101473000D01*
X142127000Y-88605878D01*
X142192889Y-88578586D01*
X142346028Y-88476262D01*
X142476262Y-88346028D01*
X142578586Y-88192889D01*
X142649068Y-88022729D01*
X142685000Y-87842089D01*
X142685000Y-87657911D01*
X142649068Y-87477271D01*
X142610373Y-87383853D01*
X142656889Y-87364586D01*
X142810028Y-87262262D01*
X142940262Y-87132028D01*
X143042586Y-86978889D01*
X143113068Y-86808729D01*
X143149000Y-86628089D01*
X143149000Y-86443911D01*
X143113068Y-86263271D01*
X143096757Y-86223893D01*
X143101699Y-86220591D01*
X143231933Y-86090357D01*
X143334257Y-85937218D01*
X143404739Y-85767058D01*
X143440671Y-85586418D01*
X143440671Y-85402240D01*
X143404739Y-85221600D01*
X143334257Y-85051440D01*
X143296097Y-84994329D01*
X143334257Y-84937218D01*
X143404739Y-84767058D01*
X143440671Y-84586418D01*
X143440671Y-84402240D01*
X143404739Y-84221600D01*
X143334257Y-84051440D01*
X143231933Y-83898301D01*
X143101699Y-83768067D01*
X142948560Y-83665743D01*
X142778400Y-83595261D01*
X142597760Y-83559329D01*
X142413582Y-83559329D01*
X142232942Y-83595261D01*
X142127000Y-83639143D01*
X142127000Y-82527000D01*
X147473000Y-82527000D01*
X147473000Y-101473000D01*
G37*
%TD.AperFunction*%
%TD*%
D14*
%TO.N,Net-(C14-Pad1)*%
X161236500Y-101580500D02*
X155890500Y-101580500D01*
X155890500Y-86336015D01*
X155996442Y-86379897D01*
X156177082Y-86415829D01*
X156361260Y-86415829D01*
X156541900Y-86379897D01*
X156712060Y-86309415D01*
X156865199Y-86207091D01*
X156995433Y-86076857D01*
X157097757Y-85923718D01*
X157168239Y-85753558D01*
X157204171Y-85572918D01*
X157204171Y-85388740D01*
X157168239Y-85208100D01*
X157125877Y-85105829D01*
X157168239Y-85003558D01*
X157204171Y-84822918D01*
X157204171Y-84638740D01*
X157168239Y-84458100D01*
X157097757Y-84287940D01*
X156995433Y-84134801D01*
X156865199Y-84004567D01*
X156712060Y-83902243D01*
X156541900Y-83831761D01*
X156361260Y-83795829D01*
X156177082Y-83795829D01*
X155996442Y-83831761D01*
X155890500Y-83875643D01*
X155890500Y-82634500D01*
X161236500Y-82634500D01*
X161236500Y-101580500D01*
%TA.AperFunction,Conductor*%
D15*
G36*
X161236500Y-101580500D02*
G01*
X155890500Y-101580500D01*
X155890500Y-86336015D01*
X155996442Y-86379897D01*
X156177082Y-86415829D01*
X156361260Y-86415829D01*
X156541900Y-86379897D01*
X156712060Y-86309415D01*
X156865199Y-86207091D01*
X156995433Y-86076857D01*
X157097757Y-85923718D01*
X157168239Y-85753558D01*
X157204171Y-85572918D01*
X157204171Y-85388740D01*
X157168239Y-85208100D01*
X157125877Y-85105829D01*
X157168239Y-85003558D01*
X157204171Y-84822918D01*
X157204171Y-84638740D01*
X157168239Y-84458100D01*
X157097757Y-84287940D01*
X156995433Y-84134801D01*
X156865199Y-84004567D01*
X156712060Y-83902243D01*
X156541900Y-83831761D01*
X156361260Y-83795829D01*
X156177082Y-83795829D01*
X155996442Y-83831761D01*
X155890500Y-83875643D01*
X155890500Y-82634500D01*
X161236500Y-82634500D01*
X161236500Y-101580500D01*
G37*
%TD.AperFunction*%
%TD*%
M02*
